;TYPE=PLATED
;Layer: PTH_Through
;EasyEDA Pro v2.2.45.4, 2026-01-19 10:00:02
;Gerber Generator version 0.3
M48
METRIC,LZ,0000.00000
;Hole size 1 = 0.30500 METRIC
T01C0.30500
;Hole size 2 = 0.80000 METRIC
T02C0.80000
;Hole size 3 = 0.84999 METRIC
T03C0.84999
;Hole size 4 = 1.00000 METRIC
T04C1.00000
;Hole size 5 = 1.10002 METRIC
T05C1.10002
;Hole size 6 = 1.20000 METRIC
T06C1.20000
%
G05
G90
T01
X22.85136Y-25.4
X48.768Y-15.8877
X46.09236Y-26.416
X48.12436Y-23.876
X45.53102Y-14.986
X47.81702Y-15.748
X26.98902Y-8.636
X41.66464Y-36.703
X45.47464Y-35.687
X51.546Y-26.22296
X49.514Y-24.19096
X46.609Y-18.42364
X48.387Y-14.61364
X27.95295Y-28.82405
X30.21305Y-34.41205
X25.38705Y-39.23805
X24.27453Y-43.90657
X34.02305Y-9.26605
X36.56305Y-9.26605
X22.94296Y-19.77205
X22.68532Y-23.37204
X23.12264Y-35.80933
X46.21505Y-14.60005
X46.21505Y-11.29805
X28.46095Y-40.25405
X33.40506Y-46.09605
X33.28695Y-9.52005
X27.44495Y-40.25405
X32.01695Y-46.09605
X30.49295Y-9.26605
X25.41295Y-21.55114
X22.61895Y-24.59914
X22.23399Y-37.03211
X44.43395Y-26.38842
X50.546Y-22.7203
X46.482Y-22.352
X52.578Y-19.685
X42.418Y-14.478
X47.498Y-10.922
X34.671Y-43.18
X31.75Y-38.989
X18.288Y-26.416
X19.685Y-29.845
X22.733Y-31.75
X29.972Y-24.257
X25.273Y-13.462
X27.305Y-13.716
X27.686Y-22.606
T02
X37.21796Y-52.21227G85X37.21796Y-52.81226
X37.21796Y-47.93235G85X37.21796Y-48.73233
X28.56804Y-47.93235G85X28.56804Y-48.73238
X28.56804Y-52.21227G85X28.56804Y-52.81226
T03
X17.542Y-8.509
X19.542Y-8.509
T04
X48.22Y-52.13713
X45.72Y-52.13713
X43.22001Y-52.13713
X26.66215Y5.07592G85X26.66215Y6.57592
X38.36208Y5.07592G85X38.36208Y6.57592
X36.01212Y3.826
X33.51212Y3.826
X31.51213Y3.826
X29.01213Y3.826
T05
X28.829Y-7.112
X31.369Y-7.112
X33.909Y-7.112
X36.449Y-7.112
T06
X40.67Y-44.63705G85X41.27Y-44.63705
X50.17Y-44.63705G85X50.77Y-44.63705
M30