;TYPE=PLATED
;Layer: PTH_Through_Via
;EasyEDA Pro v2.2.45.4, 2026-01-30 15:44:46
;Gerber Generator version 0.3
M48
METRIC,LZ,0000.00000
;Hole size 1 = 0.30480 METRIC
T01C0.30480
;Hole size 2 = 0.30500 METRIC
T02C0.30500
%
G05
G90
T01
X47.05415Y-23.70717
X47.05415Y-22.70717
X45.05441Y-23.70691
X45.05441Y-22.70717
X47.05415Y-24.70716
X45.05415Y-24.70716
X46.05415Y-23.70717
X46.05466Y-24.70666
X46.05415Y-22.70717
T02
X44.196Y-17.78
X48.006Y-28.575
X46.92528Y-17.78
X52.76096Y-21.971
X46.736Y-19.304
X59.563Y-26.924
X63.246Y-20.32
X59.69Y-28.067
X50.8Y-26.035
X54.991Y-26.162
X48.641Y-25.4
X54.991Y-29.591
X48.26Y-26.162
X55.118Y-27.051
X60.96Y-22.352
X30.226Y-48.133
X29.21Y-46.355
X45.72Y-55.753
X43.561Y-55.245
X36.322Y-28.067
X54.356Y-44.069
X24.511Y-46.101
X26.797Y-46.355
X38.735Y-20.574
X41.293Y-22.352
X56.896Y0.889
X33.4332Y-25.146
X51.181Y-19.939
X44.831Y-32.639
X43.053Y-30.48
X49.911Y-34.036
X41.166Y-23.114
X50.419Y-8.763
X43.942Y-36.449
X48.768Y-34.925
X62.611Y-16.129
X53.848Y-10.033
X46.101Y-8.128
X38.989Y-8.255
X41.435Y-25.967
X42.164Y-20.32
X40.132Y-10.414
X40.894Y-12.954
X39.9542Y-13.843
X54.864Y-45.212
X39.243Y-33.909
X40.02007Y-32.24293
X42.926Y-31.877
X47.244Y-47.371
X41.05349Y-25.273
X46.228Y-55.118
X47.27595Y-55.08605
X38.989Y-13.081
X40.005Y-38.989
X35.941Y-45.847
X41.148Y-38.862
X39.751Y-36.449
X34.3539Y-36.3851
X32.20617Y-33.27237
X48.768Y-9.525
X41.656Y-14.478
X38.989Y-23.622
X36.195Y-12.954
X39.9542Y-0.39074
X37.465Y1.016
X52.832Y-1.778
X37.592Y-25.908
X35.59195Y-27.46395
X45.085Y-21.209
X37.465Y-24.638
X31.496Y-18.034
X48.006Y-11.176
X43.43598Y-25.76633
X37.338Y-29.591
X35.1536Y-29.4132
X32.893Y-27.813
X42.88364Y-26.89086
X37.973Y-30.353
X35.052Y-30.226
X32.766Y-28.575
X21.463Y-49.276
X38.989Y3.937
X43.84819Y-26.42976
X38.735Y-30.988
X36.449Y-31.115
X32.76604Y-25.55433
X29.972Y-21.717
X45.18961Y-26.32597
X39.37Y-31.75
X36.576Y-32.004
X32.21913Y-29.21327
X25.273Y-49.276
X24.511Y-49.276
X29.845Y-32.639
X31.90895Y-34.76605
X35.179Y-36.83
X37.719Y-36.83
X37.08684Y-35.57752
X42.418Y-37.084
X55.626Y-36.006
X67.818Y-33.147
X40.259Y-23.05202
X37.084Y-21.844
X39.49649Y-25.44902
X46.92802Y-29.337
X36.068Y-37.338
X36.449Y-38.862
X34.417Y-35.56
X34.163Y-32.766
X32.131Y-27.051
X36.703Y-27.305
X39.497Y-28.448
X47.498Y-26.289
X43.48221Y-23.92421
X45.212Y-10.5349
X42.672Y-9.398
X26.797Y-20.574
X23.749Y-49.276
X25.7175Y-20.5105
X22.987Y-49.276
X22.225Y-49.276
X19.304Y-58.166
X24.765Y-51.435
X25.146Y-53.467
X24.003Y-58.801
X28.067Y-37.592
X25.781Y-38.227
X30.70567Y-37.35737
X29.972Y-34.544
X23.876Y-40.64
M30