G04 Layer: TopSilkscreenLayer*
G04 EasyEDA Pro v2.2.45.4, 2026-01-19 10:00:02*
G04 Gerber Generator version 0.3*
G04 Scale: 100 percent, Rotated: No, Reflected: No*
G04 Dimensions in millimeters*
G04 Leading zeros omitted, absolute positions, 4 integers and 5 decimals*
G04 Generated by one-click*
%FSLAX45Y45*%
%MOMM*%
%ADD10C,0.2032*%
%ADD11C,0.1524*%
%ADD12C,0.6*%
%ADD13C,0.254*%
%ADD14C,0.1016*%
%ADD15C,0.1554*%
%ADD16C,0.15001*%
%ADD17C,0.1*%
%ADD18C,0.15199*%
%ADD19C,0.2*%
G75*


G04 Image Start*
G36*
G01X1498693Y-3368582D02*
G01X1498787Y-3376817D01*
G01X1499130Y-3377196D01*
G01X1499473Y-3377575D01*
G01X1500116Y-3377880D01*
G01X1500759Y-3378185D01*
G01X1515626Y-3378162D01*
G01X1530494Y-3378139D01*
G01X1547932Y-3378147D01*
G01X1565371Y-3378154D01*
G01X1566459Y-3377849D01*
G01X1567547Y-3377544D01*
G01X1567718Y-3377094D01*
G01X1567889Y-3376645D01*
G01X1567889Y-3309429D01*
G01X1567889Y-3242213D01*
G01X1568216Y-3242082D01*
G01X1568542Y-3241951D01*
G01X1596332Y-3241879D01*
G01X1624123Y-3241807D01*
G01X1627729Y-3241789D01*
G01X1631336Y-3241770D01*
G01X1631417Y-3241851D01*
G01X1631498Y-3241933D01*
G01X1631492Y-3309262D01*
G01X1631487Y-3376591D01*
G01X1632064Y-3377376D01*
G01X1632641Y-3378161D01*
G01X1634444Y-3378173D01*
G01X1636246Y-3378185D01*
G01X1644079Y-3378173D01*
G01X1651913Y-3378162D01*
G01X1729316Y-3378181D01*
G01X1806718Y-3378200D01*
G01X1807091Y-3378200D01*
G01X1807464Y-3378200D01*
G01X1819743Y-3378178D01*
G01X1832022Y-3378156D01*
G01X1832824Y-3377791D01*
G01X1833625Y-3377426D01*
G01X1833787Y-3377094D01*
G01X1833949Y-3376762D01*
G01X1833997Y-3308264D01*
G01X1834045Y-3239765D01*
G01X1833656Y-3239403D01*
G01X1833266Y-3239040D01*
G01X1832464Y-3238920D01*
G01X1831661Y-3238799D01*
G01X1830662Y-3238434D01*
G01X1829664Y-3238070D01*
G01X1829279Y-3238070D01*
G01X1828894Y-3238070D01*
G01X1828717Y-3238245D01*
G01X1828540Y-3238421D01*
G01X1826955Y-3238619D01*
G01X1825369Y-3238817D01*
G01X1803268Y-3238816D01*
G01X1781166Y-3238815D01*
G01X1773207Y-3238862D01*
G01X1765249Y-3238909D01*
G01X1764768Y-3239361D01*
G01X1764287Y-3239813D01*
G01X1764287Y-3273638D01*
G01X1764287Y-3307463D01*
G01X1733091Y-3307463D01*
G01X1701895Y-3307463D01*
G01X1701696Y-3307136D01*
G01X1701497Y-3306810D01*
G01X1701637Y-3302239D01*
G01X1701777Y-3297669D01*
G01X1701751Y-3206358D01*
G01X1701726Y-3115046D01*
G01X1701616Y-3110849D01*
G01X1701506Y-3106652D01*
G01X1701578Y-3106558D01*
G01X1701650Y-3106465D01*
G01X1732972Y-3106465D01*
G01X1764295Y-3106465D01*
G01X1764289Y-3139776D01*
G01X1764283Y-3173086D01*
G01X1764491Y-3173683D01*
G01X1764699Y-3174281D01*
G01X1765099Y-3174501D01*
G01X1765499Y-3174721D01*
G01X1767271Y-3174774D01*
G01X1769043Y-3174828D01*
G01X1799910Y-3174836D01*
G01X1830778Y-3174844D01*
G01X1831987Y-3174667D01*
G01X1833196Y-3174490D01*
G01X1833619Y-3173998D01*
G01X1834042Y-3173506D01*
G01X1834042Y-3105066D01*
G01X1834042Y-3036627D01*
G01X1833622Y-3036140D01*
G01X1833203Y-3035654D01*
G01X1832550Y-3035519D01*
G01X1831897Y-3035384D01*
G01X1732366Y-3035388D01*
G01X1632835Y-3035393D01*
G01X1632425Y-3035764D01*
G01X1632015Y-3036135D01*
G01X1631799Y-3036510D01*
G01X1631583Y-3036886D01*
G01X1631490Y-3104320D01*
G01X1631397Y-3171754D01*
G01X1599900Y-3171712D01*
G01X1568403Y-3171669D01*
G01X1568152Y-3171339D01*
G01X1567901Y-3171008D01*
G01X1567895Y-3103634D01*
G01X1567889Y-3036259D01*
G01X1567581Y-3035951D01*
G01X1567272Y-3035642D01*
G01X1566822Y-3035471D01*
G01X1566373Y-3035300D01*
G01X1533512Y-3035300D01*
G01X1500652Y-3035301D01*
G01X1499999Y-3035627D01*
G01X1499346Y-3035953D01*
G01X1499020Y-3036619D01*
G01X1498694Y-3037286D01*
G01X1498692Y-3105130D01*
G01X1498690Y-3172975D01*
G01X1499065Y-3173710D01*
G01X1499440Y-3174445D01*
G01X1500139Y-3174630D01*
G01X1500838Y-3174815D01*
G01X1505314Y-3174868D01*
G01X1509791Y-3174920D01*
G01X1514267Y-3174915D01*
G01X1518743Y-3174909D01*
G01X1535529Y-3174897D01*
G01X1552316Y-3174884D01*
G01X1553435Y-3174905D01*
G01X1554554Y-3174926D01*
G01X1559092Y-3174776D01*
G01X1563631Y-3174626D01*
G01X1563894Y-3174844D01*
G01X1564157Y-3175063D01*
G01X1564519Y-3174968D01*
G01X1564881Y-3174874D01*
G01X1565026Y-3175179D01*
G01X1565171Y-3175485D01*
G01X1565221Y-3203280D01*
G01X1565271Y-3231074D01*
G01X1565478Y-3233466D01*
G01X1565685Y-3235859D01*
G01X1565551Y-3237011D01*
G01X1565418Y-3238163D01*
G01X1565281Y-3238534D01*
G01X1565144Y-3238904D01*
G01X1532991Y-3238853D01*
G01X1500838Y-3238801D01*
G01X1500236Y-3238980D01*
G01X1499634Y-3239160D01*
G01X1499164Y-3239668D01*
G01X1498693Y-3240176D01*
G01X1498691Y-3251947D01*
G01X1498688Y-3263719D01*
G01X1498644Y-3312033D01*
G01X1498600Y-3360347D01*
G01X1498693Y-3368582D01*
G37*
G04 Image End*

G04 Text Start*
G54D10*
G01X4048760Y383286D02*
G01X4048760Y265430D01*
G01X4048760Y383286D02*
G01X4099306Y383286D01*
G01X4116070Y377698D01*
G01X4121658Y372110D01*
G01X4127246Y360934D01*
G01X4127246Y349504D01*
G01X4121658Y338328D01*
G01X4116070Y332740D01*
G01X4099306Y327152D01*
G01X4048760Y327152D02*
G01X4099306Y327152D01*
G01X4116070Y321564D01*
G01X4121658Y315976D01*
G01X4127246Y304546D01*
G01X4127246Y287782D01*
G01X4121658Y276606D01*
G01X4116070Y271018D01*
G01X4099306Y265430D01*
G01X4048760Y265430D01*
G01X4208272Y383286D02*
G01X4197096Y377698D01*
G01X4185666Y366522D01*
G01X4180078Y355092D01*
G01X4174490Y338328D01*
G01X4174490Y310388D01*
G01X4180078Y293370D01*
G01X4185666Y282194D01*
G01X4197096Y271018D01*
G01X4208272Y265430D01*
G01X4230624Y265430D01*
G01X4241800Y271018D01*
G01X4253230Y282194D01*
G01X4258818Y293370D01*
G01X4264406Y310388D01*
G01X4264406Y338328D01*
G01X4258818Y355092D01*
G01X4253230Y366522D01*
G01X4241800Y377698D01*
G01X4230624Y383286D01*
G01X4208272Y383286D01*
G01X4345432Y383286D02*
G01X4334256Y377698D01*
G01X4322826Y366522D01*
G01X4317238Y355092D01*
G01X4311650Y338328D01*
G01X4311650Y310388D01*
G01X4317238Y293370D01*
G01X4322826Y282194D01*
G01X4334256Y271018D01*
G01X4345432Y265430D01*
G01X4367784Y265430D01*
G01X4378960Y271018D01*
G01X4390390Y282194D01*
G01X4395978Y293370D01*
G01X4401566Y310388D01*
G01X4401566Y338328D01*
G01X4395978Y355092D01*
G01X4390390Y366522D01*
G01X4378960Y377698D01*
G01X4367784Y383286D01*
G01X4345432Y383286D01*
G01X4488180Y383286D02*
G01X4488180Y265430D01*
G01X4448810Y383286D02*
G01X4527550Y383286D01*
G01X2042160Y395986D02*
G01X2042160Y278130D01*
G01X2042160Y395986D02*
G01X2092706Y395986D01*
G01X2109470Y390398D01*
G01X2115058Y384810D01*
G01X2120646Y373634D01*
G01X2120646Y362204D01*
G01X2115058Y351028D01*
G01X2109470Y345440D01*
G01X2092706Y339852D01*
G01X2042160Y339852D01*
G01X2081530Y339852D02*
G01X2120646Y278130D01*
G01X2167890Y395986D02*
G01X2167890Y278130D01*
G01X2167890Y395986D02*
G01X2240788Y395986D01*
G01X2167890Y339852D02*
G01X2212848Y339852D01*
G01X2167890Y278130D02*
G01X2240788Y278130D01*
G01X2366772Y379222D02*
G01X2355342Y390398D01*
G01X2338578Y395986D01*
G01X2316226Y395986D01*
G01X2299208Y390398D01*
G01X2288032Y379222D01*
G01X2288032Y367792D01*
G01X2293620Y356616D01*
G01X2299208Y351028D01*
G01X2310638Y345440D01*
G01X2344166Y334264D01*
G01X2355342Y328676D01*
G01X2360930Y323088D01*
G01X2366772Y311658D01*
G01X2366772Y294894D01*
G01X2355342Y283718D01*
G01X2338578Y278130D01*
G01X2316226Y278130D01*
G01X2299208Y283718D01*
G01X2288032Y294894D01*
G01X2414016Y395986D02*
G01X2414016Y278130D01*
G01X2414016Y395986D02*
G01X2486914Y395986D01*
G01X2414016Y339852D02*
G01X2458974Y339852D01*
G01X2414016Y278130D02*
G01X2486914Y278130D01*
G01X2573528Y395986D02*
G01X2573528Y278130D01*
G01X2534158Y395986D02*
G01X2612898Y395986D01*
G36*
G01X1769309Y-3540464D02*
G01X1769082Y-3546828D01*
G01X1768627Y-3547964D01*
G01X1768400Y-3549555D01*
G01X1767945Y-3551373D01*
G01X1766582Y-3555464D01*
G01X1765673Y-3557509D01*
G01X1764764Y-3559327D01*
G01X1763627Y-3561146D01*
G01X1762491Y-3562737D01*
G01X1761582Y-3564100D01*
G01X1760445Y-3565464D01*
G01X1755445Y-3570464D01*
G01X1753627Y-3571828D01*
G01X1750218Y-3574100D01*
G01X1748855Y-3574782D01*
G01X1747264Y-3575464D01*
G01X1745218Y-3576373D01*
G01X1742264Y-3577282D01*
G01X1739991Y-3577964D01*
G01X1736354Y-3578418D01*
G01X1732264Y-3578646D01*
G01X1728173Y-3578418D01*
G01X1724991Y-3577964D01*
G01X1722491Y-3577509D01*
G01X1719764Y-3576827D01*
G01X1717946Y-3576146D01*
G01X1716355Y-3575464D01*
G01X1712718Y-3573646D01*
G01X1710900Y-3572509D01*
G01X1709309Y-3571373D01*
G01X1708173Y-3570691D01*
G01X1707036Y-3569782D01*
G01X1702036Y-3564782D01*
G01X1700673Y-3562964D01*
G01X1699536Y-3561373D01*
G01X1698400Y-3559555D01*
G01X1697491Y-3557964D01*
G01X1696582Y-3556146D01*
G01X1695673Y-3553646D01*
G01X1694764Y-3550691D01*
G01X1694082Y-3548418D01*
G01X1693627Y-3544327D01*
G01X1693400Y-3540691D01*
G01X1693627Y-3536600D01*
G01X1694082Y-3533873D01*
G01X1694536Y-3531600D01*
G01X1694991Y-3529555D01*
G01X1695673Y-3527282D01*
G01X1696355Y-3525464D01*
G01X1697036Y-3523873D01*
G01X1697945Y-3522055D01*
G01X1699082Y-3520009D01*
G01X1700218Y-3518191D01*
G01X1703627Y-3514100D01*
G01X1706355Y-3511373D01*
G01X1708173Y-3510009D01*
G01X1709309Y-3509100D01*
G01X1710673Y-3508191D01*
G01X1712491Y-3507055D01*
G01X1714309Y-3506146D01*
G01X1715900Y-3505464D01*
G01X1717718Y-3504782D01*
G01X1719764Y-3504100D01*
G01X1722264Y-3503418D01*
G01X1724536Y-3502964D01*
G01X1730673Y-3502737D01*
G01X1736127Y-3502737D01*
G01X1736127Y-3544555D01*
G01X1734536Y-3544782D01*
G01X1731809Y-3545236D01*
G01X1729991Y-3545236D01*
G01X1726809Y-3544782D01*
G01X1724536Y-3544327D01*
G01X1722946Y-3544100D01*
G01X1722946Y-3537282D01*
G01X1722718Y-3532168D01*
G01X1722037Y-3530464D01*
G01X1720218Y-3530919D01*
G01X1718400Y-3531828D01*
G01X1716582Y-3533418D01*
G01X1715445Y-3535691D01*
G01X1714991Y-3537509D01*
G01X1714764Y-3539100D01*
G01X1715218Y-3541600D01*
G01X1716127Y-3543873D01*
G01X1717036Y-3545464D01*
G01X1718173Y-3546600D01*
G01X1719309Y-3547509D01*
G01X1720900Y-3548646D01*
G01X1722718Y-3549555D01*
G01X1724991Y-3550236D01*
G01X1727264Y-3550691D01*
G01X1729309Y-3550918D01*
G01X1732264Y-3550691D01*
G01X1735445Y-3550236D01*
G01X1737946Y-3549555D01*
G01X1739991Y-3548646D01*
G01X1742036Y-3547509D01*
G01X1743400Y-3546373D01*
G01X1744764Y-3544782D01*
G01X1745900Y-3542509D01*
G01X1746354Y-3540691D01*
G01X1746354Y-3539555D01*
G01X1745900Y-3537509D01*
G01X1744991Y-3535009D01*
G01X1743855Y-3533418D01*
G01X1742946Y-3532509D01*
G01X1742718Y-3531828D01*
G01X1743400Y-3530691D01*
G01X1748855Y-3526146D01*
G01X1751127Y-3524327D01*
G01X1759309Y-3517509D01*
G01X1760445Y-3516600D01*
G01X1761127Y-3516657D01*
G01X1761809Y-3517282D01*
G01X1763400Y-3519327D01*
G01X1764764Y-3521600D01*
G01X1766582Y-3525237D01*
G01X1767491Y-3527737D01*
G01X1768173Y-3529782D01*
G01X1769082Y-3533873D01*
G01X1769309Y-3540464D01*
G37*
G36*
G01X1767945Y-3641827D02*
G01X1767718Y-3655691D01*
G01X1748400Y-3655918D01*
G01X1728627Y-3655691D01*
G01X1725900Y-3655464D01*
G01X1722264Y-3655237D01*
G01X1719991Y-3654782D01*
G01X1718400Y-3654555D01*
G01X1716582Y-3654100D01*
G01X1714309Y-3653191D01*
G01X1712264Y-3652282D01*
G01X1710445Y-3651373D01*
G01X1708400Y-3650237D01*
G01X1706809Y-3649100D01*
G01X1704536Y-3647282D01*
G01X1700673Y-3643418D01*
G01X1699309Y-3641600D01*
G01X1698400Y-3640464D01*
G01X1697491Y-3638873D01*
G01X1696582Y-3637055D01*
G01X1695673Y-3635009D01*
G01X1694082Y-3630237D01*
G01X1693627Y-3626600D01*
G01X1693400Y-3624555D01*
G01X1693627Y-3622509D01*
G01X1693854Y-3620237D01*
G01X1694082Y-3617509D01*
G01X1694536Y-3615237D01*
G01X1695446Y-3611600D01*
G01X1696127Y-3609782D01*
G01X1698173Y-3605691D01*
G01X1700445Y-3602509D01*
G01X1701809Y-3600918D01*
G01X1704082Y-3598646D01*
G01X1706355Y-3596827D01*
G01X1709991Y-3594555D01*
G01X1711809Y-3593646D01*
G01X1714309Y-3592737D01*
G01X1716355Y-3592055D01*
G01X1720900Y-3591146D01*
G01X1725445Y-3590691D01*
G01X1747036Y-3590464D01*
G01X1767945Y-3590464D01*
G01X1767945Y-3603191D01*
G01X1767718Y-3617055D01*
G01X1767491Y-3618191D01*
G01X1748400Y-3618191D01*
G01X1728627Y-3617964D01*
G01X1727264Y-3617964D01*
G01X1724536Y-3618418D01*
G01X1722775Y-3618873D01*
G01X1721582Y-3619782D01*
G01X1720673Y-3622055D01*
G01X1720900Y-3624782D01*
G01X1721809Y-3626827D01*
G01X1723173Y-3627736D01*
G01X1745900Y-3628191D01*
G01X1767945Y-3628191D01*
G01X1767945Y-3641827D01*
G37*
G36*
G01X1598400Y-3721146D02*
G01X1598173Y-3727509D01*
G01X1597718Y-3728873D01*
G01X1597491Y-3730464D01*
G01X1597037Y-3732282D01*
G01X1596355Y-3734327D01*
G01X1595673Y-3736146D01*
G01X1594764Y-3737964D01*
G01X1593855Y-3740009D01*
G01X1592718Y-3742055D01*
G01X1591582Y-3743646D01*
G01X1590900Y-3744782D01*
G01X1589991Y-3745918D01*
G01X1588400Y-3747509D01*
G01X1587264Y-3749100D01*
G01X1586355Y-3749782D01*
G01X1585218Y-3750691D01*
G01X1584082Y-3751827D01*
G01X1582946Y-3752736D01*
G01X1581355Y-3753873D01*
G01X1579536Y-3755009D01*
G01X1575900Y-3756827D01*
G01X1574082Y-3757509D01*
G01X1572037Y-3758191D01*
G01X1569764Y-3758873D01*
G01X1567718Y-3759328D01*
G01X1565900Y-3759555D01*
G01X1562718Y-3759782D01*
G01X1559991Y-3759782D01*
G01X1555446Y-3759328D01*
G01X1550900Y-3758418D01*
G01X1549082Y-3757964D01*
G01X1547036Y-3757282D01*
G01X1544991Y-3756373D01*
G01X1542718Y-3755237D01*
G01X1540900Y-3754100D01*
G01X1539536Y-3753191D01*
G01X1538400Y-3752282D01*
G01X1537036Y-3751373D01*
G01X1535673Y-3750237D01*
G01X1532264Y-3746827D01*
G01X1530446Y-3744555D01*
G01X1529082Y-3742964D01*
G01X1527718Y-3740918D01*
G01X1526582Y-3738873D01*
G01X1525673Y-3737055D01*
G01X1524991Y-3735237D01*
G01X1524309Y-3733191D01*
G01X1523627Y-3730691D01*
G01X1523173Y-3728418D01*
G01X1522945Y-3722509D01*
G01X1523173Y-3716146D01*
G01X1523400Y-3715009D01*
G01X1538400Y-3715009D01*
G01X1549536Y-3715123D01*
G01X1552945Y-3715464D01*
G01X1552036Y-3716827D01*
G01X1551127Y-3718646D01*
G01X1550673Y-3721373D01*
G01X1551127Y-3724555D01*
G01X1552036Y-3726600D01*
G01X1552718Y-3727964D01*
G01X1553627Y-3729100D01*
G01X1555446Y-3730464D01*
G01X1557945Y-3731600D01*
G01X1559991Y-3732055D01*
G01X1561127Y-3732055D01*
G01X1562718Y-3731827D01*
G01X1564764Y-3731373D01*
G01X1566809Y-3730237D01*
G01X1568855Y-3728646D01*
G01X1570218Y-3726827D01*
G01X1571127Y-3725009D01*
G01X1571582Y-3722509D01*
G01X1571355Y-3719327D01*
G01X1570673Y-3716827D01*
G01X1569764Y-3715464D01*
G01X1568855Y-3714327D01*
G01X1567491Y-3713191D01*
G01X1565900Y-3712282D01*
G01X1564082Y-3711600D01*
G01X1562264Y-3711146D01*
G01X1529309Y-3710918D01*
G01X1497036Y-3710918D01*
G01X1497036Y-3683646D01*
G01X1530218Y-3683646D01*
G01X1564082Y-3683873D01*
G01X1566809Y-3684327D01*
G01X1570446Y-3685009D01*
G01X1572718Y-3685691D01*
G01X1574764Y-3686373D01*
G01X1577264Y-3687282D01*
G01X1579536Y-3688418D01*
G01X1581355Y-3689555D01*
G01X1582718Y-3690236D01*
G01X1583855Y-3691146D01*
G01X1587037Y-3693873D01*
G01X1589309Y-3696146D01*
G01X1591127Y-3698418D01*
G01X1592264Y-3700236D01*
G01X1593627Y-3702282D01*
G01X1594764Y-3704327D01*
G01X1595673Y-3706373D01*
G01X1597037Y-3710009D01*
G01X1597718Y-3712509D01*
G01X1598173Y-3714782D01*
G01X1598400Y-3721146D01*
G37*
G36*
G01X1598400Y-3804555D02*
G01X1598173Y-3811146D01*
G01X1597718Y-3812509D01*
G01X1597491Y-3814100D01*
G01X1597037Y-3815918D01*
G01X1596355Y-3817964D01*
G01X1595673Y-3819782D01*
G01X1594991Y-3821373D01*
G01X1594309Y-3822737D01*
G01X1592491Y-3825918D01*
G01X1591809Y-3827055D01*
G01X1590900Y-3828191D01*
G01X1588173Y-3831373D01*
G01X1585445Y-3834100D01*
G01X1583627Y-3835464D01*
G01X1582037Y-3836600D01*
G01X1580218Y-3837737D01*
G01X1578855Y-3838646D01*
G01X1577491Y-3839327D01*
G01X1575900Y-3840009D01*
G01X1574082Y-3840691D01*
G01X1572037Y-3841373D01*
G01X1569536Y-3842055D01*
G01X1567264Y-3842509D01*
G01X1561355Y-3842737D01*
G01X1555446Y-3842509D01*
G01X1552945Y-3842055D01*
G01X1549764Y-3841373D01*
G01X1547036Y-3840464D01*
G01X1544991Y-3839555D01*
G01X1540900Y-3837509D01*
G01X1539309Y-3836373D01*
G01X1538173Y-3835691D01*
G01X1534764Y-3832964D01*
G01X1532036Y-3830236D01*
G01X1530218Y-3827964D01*
G01X1528855Y-3826146D01*
G01X1526582Y-3822509D01*
G01X1525673Y-3820691D01*
G01X1524764Y-3818191D01*
G01X1524082Y-3816146D01*
G01X1523173Y-3812509D01*
G01X1522718Y-3808418D01*
G01X1522491Y-3804555D01*
G01X1522718Y-3800691D01*
G01X1523173Y-3797509D01*
G01X1523627Y-3795464D01*
G01X1524309Y-3792736D01*
G01X1525218Y-3790237D01*
G01X1526127Y-3787964D01*
G01X1527036Y-3786146D01*
G01X1527945Y-3784555D01*
G01X1529309Y-3782509D01*
G01X1530673Y-3780691D01*
G01X1536355Y-3775009D01*
G01X1537491Y-3774100D01*
G01X1539082Y-3772964D01*
G01X1541355Y-3771600D01*
G01X1543400Y-3770464D01*
G01X1547945Y-3768645D01*
G01X1550218Y-3767964D01*
G01X1552264Y-3767509D01*
G01X1555446Y-3767055D01*
G01X1559082Y-3766827D01*
G01X1562718Y-3767055D01*
G01X1564309Y-3767282D01*
G01X1564991Y-3772396D01*
G01X1565218Y-3787736D01*
G01X1565048Y-3803191D01*
G01X1564536Y-3808646D01*
G01X1563173Y-3809327D01*
G01X1559991Y-3809555D01*
G01X1556355Y-3809327D01*
G01X1553627Y-3808646D01*
G01X1552036Y-3808191D01*
G01X1552036Y-3801373D01*
G01X1551866Y-3796316D01*
G01X1551355Y-3794782D01*
G01X1549536Y-3795237D01*
G01X1547945Y-3795918D01*
G01X1546355Y-3797282D01*
G01X1544991Y-3798873D01*
G01X1544309Y-3800464D01*
G01X1543854Y-3802964D01*
G01X1544309Y-3805918D01*
G01X1545218Y-3808191D01*
G01X1546127Y-3809555D01*
G01X1547036Y-3810691D01*
G01X1548173Y-3811827D01*
G01X1549991Y-3812964D01*
G01X1552491Y-3814100D01*
G01X1554536Y-3814782D01*
G01X1558855Y-3815009D01*
G01X1563173Y-3814782D01*
G01X1565446Y-3814327D01*
G01X1567946Y-3813646D01*
G01X1569764Y-3812737D01*
G01X1571127Y-3811827D01*
G01X1572264Y-3810918D01*
G01X1573400Y-3809782D01*
G01X1574536Y-3807964D01*
G01X1575218Y-3805236D01*
G01X1574991Y-3802055D01*
G01X1574082Y-3799327D01*
G01X1572946Y-3797736D01*
G01X1572037Y-3796600D01*
G01X1571866Y-3795975D01*
G01X1572264Y-3795464D01*
G01X1573400Y-3794327D01*
G01X1581582Y-3787509D01*
G01X1583855Y-3785691D01*
G01X1584991Y-3784555D01*
G01X1586127Y-3783645D01*
G01X1587718Y-3782282D01*
G01X1589536Y-3780918D01*
G01X1590161Y-3780748D01*
G01X1590673Y-3781146D01*
G01X1591582Y-3782282D01*
G01X1592491Y-3783645D01*
G01X1593627Y-3785464D01*
G01X1594764Y-3787509D01*
G01X1595673Y-3789555D01*
G01X1596582Y-3791827D01*
G01X1597264Y-3793873D01*
G01X1598173Y-3797964D01*
G01X1598400Y-3804555D01*
G37*
G36*
G01X1770673Y-3720236D02*
G01X1770445Y-3722509D01*
G01X1770218Y-3723873D01*
G01X1769991Y-3727055D01*
G01X1769536Y-3730237D01*
G01X1769082Y-3732055D01*
G01X1768627Y-3734327D01*
G01X1767945Y-3736827D01*
G01X1767264Y-3738646D01*
G01X1766582Y-3740237D01*
G01X1765673Y-3742282D01*
G01X1764536Y-3744782D01*
G01X1763173Y-3747055D01*
G01X1761809Y-3749100D01*
G01X1760673Y-3750691D01*
G01X1757946Y-3754328D01*
G01X1751809Y-3760464D01*
G01X1749991Y-3761827D01*
G01X1747718Y-3763646D01*
G01X1745900Y-3764782D01*
G01X1743627Y-3766146D01*
G01X1741582Y-3767282D01*
G01X1737491Y-3769100D01*
G01X1734991Y-3770009D01*
G01X1731809Y-3770918D01*
G01X1729536Y-3771600D01*
G01X1726355Y-3772055D01*
G01X1721809Y-3772509D01*
G01X1718627Y-3772736D01*
G01X1715445Y-3772509D01*
G01X1713627Y-3772282D01*
G01X1710900Y-3772055D01*
G01X1707718Y-3771600D01*
G01X1704536Y-3770918D01*
G01X1701582Y-3770009D01*
G01X1698855Y-3769100D01*
G01X1696809Y-3768191D01*
G01X1692718Y-3766146D01*
G01X1689082Y-3763873D01*
G01X1685900Y-3761600D01*
G01X1684309Y-3760237D01*
G01X1682718Y-3758646D01*
G01X1681127Y-3757509D01*
G01X1680218Y-3756373D01*
G01X1679082Y-3755009D01*
G01X1677491Y-3753418D01*
G01X1676127Y-3751600D01*
G01X1674991Y-3750009D01*
G01X1673627Y-3747964D01*
G01X1672491Y-3746146D01*
G01X1671582Y-3744555D01*
G01X1670673Y-3742736D01*
G01X1669764Y-3740691D01*
G01X1668855Y-3738191D01*
G01X1667264Y-3733418D01*
G01X1666355Y-3728873D01*
G01X1665900Y-3724782D01*
G01X1665673Y-3720691D01*
G01X1665729Y-3719327D01*
G01X1695218Y-3719327D01*
G01X1695446Y-3723418D01*
G01X1695673Y-3725009D01*
G01X1696127Y-3726827D01*
G01X1697036Y-3728873D01*
G01X1698173Y-3731146D01*
G01X1700445Y-3734327D01*
G01X1701809Y-3735918D01*
G01X1704082Y-3737736D01*
G01X1705673Y-3738873D01*
G01X1707718Y-3740009D01*
G01X1709764Y-3740918D01*
G01X1712264Y-3741600D01*
G01X1714536Y-3742055D01*
G01X1717264Y-3742282D01*
G01X1719991Y-3742055D01*
G01X1722718Y-3741600D01*
G01X1725673Y-3740918D01*
G01X1727946Y-3740009D01*
G01X1730218Y-3738873D01*
G01X1732264Y-3737509D01*
G01X1733855Y-3736146D01*
G01X1736127Y-3733873D01*
G01X1737036Y-3732737D01*
G01X1737946Y-3731373D01*
G01X1738855Y-3729782D01*
G01X1739536Y-3728191D01*
G01X1740218Y-3726373D01*
G01X1740673Y-3724100D01*
G01X1740673Y-3724100D01*
G01X1740900Y-3722509D01*
G01X1741127Y-3720691D01*
G01X1740900Y-3718418D01*
G01X1740673Y-3716827D01*
G01X1740218Y-3714327D01*
G01X1739309Y-3711600D01*
G01X1738173Y-3709327D01*
G01X1736582Y-3707055D01*
G01X1735218Y-3705236D01*
G01X1734082Y-3704100D01*
G01X1731809Y-3702282D01*
G01X1730445Y-3701373D01*
G01X1726809Y-3699555D01*
G01X1724764Y-3698873D01*
G01X1722718Y-3698418D01*
G01X1718627Y-3698191D01*
G01X1714536Y-3698418D01*
G01X1712264Y-3698873D01*
G01X1709764Y-3699555D01*
G01X1707718Y-3700464D01*
G01X1705900Y-3701373D01*
G01X1704536Y-3702282D01*
G01X1702264Y-3704100D01*
G01X1699991Y-3706373D01*
G01X1698855Y-3707737D01*
G01X1697945Y-3709100D01*
G01X1697036Y-3710691D01*
G01X1696127Y-3713191D01*
G01X1695446Y-3715236D01*
G01X1695218Y-3719327D01*
G01X1665729Y-3719327D01*
G01X1665900Y-3715236D01*
G01X1666355Y-3712055D01*
G01X1666809Y-3709327D01*
G01X1667491Y-3706145D01*
G01X1668400Y-3703191D01*
G01X1669309Y-3700464D01*
G01X1670218Y-3698418D01*
G01X1672264Y-3694327D01*
G01X1673627Y-3692055D01*
G01X1674764Y-3690464D01*
G01X1675446Y-3689327D01*
G01X1676355Y-3688191D01*
G01X1679082Y-3685009D01*
G01X1683627Y-3680464D01*
G01X1687036Y-3677737D01*
G01X1688627Y-3676600D01*
G01X1690900Y-3675236D01*
G01X1692945Y-3673873D01*
G01X1695218Y-3672737D01*
G01X1699309Y-3670918D01*
G01X1704082Y-3669327D01*
G01X1708173Y-3668418D01*
G01X1711809Y-3667964D01*
G01X1717264Y-3667737D01*
G01X1723173Y-3667964D01*
G01X1726355Y-3668418D01*
G01X1729082Y-3668873D01*
G01X1731127Y-3669327D01*
G01X1733855Y-3670009D01*
G01X1736582Y-3670918D01*
G01X1740673Y-3672737D01*
G01X1743173Y-3673873D01*
G01X1745445Y-3675236D01*
G01X1747491Y-3676600D01*
G01X1749082Y-3677737D01*
G01X1750218Y-3678646D01*
G01X1751809Y-3680009D01*
G01X1753627Y-3681373D01*
G01X1755900Y-3683646D01*
G01X1757718Y-3685918D01*
G01X1759309Y-3687509D01*
G01X1760673Y-3689327D01*
G01X1761809Y-3690918D01*
G01X1764082Y-3694555D01*
G01X1765218Y-3696600D01*
G01X1766127Y-3698418D01*
G01X1766809Y-3700009D01*
G01X1767491Y-3701827D01*
G01X1768173Y-3703873D01*
G01X1768855Y-3706600D01*
G01X1769536Y-3708873D01*
G01X1769991Y-3712055D01*
G01X1770673Y-3720236D01*
G37*
G36*
G01X1598855Y-3942509D02*
G01X1598627Y-3944782D01*
G01X1598400Y-3946146D01*
G01X1598173Y-3948418D01*
G01X1597718Y-3951146D01*
G01X1597264Y-3953418D01*
G01X1596809Y-3955009D01*
G01X1596127Y-3957282D01*
G01X1595218Y-3959327D01*
G01X1593173Y-3963418D01*
G01X1592037Y-3965009D01*
G01X1591355Y-3966145D01*
G01X1588627Y-3969555D01*
G01X1586355Y-3971827D01*
G01X1582946Y-3974555D01*
G01X1580218Y-3976373D01*
G01X1578627Y-3977282D01*
G01X1576582Y-3978191D01*
G01X1572946Y-3979555D01*
G01X1570673Y-3980236D01*
G01X1568627Y-3980691D01*
G01X1565446Y-3981145D01*
G01X1561582Y-3981373D01*
G01X1557718Y-3981145D01*
G01X1555673Y-3980918D01*
G01X1552718Y-3980464D01*
G01X1550446Y-3979782D01*
G01X1548627Y-3979327D01*
G01X1546582Y-3978646D01*
G01X1544536Y-3977737D01*
G01X1542264Y-3976600D01*
G01X1540446Y-3975464D01*
G01X1539082Y-3974555D01*
G01X1535446Y-3971827D01*
G01X1531582Y-3967964D01*
G01X1530218Y-3966145D01*
G01X1529082Y-3964555D01*
G01X1527718Y-3962509D01*
G01X1525673Y-3958418D01*
G01X1524991Y-3956600D01*
G01X1524309Y-3954555D01*
G01X1523627Y-3951827D01*
G01X1523173Y-3949327D01*
G01X1522945Y-3943418D01*
G01X1523173Y-3937509D01*
G01X1523627Y-3934782D01*
G01X1524309Y-3931146D01*
G01X1525218Y-3927964D01*
G01X1526127Y-3925691D01*
G01X1528173Y-3921600D01*
G01X1529309Y-3920009D01*
G01X1529991Y-3918873D01*
G01X1530900Y-3917736D01*
G01X1535446Y-3913191D01*
G01X1536582Y-3912282D01*
G01X1538173Y-3911146D01*
G01X1539991Y-3910009D01*
G01X1541809Y-3909100D01*
G01X1543854Y-3908191D01*
G01X1547945Y-3906827D01*
G01X1550446Y-3906146D01*
G01X1552718Y-3905691D01*
G01X1557264Y-3905237D01*
G01X1577491Y-3905009D01*
G01X1597037Y-3905009D01*
G01X1597037Y-3932282D01*
G01X1580445Y-3932282D01*
G01X1563173Y-3932509D01*
G01X1560900Y-3932736D01*
G01X1558400Y-3933191D01*
G01X1556355Y-3934100D01*
G01X1554309Y-3935236D01*
G01X1552945Y-3936146D01*
G01X1552036Y-3937509D01*
G01X1551127Y-3939555D01*
G01X1550673Y-3941827D01*
G01X1550900Y-3944327D01*
G01X1551355Y-3946146D01*
G01X1552036Y-3947964D01*
G01X1553173Y-3949555D01*
G01X1554309Y-3950691D01*
G01X1555673Y-3951827D01*
G01X1557264Y-3952737D01*
G01X1559536Y-3953418D01*
G01X1561809Y-3953418D01*
G01X1564082Y-3952964D01*
G01X1566355Y-3952282D01*
G01X1567718Y-3951373D01*
G01X1569082Y-3950236D01*
G01X1570446Y-3948418D01*
G01X1571355Y-3946600D01*
G01X1571582Y-3943191D01*
G01X1571127Y-3939782D01*
G01X1570446Y-3937964D01*
G01X1570218Y-3936827D01*
G01X1598400Y-3936827D01*
G01X1598400Y-3937964D01*
G01X1598627Y-3939782D01*
G01X1598855Y-3942509D01*
G37*
G36*
G01X1767945Y-3931827D02*
G01X1667945Y-3931827D01*
G01X1667945Y-3904555D01*
G01X1698400Y-3904555D01*
G01X1697945Y-3903645D01*
G01X1696809Y-3901827D01*
G01X1695673Y-3899782D01*
G01X1694764Y-3897282D01*
G01X1694082Y-3895237D01*
G01X1693854Y-3890691D01*
G01X1694309Y-3885237D01*
G01X1695218Y-3882509D01*
G01X1696127Y-3880464D01*
G01X1696809Y-3878873D01*
G01X1697718Y-3877736D01*
G01X1699082Y-3876146D01*
G01X1700445Y-3874782D01*
G01X1701582Y-3873873D01*
G01X1702945Y-3872736D01*
G01X1704309Y-3871827D01*
G01X1705900Y-3870918D01*
G01X1708173Y-3870009D01*
G01X1709991Y-3869327D01*
G01X1714082Y-3868418D01*
G01X1717718Y-3867964D01*
G01X1743173Y-3867736D01*
G01X1767945Y-3867736D01*
G01X1767945Y-3895009D01*
G01X1749309Y-3895009D01*
G01X1728627Y-3895237D01*
G01X1724991Y-3895691D01*
G01X1722718Y-3896600D01*
G01X1721809Y-3898418D01*
G01X1721809Y-3901146D01*
G01X1722718Y-3903191D01*
G01X1724309Y-3904100D01*
G01X1746582Y-3904555D01*
G01X1767945Y-3904555D01*
G01X1767945Y-3931827D01*
G37*
G36*
G01X1599764Y-4172964D02*
G01X1599536Y-4175237D01*
G01X1599309Y-4177282D01*
G01X1599082Y-4179782D01*
G01X1598627Y-4182964D01*
G01X1597718Y-4187509D01*
G01X1596127Y-4192282D01*
G01X1595218Y-4194554D01*
G01X1594309Y-4196600D01*
G01X1593400Y-4198418D01*
G01X1591582Y-4201600D01*
G01X1590673Y-4202964D01*
G01X1589764Y-4204100D01*
G01X1588627Y-4205691D01*
G01X1587264Y-4207282D01*
G01X1585445Y-4209554D01*
G01X1583173Y-4211827D01*
G01X1582037Y-4212736D01*
G01X1580445Y-4214100D01*
G01X1578627Y-4215464D01*
G01X1577491Y-4216373D01*
G01X1576127Y-4217282D01*
G01X1574309Y-4218418D01*
G01X1572264Y-4219554D01*
G01X1568627Y-4221373D01*
G01X1566127Y-4222282D01*
G01X1563400Y-4223191D01*
G01X1560900Y-4223873D01*
G01X1559082Y-4224327D01*
G01X1555900Y-4224782D01*
G01X1550900Y-4225236D01*
G01X1547945Y-4225464D01*
G01X1544991Y-4225236D01*
G01X1540446Y-4224782D01*
G01X1538627Y-4224555D01*
G01X1535900Y-4224100D01*
G01X1533627Y-4223418D01*
G01X1531582Y-4222964D01*
G01X1529309Y-4222282D01*
G01X1527036Y-4221373D01*
G01X1524991Y-4220464D01*
G01X1520900Y-4218418D01*
G01X1519082Y-4217282D01*
G01X1517718Y-4216373D01*
G01X1516582Y-4215464D01*
G01X1515218Y-4214554D01*
G01X1513855Y-4213418D01*
G01X1510673Y-4210691D01*
G01X1509537Y-4209554D01*
G01X1507264Y-4206827D01*
G01X1506127Y-4205691D01*
G01X1504764Y-4203873D01*
G01X1503173Y-4201600D01*
G01X1501809Y-4199554D01*
G01X1500673Y-4197509D01*
G01X1498855Y-4193873D01*
G01X1497946Y-4191373D01*
G01X1496355Y-4186600D01*
G01X1495446Y-4181600D01*
G01X1494991Y-4177964D01*
G01X1494764Y-4173418D01*
G01X1494991Y-4167964D01*
G01X1495446Y-4164327D01*
G01X1495900Y-4161600D01*
G01X1496355Y-4159327D01*
G01X1497036Y-4156373D01*
G01X1497946Y-4153645D01*
G01X1498855Y-4151373D01*
G01X1499764Y-4149327D01*
G01X1500900Y-4147054D01*
G01X1503173Y-4143418D01*
G01X1504764Y-4141145D01*
G01X1506582Y-4138873D01*
G01X1507946Y-4137054D01*
G01X1511809Y-4133191D01*
G01X1513627Y-4131827D01*
G01X1514764Y-4130918D01*
G01X1516355Y-4129782D01*
G01X1518627Y-4128418D01*
G01X1520446Y-4127282D01*
G01X1522264Y-4126373D01*
G01X1526355Y-4124555D01*
G01X1528627Y-4123646D01*
G01X1530446Y-4122964D01*
G01X1532264Y-4122509D01*
G01X1534309Y-4121827D01*
G01X1536809Y-4121145D01*
G01X1538002Y-4121202D01*
G01X1538400Y-4121827D01*
G01X1538627Y-4123418D01*
G01X1540446Y-4150691D01*
G01X1540446Y-4152055D01*
G01X1539309Y-4153191D01*
G01X1537491Y-4153873D01*
G01X1535900Y-4154555D01*
G01X1534309Y-4155464D01*
G01X1531582Y-4157282D01*
G01X1530218Y-4158418D01*
G01X1529082Y-4159555D01*
G01X1527718Y-4161146D01*
G01X1526355Y-4163418D01*
G01X1525218Y-4165918D01*
G01X1524537Y-4167964D01*
G01X1524309Y-4171600D01*
G01X1524537Y-4176600D01*
G01X1525218Y-4179782D01*
G01X1526127Y-4182055D01*
G01X1527036Y-4183873D01*
G01X1528173Y-4185691D01*
G01X1529537Y-4187282D01*
G01X1532264Y-4190009D01*
G01X1534309Y-4191373D01*
G01X1536355Y-4192509D01*
G01X1539082Y-4193645D01*
G01X1541355Y-4194327D01*
G01X1543173Y-4194554D01*
G01X1545446Y-4194782D01*
G01X1548627Y-4194782D01*
G01X1552264Y-4194327D01*
G01X1555218Y-4193645D01*
G01X1557718Y-4192736D01*
G01X1560900Y-4191146D01*
G01X1563173Y-4189327D01*
G01X1564082Y-4188418D01*
G01X1564991Y-4187282D01*
G01X1566127Y-4186146D01*
G01X1567036Y-4185009D01*
G01X1567946Y-4183418D01*
G01X1568855Y-4181373D01*
G01X1569536Y-4179327D01*
G01X1569991Y-4177509D01*
G01X1570218Y-4174555D01*
G01X1569991Y-4170236D01*
G01X1569309Y-4166600D01*
G01X1568400Y-4164100D01*
G01X1567491Y-4162282D01*
G01X1566355Y-4160464D01*
G01X1565218Y-4158873D01*
G01X1564082Y-4157736D01*
G01X1562946Y-4156827D01*
G01X1560218Y-4155009D01*
G01X1558400Y-4154100D01*
G01X1556127Y-4153191D01*
G01X1553855Y-4152509D01*
G01X1551809Y-4152055D01*
G01X1549764Y-4151827D01*
G01X1548400Y-4151827D01*
G01X1548400Y-4146145D01*
G01X1548627Y-4139782D01*
G01X1548855Y-4130009D01*
G01X1549309Y-4120918D01*
G01X1551809Y-4121145D01*
G01X1554536Y-4121600D01*
G01X1556809Y-4122054D01*
G01X1559991Y-4122736D01*
G01X1562946Y-4123646D01*
G01X1564991Y-4124327D01*
G01X1566582Y-4124782D01*
G01X1568173Y-4125464D01*
G01X1572264Y-4127282D01*
G01X1574082Y-4128191D01*
G01X1576127Y-4129327D01*
G01X1577946Y-4130464D01*
G01X1579309Y-4131373D01*
G01X1580445Y-4132282D01*
G01X1584082Y-4135009D01*
G01X1587946Y-4138873D01*
G01X1589764Y-4141145D01*
G01X1590900Y-4142964D01*
G01X1591809Y-4144100D01*
G01X1592946Y-4145691D01*
G01X1595218Y-4150236D01*
G01X1596127Y-4152282D01*
G01X1597491Y-4156373D01*
G01X1598173Y-4158873D01*
G01X1598627Y-4161146D01*
G01X1599082Y-4164782D01*
G01X1599764Y-4172964D01*
G37*
G36*
G01X1597037Y-4108646D02*
G01X1575900Y-4108646D01*
G01X1554082Y-4108418D01*
G01X1552491Y-4108191D01*
G01X1550446Y-4107964D01*
G01X1545900Y-4107055D01*
G01X1543400Y-4106373D01*
G01X1541127Y-4105464D01*
G01X1539082Y-4104555D01*
G01X1536809Y-4103418D01*
G01X1534537Y-4101827D01*
G01X1532718Y-4100464D01*
G01X1529309Y-4097055D01*
G01X1527945Y-4095236D01*
G01X1526582Y-4093191D01*
G01X1525673Y-4091600D01*
G01X1524764Y-4089555D01*
G01X1524082Y-4087509D01*
G01X1523173Y-4083873D01*
G01X1522718Y-4080236D01*
G01X1522491Y-4078191D01*
G01X1522718Y-4076146D01*
G01X1523173Y-4071146D01*
G01X1523400Y-4069554D01*
G01X1527036Y-4068873D01*
G01X1537945Y-4068645D01*
G01X1548798Y-4068816D01*
G01X1552264Y-4069327D01*
G01X1551582Y-4070918D01*
G01X1551127Y-4072964D01*
G01X1551355Y-4074782D01*
G01X1551582Y-4076373D01*
G01X1552264Y-4077736D01*
G01X1553400Y-4078873D01*
G01X1554764Y-4079782D01*
G01X1556582Y-4080464D01*
G01X1558855Y-4080918D01*
G01X1560900Y-4081146D01*
G01X1579309Y-4081373D01*
G01X1597037Y-4081373D01*
G01X1597037Y-4108646D01*
G37*
G36*
G01X1769764Y-4062509D02*
G01X1769536Y-4065464D01*
G01X1769082Y-4068418D01*
G01X1768627Y-4071146D01*
G01X1768400Y-4072736D01*
G01X1767945Y-4074555D01*
G01X1767264Y-4076600D01*
G01X1766582Y-4078418D01*
G01X1765900Y-4080009D01*
G01X1765218Y-4081373D01*
G01X1764309Y-4082964D01*
G01X1762946Y-4085236D01*
G01X1761582Y-4087055D01*
G01X1759764Y-4089327D01*
G01X1756354Y-4092736D01*
G01X1755218Y-4093646D01*
G01X1752036Y-4095918D01*
G01X1750445Y-4096827D01*
G01X1746809Y-4098646D01*
G01X1744309Y-4099555D01*
G01X1742264Y-4100236D01*
G01X1737264Y-4101145D01*
G01X1732491Y-4101373D01*
G01X1727718Y-4101145D01*
G01X1725900Y-4100918D01*
G01X1723173Y-4100464D01*
G01X1720900Y-4099782D01*
G01X1719082Y-4099327D01*
G01X1717264Y-4098646D01*
G01X1715673Y-4097964D01*
G01X1713627Y-4097055D01*
G01X1711809Y-4095918D01*
G01X1710445Y-4095236D01*
G01X1709309Y-4094327D01*
G01X1706582Y-4092055D01*
G01X1702036Y-4087509D01*
G01X1701127Y-4086373D01*
G01X1698855Y-4083191D01*
G01X1697945Y-4081600D01*
G01X1697036Y-4079555D01*
G01X1696127Y-4077282D01*
G01X1694536Y-4072509D01*
G01X1694082Y-4069327D01*
G01X1693854Y-4064100D01*
G01X1694082Y-4057509D01*
G01X1694536Y-4054782D01*
G01X1694764Y-4053191D01*
G01X1695218Y-4051373D01*
G01X1696582Y-4046827D01*
G01X1697491Y-4044782D01*
G01X1698400Y-4042964D01*
G01X1699536Y-4041146D01*
G01X1700673Y-4039555D01*
G01X1701355Y-4038418D01*
G01X1702264Y-4037282D01*
G01X1705673Y-4033873D01*
G01X1707264Y-4032509D01*
G01X1708855Y-4031373D01*
G01X1710445Y-4030464D01*
G01X1714991Y-4028191D01*
G01X1717491Y-4027282D01*
G01X1719536Y-4026600D01*
G01X1724536Y-4025691D01*
G01X1731355Y-4025237D01*
G01X1749991Y-4025009D01*
G01X1767945Y-4025009D01*
G01X1767945Y-4052736D01*
G01X1750218Y-4052736D01*
G01X1730900Y-4052964D01*
G01X1728400Y-4053645D01*
G01X1726582Y-4054327D01*
G01X1725218Y-4055236D01*
G01X1724082Y-4056373D01*
G01X1722946Y-4057736D01*
G01X1722037Y-4059554D01*
G01X1721582Y-4061600D01*
G01X1721809Y-4064327D01*
G01X1722491Y-4067055D01*
G01X1723400Y-4068645D01*
G01X1724082Y-4069782D01*
G01X1724991Y-4070691D01*
G01X1726127Y-4071600D01*
G01X1727718Y-4072736D01*
G01X1729536Y-4073418D01*
G01X1732264Y-4073645D01*
G01X1735218Y-4073191D01*
G01X1737264Y-4072282D01*
G01X1738855Y-4071373D01*
G01X1739991Y-4070464D01*
G01X1741127Y-4069100D01*
G01X1742036Y-4067282D01*
G01X1742491Y-4063645D01*
G01X1742036Y-4060009D01*
G01X1741127Y-4057964D01*
G01X1740673Y-4056827D01*
G01X1753855Y-4056827D01*
G01X1768173Y-4057055D01*
G01X1769025Y-4057452D01*
G01X1769309Y-4058191D01*
G01X1769536Y-4059782D01*
G01X1769764Y-4062509D01*
G37*
G36*
G01X1767945Y-4178873D02*
G01X1767718Y-4194554D01*
G01X1767264Y-4196146D01*
G01X1766809Y-4198645D01*
G01X1766127Y-4201373D01*
G01X1765445Y-4203418D01*
G01X1764764Y-4205236D01*
G01X1763855Y-4207055D01*
G01X1762718Y-4209100D01*
G01X1761582Y-4210918D01*
G01X1760445Y-4212282D01*
G01X1757718Y-4215009D01*
G01X1755900Y-4216373D01*
G01X1754082Y-4217509D01*
G01X1751809Y-4218645D01*
G01X1749764Y-4219554D01*
G01X1747491Y-4220236D01*
G01X1745445Y-4220691D01*
G01X1742264Y-4221145D01*
G01X1718627Y-4221373D01*
G01X1694991Y-4221145D01*
G01X1691809Y-4220691D01*
G01X1689309Y-4220236D01*
G01X1686582Y-4219554D01*
G01X1684764Y-4218873D01*
G01X1683173Y-4218191D01*
G01X1681582Y-4217282D01*
G01X1679764Y-4216145D01*
G01X1678173Y-4215009D01*
G01X1674309Y-4211146D01*
G01X1672945Y-4209327D01*
G01X1672036Y-4207964D01*
G01X1671127Y-4206146D01*
G01X1670218Y-4203873D01*
G01X1669536Y-4202055D01*
G01X1668627Y-4197964D01*
G01X1668173Y-4193418D01*
G01X1667945Y-4178418D01*
G01X1667945Y-4164100D01*
G01X1696582Y-4164100D01*
G01X1696582Y-4173191D01*
G01X1696809Y-4182964D01*
G01X1697264Y-4186600D01*
G01X1697945Y-4188418D01*
G01X1699082Y-4190009D01*
G01X1700445Y-4190691D01*
G01X1702264Y-4190691D01*
G01X1704536Y-4190009D01*
G01X1705502Y-4189384D01*
G01X1706127Y-4188418D01*
G01X1706809Y-4186600D01*
G01X1707036Y-4175918D01*
G01X1707036Y-4165918D01*
G01X1729309Y-4165918D01*
G01X1729309Y-4175918D01*
G01X1729536Y-4187509D01*
G01X1730218Y-4190236D01*
G01X1731809Y-4192055D01*
G01X1734082Y-4192736D01*
G01X1736582Y-4192282D01*
G01X1737775Y-4191657D01*
G01X1738627Y-4190691D01*
G01X1739309Y-4187736D01*
G01X1739536Y-4185236D01*
G01X1739764Y-4174327D01*
G01X1739764Y-4164100D01*
G01X1767945Y-4164100D01*
G01X1767945Y-4178873D01*
G37*
G36*
G01X1767945Y-4149100D02*
G01X1735900Y-4149100D01*
G01X1703173Y-4148873D01*
G01X1699082Y-4148418D01*
G01X1697491Y-4148191D01*
G01X1694991Y-4147736D01*
G01X1692718Y-4147054D01*
G01X1691127Y-4146600D01*
G01X1689536Y-4145918D01*
G01X1685446Y-4143873D01*
G01X1683400Y-4142509D01*
G01X1681809Y-4141373D01*
G01X1679536Y-4139555D01*
G01X1675673Y-4135691D01*
G01X1672945Y-4132054D01*
G01X1671582Y-4129782D01*
G01X1669764Y-4126145D01*
G01X1668855Y-4123646D01*
G01X1667945Y-4120691D01*
G01X1667264Y-4118418D01*
G01X1667036Y-4113646D01*
G01X1667036Y-4109555D01*
G01X1681127Y-4109555D01*
G01X1691752Y-4109725D01*
G01X1695446Y-4110236D01*
G01X1695900Y-4112964D01*
G01X1696582Y-4115464D01*
G01X1697491Y-4117055D01*
G01X1698627Y-4118646D01*
G01X1699764Y-4119555D01*
G01X1701127Y-4120236D01*
G01X1702945Y-4120918D01*
G01X1704991Y-4121373D01*
G01X1706809Y-4121600D01*
G01X1709309Y-4121827D01*
G01X1711127Y-4121827D01*
G01X1711127Y-4109555D01*
G01X1739764Y-4109555D01*
G01X1739764Y-4121827D01*
G01X1767945Y-4121827D01*
G01X1767945Y-4149100D01*
G37*
G36*
G01X1598400Y-4025918D02*
G01X1597946Y-4033645D01*
G01X1597264Y-4036146D01*
G01X1596809Y-4037964D01*
G01X1596127Y-4040009D01*
G01X1595218Y-4042282D01*
G01X1594082Y-4044782D01*
G01X1592718Y-4047055D01*
G01X1591582Y-4048645D01*
G01X1590673Y-4050009D01*
G01X1589536Y-4051373D01*
G01X1584991Y-4055918D01*
G01X1583855Y-4056827D01*
G01X1582264Y-4057964D01*
G01X1580218Y-4059327D01*
G01X1578173Y-4060464D01*
G01X1576355Y-4061373D01*
G01X1574536Y-4062055D01*
G01X1572491Y-4062736D01*
G01X1570218Y-4063418D01*
G01X1568173Y-4063873D01*
G01X1564082Y-4064327D01*
G01X1561355Y-4064554D01*
G01X1558627Y-4064327D01*
G01X1556809Y-4064100D01*
G01X1554536Y-4063873D01*
G01X1552264Y-4063418D01*
G01X1548627Y-4062509D01*
G01X1546582Y-4061827D01*
G01X1544536Y-4060918D01*
G01X1542264Y-4059782D01*
G01X1540446Y-4058645D01*
G01X1539082Y-4057736D01*
G01X1537945Y-4056827D01*
G01X1536809Y-4056146D01*
G01X1535673Y-4055236D01*
G01X1531127Y-4050691D01*
G01X1530218Y-4049555D01*
G01X1529082Y-4047964D01*
G01X1527718Y-4045691D01*
G01X1526582Y-4043873D01*
G01X1525673Y-4042055D01*
G01X1524764Y-4039555D01*
G01X1523855Y-4036600D01*
G01X1523173Y-4034327D01*
G01X1522718Y-4030237D01*
G01X1522491Y-4026146D01*
G01X1522718Y-4022055D01*
G01X1522945Y-4020236D01*
G01X1523400Y-4017509D01*
G01X1524082Y-4015236D01*
G01X1524537Y-4013418D01*
G01X1525218Y-4011600D01*
G01X1525900Y-4010009D01*
G01X1526809Y-4007964D01*
G01X1528173Y-4005691D01*
G01X1529309Y-4004100D01*
G01X1530218Y-4002736D01*
G01X1531355Y-4001373D01*
G01X1535900Y-3996827D01*
G01X1537036Y-3995918D01*
G01X1538627Y-3994782D01*
G01X1540673Y-3993418D01*
G01X1542718Y-3992282D01*
G01X1544764Y-3991373D01*
G01X1548400Y-3990009D01*
G01X1550900Y-3989327D01*
G01X1553173Y-3988873D01*
G01X1555218Y-3988646D01*
G01X1558173Y-3988418D01*
G01X1560446Y-3988418D01*
G01X1563173Y-3988646D01*
G01X1565218Y-3988646D01*
G01X1565218Y-4009100D01*
G01X1564764Y-4030009D01*
G01X1563627Y-4030691D01*
G01X1559991Y-4030918D01*
G01X1555900Y-4030691D01*
G01X1553400Y-4030009D01*
G01X1552036Y-4029555D01*
G01X1552036Y-4022736D01*
G01X1551866Y-4017680D01*
G01X1551355Y-4016146D01*
G01X1549991Y-4016600D01*
G01X1548400Y-4017055D01*
G01X1547036Y-4017964D01*
G01X1545900Y-4019100D01*
G01X1544764Y-4020691D01*
G01X1544082Y-4022509D01*
G01X1543854Y-4024100D01*
G01X1544082Y-4026146D01*
G01X1544764Y-4028645D01*
G01X1545900Y-4030918D01*
G01X1547036Y-4032282D01*
G01X1548173Y-4033191D01*
G01X1549764Y-4034327D01*
G01X1552036Y-4035464D01*
G01X1554082Y-4036146D01*
G01X1558173Y-4036600D01*
G01X1559536Y-4036600D01*
G01X1563627Y-4036146D01*
G01X1565218Y-4035918D01*
G01X1567036Y-4035464D01*
G01X1569082Y-4034555D01*
G01X1570673Y-4033645D01*
G01X1572264Y-4032282D01*
G01X1573855Y-4030691D01*
G01X1574764Y-4029100D01*
G01X1575218Y-4026600D01*
G01X1574991Y-4023418D01*
G01X1574082Y-4020918D01*
G01X1573173Y-4019327D01*
G01X1572264Y-4018191D01*
G01X1571866Y-4017736D01*
G01X1572037Y-4017282D01*
G01X1572946Y-4016146D01*
G01X1589309Y-4002509D01*
G01X1589821Y-4002168D01*
G01X1590445Y-4002509D01*
G01X1591582Y-4003873D01*
G01X1592491Y-4005009D01*
G01X1593400Y-4006600D01*
G01X1594536Y-4008873D01*
G01X1595673Y-4010918D01*
G01X1597037Y-4015009D01*
G01X1597718Y-4017282D01*
G01X1598173Y-4019327D01*
G01X1598400Y-4025918D01*
G37*
G36*
G01X1767945Y-3993191D02*
G01X1696582Y-3993191D01*
G01X1696582Y-4016373D01*
G01X1683400Y-4016373D01*
G01X1669082Y-4016146D01*
G01X1667945Y-4015918D01*
G01X1667945Y-3940918D01*
G01X1696582Y-3940918D01*
G01X1696582Y-3963646D01*
G01X1767945Y-3963646D01*
G01X1767945Y-3993191D01*
G37*
G36*
G01X1598400Y-3854555D02*
G01X1598173Y-3857737D01*
G01X1597718Y-3860691D01*
G01X1597037Y-3864327D01*
G01X1596127Y-3867282D01*
G01X1595218Y-3869555D01*
G01X1594309Y-3871600D01*
G01X1593173Y-3873873D01*
G01X1592037Y-3875691D01*
G01X1591127Y-3877055D01*
G01X1587491Y-3881600D01*
G01X1586355Y-3882736D01*
G01X1582718Y-3885464D01*
G01X1579082Y-3887736D01*
G01X1575900Y-3889100D01*
G01X1574082Y-3889782D01*
G01X1571355Y-3890464D01*
G01X1569082Y-3891146D01*
G01X1565900Y-3891600D01*
G01X1559991Y-3892055D01*
G01X1528173Y-3892282D01*
G01X1497036Y-3892282D01*
G01X1497036Y-3879555D01*
G01X1497264Y-3865691D01*
G01X1497491Y-3864555D01*
G01X1525218Y-3864555D01*
G01X1525218Y-3852282D01*
G01X1553855Y-3852282D01*
G01X1553855Y-3864555D01*
G01X1556127Y-3864555D01*
G01X1559082Y-3864327D01*
G01X1561355Y-3863873D01*
G01X1563855Y-3863191D01*
G01X1565673Y-3862282D01*
G01X1567036Y-3861146D01*
G01X1567946Y-3859782D01*
G01X1568627Y-3858191D01*
G01X1569082Y-3856600D01*
G01X1569309Y-3853873D01*
G01X1569309Y-3851827D01*
G01X1582718Y-3851827D01*
G01X1597264Y-3852055D01*
G01X1598400Y-3852282D01*
G01X1598400Y-3854555D01*
G37*
G36*
G01X1769309Y-3817509D02*
G01X1768855Y-3825236D01*
G01X1768173Y-3827509D01*
G01X1767718Y-3829327D01*
G01X1767036Y-3831373D01*
G01X1766127Y-3833646D01*
G01X1764991Y-3836145D01*
G01X1763627Y-3838418D01*
G01X1761354Y-3841600D01*
G01X1759991Y-3843191D01*
G01X1756582Y-3846600D01*
G01X1754309Y-3848418D01*
G01X1752946Y-3849555D01*
G01X1751127Y-3850691D01*
G01X1749082Y-3851827D01*
G01X1747264Y-3852737D01*
G01X1743627Y-3854100D01*
G01X1741582Y-3854782D01*
G01X1739536Y-3855236D01*
G01X1735900Y-3855691D01*
G01X1732264Y-3855918D01*
G01X1728627Y-3855691D01*
G01X1724991Y-3855236D01*
G01X1722718Y-3854782D01*
G01X1720218Y-3854100D01*
G01X1718173Y-3853418D01*
G01X1716355Y-3852737D01*
G01X1712718Y-3850918D01*
G01X1710900Y-3849782D01*
G01X1709309Y-3848646D01*
G01X1708173Y-3847964D01*
G01X1707036Y-3847055D01*
G01X1702036Y-3842055D01*
G01X1700673Y-3840236D01*
G01X1699536Y-3838646D01*
G01X1698400Y-3836827D01*
G01X1697491Y-3835236D01*
G01X1696582Y-3833418D01*
G01X1695673Y-3830918D01*
G01X1694764Y-3827964D01*
G01X1694082Y-3825691D01*
G01X1693627Y-3821600D01*
G01X1693400Y-3817509D01*
G01X1693627Y-3813418D01*
G01X1693854Y-3811600D01*
G01X1694309Y-3808873D01*
G01X1694991Y-3806600D01*
G01X1695446Y-3804782D01*
G01X1696127Y-3802964D01*
G01X1697036Y-3801146D01*
G01X1697945Y-3799100D01*
G01X1699082Y-3797055D01*
G01X1700218Y-3795464D01*
G01X1701127Y-3794100D01*
G01X1702264Y-3792736D01*
G01X1706809Y-3788191D01*
G01X1708627Y-3786827D01*
G01X1710673Y-3785464D01*
G01X1712491Y-3784327D01*
G01X1714309Y-3783418D01*
G01X1717491Y-3782055D01*
G01X1719309Y-3781373D01*
G01X1722037Y-3780691D01*
G01X1724536Y-3780237D01*
G01X1730673Y-3780009D01*
G01X1736127Y-3780009D01*
G01X1736127Y-3800464D01*
G01X1735673Y-3821373D01*
G01X1734536Y-3822055D01*
G01X1730673Y-3822282D01*
G01X1726809Y-3822055D01*
G01X1724536Y-3821600D01*
G01X1722946Y-3821373D01*
G01X1722946Y-3815009D01*
G01X1722718Y-3807964D01*
G01X1722320Y-3807566D01*
G01X1721582Y-3807737D01*
G01X1719536Y-3808418D01*
G01X1717946Y-3809327D01*
G01X1716809Y-3810464D01*
G01X1715673Y-3812055D01*
G01X1714991Y-3813873D01*
G01X1714764Y-3815918D01*
G01X1715218Y-3818873D01*
G01X1716355Y-3821600D01*
G01X1717491Y-3823191D01*
G01X1718400Y-3824100D01*
G01X1719536Y-3825009D01*
G01X1720900Y-3825918D01*
G01X1722946Y-3826827D01*
G01X1724991Y-3827509D01*
G01X1729764Y-3828191D01*
G01X1731355Y-3827964D01*
G01X1733400Y-3827737D01*
G01X1736354Y-3827282D01*
G01X1739082Y-3826373D01*
G01X1740900Y-3825464D01*
G01X1742718Y-3824100D01*
G01X1744764Y-3822055D01*
G01X1745900Y-3819782D01*
G01X1746354Y-3817964D01*
G01X1746354Y-3816600D01*
G01X1745900Y-3814782D01*
G01X1745218Y-3812737D01*
G01X1743855Y-3810691D01*
G01X1742946Y-3809100D01*
G01X1743400Y-3807964D01*
G01X1757036Y-3796600D01*
G01X1760673Y-3793475D01*
G01X1761127Y-3793646D01*
G01X1762036Y-3794555D01*
G01X1763173Y-3796146D01*
G01X1764309Y-3797964D01*
G01X1766127Y-3801600D01*
G01X1767036Y-3803646D01*
G01X1767945Y-3806373D01*
G01X1768627Y-3808873D01*
G01X1769082Y-3810691D01*
G01X1769309Y-3817509D01*
G37*
G36*
G01X1598400Y-3595464D02*
G01X1598173Y-3601827D01*
G01X1597491Y-3604328D01*
G01X1596809Y-3606600D01*
G01X1596127Y-3608646D01*
G01X1595218Y-3610691D01*
G01X1593400Y-3614328D01*
G01X1592264Y-3616146D01*
G01X1590900Y-3618418D01*
G01X1589536Y-3620009D01*
G01X1588627Y-3621146D01*
G01X1587491Y-3622282D01*
G01X1586127Y-3623418D01*
G01X1584536Y-3625009D01*
G01X1582264Y-3626600D01*
G01X1580218Y-3627964D01*
G01X1578173Y-3629100D01*
G01X1575900Y-3630009D01*
G01X1573400Y-3630918D01*
G01X1571355Y-3631600D01*
G01X1566809Y-3632509D01*
G01X1563173Y-3632964D01*
G01X1529764Y-3633191D01*
G01X1497036Y-3633191D01*
G01X1497036Y-3605918D01*
G01X1527036Y-3605918D01*
G01X1557718Y-3605691D01*
G01X1561809Y-3605237D01*
G01X1563855Y-3604782D01*
G01X1565900Y-3604100D01*
G01X1567491Y-3603418D01*
G01X1569309Y-3602055D01*
G01X1570673Y-3600009D01*
G01X1571355Y-3598418D01*
G01X1571582Y-3595691D01*
G01X1571127Y-3592055D01*
G01X1570218Y-3589782D01*
G01X1569309Y-3588418D01*
G01X1567718Y-3586827D01*
G01X1565900Y-3585691D01*
G01X1564309Y-3585009D01*
G01X1561582Y-3584555D01*
G01X1558173Y-3585009D01*
G01X1555446Y-3586146D01*
G01X1553855Y-3587509D01*
G01X1552718Y-3588646D01*
G01X1551582Y-3590237D01*
G01X1550900Y-3592055D01*
G01X1550673Y-3594328D01*
G01X1551127Y-3597282D01*
G01X1552036Y-3599328D01*
G01X1552718Y-3600691D01*
G01X1549139Y-3601202D01*
G01X1537945Y-3601373D01*
G01X1522945Y-3601373D01*
G01X1522945Y-3596146D01*
G01X1523173Y-3589782D01*
G01X1523627Y-3586600D01*
G01X1524309Y-3583646D01*
G01X1524991Y-3581600D01*
G01X1525673Y-3579782D01*
G01X1527491Y-3576146D01*
G01X1528627Y-3574327D01*
G01X1529764Y-3572737D01*
G01X1530673Y-3571373D01*
G01X1531809Y-3570009D01*
G01X1536355Y-3565464D01*
G01X1537491Y-3564555D01*
G01X1539082Y-3563418D01*
G01X1541127Y-3562055D01*
G01X1543173Y-3560918D01*
G01X1544991Y-3560009D01*
G01X1547036Y-3559100D01*
G01X1549991Y-3558191D01*
G01X1552264Y-3557509D01*
G01X1555446Y-3557055D01*
G01X1559309Y-3556828D01*
G01X1564536Y-3557055D01*
G01X1567718Y-3557509D01*
G01X1569536Y-3557964D01*
G01X1571582Y-3558418D01*
G01X1573855Y-3559100D01*
G01X1576127Y-3560009D01*
G01X1578627Y-3561146D01*
G01X1580900Y-3562509D01*
G01X1584082Y-3564782D01*
G01X1585673Y-3566146D01*
G01X1589082Y-3569555D01*
G01X1590445Y-3571146D01*
G01X1591582Y-3572737D01*
G01X1593400Y-3575464D01*
G01X1594309Y-3577055D01*
G01X1595218Y-3578873D01*
G01X1595900Y-3580464D01*
G01X1596582Y-3582282D01*
G01X1597264Y-3584327D01*
G01X1597718Y-3586146D01*
G01X1598173Y-3589328D01*
G01X1598400Y-3595464D01*
G37*
G36*
G01X1557491Y-3444100D02*
G01X1557264Y-3447055D01*
G01X1556582Y-3449328D01*
G01X1555673Y-3451600D01*
G01X1554991Y-3453191D01*
G01X1554082Y-3454555D01*
G01X1550673Y-3457964D01*
G01X1549082Y-3459100D01*
G01X1547264Y-3460009D01*
G01X1544991Y-3460691D01*
G01X1542718Y-3461146D01*
G01X1541127Y-3461373D01*
G01X1538627Y-3461146D01*
G01X1536355Y-3460691D01*
G01X1534537Y-3460237D01*
G01X1532718Y-3459555D01*
G01X1531127Y-3458873D01*
G01X1529764Y-3457964D01*
G01X1525673Y-3453873D01*
G01X1524764Y-3452509D01*
G01X1524082Y-3450918D01*
G01X1523400Y-3449100D01*
G01X1522945Y-3447282D01*
G01X1522718Y-3445691D01*
G01X1522718Y-3443646D01*
G01X1523173Y-3440691D01*
G01X1523855Y-3437737D01*
G01X1524991Y-3435464D01*
G01X1526127Y-3433873D01*
G01X1527945Y-3431600D01*
G01X1530218Y-3429782D01*
G01X1531809Y-3428646D01*
G01X1533855Y-3427737D01*
G01X1536127Y-3427055D01*
G01X1538627Y-3426600D01*
G01X1540446Y-3426600D01*
G01X1542264Y-3426828D01*
G01X1544764Y-3427282D01*
G01X1547264Y-3428191D01*
G01X1549536Y-3429327D01*
G01X1551127Y-3430691D01*
G01X1553855Y-3433418D01*
G01X1555218Y-3435464D01*
G01X1556127Y-3437055D01*
G01X1556809Y-3439100D01*
G01X1557264Y-3441146D01*
G01X1557491Y-3444100D01*
G37*
G36*
G01X1632036Y-3520464D02*
G01X1631809Y-3525237D01*
G01X1631355Y-3526600D01*
G01X1630900Y-3528873D01*
G01X1630218Y-3532055D01*
G01X1629309Y-3534555D01*
G01X1626070Y-3535237D01*
G01X1617264Y-3535464D01*
G01X1608570Y-3535293D01*
G01X1605673Y-3534782D01*
G01X1606127Y-3533418D01*
G01X1606809Y-3531600D01*
G01X1607264Y-3529782D01*
G01X1607718Y-3526600D01*
G01X1607718Y-3525009D01*
G01X1607264Y-3522055D01*
G01X1606582Y-3519327D01*
G01X1605900Y-3517737D01*
G01X1604764Y-3515691D01*
G01X1603400Y-3513873D01*
G01X1602264Y-3512737D01*
G01X1601127Y-3511827D01*
G01X1599536Y-3510918D01*
G01X1597264Y-3509782D01*
G01X1594991Y-3508873D01*
G01X1593627Y-3509100D01*
G01X1593855Y-3510237D01*
G01X1594764Y-3512282D01*
G01X1595673Y-3514555D01*
G01X1596355Y-3517055D01*
G01X1596809Y-3519327D01*
G01X1597037Y-3521146D01*
G01X1596809Y-3523418D01*
G01X1596355Y-3526600D01*
G01X1595673Y-3529555D01*
G01X1594991Y-3531373D01*
G01X1594082Y-3533418D01*
G01X1592491Y-3535691D01*
G01X1591127Y-3537509D01*
G01X1589991Y-3538646D01*
G01X1587718Y-3540464D01*
G01X1584082Y-3542737D01*
G01X1582491Y-3543418D01*
G01X1580673Y-3544100D01*
G01X1578400Y-3544782D01*
G01X1576355Y-3545236D01*
G01X1549991Y-3545464D01*
G01X1524309Y-3545464D01*
G01X1524309Y-3518191D01*
G01X1544991Y-3518191D01*
G01X1566582Y-3517737D01*
G01X1568627Y-3516373D01*
G01X1569480Y-3515237D01*
G01X1569764Y-3513646D01*
G01X1569309Y-3510691D01*
G01X1568173Y-3509100D01*
G01X1566582Y-3508191D01*
G01X1544991Y-3507737D01*
G01X1524309Y-3507737D01*
G01X1524309Y-3480464D01*
G01X1559309Y-3480464D01*
G01X1594991Y-3480691D01*
G01X1598173Y-3481146D01*
G01X1600445Y-3481600D01*
G01X1603400Y-3482282D01*
G01X1605445Y-3482964D01*
G01X1607036Y-3483418D01*
G01X1608627Y-3484100D01*
G01X1612264Y-3485918D01*
G01X1614082Y-3487055D01*
G01X1615673Y-3488191D01*
G01X1619082Y-3490918D01*
G01X1621355Y-3493191D01*
G01X1623173Y-3495464D01*
G01X1624309Y-3496600D01*
G01X1625445Y-3498191D01*
G01X1626582Y-3500009D01*
G01X1627491Y-3501600D01*
G01X1628400Y-3503418D01*
G01X1629309Y-3505464D01*
G01X1629991Y-3507282D01*
G01X1630673Y-3509555D01*
G01X1631355Y-3511600D01*
G01X1631809Y-3515691D01*
G01X1632036Y-3520464D01*
G37*
G36*
G01X1599309Y-3444100D02*
G01X1599082Y-3447055D01*
G01X1598400Y-3449328D01*
G01X1597491Y-3451600D01*
G01X1596809Y-3453191D01*
G01X1595900Y-3454555D01*
G01X1592491Y-3457964D01*
G01X1590900Y-3459100D01*
G01X1589082Y-3460009D01*
G01X1586809Y-3460691D01*
G01X1584536Y-3461146D01*
G01X1582718Y-3461373D01*
G01X1580900Y-3461146D01*
G01X1578173Y-3460691D01*
G01X1575445Y-3460009D01*
G01X1573627Y-3459100D01*
G01X1572037Y-3458191D01*
G01X1570673Y-3457282D01*
G01X1569309Y-3456146D01*
G01X1567491Y-3453873D01*
G01X1566355Y-3452055D01*
G01X1565446Y-3450237D01*
G01X1564991Y-3448191D01*
G01X1564536Y-3445691D01*
G01X1564536Y-3443873D01*
G01X1564991Y-3440691D01*
G01X1565446Y-3438646D01*
G01X1566355Y-3436146D01*
G01X1567491Y-3434555D01*
G01X1568173Y-3433418D01*
G01X1569082Y-3432282D01*
G01X1570218Y-3431146D01*
G01X1571809Y-3429782D01*
G01X1573627Y-3428646D01*
G01X1575445Y-3427737D01*
G01X1577264Y-3427055D01*
G01X1580445Y-3426600D01*
G01X1581809Y-3426600D01*
G01X1583400Y-3426828D01*
G01X1585445Y-3427055D01*
G01X1587946Y-3427737D01*
G01X1589764Y-3428646D01*
G01X1591355Y-3429555D01*
G01X1592946Y-3430691D01*
G01X1595673Y-3433418D01*
G01X1597037Y-3435464D01*
G01X1597946Y-3437055D01*
G01X1598627Y-3439100D01*
G01X1599082Y-3441146D01*
G01X1599309Y-3444100D01*
G37*
G54D11*
G01X2346916Y-920570D02*
G01X2346916Y-967052D01*
G01X2349964Y-976196D01*
G01X2356314Y-982546D01*
G01X2365458Y-985594D01*
G01X2371808Y-985594D01*
G01X2380952Y-982546D01*
G01X2387048Y-976196D01*
G01X2390350Y-967052D01*
G01X2390350Y-920570D01*
G01X2420576Y-933016D02*
G01X2426672Y-929714D01*
G01X2435816Y-920570D01*
G01X2435816Y-985594D01*
G01X4360111Y-1247249D02*
G01X4357063Y-1240899D01*
G01X4350713Y-1234803D01*
G01X4344617Y-1231755D01*
G01X4332171Y-1231755D01*
G01X4326075Y-1234803D01*
G01X4319725Y-1240899D01*
G01X4316677Y-1247249D01*
G01X4313629Y-1256393D01*
G01X4313629Y-1271887D01*
G01X4316677Y-1281285D01*
G01X4319725Y-1287381D01*
G01X4326075Y-1293731D01*
G01X4332171Y-1296779D01*
G01X4344617Y-1296779D01*
G01X4350713Y-1293731D01*
G01X4357063Y-1287381D01*
G01X4360111Y-1281285D01*
G01X4393385Y-1247249D02*
G01X4393385Y-1244201D01*
G01X4396433Y-1237851D01*
G01X4399481Y-1234803D01*
G01X4405577Y-1231755D01*
G01X4418023Y-1231755D01*
G01X4424373Y-1234803D01*
G01X4427421Y-1237851D01*
G01X4430469Y-1244201D01*
G01X4430469Y-1250297D01*
G01X4427421Y-1256393D01*
G01X4421071Y-1265791D01*
G01X4390337Y-1296779D01*
G01X4433517Y-1296779D01*
G01X1742030Y-2341322D02*
G01X1748380Y-2338274D01*
G01X1754476Y-2331924D01*
G01X1757524Y-2325828D01*
G01X1757524Y-2313382D01*
G01X1754476Y-2307286D01*
G01X1748380Y-2300936D01*
G01X1742030Y-2297888D01*
G01X1732886Y-2294840D01*
G01X1717392Y-2294840D01*
G01X1707994Y-2297888D01*
G01X1701898Y-2300936D01*
G01X1695548Y-2307286D01*
G01X1692500Y-2313382D01*
G01X1692500Y-2325828D01*
G01X1695548Y-2331924D01*
G01X1701898Y-2338274D01*
G01X1707994Y-2341322D01*
G01X1757524Y-2377644D02*
G01X1757524Y-2411680D01*
G01X1732886Y-2393138D01*
G01X1732886Y-2402282D01*
G01X1729838Y-2408632D01*
G01X1726536Y-2411680D01*
G01X1717392Y-2414728D01*
G01X1711042Y-2414728D01*
G01X1701898Y-2411680D01*
G01X1695548Y-2405584D01*
G01X1692500Y-2396186D01*
G01X1692500Y-2386788D01*
G01X1695548Y-2377644D01*
G01X1698850Y-2374596D01*
G01X1704946Y-2371548D01*
G01X1806049Y-2535989D02*
G01X1799699Y-2539037D01*
G01X1793603Y-2545387D01*
G01X1790555Y-2551483D01*
G01X1790555Y-2563929D01*
G01X1793603Y-2570025D01*
G01X1799699Y-2576375D01*
G01X1806049Y-2579423D01*
G01X1815193Y-2582471D01*
G01X1830687Y-2582471D01*
G01X1840085Y-2579423D01*
G01X1846181Y-2576375D01*
G01X1852531Y-2570025D01*
G01X1855579Y-2563929D01*
G01X1855579Y-2551483D01*
G01X1852531Y-2545387D01*
G01X1846181Y-2539037D01*
G01X1840085Y-2535989D01*
G01X1790555Y-2475029D02*
G01X1833735Y-2505763D01*
G01X1833735Y-2459535D01*
G01X1790555Y-2475029D02*
G01X1855579Y-2475029D01*
G01X1528011Y98951D02*
G01X1524963Y105301D01*
G01X1518613Y111397D01*
G01X1512517Y114445D01*
G01X1500071Y114445D01*
G01X1493975Y111397D01*
G01X1487625Y105301D01*
G01X1484577Y98951D01*
G01X1481529Y89807D01*
G01X1481529Y74313D01*
G01X1484577Y64915D01*
G01X1487625Y58819D01*
G01X1493975Y52469D01*
G01X1500071Y49421D01*
G01X1512517Y49421D01*
G01X1518613Y52469D01*
G01X1524963Y58819D01*
G01X1528011Y64915D01*
G01X1595321Y114445D02*
G01X1564333Y114445D01*
G01X1561285Y86759D01*
G01X1564333Y89807D01*
G01X1573477Y92855D01*
G01X1582875Y92855D01*
G01X1592273Y89807D01*
G01X1598369Y83457D01*
G01X1601417Y74313D01*
G01X1601417Y67963D01*
G01X1598369Y58819D01*
G01X1592273Y52469D01*
G01X1582875Y49421D01*
G01X1573477Y49421D01*
G01X1564333Y52469D01*
G01X1561285Y55771D01*
G01X1558237Y61867D01*
G01X1602849Y-2535989D02*
G01X1596499Y-2539037D01*
G01X1590403Y-2545387D01*
G01X1587355Y-2551483D01*
G01X1587355Y-2563929D01*
G01X1590403Y-2570025D01*
G01X1596499Y-2576375D01*
G01X1602849Y-2579423D01*
G01X1611993Y-2582471D01*
G01X1627487Y-2582471D01*
G01X1636885Y-2579423D01*
G01X1642981Y-2576375D01*
G01X1649331Y-2570025D01*
G01X1652379Y-2563929D01*
G01X1652379Y-2551483D01*
G01X1649331Y-2545387D01*
G01X1642981Y-2539037D01*
G01X1636885Y-2535989D01*
G01X1596499Y-2468679D02*
G01X1590403Y-2471727D01*
G01X1587355Y-2481125D01*
G01X1587355Y-2487221D01*
G01X1590403Y-2496619D01*
G01X1599801Y-2502715D01*
G01X1615041Y-2505763D01*
G01X1630535Y-2505763D01*
G01X1642981Y-2502715D01*
G01X1649331Y-2496619D01*
G01X1652379Y-2487221D01*
G01X1652379Y-2484173D01*
G01X1649331Y-2475029D01*
G01X1642981Y-2468679D01*
G01X1633837Y-2465631D01*
G01X1630535Y-2465631D01*
G01X1621391Y-2468679D01*
G01X1615041Y-2475029D01*
G01X1611993Y-2484173D01*
G01X1611993Y-2487221D01*
G01X1615041Y-2496619D01*
G01X1621391Y-2502715D01*
G01X1630535Y-2505763D01*
G01X3690609Y-4766353D02*
G01X3690609Y-4831377D01*
G01X3690609Y-4766353D02*
G01X3712199Y-4766353D01*
G01X3721597Y-4769401D01*
G01X3727693Y-4775497D01*
G01X3730741Y-4781847D01*
G01X3734043Y-4790991D01*
G01X3734043Y-4806485D01*
G01X3730741Y-4815883D01*
G01X3727693Y-4821979D01*
G01X3721597Y-4828329D01*
G01X3712199Y-4831377D01*
G01X3690609Y-4831377D01*
G01X3764269Y-4778799D02*
G01X3770365Y-4775497D01*
G01X3779509Y-4766353D01*
G01X3779509Y-4831377D01*
G01X2729819Y-464566D02*
G01X2729819Y-529590D01*
G01X2773253Y-464566D02*
G01X2773253Y-529590D01*
G01X2729819Y-495554D02*
G01X2773253Y-495554D01*
G01X2803479Y-477012D02*
G01X2809575Y-473710D01*
G01X2818719Y-464566D01*
G01X2818719Y-529590D01*
G01X1787141Y-2933294D02*
G01X1787141Y-2868270D01*
G01X1787141Y-2868270D02*
G01X1750057Y-2868270D01*
G01X1719831Y-2933294D02*
G01X1719831Y-2868270D01*
G01X1719831Y-2933294D02*
G01X1679699Y-2933294D01*
G01X1719831Y-2902306D02*
G01X1695193Y-2902306D01*
G01X1719831Y-2868270D02*
G01X1679699Y-2868270D01*
G01X1649473Y-2933294D02*
G01X1649473Y-2868270D01*
G01X1649473Y-2933294D02*
G01X1627883Y-2933294D01*
G01X1618739Y-2930246D01*
G01X1612389Y-2924150D01*
G01X1609341Y-2917800D01*
G01X1606293Y-2908656D01*
G01X1606293Y-2893162D01*
G01X1609341Y-2883764D01*
G01X1612389Y-2877668D01*
G01X1618739Y-2871318D01*
G01X1627883Y-2868270D01*
G01X1649473Y-2868270D01*
G01X1576067Y-2920848D02*
G01X1569971Y-2924150D01*
G01X1560827Y-2933294D01*
G01X1560827Y-2868270D01*
G01X4994462Y-2336325D02*
G01X4988366Y-2339373D01*
G01X4982016Y-2345469D01*
G01X4978968Y-2351819D01*
G01X4975920Y-2360963D01*
G01X4975920Y-2376457D01*
G01X4978968Y-2385855D01*
G01X4982016Y-2391951D01*
G01X4988366Y-2398301D01*
G01X4994462Y-2401349D01*
G01X5006908Y-2401349D01*
G01X5013004Y-2398301D01*
G01X5019354Y-2391951D01*
G01X5022402Y-2385855D01*
G01X5025450Y-2376457D01*
G01X5025450Y-2360963D01*
G01X5022402Y-2351819D01*
G01X5019354Y-2345469D01*
G01X5013004Y-2339373D01*
G01X5006908Y-2336325D01*
G01X4994462Y-2336325D01*
G01X5003860Y-2388903D02*
G01X5022402Y-2407445D01*
G01X5055676Y-2348771D02*
G01X5061772Y-2345469D01*
G01X5070916Y-2336325D01*
G01X5070916Y-2401349D01*
G01X2526109Y-4181114D02*
G01X2526109Y-4116090D01*
G01X2526109Y-4181114D02*
G01X2498169Y-4181114D01*
G01X2489025Y-4178066D01*
G01X2485977Y-4175018D01*
G01X2482675Y-4168668D01*
G01X2482675Y-4162572D01*
G01X2485977Y-4156476D01*
G01X2489025Y-4153428D01*
G01X2498169Y-4150126D01*
G01X2526109Y-4150126D01*
G01X2504519Y-4150126D02*
G01X2482675Y-4116090D01*
G01X2415365Y-4181114D02*
G01X2446353Y-4181114D01*
G01X2449401Y-4153428D01*
G01X2446353Y-4156476D01*
G01X2437209Y-4159524D01*
G01X2427811Y-4159524D01*
G01X2418413Y-4156476D01*
G01X2412317Y-4150126D01*
G01X2409269Y-4140982D01*
G01X2409269Y-4134632D01*
G01X2412317Y-4125488D01*
G01X2418413Y-4119138D01*
G01X2427811Y-4116090D01*
G01X2437209Y-4116090D01*
G01X2446353Y-4119138D01*
G01X2449401Y-4122440D01*
G01X2452449Y-4128536D01*
G01X2145109Y-2923814D02*
G01X2145109Y-2858790D01*
G01X2145109Y-2923814D02*
G01X2117169Y-2923814D01*
G01X2108025Y-2920766D01*
G01X2104977Y-2917718D01*
G01X2101675Y-2911368D01*
G01X2101675Y-2905272D01*
G01X2104977Y-2899176D01*
G01X2108025Y-2896128D01*
G01X2117169Y-2892826D01*
G01X2145109Y-2892826D01*
G01X2123519Y-2892826D02*
G01X2101675Y-2858790D01*
G01X2034365Y-2914670D02*
G01X2037413Y-2920766D01*
G01X2046811Y-2923814D01*
G01X2052907Y-2923814D01*
G01X2062305Y-2920766D01*
G01X2068401Y-2911368D01*
G01X2071449Y-2896128D01*
G01X2071449Y-2880634D01*
G01X2068401Y-2868188D01*
G01X2062305Y-2861838D01*
G01X2052907Y-2858790D01*
G01X2049859Y-2858790D01*
G01X2040715Y-2861838D01*
G01X2034365Y-2868188D01*
G01X2031317Y-2877332D01*
G01X2031317Y-2880634D01*
G01X2034365Y-2889778D01*
G01X2040715Y-2896128D01*
G01X2049859Y-2899176D01*
G01X2052907Y-2899176D01*
G01X2062305Y-2896128D01*
G01X2068401Y-2889778D01*
G01X2071449Y-2880634D01*
G01X4276222Y-3007845D02*
G01X4341246Y-3007845D01*
G01X4276222Y-3007845D02*
G01X4276222Y-2979905D01*
G01X4279270Y-2970761D01*
G01X4282318Y-2967713D01*
G01X4288668Y-2964411D01*
G01X4294764Y-2964411D01*
G01X4300860Y-2967713D01*
G01X4303908Y-2970761D01*
G01X4307210Y-2979905D01*
G01X4307210Y-3007845D01*
G01X4307210Y-2986255D02*
G01X4341246Y-2964411D01*
G01X4276222Y-2891005D02*
G01X4341246Y-2921993D01*
G01X4276222Y-2934185D02*
G01X4276222Y-2891005D01*
G01X3696891Y-3743686D02*
G01X3696891Y-3808710D01*
G01X3696891Y-3743686D02*
G01X3724831Y-3743686D01*
G01X3733975Y-3746734D01*
G01X3737023Y-3749782D01*
G01X3740325Y-3756132D01*
G01X3740325Y-3762228D01*
G01X3737023Y-3768324D01*
G01X3733975Y-3771372D01*
G01X3724831Y-3774674D01*
G01X3696891Y-3774674D01*
G01X3718481Y-3774674D02*
G01X3740325Y-3808710D01*
G01X3785791Y-3743686D02*
G01X3776647Y-3746734D01*
G01X3773599Y-3752830D01*
G01X3773599Y-3759180D01*
G01X3776647Y-3765276D01*
G01X3782743Y-3768324D01*
G01X3795189Y-3771372D01*
G01X3804587Y-3774674D01*
G01X3810683Y-3780770D01*
G01X3813731Y-3786866D01*
G01X3813731Y-3796264D01*
G01X3810683Y-3802360D01*
G01X3807635Y-3805662D01*
G01X3798237Y-3808710D01*
G01X3785791Y-3808710D01*
G01X3776647Y-3805662D01*
G01X3773599Y-3802360D01*
G01X3770551Y-3796264D01*
G01X3770551Y-3786866D01*
G01X3773599Y-3780770D01*
G01X3779695Y-3774674D01*
G01X3789093Y-3771372D01*
G01X3801285Y-3768324D01*
G01X3807635Y-3765276D01*
G01X3810683Y-3759180D01*
G01X3810683Y-3752830D01*
G01X3807635Y-3746734D01*
G01X3798237Y-3743686D01*
G01X3785791Y-3743686D01*
G01X3366691Y-3743686D02*
G01X3366691Y-3808710D01*
G01X3366691Y-3743686D02*
G01X3394631Y-3743686D01*
G01X3403775Y-3746734D01*
G01X3406823Y-3749782D01*
G01X3410125Y-3756132D01*
G01X3410125Y-3762228D01*
G01X3406823Y-3768324D01*
G01X3403775Y-3771372D01*
G01X3394631Y-3774674D01*
G01X3366691Y-3774674D01*
G01X3388281Y-3774674D02*
G01X3410125Y-3808710D01*
G01X3480483Y-3765276D02*
G01X3477435Y-3774674D01*
G01X3471085Y-3780770D01*
G01X3461941Y-3783818D01*
G01X3458893Y-3783818D01*
G01X3449495Y-3780770D01*
G01X3443399Y-3774674D01*
G01X3440351Y-3765276D01*
G01X3440351Y-3762228D01*
G01X3443399Y-3752830D01*
G01X3449495Y-3746734D01*
G01X3458893Y-3743686D01*
G01X3461941Y-3743686D01*
G01X3471085Y-3746734D01*
G01X3477435Y-3752830D01*
G01X3480483Y-3765276D01*
G01X3480483Y-3780770D01*
G01X3477435Y-3796264D01*
G01X3471085Y-3805662D01*
G01X3461941Y-3808710D01*
G01X3455591Y-3808710D01*
G01X3446447Y-3805662D01*
G01X3443399Y-3799312D01*
G01X1563291Y-5051786D02*
G01X1563291Y-5116810D01*
G01X1563291Y-5051786D02*
G01X1591231Y-5051786D01*
G01X1600375Y-5054834D01*
G01X1603423Y-5057882D01*
G01X1606725Y-5064232D01*
G01X1606725Y-5070328D01*
G01X1603423Y-5076424D01*
G01X1600375Y-5079472D01*
G01X1591231Y-5082774D01*
G01X1563291Y-5082774D01*
G01X1584881Y-5082774D02*
G01X1606725Y-5116810D01*
G01X1636951Y-5064232D02*
G01X1643047Y-5060930D01*
G01X1652191Y-5051786D01*
G01X1652191Y-5116810D01*
G01X1700959Y-5051786D02*
G01X1691561Y-5054834D01*
G01X1685465Y-5064232D01*
G01X1682417Y-5079472D01*
G01X1682417Y-5088870D01*
G01X1685465Y-5104364D01*
G01X1691561Y-5113762D01*
G01X1700959Y-5116810D01*
G01X1707055Y-5116810D01*
G01X1716453Y-5113762D01*
G01X1722549Y-5104364D01*
G01X1725597Y-5088870D01*
G01X1725597Y-5079472D01*
G01X1722549Y-5064232D01*
G01X1716453Y-5054834D01*
G01X1707055Y-5051786D01*
G01X1700959Y-5051786D01*
G01X1563291Y-4823186D02*
G01X1563291Y-4888210D01*
G01X1563291Y-4823186D02*
G01X1591231Y-4823186D01*
G01X1600375Y-4826234D01*
G01X1603423Y-4829282D01*
G01X1606725Y-4835632D01*
G01X1606725Y-4841728D01*
G01X1603423Y-4847824D01*
G01X1600375Y-4850872D01*
G01X1591231Y-4854174D01*
G01X1563291Y-4854174D01*
G01X1584881Y-4854174D02*
G01X1606725Y-4888210D01*
G01X1636951Y-4835632D02*
G01X1643047Y-4832330D01*
G01X1652191Y-4823186D01*
G01X1652191Y-4888210D01*
G01X1682417Y-4835632D02*
G01X1688513Y-4832330D01*
G01X1697657Y-4823186D01*
G01X1697657Y-4888210D01*
G01X4179491Y-3642086D02*
G01X4179491Y-3707110D01*
G01X4179491Y-3642086D02*
G01X4207431Y-3642086D01*
G01X4216575Y-3645134D01*
G01X4219623Y-3648182D01*
G01X4222925Y-3654532D01*
G01X4222925Y-3660628D01*
G01X4219623Y-3666724D01*
G01X4216575Y-3669772D01*
G01X4207431Y-3673074D01*
G01X4179491Y-3673074D01*
G01X4201081Y-3673074D02*
G01X4222925Y-3707110D01*
G01X4253151Y-3654532D02*
G01X4259247Y-3651230D01*
G01X4268391Y-3642086D01*
G01X4268391Y-3707110D01*
G01X4301665Y-3657580D02*
G01X4301665Y-3654532D01*
G01X4304713Y-3648182D01*
G01X4307761Y-3645134D01*
G01X4313857Y-3642086D01*
G01X4326303Y-3642086D01*
G01X4332653Y-3645134D01*
G01X4335701Y-3648182D01*
G01X4338749Y-3654532D01*
G01X4338749Y-3660628D01*
G01X4335701Y-3666724D01*
G01X4329351Y-3676122D01*
G01X4298617Y-3707110D01*
G01X4341797Y-3707110D01*
G01X2002922Y-2576045D02*
G01X2067946Y-2576045D01*
G01X2002922Y-2576045D02*
G01X2002922Y-2548105D01*
G01X2005970Y-2538961D01*
G01X2009018Y-2535913D01*
G01X2015368Y-2532611D01*
G01X2021464Y-2532611D01*
G01X2027560Y-2535913D01*
G01X2030608Y-2538961D01*
G01X2033910Y-2548105D01*
G01X2033910Y-2576045D01*
G01X2033910Y-2554455D02*
G01X2067946Y-2532611D01*
G01X2015368Y-2502385D02*
G01X2012066Y-2496289D01*
G01X2002922Y-2487145D01*
G01X2067946Y-2487145D01*
G01X2002922Y-2450823D02*
G01X2002922Y-2416787D01*
G01X2027560Y-2435329D01*
G01X2027560Y-2426185D01*
G01X2030608Y-2419835D01*
G01X2033910Y-2416787D01*
G01X2043054Y-2413739D01*
G01X2049404Y-2413739D01*
G01X2058548Y-2416787D01*
G01X2064898Y-2422883D01*
G01X2067946Y-2432281D01*
G01X2067946Y-2441679D01*
G01X2064898Y-2450823D01*
G01X2061596Y-2453871D01*
G01X2055500Y-2456919D01*
G01X3964615Y-3858819D02*
G01X3964615Y-3923843D01*
G01X3964615Y-3858819D02*
G01X3992555Y-3858819D01*
G01X4001699Y-3861867D01*
G01X4004747Y-3864915D01*
G01X4008049Y-3871265D01*
G01X4008049Y-3877361D01*
G01X4004747Y-3883457D01*
G01X4001699Y-3886505D01*
G01X3992555Y-3889807D01*
G01X3964615Y-3889807D01*
G01X3986205Y-3889807D02*
G01X4008049Y-3923843D01*
G01X4038275Y-3871265D02*
G01X4044371Y-3867963D01*
G01X4053515Y-3858819D01*
G01X4053515Y-3923843D01*
G01X4114475Y-3858819D02*
G01X4083741Y-3901999D01*
G01X4129969Y-3901999D01*
G01X4114475Y-3858819D02*
G01X4114475Y-3923843D01*
G01X4277086Y-2627709D02*
G01X4342110Y-2627709D01*
G01X4277086Y-2627709D02*
G01X4277086Y-2599769D01*
G01X4280134Y-2590625D01*
G01X4283182Y-2587577D01*
G01X4289532Y-2584275D01*
G01X4295628Y-2584275D01*
G01X4301724Y-2587577D01*
G01X4304772Y-2590625D01*
G01X4308074Y-2599769D01*
G01X4308074Y-2627709D01*
G01X4308074Y-2606119D02*
G01X4342110Y-2584275D01*
G01X4289532Y-2554049D02*
G01X4286230Y-2547953D01*
G01X4277086Y-2538809D01*
G01X4342110Y-2538809D01*
G01X4277086Y-2471499D02*
G01X4277086Y-2502487D01*
G01X4304772Y-2505535D01*
G01X4301724Y-2502487D01*
G01X4298676Y-2493343D01*
G01X4298676Y-2483945D01*
G01X4301724Y-2474547D01*
G01X4308074Y-2468451D01*
G01X4317218Y-2465403D01*
G01X4323568Y-2465403D01*
G01X4332712Y-2468451D01*
G01X4339062Y-2474547D01*
G01X4342110Y-2483945D01*
G01X4342110Y-2493343D01*
G01X4339062Y-2502487D01*
G01X4335760Y-2505535D01*
G01X4329664Y-2508583D01*
G01X4277086Y-2259409D02*
G01X4342110Y-2259409D01*
G01X4277086Y-2259409D02*
G01X4277086Y-2231469D01*
G01X4280134Y-2222325D01*
G01X4283182Y-2219277D01*
G01X4289532Y-2215975D01*
G01X4295628Y-2215975D01*
G01X4301724Y-2219277D01*
G01X4304772Y-2222325D01*
G01X4308074Y-2231469D01*
G01X4308074Y-2259409D01*
G01X4308074Y-2237819D02*
G01X4342110Y-2215975D01*
G01X4289532Y-2185749D02*
G01X4286230Y-2179653D01*
G01X4277086Y-2170509D01*
G01X4342110Y-2170509D01*
G01X4286230Y-2103199D02*
G01X4280134Y-2106247D01*
G01X4277086Y-2115645D01*
G01X4277086Y-2121741D01*
G01X4280134Y-2131139D01*
G01X4289532Y-2137235D01*
G01X4304772Y-2140283D01*
G01X4320266Y-2140283D01*
G01X4332712Y-2137235D01*
G01X4339062Y-2131139D01*
G01X4342110Y-2121741D01*
G01X4342110Y-2118693D01*
G01X4339062Y-2109549D01*
G01X4332712Y-2103199D01*
G01X4323568Y-2100151D01*
G01X4320266Y-2100151D01*
G01X4311122Y-2103199D01*
G01X4304772Y-2109549D01*
G01X4301724Y-2118693D01*
G01X4301724Y-2121741D01*
G01X4304772Y-2131139D01*
G01X4311122Y-2137235D01*
G01X4320266Y-2140283D01*
G01X4537710Y-1455847D02*
G01X4531614Y-1462197D01*
G01X4528566Y-1471341D01*
G01X4528566Y-1483787D01*
G01X4531614Y-1493185D01*
G01X4537710Y-1499281D01*
G01X4544060Y-1499281D01*
G01X4550156Y-1496233D01*
G01X4553204Y-1493185D01*
G01X4556252Y-1486835D01*
G01X4562602Y-1468293D01*
G01X4565650Y-1462197D01*
G01X4568698Y-1459149D01*
G01X4575048Y-1455847D01*
G01X4584192Y-1455847D01*
G01X4590542Y-1462197D01*
G01X4593590Y-1471341D01*
G01X4593590Y-1483787D01*
G01X4590542Y-1493185D01*
G01X4584192Y-1499281D01*
G01X4528566Y-1425621D02*
G01X4593590Y-1410381D01*
G01X4528566Y-1394887D02*
G01X4593590Y-1410381D01*
G01X4528566Y-1394887D02*
G01X4593590Y-1379393D01*
G01X4528566Y-1363899D02*
G01X4593590Y-1379393D01*
G01X4528566Y-1302939D02*
G01X4571746Y-1333673D01*
G01X4571746Y-1287445D01*
G01X4528566Y-1302939D02*
G01X4593590Y-1302939D01*
G01X2049750Y496192D02*
G01X2043400Y502288D01*
G01X2034256Y505336D01*
G01X2021810Y505336D01*
G01X2012412Y502288D01*
G01X2006316Y496192D01*
G01X2006316Y489842D01*
G01X2009364Y483746D01*
G01X2012412Y480698D01*
G01X2018762Y477650D01*
G01X2037304Y471300D01*
G01X2043400Y468252D01*
G01X2046448Y465204D01*
G01X2049750Y458854D01*
G01X2049750Y449710D01*
G01X2043400Y443360D01*
G01X2034256Y440312D01*
G01X2021810Y440312D01*
G01X2012412Y443360D01*
G01X2006316Y449710D01*
G01X2079976Y505336D02*
G01X2095216Y440312D01*
G01X2110710Y505336D02*
G01X2095216Y440312D01*
G01X2110710Y505336D02*
G01X2126204Y440312D01*
G01X2141698Y505336D02*
G01X2126204Y440312D01*
G01X2209008Y505336D02*
G01X2178020Y505336D01*
G01X2174972Y477650D01*
G01X2178020Y480698D01*
G01X2187164Y483746D01*
G01X2196562Y483746D01*
G01X2205960Y480698D01*
G01X2212056Y474348D01*
G01X2215104Y465204D01*
G01X2215104Y458854D01*
G01X2212056Y449710D01*
G01X2205960Y443360D01*
G01X2196562Y440312D01*
G01X2187164Y440312D01*
G01X2178020Y443360D01*
G01X2174972Y446662D01*
G01X2171924Y452758D01*
G01X4030950Y483492D02*
G01X4024600Y489588D01*
G01X4015456Y492636D01*
G01X4003010Y492636D01*
G01X3993612Y489588D01*
G01X3987516Y483492D01*
G01X3987516Y477142D01*
G01X3990564Y471046D01*
G01X3993612Y467998D01*
G01X3999962Y464950D01*
G01X4018504Y458600D01*
G01X4024600Y455552D01*
G01X4027648Y452504D01*
G01X4030950Y446154D01*
G01X4030950Y437010D01*
G01X4024600Y430660D01*
G01X4015456Y427612D01*
G01X4003010Y427612D01*
G01X3993612Y430660D01*
G01X3987516Y437010D01*
G01X4061176Y492636D02*
G01X4076416Y427612D01*
G01X4091910Y492636D02*
G01X4076416Y427612D01*
G01X4091910Y492636D02*
G01X4107404Y427612D01*
G01X4122898Y492636D02*
G01X4107404Y427612D01*
G01X4190208Y483492D02*
G01X4187160Y489588D01*
G01X4177762Y492636D01*
G01X4171666Y492636D01*
G01X4162268Y489588D01*
G01X4156172Y480190D01*
G01X4153124Y464950D01*
G01X4153124Y449456D01*
G01X4156172Y437010D01*
G01X4162268Y430660D01*
G01X4171666Y427612D01*
G01X4174714Y427612D01*
G01X4183858Y430660D01*
G01X4190208Y437010D01*
G01X4193256Y446154D01*
G01X4193256Y449456D01*
G01X4190208Y458600D01*
G01X4183858Y464950D01*
G01X4174714Y467998D01*
G01X4171666Y467998D01*
G01X4162268Y464950D01*
G01X4156172Y458600D01*
G01X4153124Y449456D01*
G01X1956054Y-4093210D02*
G01X1949704Y-4087114D01*
G01X1940560Y-4084066D01*
G01X1928114Y-4084066D01*
G01X1918716Y-4087114D01*
G01X1912620Y-4093210D01*
G01X1912620Y-4099560D01*
G01X1915668Y-4105656D01*
G01X1918716Y-4108704D01*
G01X1925066Y-4111752D01*
G01X1943608Y-4118102D01*
G01X1949704Y-4121150D01*
G01X1952752Y-4124198D01*
G01X1956054Y-4130548D01*
G01X1956054Y-4139692D01*
G01X1949704Y-4146042D01*
G01X1940560Y-4149090D01*
G01X1928114Y-4149090D01*
G01X1918716Y-4146042D01*
G01X1912620Y-4139692D01*
G01X1986280Y-4084066D02*
G01X2001520Y-4149090D01*
G01X2017014Y-4084066D02*
G01X2001520Y-4149090D01*
G01X2017014Y-4084066D02*
G01X2032508Y-4149090D01*
G01X2048002Y-4084066D02*
G01X2032508Y-4149090D01*
G01X2121408Y-4084066D02*
G01X2090420Y-4149090D01*
G01X2078228Y-4084066D02*
G01X2121408Y-4084066D01*
G01X2498984Y-1300711D02*
G01X2498984Y-1254229D01*
G01X2495936Y-1245085D01*
G01X2489586Y-1238735D01*
G01X2480442Y-1235687D01*
G01X2474092Y-1235687D01*
G01X2464948Y-1238735D01*
G01X2458852Y-1245085D01*
G01X2455550Y-1254229D01*
G01X2455550Y-1300711D01*
G01X2419228Y-1300711D02*
G01X2385192Y-1300711D01*
G01X2403734Y-1276073D01*
G01X2394590Y-1276073D01*
G01X2388240Y-1273025D01*
G01X2385192Y-1269723D01*
G01X2382144Y-1260579D01*
G01X2382144Y-1254229D01*
G01X2385192Y-1245085D01*
G01X2391288Y-1238735D01*
G01X2400686Y-1235687D01*
G01X2410084Y-1235687D01*
G01X2419228Y-1238735D01*
G01X2422276Y-1242037D01*
G01X2425324Y-1248133D01*
G01X4666005Y-1523436D02*
G01X4666005Y-1569918D01*
G01X4669053Y-1579062D01*
G01X4675403Y-1585412D01*
G01X4684547Y-1588460D01*
G01X4690897Y-1588460D01*
G01X4700041Y-1585412D01*
G01X4706137Y-1579062D01*
G01X4709439Y-1569918D01*
G01X4709439Y-1523436D01*
G01X4776749Y-1532580D02*
G01X4773701Y-1526484D01*
G01X4764303Y-1523436D01*
G01X4758207Y-1523436D01*
G01X4748809Y-1526484D01*
G01X4742713Y-1535882D01*
G01X4739665Y-1551122D01*
G01X4739665Y-1566616D01*
G01X4742713Y-1579062D01*
G01X4748809Y-1585412D01*
G01X4758207Y-1588460D01*
G01X4761255Y-1588460D01*
G01X4770399Y-1585412D01*
G01X4776749Y-1579062D01*
G01X4779797Y-1569918D01*
G01X4779797Y-1566616D01*
G01X4776749Y-1557472D01*
G01X4770399Y-1551122D01*
G01X4761255Y-1548074D01*
G01X4758207Y-1548074D01*
G01X4748809Y-1551122D01*
G01X4742713Y-1557472D01*
G01X4739665Y-1566616D01*
G01X4394223Y-2880225D02*
G01X4394223Y-2926707D01*
G01X4397271Y-2935851D01*
G01X4403621Y-2942201D01*
G01X4412765Y-2945249D01*
G01X4419115Y-2945249D01*
G01X4428259Y-2942201D01*
G01X4434355Y-2935851D01*
G01X4437657Y-2926707D01*
G01X4437657Y-2880225D01*
G01X4511063Y-2880225D02*
G01X4480075Y-2945249D01*
G01X4467883Y-2880225D02*
G01X4511063Y-2880225D01*
G01X3928580Y195666D02*
G01X3928580Y242148D01*
G01X3925532Y251292D01*
G01X3919182Y257642D01*
G01X3910038Y260690D01*
G01X3903688Y260690D01*
G01X3894544Y257642D01*
G01X3888448Y251292D01*
G01X3885146Y242148D01*
G01X3885146Y195666D01*
G01X3811740Y204810D02*
G01X3817836Y198714D01*
G01X3827234Y195666D01*
G01X3839680Y195666D01*
G01X3848824Y198714D01*
G01X3854920Y204810D01*
G01X3854920Y211160D01*
G01X3851872Y217256D01*
G01X3848824Y220304D01*
G01X3842728Y223352D01*
G01X3824186Y229702D01*
G01X3817836Y232750D01*
G01X3814788Y235798D01*
G01X3811740Y242148D01*
G01X3811740Y251292D01*
G01X3817836Y257642D01*
G01X3827234Y260690D01*
G01X3839680Y260690D01*
G01X3848824Y257642D01*
G01X3854920Y251292D01*
G01X3781514Y195666D02*
G01X3781514Y260690D01*
G01X3781514Y195666D02*
G01X3753828Y195666D01*
G01X3744430Y198714D01*
G01X3741382Y201762D01*
G01X3738334Y208112D01*
G01X3738334Y214208D01*
G01X3741382Y220304D01*
G01X3744430Y223352D01*
G01X3753828Y226654D01*
G01X3781514Y226654D02*
G01X3753828Y226654D01*
G01X3744430Y229702D01*
G01X3741382Y232750D01*
G01X3738334Y238846D01*
G01X3738334Y248244D01*
G01X3741382Y254340D01*
G01X3744430Y257642D01*
G01X3753828Y260690D01*
G01X3781514Y260690D01*
G01X3708108Y208112D02*
G01X3702012Y204810D01*
G01X3692868Y195666D01*
G01X3692868Y260690D01*
G01X3051922Y-4734154D02*
G01X3051922Y-4780636D01*
G01X3054970Y-4789780D01*
G01X3061320Y-4796130D01*
G01X3070464Y-4799178D01*
G01X3076814Y-4799178D01*
G01X3085958Y-4796130D01*
G01X3092054Y-4789780D01*
G01X3095356Y-4780636D01*
G01X3095356Y-4734154D01*
G01X3168762Y-4743298D02*
G01X3162666Y-4737202D01*
G01X3153268Y-4734154D01*
G01X3140822Y-4734154D01*
G01X3131678Y-4737202D01*
G01X3125582Y-4743298D01*
G01X3125582Y-4749648D01*
G01X3128630Y-4755744D01*
G01X3131678Y-4758792D01*
G01X3137774Y-4761840D01*
G01X3156316Y-4768190D01*
G01X3162666Y-4771238D01*
G01X3165714Y-4774286D01*
G01X3168762Y-4780636D01*
G01X3168762Y-4789780D01*
G01X3162666Y-4796130D01*
G01X3153268Y-4799178D01*
G01X3140822Y-4799178D01*
G01X3131678Y-4796130D01*
G01X3125582Y-4789780D01*
G01X3198988Y-4734154D02*
G01X3198988Y-4799178D01*
G01X3198988Y-4734154D02*
G01X3226674Y-4734154D01*
G01X3236072Y-4737202D01*
G01X3239120Y-4740250D01*
G01X3242168Y-4746600D01*
G01X3242168Y-4752696D01*
G01X3239120Y-4758792D01*
G01X3236072Y-4761840D01*
G01X3226674Y-4765142D01*
G01X3198988Y-4765142D02*
G01X3226674Y-4765142D01*
G01X3236072Y-4768190D01*
G01X3239120Y-4771238D01*
G01X3242168Y-4777334D01*
G01X3242168Y-4786732D01*
G01X3239120Y-4792828D01*
G01X3236072Y-4796130D01*
G01X3226674Y-4799178D01*
G01X3198988Y-4799178D01*
G01X3318622Y-4749648D02*
G01X3315574Y-4743298D01*
G01X3309478Y-4737202D01*
G01X3303128Y-4734154D01*
G01X3290936Y-4734154D01*
G01X3284586Y-4737202D01*
G01X3278490Y-4743298D01*
G01X3275442Y-4749648D01*
G01X3272394Y-4758792D01*
G01X3272394Y-4774286D01*
G01X3275442Y-4783684D01*
G01X3278490Y-4789780D01*
G01X3284586Y-4796130D01*
G01X3290936Y-4799178D01*
G01X3303128Y-4799178D01*
G01X3309478Y-4796130D01*
G01X3315574Y-4789780D01*
G01X3318622Y-4783684D01*
G01X3348848Y-4746600D02*
G01X3354944Y-4743298D01*
G01X3364088Y-4734154D01*
G01X3364088Y-4799178D01*
G04 Text End*

G04 PolygonModel Start*
G54D12*
G01X1968500Y-3530600D02*
G01X1968500Y-3670300D01*
G01X2171700Y-3517900D02*
G01X2171700Y-3670300D01*
G01X1955800Y-3771900D02*
G01X1955800Y-3797300D01*
G01X1993900Y-3835400D01*
G01X2146300Y-3835400D01*
G01X2209800Y-3771900D01*
G54D13*
G01X4019017Y-1644165D02*
G01X4019017Y-1155705D01*
G01X4019017Y-1155705D02*
G01X3795497Y-1155705D01*
G01X3815817Y-1644165D02*
G01X3815817Y-1155705D01*
G01X3815817Y-1155705D02*
G01X3530600Y-1155705D01*
G01X3530600Y-1155705D02*
G01X3530600Y-1371605D01*
G01X3530600Y-1371605D02*
G01X3276600Y-1371605D01*
G01X3276600Y-1371605D02*
G01X3276600Y-1155705D01*
G01X3276600Y-1155705D02*
G01X3022600Y-1155705D01*
G01X3022600Y-1155705D02*
G01X3022600Y-1371605D01*
G01X3022600Y-1371605D02*
G01X2794000Y-1371605D01*
G01X2794000Y-1371605D02*
G01X2794000Y-1155705D01*
G01X2794000Y-1155705D02*
G01X2565400Y-1155705D01*
G01X2565400Y-1155705D02*
G01X2565400Y-1524005D01*
G01X2389299Y-1644165D02*
G01X4191000Y-1644165D01*
G01X4191000Y-1722090D02*
G01X4191000Y-1041405D01*
G01X4055915Y-3594105D02*
G01X4191000Y-3594105D01*
G01X4191000Y-3594105D02*
G01X4191000Y-3509320D01*
G01X2389299Y-3509320D02*
G01X2389299Y-3594105D01*
G01X2389299Y-3594105D02*
G01X2522685Y-3594105D01*
G01X2389299Y-1040204D02*
G01X2389299Y-1722090D01*
G01X4189301Y-1040204D02*
G01X2389299Y-1040204D01*
G36*
G01X2536444Y-1769702D02*
G02X2642159Y-1769702I52857J0D01*
G02X2536444Y-1769702I-52857J0D01*
G37*
G01X4429681Y-1493357D02*
G01X4349684Y-1493357D01*
G01X4485726Y-1493403D02*
G01X4565724Y-1493403D01*
G01X4429681Y-1351389D02*
G01X4349684Y-1351389D01*
G01X4485726Y-1351437D02*
G01X4565724Y-1351437D01*
G01X4318709Y-1462375D02*
G01X4318709Y-1382370D01*
G01X4596702Y-1382423D02*
G01X4596702Y-1462425D01*
G01X4565719Y-1351437D02*
G02X4596702Y-1382423I0J-30983D01*
G01X4596702Y-1462420D02*
G02X4565719Y-1493403I-30983J0D01*
G01X4349689Y-1493357D02*
G02X4318709Y-1462375I3J30983D01*
G01X4318709Y-1382377D02*
G02X4349689Y-1351389I30983J5D01*
G01X1495922Y-2410893D02*
G01X1495922Y-2330896D01*
G01X1495876Y-2466938D02*
G01X1495876Y-2546935D01*
G01X1637890Y-2410893D02*
G01X1637890Y-2330896D01*
G01X1637842Y-2466938D02*
G01X1637842Y-2546935D01*
G01X1526904Y-2299920D02*
G01X1606909Y-2299920D01*
G01X1606856Y-2577913D02*
G01X1526854Y-2577913D01*
G01X1637842Y-2546930D02*
G02X1606856Y-2577913I-30983J0D01*
G01X1526859Y-2577913D02*
G02X1495876Y-2546930I0J30983D01*
G01X1495922Y-2330901D02*
G02X1526904Y-2299920I30983J-3D01*
G01X1606902Y-2299920D02*
G02X1637890Y-2330901I5J-30983D01*
G01X2052157Y-2466419D02*
G01X2052157Y-2546416D01*
G01X2052203Y-2410374D02*
G01X2052203Y-2330376D01*
G01X1910189Y-2466419D02*
G01X1910189Y-2546416D01*
G01X1910237Y-2410374D02*
G01X1910237Y-2330376D01*
G01X2021175Y-2577391D02*
G01X1941170Y-2577391D01*
G01X1941223Y-2299398D02*
G01X2021225Y-2299398D01*
G01X1910237Y-2330381D02*
G02X1941223Y-2299398I30983J0D01*
G01X2021220Y-2299398D02*
G02X2052203Y-2330381I0J-30983D01*
G01X2052157Y-2546411D02*
G02X2021175Y-2577391I-30983J3D01*
G01X1941177Y-2577391D02*
G02X1910189Y-2546411I-5J30983D01*
G01X1597581Y-147157D02*
G01X1517584Y-147157D01*
G01X1653626Y-147203D02*
G01X1733624Y-147203D01*
G01X1597581Y-5189D02*
G01X1517584Y-5189D01*
G01X1653626Y-5237D02*
G01X1733624Y-5237D01*
G01X1486609Y-116175D02*
G01X1486609Y-36170D01*
G01X1764602Y-36223D02*
G01X1764602Y-116225D01*
G01X1733619Y-5237D02*
G02X1764602Y-36223I0J-30983D01*
G01X1764602Y-116220D02*
G02X1733619Y-147203I-30983J0D01*
G01X1517589Y-147157D02*
G02X1486609Y-116175I3J30983D01*
G01X1486609Y-36177D02*
G02X1517589Y-5189I30983J5D01*
G01X1848957Y-2466419D02*
G01X1848957Y-2546416D01*
G01X1849003Y-2410374D02*
G01X1849003Y-2330376D01*
G01X1706989Y-2466419D02*
G01X1706989Y-2546416D01*
G01X1707037Y-2410374D02*
G01X1707037Y-2330376D01*
G01X1817975Y-2577391D02*
G01X1737970Y-2577391D01*
G01X1738023Y-2299398D02*
G01X1818025Y-2299398D01*
G01X1707037Y-2330381D02*
G02X1738023Y-2299398I30983J0D01*
G01X1818020Y-2299398D02*
G02X1849003Y-2330381I0J-30983D01*
G01X1848957Y-2546411D02*
G02X1817975Y-2577391I-30983J3D01*
G01X1737977Y-2577391D02*
G02X1706989Y-2546411I-5J30983D01*
G54D14*
G01X3935703Y-5184117D02*
G01X3935703Y-5204117D01*
G01X3935703Y-5264117D02*
G01X3935703Y-5244117D01*
G01X4095703Y-5264117D02*
G01X4095703Y-5244117D01*
G01X4095703Y-5184117D02*
G01X4095703Y-5204117D01*
G01X4035703Y-5264117D02*
G01X4095703Y-5264117D01*
G01X3935703Y-5264117D02*
G01X3995703Y-5264117D01*
G01X3995703Y-5184117D02*
G01X3935703Y-5184117D01*
G01X4035703Y-5184117D02*
G01X4095703Y-5184117D01*
G54D13*
G01X3792901Y-584200D02*
G01X3792901Y-838200D01*
G01X2734899Y-584200D02*
G01X3792901Y-584200D01*
G01X3012252Y-584200D02*
G01X3012252Y-838200D01*
G01X2734899Y-838200D02*
G01X3792901Y-838200D01*
G01X2734899Y-584200D02*
G01X2734899Y-838200D01*
G54D16*
G01X1616258Y-2710848D02*
G01X1617254Y-2710848D01*
G01X1617254Y-2710848D02*
G01X1650258Y-2743853D01*
G01X1616258Y-2778851D02*
G01X1616258Y-2777853D01*
G01X1616258Y-2777853D02*
G01X1650258Y-2743853D01*
G01X1616258Y-2778851D02*
G01X1616258Y-2710848D01*
G01X1614254Y-2818859D02*
G01X1499253Y-2818859D01*
G01X1614254Y-2668847D02*
G01X1499253Y-2668847D01*
G01X1499253Y-2818849D02*
G01X1499253Y-2670856D01*
G01X1652255Y-2668615D02*
G01X1757266Y-2668615D01*
G01X1787261Y-2708623D02*
G01X1787261Y-2698620D01*
G01X1787261Y-2698620D02*
G01X1757266Y-2668615D01*
G01X1787261Y-2778618D02*
G01X1787261Y-2708623D01*
G01X1787261Y-2778618D02*
G01X1787261Y-2788633D01*
G01X1787261Y-2788633D02*
G01X1757266Y-2818628D01*
G01X1652255Y-2818628D02*
G01X1757266Y-2818628D01*
G01X1616258Y-2743853D02*
G01X1650258Y-2743853D01*
G54D11*
G01X5203421Y-2450879D02*
G01X5058179Y-2450879D01*
G01X5058179Y-2450879D02*
G01X5058179Y-2554041D01*
G01X5203421Y-2756121D02*
G01X5058179Y-2756121D01*
G01X5058179Y-2756121D02*
G01X5058179Y-2652959D01*
G01X5203421Y-2557960D02*
G01X5203421Y-2649040D01*
G01X2344979Y-3934440D02*
G01X2249091Y-3934440D01*
G01X2249091Y-3934440D02*
G01X2249091Y-4066560D01*
G01X2249091Y-4066560D02*
G01X2344979Y-4066560D01*
G01X2430221Y-3934440D02*
G01X2526109Y-3934440D01*
G01X2526109Y-3934440D02*
G01X2526109Y-4066560D01*
G01X2526109Y-4066560D02*
G01X2430221Y-4066560D01*
G01X1963979Y-2677140D02*
G01X1868091Y-2677140D01*
G01X1868091Y-2677140D02*
G01X1868091Y-2809260D01*
G01X1868091Y-2809260D02*
G01X1963979Y-2809260D01*
G01X2049221Y-2677140D02*
G01X2145109Y-2677140D01*
G01X2145109Y-2677140D02*
G01X2145109Y-2809260D01*
G01X2145109Y-2809260D02*
G01X2049221Y-2809260D01*
G01X4522897Y-2826715D02*
G01X4522897Y-2730828D01*
G01X4522897Y-2730828D02*
G01X4390776Y-2730828D01*
G01X4390776Y-2730828D02*
G01X4390776Y-2826715D01*
G01X4522897Y-2911958D02*
G01X4522897Y-3007845D01*
G01X4522897Y-3007845D02*
G01X4390776Y-3007845D01*
G01X4390776Y-3007845D02*
G01X4390776Y-2911958D01*
G01X3878021Y-3990360D02*
G01X3973909Y-3990360D01*
G01X3973909Y-3990360D02*
G01X3973909Y-3858240D01*
G01X3973909Y-3858240D02*
G01X3878021Y-3858240D01*
G01X3792779Y-3990360D02*
G01X3696891Y-3990360D01*
G01X3696891Y-3990360D02*
G01X3696891Y-3858240D01*
G01X3696891Y-3858240D02*
G01X3792779Y-3858240D01*
G01X3547821Y-3990360D02*
G01X3643709Y-3990360D01*
G01X3643709Y-3990360D02*
G01X3643709Y-3858240D01*
G01X3643709Y-3858240D02*
G01X3547821Y-3858240D01*
G01X3462579Y-3990360D02*
G01X3366691Y-3990360D01*
G01X3366691Y-3990360D02*
G01X3366691Y-3858240D01*
G01X3366691Y-3858240D02*
G01X3462579Y-3858240D01*
G01X1744421Y-5298460D02*
G01X1840309Y-5298460D01*
G01X1840309Y-5298460D02*
G01X1840309Y-5166340D01*
G01X1840309Y-5166340D02*
G01X1744421Y-5166340D01*
G01X1659179Y-5298460D02*
G01X1563291Y-5298460D01*
G01X1563291Y-5298460D02*
G01X1563291Y-5166340D01*
G01X1563291Y-5166340D02*
G01X1659179Y-5166340D01*
G01X1744421Y-5069860D02*
G01X1840309Y-5069860D01*
G01X1840309Y-5069860D02*
G01X1840309Y-4937740D01*
G01X1840309Y-4937740D02*
G01X1744421Y-4937740D01*
G01X1659179Y-5069860D02*
G01X1563291Y-5069860D01*
G01X1563291Y-5069860D02*
G01X1563291Y-4937740D01*
G01X1563291Y-4937740D02*
G01X1659179Y-4937740D01*
G01X4360621Y-3888760D02*
G01X4456509Y-3888760D01*
G01X4456509Y-3888760D02*
G01X4456509Y-3756640D01*
G01X4456509Y-3756640D02*
G01X4360621Y-3756640D01*
G01X4275379Y-3888760D02*
G01X4179491Y-3888760D01*
G01X4179491Y-3888760D02*
G01X4179491Y-3756640D01*
G01X4179491Y-3756640D02*
G01X4275379Y-3756640D01*
G01X2249597Y-2394915D02*
G01X2249597Y-2299028D01*
G01X2249597Y-2299028D02*
G01X2117476Y-2299028D01*
G01X2117476Y-2299028D02*
G01X2117476Y-2394915D01*
G01X2249597Y-2480158D02*
G01X2249597Y-2576045D01*
G01X2249597Y-2576045D02*
G01X2117476Y-2576045D01*
G01X2117476Y-2576045D02*
G01X2117476Y-2480158D01*
G54D13*
G01X5107003Y-4342229D02*
G01X5107003Y-3978709D01*
G01X5107003Y-3978709D02*
G01X4037005Y-3978709D01*
G01X4037005Y-3978709D02*
G01X4037005Y-4342229D01*
G01X4865065Y-5114707D02*
G01X5107000Y-5114707D01*
G01X4615066Y-5114707D02*
G01X4778934Y-5114707D01*
G01X4365066Y-5114707D02*
G01X4528934Y-5114707D01*
G01X4037002Y-4585180D02*
G01X4037002Y-5114707D01*
G01X4037002Y-5114707D02*
G01X4278935Y-5114707D01*
G01X5107000Y-5114707D02*
G01X5107000Y-4585180D01*
G54D17*
G01X4508503Y-4464403D02*
G01X4635503Y-4464403D01*
G01X4572003Y-4527903D02*
G01X4572003Y-4400903D01*
G54D13*
G01X4343403Y-4273903D02*
G01X4800603Y-4273903D01*
G01X4341533Y-4272351D02*
G03X4802467Y-4272351I230467J-192055D01*
G54D11*
G01X4523760Y-2446579D02*
G01X4523760Y-2350691D01*
G01X4523760Y-2350691D02*
G01X4391640Y-2350691D01*
G01X4391640Y-2350691D02*
G01X4391640Y-2446579D01*
G01X4523760Y-2531821D02*
G01X4523760Y-2627709D01*
G01X4523760Y-2627709D02*
G01X4391640Y-2627709D01*
G01X4391640Y-2627709D02*
G01X4391640Y-2531821D01*
G01X4523760Y-2078279D02*
G01X4523760Y-1982391D01*
G01X4523760Y-1982391D02*
G01X4391640Y-1982391D01*
G01X4391640Y-1982391D02*
G01X4391640Y-2078279D01*
G01X4523760Y-2163521D02*
G01X4523760Y-2259409D01*
G01X4523760Y-2259409D02*
G01X4391640Y-2259409D01*
G01X4391640Y-2259409D02*
G01X4391640Y-2163521D01*
G54D13*
G01X5670189Y-1008311D02*
G01X5270190Y-1008311D01*
G01X5670189Y-1158314D02*
G01X5670189Y-1008311D01*
G01X5270190Y-1158314D02*
G01X5670189Y-1158314D01*
G01X4920191Y-1420198D02*
G01X4920191Y-510200D01*
G01X5270190Y-510200D02*
G01X4920191Y-510200D01*
G01X5270190Y-1420198D02*
G01X4920191Y-1420198D01*
G01X5270190Y-1420198D02*
G01X5270190Y-510200D01*
G54D18*
G01X2644021Y-409219D02*
G01X2644021Y-195214D01*
G01X2644021Y206019D02*
G01X2644021Y-7986D01*
G54D11*
G01X2644021Y-409219D02*
G01X1978779Y-409219D01*
G01X1978779Y-409219D02*
G01X1978779Y-197521D01*
G01X1978779Y206019D02*
G01X1978779Y-5679D01*
G01X2644021Y206019D02*
G01X1978779Y206019D01*
G54D18*
G01X4625221Y-421919D02*
G01X4625221Y-207914D01*
G01X4625221Y193319D02*
G01X4625221Y-20686D01*
G54D11*
G01X4625221Y-421919D02*
G01X3959979Y-421919D01*
G01X3959979Y-421919D02*
G01X3959979Y-210221D01*
G01X3959979Y193319D02*
G01X3959979Y-18379D01*
G01X4625221Y193319D02*
G01X3959979Y193319D01*
G54D18*
G01X2491621Y-4816119D02*
G01X2491621Y-4602114D01*
G01X2491621Y-4200881D02*
G01X2491621Y-4414886D01*
G54D11*
G01X2491621Y-4816119D02*
G01X1826379Y-4816119D01*
G01X1826379Y-4816119D02*
G01X1826379Y-4604421D01*
G01X1826379Y-4200881D02*
G01X1826379Y-4412579D01*
G01X2491621Y-4200881D02*
G01X1826379Y-4200881D01*
G54D13*
G01X2154199Y-1470901D02*
G01X1554201Y-1470901D01*
G01X2154199Y-1470901D02*
G01X2154199Y-710898D01*
G01X1554201Y-710898D02*
G01X1554201Y-1466802D01*
G01X2154199Y-710898D02*
G01X2054200Y-710898D01*
G01X2054200Y-710898D02*
G01X2054200Y-870900D01*
G01X1554206Y-710903D02*
G01X1654205Y-710903D01*
G01X1654205Y-710903D02*
G01X1654205Y-870900D01*
G01X2054200Y-870900D02*
G01X2054200Y-1250902D01*
G01X2054200Y-1250902D02*
G01X1994197Y-1250902D01*
G01X1994197Y-1250902D02*
G01X1994197Y-870900D01*
G01X1714203Y-870900D02*
G01X1714203Y-1250902D01*
G01X1714203Y-1250902D02*
G01X1654200Y-1250902D01*
G01X1654200Y-1250902D02*
G01X1654200Y-870900D01*
G01X1954200Y-1470901D02*
G01X1954200Y-1040900D01*
G01X1954200Y-1040900D02*
G01X1754200Y-1040900D01*
G01X1754200Y-1040900D02*
G01X1754200Y-1460904D01*
G01X2054200Y-870900D02*
G01X2052315Y-870900D01*
G01X1856085Y-870900D02*
G01X1852315Y-870900D01*
G01X1656085Y-870900D02*
G01X1654205Y-870900D01*
G01X4736109Y-1776197D02*
G01X5246116Y-1776197D01*
G01X5246091Y-1776197D02*
G01X5246091Y-2186203D01*
G01X5246091Y-2186203D02*
G01X4736084Y-2186203D01*
G01X4736109Y-1901190D02*
G01X4736109Y-1776197D01*
G01X4736109Y-2061210D02*
G01X4736109Y-2186203D01*
G01X4741113Y-1901190D02*
G02X4741113Y-2061210I-37529J-80010D01*
G54D11*
G01X4643458Y-3660021D02*
G01X4643458Y-2994779D01*
G01X4643458Y-2994779D02*
G01X4937737Y-2994779D01*
G01X4937737Y-2994779D02*
G01X4937737Y-3660021D01*
G01X4937737Y-3660021D02*
G01X4643458Y-3660021D01*
G54D13*
G01X2651209Y862597D02*
G01X3851206Y862597D01*
G01X3851206Y385415D02*
G01X3851206Y379908D01*
G01X2651209Y779803D02*
G01X2651209Y2357605D01*
G01X2651209Y2357605D02*
G01X3851206Y2357605D01*
G01X3851206Y2357605D02*
G01X3851206Y779803D01*
G01X2798575Y372608D02*
G01X2651209Y372608D01*
G01X2651209Y372608D02*
G01X2651209Y385415D01*
G01X3048587Y372608D02*
G01X3003827Y372608D01*
G01X3498573Y372608D02*
G01X3453839Y372608D01*
G01X3851206Y385415D02*
G01X3851206Y372608D01*
G01X3851206Y372608D02*
G01X3703825Y372608D01*
G01X2842402Y-5141371D02*
G01X2842402Y-4955080D01*
G01X3736401Y-5513210D02*
G01X2842402Y-5513210D01*
G01X2842402Y-5513210D02*
G01X2842402Y-5365079D01*
G01X3736401Y-5141407D02*
G01X3736401Y-4955045D01*
G01X3736401Y-5513210D02*
G01X3736401Y-5365044D01*

G04 Rect Start*
G01X3060713Y1906600D02*
G01X3060713Y1665300D01*
G01X2743213Y1665300D01*
G01X2743213Y1906600D01*
G01X3060713Y1906600D01*
G01X3759213Y1906600D02*
G01X3759213Y1665300D01*
G01X3441713Y1665300D01*
G01X3441713Y1906600D01*
G01X3759213Y1906600D01*
G04 Rect End*

G04 Circle Start*
G54D19*
G01X1810119Y-3683000D02*
G03X2355481Y-3683000I272681J0D01*
G03X1810119Y-3683000I-272681J0D01*
G54D13*
G01X4671085Y-2231212D02*
G03X4705121Y-2231212I17018J0D01*
G03X4671085Y-2231212I-17018J0D01*
G04 Circle End*

M02*

