G04 Layer: DrillDrawingLayer*
G04 EasyEDA Pro v2.2.45.4, 2026-01-19 10:00:02*
G04 Gerber Generator version 0.3*
G04 Scale: 100 percent, Rotated: No, Reflected: No*
G04 Dimensions in millimeters*
G04 Leading zeros omitted, absolute positions, 4 integers and 5 decimals*
G04 Generated by one-click*
%FSLAX45Y45*%
%MOMM*%
%AMIconRect*4,1,4,0.28,-0.28,-0.28,-0.28,-0.28,0.28,0.28,0.28,0.28,-0.28,0*4,0,4,0.233333,-0.233333,0.233333,0.233333,-0.233333,0.233333,-0.233333,-0.233333,0.233333,-0.233333,0*%
%AMIconTriangle*4,1,3,-0.339593,0.240473,0.339593,0.240473,0,-0.37884,-0.339593,0.240473,0*4,0,3,-0.265673,0.19404,0,-0.27342,0.266233,0.19404,-0.265673,0.19404,0*%
%AMIconStar6*4,1,12,0.12068,0.20888,0.298527,0.172713,0.241313,0,0.298527,-0.17206,0.12068,-0.208227,0,-0.344073,-0.120073,-0.208227,-0.298573,-0.17206,-0.240707,0,-0.298573,0.17206,-0.120073,0.20888,0,0.344073,0.12068,0.20888,0*4,0,12,-0.000467,0.273467,-0.090067,0.171733,-0.237533,0.136733,-0.193667,-0.007467,-0.237533,-0.1372,-0.090067,-0.171733,-0.000467,-0.273933,0.090067,-0.171733,0.237533,-0.1372,0.194133,0.007,0.237533,0.1372,0.090067,0.171267,-0.000467,0.273467,0*%
%AMIconStar4*4,1,8,-0.311733,0.311733,0,0.202533,0.311733,0.311733,0.202533,0,0.311733,-0.311733,0,-0.202533,-0.304407,-0.311733,-0.202533,0,-0.311733,0.311733,0*4,0,8,0.233333,-0.233333,0.1512,0,0.233333,0.233333,0,0.1512,-0.233333,0.233333,-0.1512,0,-0.233333,-0.233333,0,-0.1512,0.233333,-0.233333,0*%
%AMIconPlus*4,1,12,0.1736,-0.28,-0.1736,-0.28,-0.1736,-0.1736,-0.28,-0.1736,-0.28,0.1736,-0.1736,0.1736,-0.1736,0.28,0.1736,0.28,0.1736,0.1736,0.28,0.1736,0.28,-0.1736,0.1736,-0.1736,0.1736,-0.28,0*4,0,12,0.126933,-0.233333,0.126933,-0.126933,0.233333,-0.126933,0.233333,0.126933,0.126933,0.126933,0.126933,0.233333,-0.126933,0.233333,-0.126933,0.126933,-0.233333,0.126933,-0.233333,-0.126933,-0.126933,-0.126933,-0.126933,-0.233333,0.126933,-0.233333,0*%
%AMIconX*4,1,16,0.28,-0.28,0.076347,-0.28,0,-0.203653,-0.076347,-0.28,-0.28,-0.28,-0.28,-0.076347,-0.203653,0,-0.28,0.076347,-0.28,0.28,-0.076347,0.28,0,0.203653,0.076347,0.28,0.28,0.28,0.28,0.076347,0.203653,0,0.28,-0.076347,0.28,-0.28,0*4,0,16,0.23352,-0.23296,0.23352,-0.095853,0.137107,0.000093,0.23352,0.095853,0.23352,0.2331,0.095853,0.2331,0,0.137107,-0.095853,0.2331,-0.23352,0.2331,-0.23352,0.095853,-0.137107,0.000093,-0.23352,-0.095853,-0.23352,-0.23296,-0.095853,-0.23296,0,-0.137107,0.095853,-0.23296,0.23352,-0.23296,0*%
%AMIconDiamond*4,1,4,0,-0.364,-0.364,0,0,0.364,0.364,0,0,-0.364,0*4,0,4,0,-0.284807,0.284807,0,0,0.28504,-0.284807,0,0,-0.284807,0*%
%AMIconRect2*4,1,6,0.28,-0.28,-0.28,-0.28,-0.28,0.28,-0.23352,0.2331,-0.233333,-0.233333,0.23352,-0.233333,0.28,-0.28,0*4,1,6,0.28,-0.28,0.23352,-0.233333,0.23352,0.2331,-0.23352,0.2331,-0.28,0.28,0.28,0.28,0.28,-0.28,0*4,1,6,0.186853,-0.186667,-0.186667,-0.186667,-0.186667,0.186853,-0.14,0.140187,-0.14,-0.14,0.140187,-0.14,0.186853,-0.186667,0*4,1,6,0.186853,-0.186667,0.140187,-0.14,0.140187,0.140187,-0.14,0.140187,-0.186667,0.186853,0.186853,0.186853,0.186853,-0.186667,0*%
%AMCharA*4,1,8,-0.170893,-0.26096,-0.21448,-0.244347,-0.021187,0.26096,0.0224,0.26096,0.21448,-0.244347,0.170893,-0.26096,0.10696,-0.09268,-0.106587,-0.09268,-0.170893,-0.26096,0*4,0,3,-0.088667,-0.046013,0.089133,-0.046013,0.000467,0.18732,-0.088667,-0.046013,0*%
%AMCharB*4,1,17,-0.183587,-0.26516,-0.183587,0.26516,0.046947,0.26516,0.123293,0.241453,0.15596,0.212427,0.183587,0.159787,0.1834,0.093053,0.160067,0.04732,0.132627,0.01792,0.121053,0.01176,0.132627,0.005413,0.160067,-0.023987,0.1834,-0.06972,0.183587,-0.159787,0.15596,-0.212427,0.123293,-0.24164,0.046947,-0.26516,-0.183587,-0.26516,0*4,0,10,-0.13692,-0.218493,0.043213,-0.218493,0.103413,-0.1988,0.120213,-0.182187,0.139347,-0.14392,0.139347,-0.08596,0.120213,-0.048347,0.103413,-0.03164,0.043213,-0.012133,-0.13692,-0.012133,-0.13692,-0.218493,0*4,0,10,-0.13692,0.034533,0.04312,0.034533,0.103413,0.054973,0.120213,0.071773,0.139347,0.109293,0.139347,0.143733,0.120213,0.182187,0.103413,0.1988,0.043213,0.218493,-0.13692,0.218493,-0.13692,0.034533,0*%
%ADD10IconRect*%
%ADD11C,0.616X0.522667*%
%ADD12IconTriangle*%
%ADD13IconStar6*%
%ADD14IconStar4*%
%ADD15IconPlus*%
%ADD16IconX*%
%ADD17IconDiamond*%
%ADD18IconRect2*%
%ADD19CharA*%
%ADD20CharB*%
G75*


G04 Drill Drawing Start*
G54D10*
G01X4096995Y-4463694D03*
G01X5047005Y-4463694D03*
G54D11*
G01X1754200Y-850900D03*
G01X1954200Y-850900D03*
G54D12*
G01X2666200Y582600D03*
G01X3836200Y582600D03*
G54D13*
G01X2856789Y-5251209D03*
G01X3721811Y-5251209D03*
G54D14*
G01X2856789Y-4833226D03*
G01X3721811Y-4833226D03*
G54D15*
G01X5095189Y-1305204D03*
G01X5095189Y-625196D03*
G54D16*
G01X3026220Y582600D03*
G01X3476206Y582600D03*
G54D17*
G01X2999308Y-4883239D03*
G01X3579292Y-4883239D03*
G54D18*
G01X2882900Y-711200D03*
G01X3136900Y-711200D03*
G01X3390900Y-711200D03*
G01X3644900Y-711200D03*
G54D19*
G01X2901201Y382600D03*
G01X3151213Y382600D03*
G01X3351213Y382600D03*
G01X3601199Y382600D03*
G01X4322013Y-5213706D03*
G01X4572000Y-5213706D03*
G01X4822012Y-5213706D03*
G54D20*
G01X1828800Y-2641600D03*
G01X1968500Y-2984500D03*
G01X2223399Y-3703211D03*
G01X2261895Y-2459914D03*
G01X2268532Y-2337204D03*
G01X2273300Y-3175000D03*
G01X2285136Y-2540000D03*
G01X2294296Y-1977205D03*
G01X2312264Y-3580933D03*
G01X2427453Y-4390657D03*
G01X2527300Y-1346200D03*
G01X2538705Y-3923805D03*
G01X2541295Y-2155114D03*
G01X2698902Y-863600D03*
G01X2730500Y-1371600D03*
G01X2744495Y-4025405D03*
G01X2768600Y-2260600D03*
G01X2795295Y-2882405D03*
G01X2846095Y-4025405D03*
G01X2997200Y-2425700D03*
G01X3021305Y-3441205D03*
G01X3049295Y-926605D03*
G01X3175000Y-3898900D03*
G01X3201695Y-4609605D03*
G01X3328695Y-952005D03*
G01X3340506Y-4609605D03*
G01X3402305Y-926605D03*
G01X3467100Y-4318000D03*
G01X3656305Y-926605D03*
G01X4166464Y-3670300D03*
G01X4241800Y-1447800D03*
G01X4443395Y-2638842D03*
G01X4547464Y-3568700D03*
G01X4553102Y-1498600D03*
G01X4609236Y-2641600D03*
G01X4621505Y-1460005D03*
G01X4621505Y-1129805D03*
G01X4648200Y-2235200D03*
G01X4660900Y-1842364D03*
G01X4749800Y-1092200D03*
G01X4781702Y-1574800D03*
G01X4812436Y-2387600D03*
G01X4838700Y-1461364D03*
G01X4876800Y-1588770D03*
G01X4951400Y-2419096D03*
G01X5054600Y-2272030D03*
G01X5154600Y-2622296D03*
G01X5257800Y-1968500D03*
G04 Drill Drawing End*

M02*

