G04 Layer: BottomSolderMaskLayer*
G04 EasyEDA Pro v2.2.45.4, 2026-01-19 10:00:02*
G04 Gerber Generator version 0.3*
G04 Scale: 100 percent, Rotated: No, Reflected: No*
G04 Dimensions in millimeters*
G04 Leading zeros omitted, absolute positions, 4 integers and 5 decimals*
G04 Generated by one-click*
%FSLAX45Y45*%
%MOMM*%
%AMRoundRect*1,1,$1,$2,$3*1,1,$1,$4,$5*1,1,$1,0-$2,0-$3*1,1,$1,0-$4,0-$5*20,1,$1,$2,$3,$4,$5,0*20,1,$1,$4,$5,0-$2,0-$3,0*20,1,$1,0-$2,0-$3,0-$4,0-$5,0*20,1,$1,0-$4,0-$5,$2,$3,0*4,1,4,$2,$3,$4,$5,0-$2,0-$3,0-$4,0-$5,$2,$3,0*%
%ADD10RoundRect,0.09618X-0.85271X0.85271X0.85271X0.85271*%
%ADD11C,1.8016*%
%ADD12C,1.80002*%
%ADD13O,2.90002X2.10002*%
%ADD14RoundRect,0.09516X-0.75322X0.70322X0.75322X0.70322*%
%ADD15C,1.5016*%
%ADD16O,2.1016X3.60159*%
%ADD17C,1.7016*%
%ADD18O,1.3041X1.9016*%
%ADD19O,1.3016X1.9016*%
%ADD20O,1.3016X2.1016*%
G75*


G04 Image Start*
G36*
G01X5028665Y-2149009D02*
G01X5009070Y-2152208D01*
G01X5003435Y-2143226D01*
G01X4997800Y-2134244D01*
G01X4988040Y-2133336D01*
G01X4978279Y-2132427D01*
G01X4971924Y-2126497D01*
G01X4965568Y-2120566D01*
G01X4956329Y-2123906D01*
G01X4947090Y-2127247D01*
G01X4935759Y-2127247D01*
G01X4931126Y-2122128D01*
G01X4926494Y-2117010D01*
G01X4926494Y-2096838D01*
G01X4964283Y-2096838D01*
G01X4976879Y-2102912D01*
G01X4976879Y-2107655D01*
G01X4986677Y-2107618D01*
G01X4969881Y-2096496D01*
G01X4964283Y-2096838D01*
G01X4964283Y-2096838D01*
G01X4926494Y-2096838D01*
G01X4926494Y-2091447D01*
G01X4905500Y-2080522D01*
G01X4892588Y-2073381D01*
G01X4879676Y-2066239D01*
G01X4811444Y-2073232D01*
G01X4805009Y-2079666D01*
G01X4785134Y-2080060D01*
G01X4773968Y-2084418D01*
G01X4765676Y-2080932D01*
G01X4757384Y-2077446D01*
G01X4750510Y-2080060D01*
G01X4743635Y-2082673D01*
G01X4713792Y-2076479D01*
G01X4703957Y-2079462D01*
G01X4678765Y-2079401D01*
G01X4601787Y-2077874D01*
G01X4524809Y-2076347D01*
G01X4509413Y-2076112D01*
G01X4494018Y-2075877D01*
G01X4484657Y-2077601D01*
G01X4475297Y-2079325D01*
G01X4465683Y-2074741D01*
G01X4456069Y-2070157D01*
G01X4447876Y-2074996D01*
G01X4439683Y-2079836D01*
G01X4432588Y-2078055D01*
G01X4425493Y-2076275D01*
G01X4422632Y-2065649D01*
G01X4419770Y-2055022D01*
G01X4422752Y-2047178D01*
G01X4425735Y-2039334D01*
G01X4422243Y-2018667D01*
G01X4425072Y-2016919D01*
G01X4427901Y-2015171D01*
G01X4426263Y-1995640D01*
G01X4424625Y-1976110D01*
G01X4440987Y-1976110D01*
G01X4452030Y-1968523D01*
G01X4466026Y-1967939D01*
G01X4480022Y-1967356D01*
G01X4484220Y-1967081D01*
G01X4488419Y-1966806D01*
G01X4535452Y-1968708D01*
G01X4582485Y-1970610D01*
G01X4586391Y-1971654D01*
G01X4601787Y-1969541D01*
G01X4617182Y-1967428D01*
G01X4621535Y-1961784D01*
G01X4625888Y-1956141D01*
G01X4633420Y-1959572D01*
G01X4640953Y-1963004D01*
G01X4646667Y-1957833D01*
G01X4652381Y-1952662D01*
G01X4684363Y-1953179D01*
G01X4694327Y-1953741D01*
G01X4704290Y-1954303D01*
G01X4718120Y-1949449D01*
G01X4731949Y-1944594D01*
G01X4780853Y-1943923D01*
G01X4803436Y-1921343D01*
G01X4805817Y-1899047D01*
G01X4808198Y-1876751D01*
G01X4807436Y-1849637D01*
G01X4806675Y-1822524D01*
G01X4803445Y-1817299D01*
G01X4809190Y-1810675D01*
G01X4814936Y-1804052D01*
G01X4813583Y-1790022D01*
G01X4812230Y-1775993D01*
G01X4810211Y-1764036D01*
G01X4808192Y-1752079D01*
G01X4806133Y-1750806D01*
G01X4804074Y-1749534D01*
G01X4806180Y-1703223D01*
G01X4807573Y-1695079D01*
G01X4808966Y-1686935D01*
G01X4806328Y-1678286D01*
G01X4803690Y-1669637D01*
G01X4800436Y-1657201D01*
G01X4797181Y-1644764D01*
G01X4795900Y-1611020D01*
G01X4794618Y-1577276D01*
G01X4793887Y-1544476D01*
G01X4793156Y-1511675D01*
G01X4784060Y-1501626D01*
G01X4771448Y-1497902D01*
G01X4758836Y-1494179D01*
G01X4749230Y-1497349D01*
G01X4739624Y-1500519D01*
G01X4734829Y-1505816D01*
G01X4730034Y-1511115D01*
G01X4711066Y-1516875D01*
G01X4692099Y-1522636D01*
G01X4688473Y-1527004D01*
G01X4684847Y-1531372D01*
G01X4672009Y-1537269D01*
G01X4659170Y-1543165D01*
G01X4631178Y-1545450D01*
G01X4611584Y-1553220D01*
G01X4583592Y-1560814D01*
G01X4555600Y-1568408D01*
G01X4482821Y-1568077D01*
G01X4410042Y-1567745D01*
G01X4402379Y-1570736D01*
G01X4394717Y-1573727D01*
G01X4382085Y-1567790D01*
G01X4369453Y-1561854D01*
G01X4368894Y-1551372D01*
G01X4368335Y-1540891D01*
G01X4368194Y-1531208D01*
G01X4368054Y-1521525D01*
G01X4369667Y-1504619D01*
G01X4371280Y-1487713D01*
G01X4367586Y-1478751D01*
G01X4363892Y-1469788D01*
G01X4366500Y-1462929D01*
G01X4369108Y-1456070D01*
G01X4372780Y-1453699D01*
G01X4376451Y-1451328D01*
G01X4463226Y-1451089D01*
G01X4550002Y-1450849D01*
G01X4560601Y-1446110D01*
G01X4571201Y-1441371D01*
G01X4610375Y-1413422D01*
G01X4622176Y-1408723D01*
G01X4633978Y-1404024D01*
G01X4639079Y-1397589D01*
G01X4644181Y-1391153D01*
G01X4666168Y-1391153D01*
G01X4666168Y-1374360D01*
G01X4668268Y-1374331D01*
G01X4670367Y-1374302D01*
G01X4694160Y-1373067D01*
G01X4717953Y-1371833D01*
G01X4734749Y-1370268D01*
G01X4751544Y-1368702D01*
G01X4767368Y-1362308D01*
G01X4765970Y-1356963D01*
G01X4764572Y-1351619D01*
G01X4773281Y-1330978D01*
G01X4774537Y-1293194D01*
G01X4775177Y-1273932D01*
G01X4792132Y-1273932D01*
G01X4792132Y-1281668D01*
G01X4796611Y-1284436D01*
G01X4796611Y-1271165D01*
G01X4792132Y-1273932D01*
G01X4792132Y-1273932D01*
G01X4775177Y-1273932D01*
G01X4775792Y-1255410D01*
G01X4767159Y-1227730D01*
G01X4769528Y-1224777D01*
G01X4771898Y-1221824D01*
G01X4772279Y-1200903D01*
G01X4772661Y-1179983D01*
G01X4778603Y-1157918D01*
G01X4775216Y-1145824D01*
G01X4771830Y-1133730D01*
G01X4775483Y-1124911D01*
G01X4779137Y-1116092D01*
G01X4779536Y-1049219D01*
G01X4776116Y-1046381D01*
G01X4772697Y-1043544D01*
G01X4762120Y-1040864D01*
G01X4751544Y-1038184D01*
G01X4732940Y-1033400D01*
G01X4728156Y-1029071D01*
G01X4723372Y-1024742D01*
G01X4692671Y-1020779D01*
G01X4661970Y-1016815D01*
G01X4633978Y-1020812D01*
G01X4605986Y-1024809D01*
G01X4573425Y-1027203D01*
G01X4570213Y-1029188D01*
G01X4567001Y-1031173D01*
G01X4555702Y-1033315D01*
G01X4544403Y-1035458D01*
G01X4530407Y-1038240D01*
G01X4516411Y-1041021D01*
G01X4475243Y-1058092D01*
G01X4467889Y-1058092D01*
G01X4455043Y-1063598D01*
G01X4442196Y-1069104D01*
G01X4438966Y-1076193D01*
G01X4435735Y-1083281D01*
G01X4425014Y-1083281D01*
G01X4406331Y-1093905D01*
G01X4387648Y-1104528D01*
G01X4379571Y-1108575D01*
G01X4371494Y-1112622D01*
G01X4366975Y-1119039D01*
G01X4362455Y-1125456D01*
G01X4347060Y-1145626D01*
G01X4347060Y-1159280D01*
G01X4330695Y-1175643D01*
G01X4294765Y-1175643D01*
G01X4282248Y-1179410D01*
G01X4269730Y-1183176D01*
G01X4259565Y-1174512D01*
G01X4249399Y-1165847D01*
G01X4245045Y-1146781D01*
G01X4240690Y-1127716D01*
G01X4241027Y-1125790D01*
G01X4241364Y-1123865D01*
G01X4249824Y-1098675D01*
G01X4252744Y-1093077D01*
G01X4255664Y-1087480D01*
G01X4256426Y-1072728D01*
G01X4257187Y-1057975D01*
G01X4262934Y-1049905D01*
G01X4268682Y-1041834D01*
G01X4268682Y-1027305D01*
G01X4281934Y-1027305D01*
G01X4296754Y-1004914D01*
G01X4306971Y-1004914D01*
G01X4315887Y-995118D01*
G01X4324802Y-985322D01*
G01X4332444Y-985322D01*
G01X4340255Y-975526D01*
G01X4348067Y-965730D01*
G01X4355993Y-965730D01*
G01X4373652Y-955935D01*
G01X4381565Y-949637D01*
G01X4389477Y-943340D01*
G01X4404597Y-943340D01*
G01X4410119Y-939526D01*
G01X4415640Y-935712D01*
G01X4435234Y-931856D01*
G01X4451330Y-929202D01*
G01X4467425Y-926547D01*
G01X4499616Y-922073D01*
G01X4508574Y-917313D01*
G01X4517533Y-912553D01*
G01X4521171Y-912535D01*
G01X4524809Y-912518D01*
G01X4533206Y-908107D01*
G01X4541604Y-903697D01*
G01X4589190Y-893541D01*
G01X4661970Y-888821D01*
G01X4667568Y-888961D01*
G01X4673166Y-889101D01*
G01X4709242Y-891390D01*
G01X4745319Y-893679D01*
G01X4761028Y-890442D01*
G01X4776737Y-887205D01*
G01X4806906Y-877567D01*
G01X4814117Y-866372D01*
G01X4817609Y-849225D01*
G01X4821101Y-832079D01*
G01X4816239Y-815639D01*
G01X4811376Y-799200D01*
G01X4809356Y-790803D01*
G01X4808927Y-786893D01*
G01X4794931Y-771794D01*
G01X4794931Y-761814D01*
G01X4785834Y-752119D01*
G01X4776737Y-742425D01*
G01X4769951Y-733028D01*
G01X4763165Y-723631D01*
G01X4752456Y-714317D01*
G01X4741747Y-705003D01*
G01X4741747Y-692564D01*
G01X4748465Y-685847D01*
G01X4768339Y-685800D01*
G01X4807528Y-694728D01*
G01X4821524Y-698544D01*
G01X4835520Y-702361D01*
G01X4843576Y-704043D01*
G01X4851631Y-705725D01*
G01X4867734Y-721083D01*
G01X4883838Y-736441D01*
G01X4891149Y-752427D01*
G01X4898459Y-768413D01*
G01X4918683Y-782407D01*
G01X4940265Y-801048D01*
G01X4945706Y-799321D01*
G01X4951146Y-797595D01*
G01X4955747Y-787901D01*
G01X4960347Y-778209D01*
G01X4965486Y-778209D01*
G01X4968752Y-784311D01*
G01X4972018Y-790413D01*
G01X4978896Y-781007D01*
G01X4989476Y-781007D01*
G01X5021547Y-766699D01*
G01X5053618Y-752390D01*
G01X5078456Y-733427D01*
G01X5091647Y-733427D01*
G01X5091594Y-751620D01*
G01X5083166Y-766314D01*
G01X5074738Y-781007D01*
G01X5069471Y-781007D01*
G01X5057418Y-793602D01*
G01X5037659Y-836984D01*
G01X5024346Y-836984D01*
G01X5017700Y-852378D01*
G01X5008486Y-862881D01*
G01X4999273Y-873385D01*
G01X4999211Y-881074D01*
G01X4999150Y-888763D01*
G01X4994151Y-899958D01*
G01X4989152Y-911153D01*
G01X4985978Y-926547D01*
G01X4982804Y-941940D01*
G01X4979538Y-958491D01*
G01X4976273Y-975042D01*
G01X4976758Y-999074D01*
G01X4977242Y-1023107D01*
G01X4977208Y-1025905D01*
G01X4977174Y-1028704D01*
G01X4975611Y-1053894D01*
G01X4974048Y-1079083D01*
G01X4971585Y-1126663D01*
G01X4978488Y-1166435D01*
G01X4977673Y-1280893D01*
G01X4976859Y-1395352D01*
G01X4976985Y-1406547D01*
G01X4977213Y-1442932D01*
G01X4980017Y-1451891D01*
G01X4982821Y-1460850D01*
G01X4979349Y-1467284D01*
G01X4975876Y-1473719D01*
G01X4976459Y-1493311D01*
G01X4977042Y-1512903D01*
G01X4974085Y-1528296D01*
G01X4971127Y-1543690D01*
G01X4967933Y-1622057D01*
G01X4965176Y-1661241D01*
G01X4965362Y-1685031D01*
G01X4965548Y-1708821D01*
G01X4965692Y-1750803D01*
G01X4965447Y-1759200D01*
G01X4966842Y-1794185D01*
G01X4968237Y-1829171D01*
G01X4971032Y-1847494D01*
G01X4972758Y-1850287D01*
G01X4974484Y-1853079D01*
G01X4976000Y-1874711D01*
G01X4977516Y-1896343D01*
G01X4986175Y-1913136D01*
G01X4987995Y-1948535D01*
G01X4996005Y-1971911D01*
G01X5008136Y-1990389D01*
G01X5020267Y-2008866D01*
G01X5030607Y-2030972D01*
G01X5040948Y-2053078D01*
G01X5044202Y-2068612D01*
G01X5063655Y-2090141D01*
G01X5063655Y-2095774D01*
G01X5067643Y-2099084D01*
G01X5071633Y-2102394D01*
G01X5079469Y-2103230D01*
G01X5087307Y-2104065D01*
G01X5092477Y-2113319D01*
G01X5097648Y-2122573D01*
G01X5092256Y-2129808D01*
G01X5086864Y-2137043D01*
G01X5063960Y-2139144D01*
G01X5041058Y-2141245D01*
G01X5028665Y-2149009D01*
G37*
G36*
G01X3829556Y-2084940D02*
G01X3820285Y-2090000D01*
G01X3811013Y-2095060D01*
G01X3764770Y-2094786D01*
G01X3718528Y-2094513D01*
G01X3701788Y-2082895D01*
G01X3685049Y-2071277D01*
G01X3658257Y-2071270D01*
G01X3652059Y-2064223D01*
G01X3645860Y-2057177D01*
G01X3631314Y-2041829D01*
G01X3624866Y-2020891D01*
G01X3621919Y-2011187D01*
G01X3618972Y-2001484D01*
G01X3622234Y-1995390D01*
G01X3625496Y-1989296D01*
G01X3622434Y-1979204D01*
G01X3619372Y-1969113D01*
G01X3613874Y-1920147D01*
G01X3608637Y-1910337D01*
G01X3606620Y-1893544D01*
G01X3604603Y-1876751D01*
G01X3600475Y-1872041D01*
G01X3596347Y-1867331D01*
G01X3598523Y-1858047D01*
G01X3600699Y-1848763D01*
G01X3601739Y-1764798D01*
G01X3603292Y-1758776D01*
G01X3604844Y-1752755D01*
G01X3601250Y-1740584D01*
G01X3597655Y-1728413D01*
G01X3600338Y-1720716D01*
G01X3603021Y-1713019D01*
G01X3600057Y-1704518D01*
G01X3597093Y-1696017D01*
G01X3601490Y-1683631D01*
G01X3599664Y-1642511D01*
G01X3597837Y-1601391D01*
G01X3579861Y-1583725D01*
G01X3561884Y-1566060D01*
G01X3555733Y-1558521D01*
G01X3549581Y-1550982D01*
G01X3537978Y-1547857D01*
G01X3526375Y-1544734D01*
G01X3503542Y-1543323D01*
G01X3480708Y-1541913D01*
G01X3447117Y-1539686D01*
G01X3406507Y-1532857D01*
G01X3398234Y-1538973D01*
G01X3389960Y-1545089D01*
G01X3379372Y-1545089D01*
G01X3369857Y-1548119D01*
G01X3360342Y-1551148D01*
G01X3349145Y-1555933D01*
G01X3342784Y-1557717D01*
G01X3336423Y-1559500D01*
G01X3328086Y-1557670D01*
G01X3319750Y-1555839D01*
G01X3299577Y-1513903D01*
G01X3295926Y-1512502D01*
G01X3292275Y-1511101D01*
G01X3283384Y-1483922D01*
G01X3285073Y-1479520D01*
G01X3286762Y-1475118D01*
G01X3291575Y-1475118D01*
G01X3305123Y-1463087D01*
G01X3318671Y-1451056D01*
G01X3328310Y-1447194D01*
G01X3337949Y-1443332D01*
G01X3347746Y-1435843D01*
G01X3357543Y-1428355D01*
G01X3388334Y-1425220D01*
G01X3396732Y-1420799D01*
G01X3405129Y-1416377D01*
G01X3410212Y-1416360D01*
G01X3415295Y-1416343D01*
G01X3421222Y-1413171D01*
G01X3427149Y-1409999D01*
G01X3477721Y-1409312D01*
G01X3528294Y-1408626D01*
G01X3531093Y-1407194D01*
G01X3546489Y-1406838D01*
G01X3561884Y-1406481D01*
G01X3560485Y-1364564D01*
G01X3559254Y-1351970D01*
G01X3558023Y-1339375D01*
G01X3556773Y-1320453D01*
G01X3555522Y-1301530D01*
G01X3552171Y-1297493D01*
G01X3548820Y-1293456D01*
G01X3539957Y-1293716D01*
G01X3531093Y-1293976D01*
G01X3509446Y-1296699D01*
G01X3487799Y-1299422D01*
G01X3473519Y-1295838D01*
G01X3470527Y-1289271D01*
G01X3467534Y-1282704D01*
G01X3456811Y-1279166D01*
G01X3446088Y-1275627D01*
G01X3437228Y-1277399D01*
G01X3428369Y-1279171D01*
G01X3414532Y-1268288D01*
G01X3388334Y-1264443D01*
G01X3374338Y-1259188D01*
G01X3356722Y-1258025D01*
G01X3339106Y-1256863D01*
G01X3309957Y-1243196D01*
G01X3299741Y-1241532D01*
G01X3289527Y-1239868D01*
G01X3276648Y-1224227D01*
G01X3263770Y-1208586D01*
G01X3263770Y-1201704D01*
G01X3235778Y-1169720D01*
G01X3235778Y-1165381D01*
G01X3238847Y-1162312D01*
G01X3239989Y-1151485D01*
G01X3241132Y-1140658D01*
G01X3242420Y-1133661D01*
G01X3243709Y-1126663D01*
G01X3243942Y-1117949D01*
G01X3244175Y-1109234D01*
G01X3251555Y-1101856D01*
G01X3258935Y-1094477D01*
G01X3274096Y-1094477D01*
G01X3281197Y-1100774D01*
G01X3288298Y-1107072D01*
G01X3292251Y-1114852D01*
G01X3296205Y-1122633D01*
G01X3311459Y-1135144D01*
G01X3326712Y-1147655D01*
G01X3335429Y-1147655D01*
G01X3341771Y-1141314D01*
G01X3350545Y-1144680D01*
G01X3350545Y-1156422D01*
G01X3405129Y-1153702D01*
G01X3419125Y-1150958D01*
G01X3433121Y-1148213D01*
G01X3469511Y-1146297D01*
G01X3505900Y-1144381D01*
G01X3514298Y-1147706D01*
G01X3522696Y-1151031D01*
G01X3554886Y-1151191D01*
G01X3587077Y-1151350D01*
G01X3603872Y-1142805D01*
G01X3615069Y-1140756D01*
G01X3626266Y-1138707D01*
G01X3634517Y-1137646D01*
G01X3642768Y-1136585D01*
G01X3645153Y-1132324D01*
G01X3647538Y-1128063D01*
G01X3657702Y-1128063D01*
G01X3664377Y-1122878D01*
G01X3671053Y-1117693D01*
G01X3701844Y-1107664D01*
G01X3712887Y-1100074D01*
G01X3722929Y-1100074D01*
G01X3727482Y-1109621D01*
G01X3732035Y-1119167D01*
G01X3720039Y-1134415D01*
G01X3720039Y-1142105D01*
G01X3703244Y-1165288D01*
G01X3703227Y-1168366D01*
G01X3703210Y-1171445D01*
G01X3698926Y-1179657D01*
G01X3694643Y-1187870D01*
G01X3695988Y-1191374D01*
G01X3697333Y-1194878D01*
G01X3687326Y-1207830D01*
G01X3682468Y-1221824D01*
G01X3677611Y-1235818D01*
G01X3671998Y-1272203D01*
G01X3671940Y-1311386D01*
G01X3673148Y-1354768D01*
G01X3674355Y-1398150D01*
G01X3676428Y-1402855D01*
G01X3678502Y-1407559D01*
G01X3680056Y-1437334D01*
G01X3683076Y-1445731D01*
G01X3686097Y-1454127D01*
G01X3689171Y-1472319D01*
G01X3692246Y-1490512D01*
G01X3698042Y-1521299D01*
G01X3697635Y-1541786D01*
G01X3697228Y-1562273D01*
G01X3700757Y-1576772D01*
G01X3704285Y-1591270D01*
G01X3707875Y-1595590D01*
G01X3711464Y-1599911D01*
G01X3713074Y-1618441D01*
G01X3714683Y-1636970D01*
G01X3711763Y-1638775D01*
G01X3708842Y-1640580D01*
G01X3708842Y-1663176D01*
G01X3714579Y-1671230D01*
G01X3720315Y-1679285D01*
G01X3717357Y-1684811D01*
G01X3714400Y-1690337D01*
G01X3715734Y-1726415D01*
G01X3717068Y-1762493D01*
G01X3719982Y-1770395D01*
G01X3722110Y-1815565D01*
G01X3728175Y-1834768D01*
G01X3731986Y-1847653D01*
G01X3735797Y-1860538D01*
G01X3729085Y-1879922D01*
G01X3733093Y-1890932D01*
G01X3737101Y-1901941D01*
G01X3742505Y-1932728D01*
G01X3745502Y-1959317D01*
G01X3748498Y-1985906D01*
G01X3755007Y-1994480D01*
G01X3761516Y-2003054D01*
G01X3765735Y-2013152D01*
G01X3769955Y-2023249D01*
G01X3787220Y-2041313D01*
G01X3787220Y-2049068D01*
G01X3796788Y-2054712D01*
G01X3806355Y-2060357D01*
G01X3810715Y-2067009D01*
G01X3815074Y-2073661D01*
G01X3821413Y-2074565D01*
G01X3827751Y-2075468D01*
G01X3828654Y-2080204D01*
G01X3829556Y-2084940D01*
G37*
G36*
G01X2614074Y-2051192D02*
G01X2584964Y-2055571D01*
G01X2566112Y-2055145D01*
G01X2547261Y-2054720D01*
G01X2536346Y-2048879D01*
G01X2523329Y-2048879D01*
G01X2516489Y-2037928D01*
G01X2505939Y-2035072D01*
G01X2495390Y-2032216D01*
G01X2479567Y-2016693D01*
G01X2468424Y-2002097D01*
G01X2457280Y-1987501D01*
G01X2450792Y-1964313D01*
G01X2444305Y-1941124D01*
G01X2438356Y-1926327D01*
G01X2432408Y-1911529D01*
G01X2432408Y-1895350D01*
G01X2439783Y-1889549D01*
G01X2447159Y-1883748D01*
G01X2462513Y-1883748D01*
G01X2466355Y-1888380D01*
G01X2470197Y-1893012D01*
G01X2488212Y-1900541D01*
G01X2501570Y-1900541D01*
G01X2516672Y-1914535D01*
G01X2529123Y-1914535D01*
G01X2543207Y-1907538D01*
G01X2805405Y-1907538D01*
G01X2808195Y-1911037D01*
G01X2810985Y-1914535D01*
G01X2814141Y-1914446D01*
G01X2817298Y-1914357D01*
G01X2811864Y-1910248D01*
G01X2806430Y-1906139D01*
G01X2815568Y-1906139D01*
G01X2819027Y-1911736D01*
G01X2824296Y-1911736D01*
G01X2824296Y-1906299D01*
G01X2806457Y-1901149D01*
G01X2806352Y-1901787D01*
G01X2805405Y-1907538D01*
G01X2805405Y-1907538D01*
G01X2543207Y-1907538D01*
G01X2545847Y-1906227D01*
G01X2562570Y-1897918D01*
G01X2575756Y-1897830D01*
G01X2588942Y-1897742D01*
G01X2594677Y-1890745D01*
G01X2601638Y-1882038D01*
G01X2601897Y-1881715D01*
G01X2703496Y-1881715D01*
G01X2707690Y-1885908D01*
G01X2707690Y-1885908D01*
G01X2711884Y-1890101D01*
G01X2719276Y-1884287D01*
G01X2726669Y-1878472D01*
G01X2720898Y-1878907D01*
G01X2715127Y-1879342D01*
G01X2715127Y-1886877D01*
G01X2709437Y-1883361D01*
G01X2711028Y-1880788D01*
G01X2712618Y-1878215D01*
G01X2703496Y-1881715D01*
G01X2601897Y-1881715D01*
G01X2608600Y-1873331D01*
G01X2609428Y-1871153D01*
G01X2712552Y-1871153D01*
G01X2712770Y-1876751D01*
G01X2714287Y-1872936D01*
G01X2715804Y-1869121D01*
G01X2718448Y-1872936D01*
G01X2721092Y-1876751D01*
G01X2720218Y-1873642D01*
G01X2723368Y-1873642D01*
G01X2727704Y-1876068D01*
G01X2732040Y-1878494D01*
G01X2730416Y-1881121D01*
G01X2728792Y-1883748D01*
G01X2728792Y-1883748D01*
G01X2734721Y-1883748D01*
G01X2734721Y-1877750D01*
G01X2730855Y-1873886D01*
G01X2726990Y-1870020D01*
G01X2723368Y-1873642D01*
G01X2720218Y-1873642D01*
G01X2717560Y-1864192D01*
G01X2722642Y-1865837D01*
G01X2727723Y-1867483D01*
G01X2723606Y-1864572D01*
G01X2720254Y-1862203D01*
G01X2728289Y-1862203D01*
G01X2730242Y-1864156D01*
G01X2734721Y-1864156D01*
G01X2734721Y-1858228D01*
G01X2731446Y-1860252D01*
G01X2731446Y-1860252D01*
G01X2728289Y-1862203D01*
G01X2720254Y-1862203D01*
G01X2719488Y-1861662D01*
G01X2723618Y-1857532D01*
G01X2728227Y-1862141D01*
G01X2730364Y-1856918D01*
G01X2732557Y-1851562D01*
G01X2735374Y-1841766D01*
G01X2739972Y-1841766D01*
G01X2739565Y-1847169D01*
G01X2739157Y-1852573D01*
G01X2734721Y-1849832D01*
G01X2734721Y-1855760D01*
G01X2739120Y-1855760D01*
G01X2739120Y-1866955D01*
G01X2731592Y-1866955D01*
G01X2735108Y-1872644D01*
G01X2741185Y-1868889D01*
G01X2737582Y-1874717D01*
G01X2741750Y-1878176D01*
G01X2745918Y-1881635D01*
G01X2745961Y-1879193D01*
G01X2746004Y-1876751D01*
G01X2750951Y-1884564D01*
G01X2761314Y-1880229D01*
G01X2773910Y-1879365D01*
G01X2773910Y-1884681D01*
G01X2777507Y-1881084D01*
G01X2771200Y-1873486D01*
G01X2779508Y-1873486D01*
G01X2779508Y-1880949D01*
G01X2785213Y-1880949D01*
G01X2783552Y-1887567D01*
G01X2781891Y-1894185D01*
G01X2785877Y-1895714D01*
G01X2789862Y-1897243D01*
G01X2807299Y-1896036D01*
G01X2806476Y-1901030D01*
G01X2818239Y-1900541D01*
G01X2827095Y-1903939D01*
G01X2827095Y-1913850D01*
G01X2827095Y-1913850D01*
G01X2830620Y-1916775D01*
G01X2834146Y-1919701D01*
G01X2843917Y-1917644D01*
G01X2853687Y-1915586D01*
G01X2852865Y-1910862D01*
G01X2852042Y-1906139D01*
G01X2857419Y-1906139D01*
G01X2860243Y-1913136D01*
G01X2860464Y-1908238D01*
G01X2860685Y-1903340D01*
G01X2852288Y-1903340D01*
G01X2852288Y-1897918D01*
G01X2856522Y-1899543D01*
G01X2860756Y-1901167D01*
G01X2868438Y-1894793D01*
G01X2871989Y-1908938D01*
G01X2877262Y-1908938D01*
G01X2883007Y-1902772D01*
G01X2888752Y-1896607D01*
G01X2884182Y-1894050D01*
G01X2879613Y-1891493D01*
G01X2877295Y-1895244D01*
G01X2874977Y-1898994D01*
G01X2877927Y-1900817D01*
G01X2880877Y-1902640D01*
G01X2878072Y-1904374D01*
G01X2875268Y-1906107D01*
G01X2873693Y-1902003D01*
G01X2872118Y-1897900D01*
G01X2877052Y-1883748D01*
G01X2885878Y-1883748D01*
G01X2885878Y-1892145D01*
G01X2891146Y-1892145D01*
G01X2894662Y-1886456D01*
G01X2899874Y-1889676D01*
G01X2899874Y-1880619D01*
G01X2905472Y-1884078D01*
G01X2905472Y-1877820D01*
G01X2911936Y-1881814D01*
G01X2908266Y-1875877D01*
G01X2902670Y-1877340D01*
G01X2897075Y-1878803D01*
G01X2897075Y-1883748D01*
G01X2897075Y-1883748D01*
G01X2885878Y-1883748D01*
G01X2877052Y-1883748D01*
G01X2878052Y-1880879D01*
G01X2876377Y-1876513D01*
G01X2874701Y-1872146D01*
G01X2879590Y-1873215D01*
G01X2884478Y-1874285D01*
G01X2882998Y-1882349D01*
G01X2886752Y-1877579D01*
G01X2890507Y-1872809D01*
G01X2910756Y-1874104D01*
G01X2912755Y-1876103D01*
G01X2914754Y-1878102D01*
G01X2918222Y-1875225D01*
G01X2921689Y-1872347D01*
G01X2920336Y-1866152D01*
G01X2918983Y-1859958D01*
G01X2921724Y-1863835D01*
G01X2924465Y-1867711D01*
G01X2927792Y-1861496D01*
G01X2931119Y-1855280D01*
G01X2927866Y-1852028D01*
G01X2927866Y-1858559D01*
G01X2918349Y-1858559D01*
G01X2925067Y-1851841D01*
G01X2924509Y-1840366D01*
G01X2920026Y-1854360D01*
G01X2919747Y-1847672D01*
G01X2919468Y-1840983D01*
G01X2929265Y-1833355D01*
G01X2924335Y-1835073D01*
G01X2919405Y-1836791D01*
G01X2921129Y-1832297D01*
G01X2922854Y-1827804D01*
G01X2925360Y-1829352D01*
G01X2927866Y-1830901D01*
G01X2927866Y-1819833D01*
G01X2931264Y-1810978D01*
G01X2939380Y-1810978D01*
G01X2930665Y-1823419D01*
G01X2930665Y-1827394D01*
G01X2936136Y-1829130D01*
G01X2941607Y-1830867D01*
G01X2938486Y-1837715D01*
G01X2935365Y-1844564D01*
G01X2926466Y-1844650D01*
G01X2934864Y-1850020D01*
G01X2939918Y-1838967D01*
G01X2944166Y-1838967D01*
G01X2943469Y-1834220D01*
G01X2942772Y-1829474D01*
G01X2939518Y-1828390D01*
G01X2936263Y-1827305D01*
G01X2936263Y-1819375D01*
G01X2941862Y-1819375D01*
G01X2941862Y-1822174D01*
G01X2947263Y-1822174D01*
G01X2953256Y-1810978D01*
G01X2947460Y-1810978D01*
G01X2947460Y-1819375D01*
G01X2947460Y-1819375D01*
G01X2941862Y-1819375D01*
G01X2936263Y-1819375D01*
G01X2936263Y-1819199D01*
G01X2944889Y-1815890D01*
G01X2943674Y-1808180D01*
G01X2944837Y-1808180D01*
G01X2949606Y-1808180D01*
G01X2949606Y-1808180D01*
G01X2952537Y-1796976D01*
G01X2949998Y-1798545D01*
G01X2947995Y-1799783D01*
G01X2944837Y-1808180D01*
G01X2943674Y-1808180D01*
G01X2943620Y-1807836D01*
G01X2942350Y-1799783D01*
G01X2947460Y-1799783D01*
G01X2947460Y-1791387D01*
G01X2941209Y-1791387D01*
G01X2942906Y-1785789D01*
G01X2944440Y-1785789D01*
G01X2948050Y-1789705D01*
G01X2951659Y-1793621D01*
G01X2952960Y-1792370D01*
G01X2954260Y-1791118D01*
G01X2954726Y-1783556D01*
G01X2955191Y-1775993D01*
G01X2949992Y-1767596D01*
G01X2951825Y-1774244D01*
G01X2953659Y-1780892D01*
G01X2950559Y-1778977D01*
G01X2947460Y-1777062D01*
G01X2947460Y-1782523D01*
G01X2954458Y-1785347D01*
G01X2949449Y-1785568D01*
G01X2944440Y-1785789D01*
G01X2944440Y-1785789D01*
G01X2942906Y-1785789D01*
G01X2943118Y-1785089D01*
G01X2945027Y-1778792D01*
G01X2946486Y-1773194D01*
G01X2947946Y-1767596D01*
G01X2942365Y-1775509D01*
G01X2942813Y-1763156D01*
G01X2943199Y-1752533D01*
G01X2947460Y-1752533D01*
G01X2947460Y-1766197D01*
G01X2949624Y-1766197D01*
G01X2950835Y-1757948D01*
G01X2952046Y-1749700D01*
G01X2949753Y-1751116D01*
G01X2949753Y-1751116D01*
G01X2947460Y-1752533D01*
G01X2943199Y-1752533D01*
G01X2943261Y-1750803D01*
G01X2953915Y-1741008D01*
G01X2947460Y-1741008D01*
G01X2947460Y-1729812D01*
G01X2940462Y-1729727D01*
G01X2948860Y-1724300D01*
G01X2945535Y-1724257D01*
G01X2942210Y-1724215D01*
G01X2942632Y-1718617D01*
G01X2943053Y-1713019D01*
G01X2947460Y-1713019D01*
G01X2947460Y-1707091D01*
G01X2944699Y-1708797D01*
G01X2941938Y-1710504D01*
G01X2943927Y-1693427D01*
G01X2939395Y-1693005D01*
G01X2934864Y-1692583D01*
G01X2927166Y-1693184D01*
G01X2919468Y-1693785D01*
G01X2919468Y-1686430D01*
G01X2922887Y-1686430D01*
G01X2928998Y-1690259D01*
G01X2931109Y-1688955D01*
G01X2933220Y-1687650D01*
G01X2931691Y-1683666D01*
G01X2930162Y-1679683D01*
G01X2926525Y-1683056D01*
G01X2926525Y-1683056D01*
G01X2922887Y-1686430D01*
G01X2919468Y-1686430D01*
G01X2919468Y-1667639D01*
G01X2911071Y-1670861D01*
G01X2910850Y-1667450D01*
G01X2910629Y-1664040D01*
G01X2909111Y-1667855D01*
G01X2907594Y-1671670D01*
G01X2905133Y-1667855D01*
G01X2902673Y-1664040D01*
G01X2898474Y-1669637D01*
G01X2888677Y-1670354D01*
G01X2878880Y-1671072D01*
G01X2883079Y-1668298D01*
G01X2887278Y-1665525D01*
G01X2880610Y-1665439D01*
G01X2877093Y-1671128D01*
G01X2874994Y-1669831D01*
G01X2872895Y-1668533D01*
G01X2874164Y-1677180D01*
G01X2875433Y-1685826D01*
G01X2872632Y-1684095D01*
G01X2869831Y-1682364D01*
G01X2865126Y-1687562D01*
G01X2860421Y-1692761D01*
G01X2847743Y-1692108D01*
G01X2835065Y-1691456D01*
G01X2831259Y-1695261D01*
G01X2827453Y-1699066D01*
G01X2828932Y-1708174D01*
G01X2830410Y-1717282D01*
G01X2824857Y-1722307D01*
G01X2819305Y-1727331D01*
G01X2820727Y-1732770D01*
G01X2822149Y-1738209D01*
G01X2810300Y-1738209D01*
G01X2810079Y-1734710D01*
G01X2809858Y-1731212D01*
G01X2808229Y-1735360D01*
G01X2806601Y-1739508D01*
G01X2802826Y-1743282D01*
G01X2799051Y-1747056D01*
G01X2800826Y-1749929D01*
G01X2802602Y-1752800D01*
G01X2804739Y-1749343D01*
G01X2806876Y-1745886D01*
G01X2806518Y-1754642D01*
G01X2806160Y-1763398D01*
G01X2801385Y-1763398D01*
G01X2787051Y-1774672D01*
G01X2785909Y-1773530D01*
G01X2784767Y-1772388D01*
G01X2798763Y-1758394D01*
G01X2800481Y-1760111D01*
G01X2802198Y-1761828D01*
G01X2800279Y-1756827D01*
G01X2798359Y-1751827D01*
G01X2794820Y-1756401D01*
G01X2788451Y-1763699D01*
G01X2782082Y-1770996D01*
G01X2779478Y-1787188D01*
G01X2782432Y-1782290D01*
G01X2785385Y-1777392D01*
G01X2790939Y-1777392D01*
G01X2796948Y-1771795D01*
G01X2802958Y-1766197D01*
G01X2807500Y-1766197D01*
G01X2807500Y-1771795D01*
G01X2802958Y-1771795D01*
G01X2790633Y-1783276D01*
G01X2787870Y-1781568D01*
G01X2785107Y-1779861D01*
G01X2785107Y-1791717D01*
G01X2779517Y-1788263D01*
G01X2780908Y-1801182D01*
G01X2782976Y-1802728D01*
G01X2785044Y-1804273D01*
G01X2775272Y-1804550D01*
G01X2765501Y-1804827D01*
G01X2762101Y-1799327D01*
G01X2768445Y-1800255D01*
G01X2774789Y-1801182D01*
G01X2775935Y-1797826D01*
G01X2777081Y-1794469D01*
G01X2760221Y-1799304D01*
G01X2759258Y-1796416D01*
G01X2758295Y-1793527D01*
G01X2742167Y-1817975D01*
G01X2746842Y-1814134D01*
G01X2751516Y-1810293D01*
G01X2751516Y-1813137D01*
G01X2747335Y-1821154D01*
G01X2743153Y-1829171D01*
G01X2742804Y-1826372D01*
G01X2742456Y-1823573D01*
G01X2742973Y-1820774D01*
G01X2743490Y-1817975D01*
G01X2738830Y-1822550D01*
G01X2734169Y-1827124D01*
G01X2733745Y-1834405D01*
G01X2733322Y-1841686D01*
G01X2729413Y-1841026D01*
G01X2725505Y-1840366D01*
G01X2724133Y-1844311D01*
G01X2722760Y-1848255D01*
G01X2727341Y-1846498D01*
G01X2731922Y-1844740D01*
G01X2731922Y-1846905D01*
G01X2728524Y-1855760D01*
G01X2720904Y-1855760D01*
G01X2712552Y-1871153D01*
G01X2609428Y-1871153D01*
G01X2611478Y-1865763D01*
G01X2614356Y-1858194D01*
G01X2614356Y-1845334D01*
G01X2631151Y-1824203D01*
G01X2631245Y-1817975D01*
G01X2640572Y-1794982D01*
G01X2649899Y-1771988D01*
G01X2652779Y-1768393D01*
G01X2655658Y-1764798D01*
G01X2659828Y-1750803D01*
G01X2662875Y-1747006D01*
G01X2665922Y-1743209D01*
G01X2669456Y-1737210D01*
G01X2672989Y-1731212D01*
G01X2673654Y-1729812D01*
G01X2810300Y-1729812D01*
G01X2815245Y-1729812D01*
G01X2818701Y-1720016D01*
G01X2820341Y-1715818D01*
G01X2821982Y-1711620D01*
G01X2810336Y-1728413D01*
G01X2810300Y-1729812D01*
G01X2810300Y-1729812D01*
G01X2673654Y-1729812D01*
G01X2681452Y-1713402D01*
G01X2684293Y-1711646D01*
G01X2687135Y-1709890D01*
G01X2687135Y-1696931D01*
G01X2690656Y-1690629D01*
G01X2838292Y-1690629D01*
G01X2843890Y-1690629D01*
G01X2843890Y-1684345D01*
G01X2848539Y-1688187D01*
G01X2848539Y-1688187D01*
G01X2853187Y-1692028D01*
G01X2845752Y-1680088D01*
G01X2838505Y-1686430D01*
G01X2838398Y-1688529D01*
G01X2838292Y-1690629D01*
G01X2690656Y-1690629D01*
G01X2694760Y-1683284D01*
G01X2696633Y-1679931D01*
G01X2849752Y-1679931D01*
G01X2853093Y-1685280D01*
G01X2856433Y-1690629D01*
G01X2856433Y-1690629D01*
G01X2861371Y-1690629D01*
G01X2857830Y-1686363D01*
G01X2854289Y-1682097D01*
G01X2856240Y-1680146D01*
G01X2858190Y-1678196D01*
G01X2860795Y-1682313D01*
G01X2863399Y-1686430D01*
G01X2863484Y-1679763D01*
G01X2860938Y-1678190D01*
G01X2858391Y-1676616D01*
G01X2849752Y-1679931D01*
G01X2696633Y-1679931D01*
G01X2702385Y-1669637D01*
G01X2738159Y-1624856D01*
G01X2764113Y-1597875D01*
G01X2776709Y-1592105D01*
G01X2789306Y-1586335D01*
G01X2796739Y-1580109D01*
G01X2804172Y-1573884D01*
G01X2824731Y-1575095D01*
G01X2845290Y-1576305D01*
G01X2856440Y-1573876D01*
G01X2867592Y-1571447D01*
G01X2888631Y-1574929D01*
G01X2909671Y-1578411D01*
G01X2949683Y-1587026D01*
G01X2960057Y-1590685D01*
G01X2974835Y-1597275D01*
G01X2989614Y-1603865D01*
G01X2994870Y-1603865D01*
G01X3006155Y-1619139D01*
G01X3017440Y-1634413D01*
G01X3017440Y-1639393D01*
G01X3028637Y-1652301D01*
G01X3028637Y-1661957D01*
G01X3037118Y-1680833D01*
G01X3039502Y-1685031D01*
G01X3041886Y-1689229D01*
G01X3045371Y-1699025D01*
G01X3048856Y-1708821D01*
G01X3051464Y-1727013D01*
G01X3054072Y-1745206D01*
G01X3061822Y-1761999D01*
G01X3059801Y-1823573D01*
G01X3056937Y-1837567D01*
G01X3054072Y-1851562D01*
G01X3045978Y-1899906D01*
G01X3041820Y-1906521D01*
G01X3037663Y-1913136D01*
G01X3035807Y-1923712D01*
G01X3033952Y-1934288D01*
G01X3023581Y-1952320D01*
G01X3021585Y-1962115D01*
G01X3019588Y-1971911D01*
G01X3010409Y-1991503D01*
G01X3001231Y-2011095D01*
G01X2993240Y-2018326D01*
G01X2985249Y-2025558D01*
G01X2974592Y-2031621D01*
G01X2963936Y-2037684D01*
G01X2956613Y-2037684D01*
G01X2942378Y-2048879D01*
G01X2920831Y-2048879D01*
G01X2911052Y-2051740D01*
G01X2901274Y-2054602D01*
G01X2884478Y-2054865D01*
G01X2867683Y-2055128D01*
G01X2848455Y-2047805D01*
G01X2829227Y-2040483D01*
G01X2812563Y-2040483D01*
G01X2797703Y-2032825D01*
G01X2779508Y-2024287D01*
G01X2761314Y-2015749D01*
G01X2754527Y-2008524D01*
G01X2747741Y-2001299D01*
G01X2729808Y-2001299D01*
G01X2722839Y-1992903D01*
G01X2715189Y-1992903D01*
G01X2698691Y-2005448D01*
G01X2682193Y-2017994D01*
G01X2654056Y-2032124D01*
G01X2636550Y-2035625D01*
G01X2633680Y-2040987D01*
G01X2630810Y-2046349D01*
G01X2625777Y-2044752D01*
G01X2620745Y-2043155D01*
G01X2614074Y-2051192D01*
G37*
G36*
G01X2756429Y-1816576D02*
G01X2761513Y-1816576D01*
G01X2761513Y-1827771D01*
G01X2759628Y-1827771D01*
G01X2755572Y-1818065D01*
G01X2751516Y-1808359D01*
G01X2751516Y-1805557D01*
G01X2756174Y-1807344D01*
G01X2760832Y-1809131D01*
G01X2758563Y-1805157D01*
G01X2756293Y-1801182D01*
G01X2763595Y-1807942D01*
G01X2760012Y-1812259D01*
G01X2756429Y-1816576D01*
G37*
G36*
G01X2826234Y-1737204D02*
G01X2824296Y-1739142D01*
G01X2824296Y-1727344D01*
G01X2829911Y-1723874D01*
G01X2829042Y-1729570D01*
G01X2828172Y-1735266D01*
G01X2826234Y-1737204D01*
G37*
G36*
G01X8221151Y-3369929D02*
G01X8212753Y-3369929D01*
G01X8212753Y-3364789D01*
G01X8209355Y-3355935D01*
G01X8215355Y-3355935D01*
G01X8218253Y-3361349D01*
G01X8221151Y-3366762D01*
G01X8221151Y-3369929D01*
G37*
G36*
G01X6560896Y-1920133D02*
G01X6552828Y-1920133D01*
G01X6552828Y-1912067D01*
G01X6555871Y-1910186D01*
G01X6558915Y-1908306D01*
G01X6564657Y-1914047D01*
G01X6562776Y-1917090D01*
G01X6560896Y-1920133D01*
G37*
G36*
G01X2236464Y-2418325D02*
G01X2225597Y-2418325D01*
G01X2224049Y-2415820D01*
G01X2222500Y-2413314D01*
G01X2226935Y-2411612D01*
G01X2231371Y-2409911D01*
G01X2233917Y-2411485D01*
G01X2236464Y-2413058D01*
G01X2236464Y-2418325D01*
G37*
G36*
G01X4954486Y-769812D02*
G01X4946418Y-769812D01*
G01X4943441Y-764995D01*
G01X4945231Y-763205D01*
G01X4947021Y-761416D01*
G01X4954486Y-761416D01*
G01X4954486Y-769812D01*
G37*
G36*
G01X2258527Y-2418325D02*
G01X2247661Y-2418325D01*
G01X2247661Y-2412728D01*
G01X2261987Y-2412728D01*
G01X2258527Y-2418325D01*
G37*
G36*
G01X3274500Y-4791737D02*
G01X3283364Y-4791737D01*
G01X3283364Y-4800600D01*
G01X3280040Y-4799492D01*
G01X3276716Y-4798384D01*
G01X3275608Y-4795061D01*
G01X3274500Y-4791737D01*
G37*
G36*
G01X7431777Y-3557451D02*
G01X7423379Y-3557451D01*
G01X7423379Y-3552786D01*
G01X7425245Y-3550920D01*
G01X7427111Y-3549055D01*
G01X7431777Y-3549055D01*
G01X7431777Y-3557451D01*
G37*
G36*
G01X7907640Y-4209579D02*
G01X7899243Y-4209579D01*
G01X7899243Y-4203982D01*
G01X7907640Y-4203982D01*
G01X7907640Y-4209579D01*
G37*
G36*
G01X4586292Y-4472467D02*
G01X4581030Y-4478113D01*
G01X4575769Y-4483758D01*
G01X4518244Y-4483758D01*
G01X4515083Y-4478645D01*
G01X4524459Y-4462545D01*
G01X4533835Y-4446445D01*
G01X4545288Y-4425715D01*
G01X4556742Y-4404986D01*
G01X4602919Y-4311013D01*
G01X4607198Y-4301339D01*
G01X4611477Y-4291665D01*
G01X4622967Y-4262772D01*
G01X4634456Y-4233878D01*
G01X4643698Y-4206112D01*
G01X4652941Y-4178345D01*
G01X4661506Y-4147942D01*
G01X4670070Y-4117539D01*
G01X4675071Y-4098191D01*
G01X4677890Y-4087135D01*
G01X4680708Y-4076080D01*
G01X4686306Y-4051204D01*
G01X4691699Y-4023565D01*
G01X4694674Y-4006291D01*
G01X4697648Y-3989016D01*
G01X4702860Y-3957231D01*
G01X4708657Y-3901953D01*
G01X4711455Y-3871550D01*
G01X4714253Y-3841147D01*
G01X4714246Y-3762846D01*
G01X4714238Y-3684546D01*
G01X4711456Y-3657817D01*
G01X4708674Y-3631089D01*
G01X4705705Y-3603450D01*
G01X4702737Y-3575810D01*
G01X4698119Y-3550935D01*
G01X4691695Y-3509476D01*
G01X4686975Y-3487365D01*
G01X4680670Y-3459726D01*
G01X4674892Y-3434851D01*
G01X4670113Y-3418267D01*
G01X4658150Y-3376808D01*
G01X4639923Y-3321530D01*
G01X4623589Y-3277307D01*
G01X4620590Y-3269698D01*
G01X4617591Y-3262088D01*
G01X4612351Y-3250350D01*
G01X4607112Y-3238612D01*
G01X4599224Y-3220647D01*
G01X4591336Y-3202681D01*
G01X4554655Y-3130820D01*
G01X4548729Y-3120455D01*
G01X4542803Y-3110090D01*
G01X4531095Y-3089361D01*
G01X4525889Y-3082024D01*
G01X4520683Y-3074688D01*
G01X4520683Y-3071233D01*
G01X4498164Y-3037456D01*
G01X4475645Y-3003679D01*
G01X4421587Y-2931817D01*
G01X4379053Y-2882067D01*
G01X4346485Y-2848900D01*
G01X4313918Y-2815733D01*
G01X4294945Y-2797574D01*
G01X4275973Y-2779416D01*
G01X4245399Y-2753352D01*
G01X4214825Y-2727287D01*
G01X4205504Y-2720378D01*
G01X4196182Y-2713468D01*
G01X4189071Y-2707712D01*
G01X4181960Y-2701957D01*
G01X4146014Y-2677913D01*
G01X4126659Y-2662746D01*
G01X4079652Y-2633805D01*
G01X4063062Y-2623643D01*
G01X4046471Y-2613481D01*
G01X4002816Y-2589786D01*
G01X3949693Y-2563212D01*
G01X3930960Y-2554731D01*
G01X3912226Y-2546251D01*
G01X3909764Y-2546251D01*
G01X3893782Y-2538941D01*
G01X3877801Y-2531631D01*
G01X3855681Y-2523560D01*
G01X3833560Y-2515490D01*
G01X3797614Y-2503359D01*
G01X3761668Y-2491229D01*
G01X3728487Y-2482317D01*
G01X3678716Y-2469734D01*
G01X3648300Y-2463499D01*
G01X3634474Y-2460861D01*
G01X3620649Y-2458224D01*
G01X3587468Y-2452544D01*
G01X3554287Y-2447195D01*
G01X3501750Y-2441215D01*
G01X3475011Y-2438455D01*
G01X3448271Y-2435694D01*
G01X3307011Y-2435694D01*
G01X3278569Y-2438515D01*
G01X3250128Y-2441337D01*
G01X3222477Y-2444225D01*
G01X3194827Y-2447112D01*
G01X3158880Y-2452493D01*
G01X3125699Y-2458224D01*
G01X3100814Y-2462836D01*
G01X3084223Y-2466285D01*
G01X3067633Y-2469734D01*
G01X3042747Y-2476079D01*
G01X3017861Y-2482423D01*
G01X3004036Y-2485994D01*
G01X2976385Y-2494243D01*
G01X2948734Y-2502491D01*
G01X2907258Y-2516661D01*
G01X2879607Y-2527560D01*
G01X2851957Y-2538458D01*
G01X2840896Y-2543422D01*
G01X2829836Y-2548385D01*
G01X2802185Y-2560763D01*
G01X2746883Y-2587680D01*
G01X2726145Y-2599087D01*
G01X2705407Y-2610494D01*
G01X2690199Y-2619434D01*
G01X2674991Y-2628375D01*
G01X2651488Y-2642868D01*
G01X2627985Y-2657361D01*
G01X2610012Y-2670470D01*
G01X2592039Y-2683579D01*
G01X2564388Y-2702068D01*
G01X2481436Y-2768746D01*
G01X2376363Y-2872808D01*
G01X2357955Y-2894021D01*
G01X2339548Y-2915234D01*
G01X2300061Y-2964984D01*
G01X2296439Y-2969393D01*
G01X2292816Y-2973801D01*
G01X2269116Y-3009207D01*
G01X2264203Y-3014735D01*
G01X2259290Y-3020263D01*
G01X2239303Y-3052048D01*
G01X2219315Y-3083833D01*
G01X2209075Y-3101798D01*
G01X2203126Y-3112163D01*
G01X2197177Y-3122528D01*
G01X2187911Y-3139111D01*
G01X2178646Y-3155695D01*
G01X2163110Y-3187480D01*
G01X2147575Y-3219265D01*
G01X2141241Y-3233085D01*
G01X2134907Y-3246904D01*
G01X2111721Y-3304946D01*
G01X2099988Y-3340877D01*
G01X2088255Y-3376808D01*
G01X2084748Y-3389246D01*
G01X2081240Y-3401684D01*
G01X2078997Y-3408593D01*
G01X2076754Y-3415503D01*
G01X2068524Y-3450052D01*
G01X2060294Y-3484601D01*
G01X2057021Y-3501185D01*
G01X2053748Y-3517768D01*
G01X2051292Y-3530479D01*
G01X2047507Y-3553145D01*
G01X2043723Y-3575810D01*
G01X2040665Y-3602068D01*
G01X2037607Y-3628325D01*
G01X2034859Y-3651567D01*
G01X2032110Y-3674809D01*
G01X2032110Y-3855469D01*
G01X2034859Y-3878711D01*
G01X2037607Y-3901953D01*
G01X2040533Y-3928210D01*
G01X2043458Y-3954467D01*
G01X2049012Y-3990398D01*
G01X2051395Y-4002836D01*
G01X2053779Y-4015274D01*
G01X2060131Y-4051204D01*
G01X2065640Y-4076080D01*
G01X2068204Y-4085753D01*
G01X2070768Y-4095427D01*
G01X2093369Y-4175581D01*
G01X2099894Y-4194928D01*
G01X2106419Y-4214276D01*
G01X2122707Y-4258498D01*
G01X2140440Y-4302721D01*
G01X2151523Y-4327596D01*
G01X2178691Y-4382875D01*
G01X2190968Y-4405778D01*
G01X2203245Y-4428681D01*
G01X2217407Y-4453418D01*
G01X2231569Y-4478155D01*
G01X2229837Y-4480956D01*
G01X2228105Y-4483758D01*
G01X2167864Y-4483758D01*
G01X2148729Y-4451122D01*
G01X2126903Y-4407325D01*
G01X2105078Y-4363527D01*
G01X2092304Y-4334506D01*
G01X2079531Y-4305485D01*
G01X2072157Y-4286138D01*
G01X2064783Y-4266790D01*
G01X2062529Y-4261262D01*
G01X2060275Y-4255734D01*
G01X2050873Y-4230859D01*
G01X2045389Y-4214276D01*
G01X2039904Y-4197692D01*
G01X2028934Y-4161761D01*
G01X2023773Y-4142414D01*
G01X2018613Y-4123066D01*
G01X2017228Y-4117539D01*
G01X2015842Y-4112011D01*
G01X2010000Y-4087135D01*
G01X2004158Y-4062260D01*
G01X2001768Y-4051204D01*
G01X1999379Y-4040149D01*
G01X1993567Y-4009746D01*
G01X1988075Y-3973815D01*
G01X1985322Y-3954467D01*
G01X1982569Y-3935120D01*
G01X1979716Y-3907481D01*
G01X1976864Y-3879842D01*
G01X1973870Y-3823295D01*
G01X1970877Y-3766748D01*
G01X1973838Y-3709974D01*
G01X1976799Y-3653200D01*
G01X1979750Y-3625561D01*
G01X1982701Y-3597922D01*
G01X1987743Y-3563349D01*
G01X1994045Y-3523296D01*
G01X2000962Y-3488747D01*
G01X2007879Y-3454198D01*
G01X2012317Y-3434851D01*
G01X2018257Y-3412739D01*
G01X2024197Y-3390628D01*
G01X2028889Y-3374044D01*
G01X2039904Y-3338113D01*
G01X2051031Y-3304946D01*
G01X2059244Y-3282835D01*
G01X2067457Y-3260724D01*
G01X2070515Y-3252960D01*
G01X2073574Y-3245196D01*
G01X2087412Y-3214955D01*
G01X2087412Y-3212040D01*
G01X2110925Y-3164520D01*
G01X2134438Y-3117000D01*
G01X2152936Y-3083833D01*
G01X2158498Y-3074159D01*
G01X2164061Y-3064486D01*
G01X2180644Y-3036846D01*
G01X2209580Y-2989860D01*
G01X2231196Y-2960839D01*
G01X2254618Y-2929054D01*
G01X2298822Y-2873775D01*
G01X2315531Y-2854629D01*
G01X2329138Y-2839327D01*
G01X2342745Y-2824025D01*
G01X2431842Y-2735579D01*
G01X2458021Y-2713825D01*
G01X2484201Y-2692070D01*
G01X2491366Y-2685864D01*
G01X2498532Y-2679657D01*
G01X2532275Y-2654391D01*
G01X2566019Y-2629125D01*
G01X2595619Y-2609258D01*
G01X2625220Y-2589392D01*
G01X2710937Y-2540140D01*
G01X2755179Y-2518691D01*
G01X2799420Y-2497242D01*
G01X2809098Y-2492948D01*
G01X2818776Y-2488654D01*
G01X2840896Y-2479814D01*
G01X2863017Y-2470974D01*
G01X2907258Y-2454693D01*
G01X2945969Y-2441991D01*
G01X2984680Y-2430322D01*
G01X3048277Y-2414064D01*
G01X3070398Y-2409299D01*
G01X3092519Y-2404535D01*
G01X3117404Y-2400236D01*
G01X3133995Y-2397466D01*
G01X3150585Y-2394695D01*
G01X3179619Y-2390562D01*
G01X3208652Y-2386428D01*
G01X3237685Y-2383365D01*
G01X3266719Y-2380303D01*
G01X3319255Y-2377601D01*
G01X3371792Y-2374900D01*
G01X3396677Y-2375658D01*
G01X3453362Y-2379089D01*
G01X3510046Y-2382520D01*
G01X3537696Y-2386145D01*
G01X3579173Y-2391755D01*
G01X3595072Y-2394377D01*
G01X3610971Y-2396999D01*
G01X3628253Y-2399948D01*
G01X3645535Y-2402897D01*
G01X3667655Y-2407606D01*
G01X3684246Y-2411006D01*
G01X3700836Y-2414407D01*
G01X3729870Y-2421874D01*
G01X3761668Y-2430353D01*
G01X3789319Y-2438811D01*
G01X3816970Y-2447269D01*
G01X3828030Y-2450894D01*
G01X3839090Y-2454520D01*
G01X3863976Y-2463847D01*
G01X3875036Y-2468322D01*
G01X3908217Y-2480876D01*
G01X3935868Y-2493117D01*
G01X3949693Y-2499212D01*
G01X3963519Y-2505306D01*
G01X4018820Y-2532462D01*
G01X4040941Y-2544428D01*
G01X4063062Y-2556393D01*
G01X4083800Y-2568362D01*
G01X4101773Y-2578731D01*
G01X4140484Y-2602363D01*
G01X4181960Y-2630147D01*
G01X4217906Y-2657016D01*
G01X4253852Y-2683886D01*
G01X4320214Y-2740614D01*
G01X4367321Y-2787847D01*
G01X4414428Y-2835080D01*
G01X4440231Y-2865483D01*
G01X4466034Y-2895886D01*
G01X4470546Y-2901438D01*
G01X4475059Y-2906990D01*
G01X4494760Y-2933223D01*
G01X4514461Y-2959457D01*
G01X4570327Y-3043362D01*
G01X4580805Y-3061722D01*
G01X4594379Y-3085215D01*
G01X4607953Y-3108708D01*
G01X4629070Y-3151549D01*
G01X4650187Y-3194390D01*
G01X4657327Y-3210364D01*
G01X4664467Y-3226339D01*
G01X4664467Y-3228800D01*
G01X4681057Y-3265008D01*
G01X4681057Y-3272835D01*
G01X4685927Y-3275843D01*
G01X4687309Y-3282103D01*
G01X4688691Y-3288363D01*
G01X4698512Y-3316002D01*
G01X4708334Y-3343641D01*
G01X4716811Y-3374044D01*
G01X4725288Y-3404448D01*
G01X4727741Y-3412739D01*
G01X4730193Y-3421031D01*
G01X4736359Y-3447288D01*
G01X4742276Y-3473545D01*
G01X4744663Y-3484601D01*
G01X4747049Y-3495657D01*
G01X4750000Y-3512931D01*
G01X4752949Y-3530206D01*
G01X4755550Y-3546098D01*
G01X4758150Y-3561991D01*
G01X4763898Y-3608977D01*
G01X4767366Y-3636617D01*
G01X4770833Y-3664256D01*
G01X4770866Y-3767903D01*
G01X4770898Y-3871550D01*
G01X4767365Y-3899189D01*
G01X4763831Y-3926828D01*
G01X4760991Y-3947558D01*
G01X4758151Y-3968287D01*
G01X4752734Y-4004218D01*
G01X4747049Y-4037385D01*
G01X4742338Y-4059496D01*
G01X4738931Y-4076080D01*
G01X4735523Y-4092663D01*
G01X4727568Y-4124448D01*
G01X4719612Y-4156233D01*
G01X4707939Y-4194928D01*
G01X4695173Y-4233623D01*
G01X4689950Y-4248142D01*
G01X4684727Y-4262661D01*
G01X4682892Y-4264496D01*
G01X4681057Y-4266329D01*
G01X4681057Y-4273760D01*
G01X4675205Y-4286859D01*
G01X4669353Y-4299957D01*
G01X4662368Y-4316541D01*
G01X4646891Y-4352472D01*
G01X4616591Y-4412470D01*
G01X4586292Y-4472467D01*
G37*
G36*
G01X4828361Y-4090858D02*
G01X4824841Y-4100025D01*
G01X4824841Y-4525217D01*
G01X4365838Y-4525217D01*
G01X4365838Y-4518184D01*
G01X4373685Y-4508572D01*
G01X4381532Y-4498959D01*
G01X4406542Y-4461646D01*
G01X4431552Y-4424333D01*
G01X4440557Y-4409132D01*
G01X4449563Y-4393930D01*
G01X4460921Y-4374583D01*
G01X4511076Y-4275082D01*
G01X4515728Y-4264026D01*
G01X4520379Y-4252971D01*
G01X4526315Y-4239151D01*
G01X4532252Y-4225331D01*
G01X4549774Y-4172817D01*
G01X4567296Y-4120302D01*
G01X4580875Y-4067788D01*
G01X4583607Y-4053968D01*
G01X4597459Y-3984870D01*
G01X4600481Y-3965523D01*
G01X4603503Y-3946176D01*
G01X4606290Y-3924064D01*
G01X4609076Y-3901953D01*
G01X4611886Y-3873524D01*
G01X4614695Y-3845094D01*
G01X4614695Y-3690711D01*
G01X4611862Y-3662282D01*
G01X4609030Y-3633853D01*
G01X4606168Y-3610359D01*
G01X4603305Y-3586866D01*
G01X4597851Y-3553699D01*
G01X4592125Y-3523296D01*
G01X4589696Y-3512240D01*
G01X4587266Y-3501185D01*
G01X4572631Y-3440378D01*
G01X4565656Y-3418267D01*
G01X4553372Y-3376808D01*
G01X4536864Y-3329822D01*
G01X4528302Y-3307710D01*
G01X4519740Y-3285599D01*
G01X4503638Y-3249668D01*
G01X4466181Y-3175042D01*
G01X4460637Y-3165369D01*
G01X4455093Y-3155695D01*
G01X4446126Y-3140579D01*
G01X4437159Y-3125463D01*
G01X4409392Y-3084055D01*
G01X4381625Y-3042648D01*
G01X4362179Y-3017636D01*
G01X4342733Y-2992624D01*
G01X4294633Y-2937345D01*
G01X4264411Y-2906942D01*
G01X4234189Y-2876539D01*
G01X4181960Y-2829153D01*
G01X4158457Y-2810536D01*
G01X4134954Y-2791919D01*
G01X4124674Y-2783486D01*
G01X4018820Y-2713117D01*
G01X4006378Y-2706071D01*
G01X3993935Y-2699025D01*
G01X3963519Y-2682287D01*
G01X3938633Y-2669757D01*
G01X3913747Y-2657227D01*
G01X3891627Y-2647083D01*
G01X3869506Y-2636939D01*
G01X3835139Y-2623200D01*
G01X3800771Y-2609462D01*
G01X3772924Y-2600200D01*
G01X3745078Y-2590939D01*
G01X3687011Y-2574355D01*
G01X3634474Y-2562502D01*
G01X3612354Y-2557756D01*
G01X3581938Y-2552155D01*
G01X3563965Y-2549318D01*
G01X3545992Y-2546482D01*
G01X3522489Y-2543636D01*
G01X3498985Y-2540789D01*
G01X3438154Y-2535180D01*
G01X3376101Y-2535188D01*
G01X3314049Y-2535195D01*
G01X3250128Y-2540866D01*
G01X3226625Y-2543723D01*
G01X3203122Y-2546581D01*
G01X3187223Y-2549179D01*
G01X3171323Y-2551779D01*
G01X3154042Y-2554727D01*
G01X3136760Y-2557676D01*
G01X3125008Y-2560255D01*
G01X3113257Y-2562834D01*
G01X3089753Y-2568061D01*
G01X3064868Y-2573959D01*
G01X3039982Y-2579856D01*
G01X3033069Y-2582114D01*
G01X3026157Y-2584371D01*
G01X2984680Y-2596482D01*
G01X2968090Y-2601951D01*
G01X2951499Y-2607420D01*
G01X2945969Y-2609733D01*
G01X2940439Y-2612046D01*
G01X2907258Y-2624276D01*
G01X2883815Y-2634696D01*
G01X2881154Y-2634696D01*
G01X2865173Y-2641870D01*
G01X2849191Y-2649043D01*
G01X2821541Y-2662612D01*
G01X2793890Y-2676180D01*
G01X2773152Y-2687575D01*
G01X2752414Y-2698969D01*
G01X2731676Y-2711446D01*
G01X2710937Y-2723922D01*
G01X2671957Y-2749875D01*
G01X2632976Y-2775828D01*
G01X2595917Y-2805299D01*
G01X2558858Y-2834769D01*
G01X2547798Y-2844455D01*
G01X2536737Y-2854142D01*
G01X2486844Y-2904035D01*
G01X2436951Y-2953929D01*
G01X2391128Y-3009207D01*
G01X2372358Y-3034082D01*
G01X2353588Y-3058958D01*
G01X2317732Y-3114236D01*
G01X2295401Y-3150167D01*
G01X2277251Y-3183334D01*
G01X2263138Y-3210973D01*
G01X2249025Y-3238612D01*
G01X2233295Y-3274543D01*
G01X2225102Y-3293891D01*
G01X2222989Y-3299419D01*
G01X2220876Y-3304946D01*
G01X2215145Y-3318766D01*
G01X2204083Y-3349169D01*
G01X2194728Y-3374044D01*
G01X2187686Y-3396156D01*
G01X2181869Y-3415503D01*
G01X2176051Y-3434851D01*
G01X2168095Y-3466636D01*
G01X2160139Y-3498421D01*
G01X2156732Y-3515004D01*
G01X2153324Y-3531588D01*
G01X2148660Y-3553699D01*
G01X2142977Y-3592394D01*
G01X2137294Y-3639381D01*
G01X2134473Y-3664443D01*
G01X2131653Y-3689505D01*
G01X2131653Y-3842330D01*
G01X2134462Y-3870760D01*
G01X2137272Y-3899189D01*
G01X2142975Y-3943412D01*
G01X2145697Y-3961377D01*
G01X2148419Y-3979343D01*
G01X2151321Y-3994544D01*
G01X2154223Y-4009746D01*
G01X2156763Y-4021492D01*
G01X2159304Y-4033239D01*
G01X2164572Y-4056732D01*
G01X2172723Y-4089899D01*
G01X2178673Y-4112011D01*
G01X2184623Y-4134122D01*
G01X2197910Y-4174199D01*
G01X2211197Y-4214276D01*
G01X2220060Y-4236387D01*
G01X2228923Y-4258498D01*
G01X2240092Y-4283374D01*
G01X2258352Y-4320687D01*
G01X2276612Y-4357999D01*
G01X2300442Y-4399458D01*
G01X2324271Y-4440917D01*
G01X2333035Y-4454587D01*
G01X2341799Y-4468257D01*
G01X2341799Y-4477602D01*
G01X2328762Y-4479557D01*
G01X2315724Y-4481511D01*
G01X2305512Y-4468905D01*
G01X2285633Y-4435389D01*
G01X2248938Y-4371819D01*
G01X2229007Y-4331210D01*
G01X2209075Y-4290600D01*
G01X2209075Y-4287683D01*
G01X2202403Y-4273091D01*
G01X2195731Y-4258498D01*
G01X2186977Y-4236456D01*
G01X2178223Y-4214414D01*
G01X2166430Y-4178414D01*
G01X2154637Y-4142414D01*
G01X2151120Y-4129976D01*
G01X2147602Y-4117539D01*
G01X2145377Y-4110629D01*
G01X2143152Y-4103719D01*
G01X2132011Y-4056732D01*
G01X2130791Y-4049823D01*
G01X2129572Y-4042913D01*
G01X2125091Y-4020801D01*
G01X2120610Y-3998690D01*
G01X2117924Y-3984870D01*
G01X2115238Y-3971051D01*
G01X2112266Y-3951703D01*
G01X2109295Y-3932356D01*
G01X2106589Y-3915772D01*
G01X2098537Y-3832855D01*
G01X2098505Y-3770084D01*
G01X2098472Y-3707313D01*
G01X2103975Y-3650436D01*
G01X2110041Y-3595158D01*
G01X2118143Y-3548171D01*
G01X2123040Y-3520532D01*
G01X2125856Y-3506713D01*
G01X2128671Y-3492893D01*
G01X2138495Y-3454291D01*
G01X2148318Y-3415690D01*
G01X2151056Y-3407305D01*
G01X2153793Y-3398920D01*
G01X2163290Y-3369899D01*
G01X2172787Y-3340877D01*
G01X2189121Y-3296655D01*
G01X2192120Y-3289045D01*
G01X2195120Y-3281435D01*
G01X2200715Y-3269007D01*
G01X2206310Y-3256578D01*
G01X2212148Y-3243449D01*
G01X2217986Y-3230321D01*
G01X2228224Y-3209591D01*
G01X2238461Y-3188862D01*
G01X2247654Y-3172278D01*
G01X2256847Y-3155695D01*
G01X2269197Y-3133276D01*
G01X2282324Y-3111318D01*
G01X2295450Y-3089361D01*
G01X2302684Y-3078305D01*
G01X2309918Y-3067249D01*
G01X2320878Y-3052048D01*
G01X2331837Y-3036846D01*
G01X2370606Y-2984332D01*
G01X2398483Y-2951184D01*
G01X2417839Y-2929228D01*
G01X2448255Y-2896232D01*
G01X2465038Y-2879476D01*
G01X2481821Y-2862719D01*
G01X2501041Y-2844754D01*
G01X2520261Y-2826789D01*
G01X2531264Y-2817112D01*
G01X2542268Y-2807436D01*
G01X2556093Y-2796104D01*
G01X2569918Y-2784773D01*
G01X2599266Y-2762564D01*
G01X2628613Y-2740355D01*
G01X2657890Y-2720720D01*
G01X2687167Y-2701086D01*
G01X2696287Y-2695874D01*
G01X2705407Y-2690662D01*
G01X2724763Y-2678739D01*
G01X2744118Y-2666816D01*
G01X2796655Y-2640176D01*
G01X2849191Y-2613537D01*
G01X2929379Y-2581618D01*
G01X2995741Y-2559451D01*
G01X3004036Y-2557188D01*
G01X3012331Y-2554924D01*
G01X3034452Y-2548987D01*
G01X3056572Y-2543050D01*
G01X3075928Y-2538502D01*
G01X3100814Y-2533085D01*
G01X3122934Y-2528600D01*
G01X3145055Y-2524115D01*
G01X3175471Y-2518895D01*
G01X3216947Y-2513314D01*
G01X3241833Y-2510431D01*
G01X3266719Y-2507547D01*
G01X3305586Y-2504788D01*
G01X3344454Y-2502028D01*
G01X3385774Y-2502413D01*
G01X3427093Y-2502797D01*
G01X3456127Y-2504974D01*
G01X3485160Y-2507152D01*
G01X3515576Y-2510323D01*
G01X3545992Y-2513495D01*
G01X3559817Y-2515933D01*
G01X3573643Y-2518371D01*
G01X3591616Y-2521464D01*
G01X3609589Y-2524558D01*
G01X3637239Y-2529949D01*
G01X3648300Y-2532379D01*
G01X3659360Y-2534808D01*
G01X3687011Y-2541358D01*
G01X3695306Y-2543810D01*
G01X3703601Y-2546262D01*
G01X3764433Y-2563282D01*
G01X3803562Y-2576291D01*
G01X3841855Y-2590981D01*
G01X3852916Y-2595438D01*
G01X3862593Y-2599638D01*
G01X3872271Y-2603839D01*
G01X3884714Y-2608705D01*
G01X3897157Y-2613571D01*
G01X3949693Y-2640306D01*
G01X4002230Y-2667041D01*
G01X4025733Y-2680753D01*
G01X4049236Y-2694466D01*
G01X4087947Y-2720353D01*
G01X4126659Y-2746241D01*
G01X4162605Y-2773925D01*
G01X4201316Y-2804537D01*
G01X4248322Y-2845610D01*
G01X4278741Y-2876276D01*
G01X4309159Y-2906942D01*
G01X4322982Y-2922245D01*
G01X4336805Y-2937547D01*
G01X4353514Y-2956693D01*
G01X4375733Y-2984332D01*
G01X4397953Y-3011971D01*
G01X4415720Y-3036846D01*
G01X4437785Y-3069241D01*
G01X4459851Y-3101636D01*
G01X4459851Y-3104948D01*
G01X4467680Y-3116502D01*
G01X4475510Y-3128056D01*
G01X4479081Y-3136347D01*
G01X4495716Y-3163987D01*
G01X4516155Y-3205445D01*
G01X4536594Y-3246904D01*
G01X4548333Y-3273101D01*
G01X4548333Y-3275986D01*
G01X4554139Y-3289084D01*
G01X4559945Y-3302183D01*
G01X4562177Y-3307710D01*
G01X4564410Y-3313238D01*
G01X4569013Y-3325537D01*
G01X4573616Y-3337836D01*
G01X4591929Y-3393392D01*
G01X4602979Y-3429323D01*
G01X4608988Y-3454198D01*
G01X4614997Y-3479073D01*
G01X4619955Y-3501185D01*
G01X4625490Y-3528824D01*
G01X4628227Y-3544025D01*
G01X4630964Y-3559227D01*
G01X4636408Y-3589630D01*
G01X4639409Y-3615887D01*
G01X4642411Y-3642145D01*
G01X4647876Y-3699022D01*
G01X4647876Y-3831256D01*
G01X4642411Y-3888133D01*
G01X4639503Y-3914390D01*
G01X4636594Y-3940648D01*
G01X4633940Y-3956540D01*
G01X4631286Y-3972433D01*
G01X4628312Y-3989707D01*
G01X4625337Y-4006982D01*
G01X4620723Y-4031857D01*
G01X4617297Y-4048441D01*
G01X4613871Y-4065024D01*
G01X4606776Y-4092663D01*
G01X4601117Y-4113715D01*
G01X4595457Y-4134767D01*
G01X4584613Y-4167611D01*
G01X4573768Y-4200456D01*
G01X4545075Y-4272318D01*
G01X4538166Y-4287520D01*
G01X4531258Y-4302721D01*
G01X4519871Y-4326214D01*
G01X4508485Y-4349708D01*
G01X4490766Y-4381493D01*
G01X4473048Y-4413278D01*
G01X4460487Y-4434007D01*
G01X4447927Y-4454737D01*
G01X4418375Y-4498910D01*
G01X4418375Y-4505907D01*
G01X4804103Y-4504487D01*
G01X4806868Y-4098191D01*
G01X4780600Y-4072246D01*
G01X4780600Y-4061242D01*
G01X4799956Y-4061242D01*
G01X4802818Y-4066588D01*
G01X4805681Y-4071934D01*
G01X4826971Y-4071934D01*
G01X4831518Y-4064996D01*
G01X4836066Y-4058058D01*
G01X4829468Y-4045677D01*
G01X4825081Y-4042310D01*
G01X4820694Y-4038943D01*
G01X4816376Y-4038855D01*
G01X4812059Y-4038767D01*
G01X4806007Y-4044402D01*
G01X4799956Y-4050038D01*
G01X4799956Y-4061242D01*
G01X4799956Y-4061242D01*
G01X4780600Y-4061242D01*
G01X4780600Y-4046784D01*
G01X4784606Y-4039040D01*
G01X4788613Y-4031296D01*
G01X4802526Y-4022183D01*
G01X4830566Y-4022183D01*
G01X4844480Y-4031296D01*
G01X4848486Y-4039040D01*
G01X4852492Y-4046784D01*
G01X4852482Y-4057286D01*
G01X4852471Y-4067788D01*
G01X4846950Y-4076840D01*
G01X4841429Y-4085891D01*
G01X4834895Y-4088374D01*
G01X4828361Y-4090858D01*
G37*
G36*
G01X2703862Y-4682540D02*
G01X2694957Y-4684196D01*
G01X2686052Y-4685851D01*
G01X2675956Y-4681619D01*
G01X2665860Y-4677386D01*
G01X2660272Y-4668326D01*
G01X2654684Y-4659267D01*
G01X2652867Y-4651986D01*
G01X2651049Y-4644705D01*
G01X2654098Y-4638732D01*
G01X2673609Y-4638732D01*
G01X2673609Y-4656779D01*
G01X2680245Y-4663412D01*
G01X2680245Y-4663412D01*
G01X2699267Y-4663412D01*
G01X2702941Y-4658576D01*
G01X2706614Y-4653739D01*
G01X2706790Y-4644065D01*
G01X2695729Y-4633009D01*
G01X2684306Y-4633009D01*
G01X2678957Y-4635871D01*
G01X2673609Y-4638732D01*
G01X2654098Y-4638732D01*
G01X2656765Y-4633505D01*
G01X2662481Y-4622306D01*
G01X2670810Y-4617388D01*
G01X2679139Y-4612470D01*
G01X2679139Y-4524853D01*
G01X2682001Y-4519507D01*
G01X2684864Y-4514161D01*
G01X2801877Y-4514161D01*
G01X2858024Y-4458280D01*
G01X2914171Y-4402400D01*
G01X2914171Y-4395009D01*
G01X2908886Y-4383414D01*
G01X2903602Y-4371819D01*
G01X2885753Y-4327596D01*
G01X2880983Y-4309756D01*
G01X2876213Y-4291916D01*
G01X2871015Y-4290184D01*
G01X2631674Y-4530723D01*
G01X2526896Y-4531964D01*
G01X2515943Y-4544948D01*
G01X2504990Y-4557933D01*
G01X2496669Y-4559760D01*
G01X2488348Y-4561587D01*
G01X2480653Y-4559897D01*
G01X2472957Y-4558207D01*
G01X2465984Y-4552077D01*
G01X2459012Y-4545946D01*
G01X2455391Y-4537009D01*
G01X2451770Y-4528072D01*
G01X2454009Y-4516142D01*
G01X2473601Y-4516142D01*
G01X2473601Y-4533607D01*
G01X2478901Y-4537616D01*
G01X2484201Y-4541624D01*
G01X2487839Y-4541712D01*
G01X2487839Y-4541712D01*
G01X2491477Y-4541800D01*
G01X2501538Y-4536418D01*
G01X2505191Y-4521867D01*
G01X2496516Y-4508633D01*
G01X2483875Y-4508633D01*
G01X2478738Y-4512388D01*
G01X2473601Y-4516142D01*
G01X2454009Y-4516142D01*
G01X2455388Y-4508796D01*
G01X2462015Y-4500923D01*
G01X2468642Y-4493050D01*
G01X2480011Y-4489300D01*
G01X2491379Y-4485549D01*
G01X2503440Y-4491406D01*
G01X2515501Y-4497264D01*
G01X2520494Y-4505712D01*
G01X2525487Y-4514161D01*
G01X2620923Y-4514161D01*
G01X2743352Y-4390990D01*
G01X2865782Y-4267819D01*
G01X2866686Y-4259198D01*
G01X2867590Y-4250578D01*
G01X2864149Y-4232241D01*
G01X2856884Y-4232241D01*
G01X2674630Y-4417424D01*
G01X2503556Y-4417484D01*
G01X2493124Y-4419208D01*
G01X2482691Y-4420931D01*
G01X2473384Y-4436682D01*
G01X2464549Y-4440872D01*
G01X2455714Y-4445063D01*
G01X2446454Y-4445045D01*
G01X2437194Y-4445026D01*
G01X2429438Y-4439915D01*
G01X2421682Y-4434803D01*
G01X2417166Y-4428358D01*
G01X2412651Y-4421914D01*
G01X2412844Y-4409132D01*
G01X2429202Y-4409132D01*
G01X2440514Y-4424333D01*
G01X2446686Y-4425247D01*
G01X2446686Y-4425247D01*
G01X2452858Y-4426160D01*
G01X2458161Y-4421363D01*
G01X2463463Y-4416567D01*
G01X2463463Y-4401154D01*
G01X2451020Y-4392384D01*
G01X2445767Y-4393157D01*
G01X2440514Y-4393930D01*
G01X2429202Y-4409132D01*
G01X2412844Y-4409132D01*
G01X2412845Y-4409013D01*
G01X2413040Y-4396111D01*
G01X2417532Y-4389259D01*
G01X2422023Y-4382407D01*
G01X2429344Y-4378495D01*
G01X2436665Y-4374583D01*
G01X2464473Y-4375008D01*
G01X2474712Y-4386542D01*
G01X2484952Y-4398076D01*
G01X2667201Y-4398076D01*
G01X2729390Y-4335197D01*
G01X2791578Y-4272318D01*
G01X2858728Y-4203220D01*
G01X2858756Y-4189400D01*
G01X2858785Y-4175581D01*
G01X2856641Y-4172208D01*
G01X2854497Y-4168835D01*
G01X2772606Y-4250324D01*
G01X2690714Y-4331814D01*
G01X2592988Y-4331087D01*
G01X2495261Y-4330360D01*
G01X2494395Y-4321378D01*
G01X2493528Y-4312395D01*
G01X2497160Y-4312324D01*
G01X2500791Y-4312253D01*
G01X2591867Y-4312394D01*
G01X2682943Y-4312535D01*
G01X2855518Y-4140352D01*
G01X2859295Y-4098191D01*
G01X2860765Y-4091972D01*
G01X2862234Y-4085753D01*
G01X2854247Y-4085753D01*
G01X2829836Y-4104061D01*
G01X2813399Y-4116327D01*
G01X2796962Y-4128594D01*
G01X2737359Y-4188420D01*
G01X2677756Y-4248246D01*
G01X2362537Y-4250920D01*
G01X2358331Y-4252689D01*
G01X2354125Y-4254458D01*
G01X2348712Y-4266356D01*
G01X2341734Y-4271482D01*
G01X2334757Y-4276608D01*
G01X2324817Y-4278221D01*
G01X2314877Y-4279833D01*
G01X2304997Y-4275146D01*
G01X2295117Y-4270460D01*
G01X2290282Y-4263097D01*
G01X2285447Y-4255734D01*
G01X2285440Y-4243137D01*
G01X2302127Y-4243137D01*
G01X2308430Y-4256964D01*
G01X2308430Y-4256964D01*
G01X2315457Y-4258727D01*
G01X2322484Y-4260490D01*
G01X2336269Y-4251461D01*
G01X2336269Y-4235318D01*
G01X2323826Y-4226549D01*
G01X2318573Y-4227322D01*
G01X2313321Y-4228095D01*
G01X2307724Y-4235616D01*
G01X2302127Y-4243137D01*
G01X2285440Y-4243137D01*
G01X2285440Y-4243088D01*
G01X2285434Y-4230442D01*
G01X2291635Y-4221737D01*
G01X2297836Y-4213032D01*
G01X2319145Y-4206651D01*
G01X2328605Y-4208425D01*
G01X2338065Y-4210199D01*
G01X2348712Y-4220507D01*
G01X2359000Y-4233016D01*
G01X2513446Y-4231437D01*
G01X2667891Y-4229857D01*
G01X2671442Y-4227579D01*
G01X2674991Y-4225302D01*
G01X2713524Y-4185982D01*
G01X2752056Y-4146663D01*
G01X2750415Y-4145023D01*
G01X2748775Y-4143383D01*
G01X2731238Y-4151536D01*
G01X2713703Y-4159690D01*
G01X2694347Y-4168088D01*
G01X2669461Y-4179235D01*
G01X2647355Y-4188013D01*
G01X2625249Y-4196791D01*
G01X2597041Y-4206224D01*
G01X2568834Y-4215658D01*
G01X2556884Y-4215658D01*
G01X2558807Y-4210821D01*
G01X2560729Y-4205984D01*
G01X2569824Y-4178345D01*
G01X2578919Y-4150706D01*
G01X2584856Y-4125830D01*
G01X2590391Y-4098191D01*
G01X2593455Y-4081608D01*
G01X2596518Y-4065024D01*
G01X2599118Y-4050513D01*
G01X2601717Y-4036003D01*
G01X2604648Y-4020110D01*
G01X2607578Y-4004218D01*
G01X2610534Y-3989016D01*
G01X2613490Y-3973815D01*
G01X2620535Y-3948939D01*
G01X2624429Y-3939266D01*
G01X2617252Y-3939266D01*
G01X2594968Y-3962312D01*
G01X2572683Y-3985358D01*
G01X2553328Y-4002495D01*
G01X2533972Y-4019631D01*
G01X2511176Y-4034813D01*
G01X2488380Y-4049995D01*
G01X2466388Y-4060964D01*
G01X2444395Y-4071934D01*
G01X2438577Y-4071934D01*
G01X2438577Y-4067545D01*
G01X2454483Y-4035881D01*
G01X2470389Y-4004218D01*
G01X2480483Y-3979343D01*
G01X2482764Y-3973815D01*
G01X2485044Y-3968287D01*
G01X2490652Y-3953085D01*
G01X2496260Y-3937884D01*
G01X2502269Y-3917154D01*
G01X2508279Y-3896425D01*
G01X2512857Y-3882605D01*
G01X2518934Y-3861876D01*
G01X2525011Y-3841147D01*
G01X2537000Y-3805350D01*
G01X2548988Y-3769554D01*
G01X2546413Y-3766979D01*
G01X2536045Y-3775230D01*
G01X2525677Y-3783480D01*
G01X2509087Y-3794645D01*
G01X2492496Y-3805810D01*
G01X2471758Y-3816717D01*
G01X2451020Y-3827624D01*
G01X2427517Y-3836733D01*
G01X2404013Y-3845842D01*
G01X2376363Y-3855996D01*
G01X2358390Y-3859551D01*
G01X2358390Y-3852844D01*
G01X2396335Y-3802452D01*
G01X2446872Y-3726590D01*
G01X2446872Y-3723151D01*
G01X2451977Y-3715815D01*
G01X2457082Y-3708479D01*
G01X2478164Y-3669784D01*
G01X2503047Y-3621550D01*
G01X2623050Y-3621550D01*
G01X2624402Y-3622901D01*
G01X2625753Y-3624252D01*
G01X2636547Y-3619704D01*
G01X2647341Y-3615157D01*
G01X2691582Y-3598939D01*
G01X2702642Y-3595195D01*
G01X2713703Y-3591451D01*
G01X2728910Y-3586831D01*
G01X2744118Y-3582210D01*
G01X2753105Y-3579701D01*
G01X2762091Y-3577192D01*
G01X2771078Y-3574659D01*
G01X2780064Y-3572125D01*
G01X2818474Y-3562237D01*
G01X2856883Y-3552348D01*
G01X2861333Y-3548902D01*
G01X2865782Y-3545456D01*
G01X2882372Y-3531612D01*
G01X2898963Y-3517768D01*
G01X2901728Y-3514924D01*
G01X2954265Y-3470506D01*
G01X2980220Y-3452766D01*
G01X3019779Y-3448400D01*
G01X3059338Y-3444033D01*
G01X3128465Y-3436602D01*
G01X3149783Y-3436417D01*
G01X3171100Y-3436233D01*
G01X3181581Y-3424681D01*
G01X3192061Y-3413129D01*
G01X3209719Y-3394278D01*
G01X3227376Y-3375426D01*
G01X3370271Y-3375426D01*
G01X3386239Y-3358606D01*
G01X3402208Y-3341785D01*
G01X3543227Y-3344276D01*
G01X3551411Y-3346892D01*
G01X3559596Y-3349508D01*
G01X3556750Y-3351265D01*
G01X3553905Y-3353023D01*
G01X3410503Y-3356825D01*
G01X3393690Y-3374760D01*
G01X3376877Y-3392695D01*
G01X3234505Y-3391705D01*
G01X3220102Y-3406368D01*
G01X3205699Y-3421031D01*
G01X3179191Y-3452816D01*
G01X3112893Y-3452816D01*
G01X3106854Y-3455979D01*
G01X3100814Y-3459142D01*
G01X3089753Y-3468820D01*
G01X3078693Y-3478498D01*
G01X3060718Y-3495369D01*
G01X3042743Y-3512240D01*
G01X3019242Y-3532919D01*
G01X2995741Y-3553598D01*
G01X2987445Y-3561991D01*
G01X2923849Y-3620033D01*
G01X2921084Y-3622882D01*
G01X2894128Y-3647024D01*
G01X2867174Y-3671166D01*
G01X2862719Y-3671166D01*
G01X2843959Y-3651818D01*
G01X2814099Y-3651818D01*
G01X2806027Y-3657564D01*
G01X2797954Y-3663310D01*
G01X2789742Y-3679183D01*
G01X2789742Y-3699079D01*
G01X2797471Y-3714019D01*
G01X2807715Y-3722981D01*
G01X2817847Y-3726231D01*
G01X2827979Y-3729480D01*
G01X2837246Y-3725610D01*
G01X2846513Y-3721740D01*
G01X2864482Y-3701283D01*
G01X2896781Y-3684758D01*
G01X2902046Y-3680035D01*
G01X2907311Y-3675312D01*
G01X2970855Y-3619783D01*
G01X3001271Y-3593720D01*
G01X3031687Y-3567657D01*
G01X3033069Y-3566206D01*
G01X3034452Y-3564755D01*
G01X3057955Y-3544064D01*
G01X3081458Y-3523372D01*
G01X3082841Y-3521952D01*
G01X3084223Y-3520532D01*
G01X3097296Y-3508785D01*
G01X3110368Y-3497039D01*
G01X3257404Y-3497039D01*
G01X3263357Y-3493854D01*
G01X3269309Y-3490670D01*
G01X3293705Y-3466215D01*
G01X3318100Y-3441760D01*
G01X3433632Y-3441760D01*
G01X3464926Y-3433932D01*
G01X3496220Y-3426103D01*
G01X3510046Y-3423019D01*
G01X3523871Y-3419935D01*
G01X3539079Y-3418280D01*
G01X3554287Y-3416624D01*
G01X3537696Y-3424430D01*
G01X3485160Y-3441742D01*
G01X3432623Y-3459054D01*
G01X3376727Y-3460772D01*
G01X3320830Y-3462490D01*
G01X3278566Y-3504096D01*
G01X3236303Y-3545701D01*
G01X3228569Y-3549009D01*
G01X3220835Y-3552317D01*
G01X3176923Y-3552317D01*
G01X3127808Y-3594294D01*
G01X3078693Y-3636272D01*
G01X3077311Y-3637826D01*
G01X3075928Y-3639381D01*
G01X3052425Y-3660072D01*
G01X3028922Y-3680763D01*
G01X3027539Y-3682186D01*
G01X3026157Y-3683609D01*
G01X3005424Y-3701572D01*
G01X2984691Y-3719534D01*
G01X2959951Y-3741646D01*
G01X2942591Y-3757976D01*
G01X2925231Y-3774307D01*
G01X2925231Y-3886751D01*
G01X2928688Y-3886734D01*
G01X2932144Y-3886717D01*
G01X2948734Y-3877822D01*
G01X2995741Y-3853604D01*
G01X3042747Y-3829385D01*
G01X3088335Y-3805093D01*
G01X3099431Y-3795596D01*
G01X3099431Y-3711446D01*
G01X3181001Y-3630769D01*
G01X3219712Y-3595795D01*
G01X3272249Y-3553343D01*
G01X3299900Y-3533012D01*
G01X3327550Y-3512680D01*
G01X3342539Y-3501405D01*
G01X3357528Y-3490129D01*
G01X3386456Y-3490829D01*
G01X3400681Y-3494240D01*
G01X3414907Y-3497652D01*
G01X3413935Y-3500800D01*
G01X3412963Y-3503949D01*
G01X3393760Y-3513770D01*
G01X3374557Y-3523592D01*
G01X3330315Y-3547655D01*
G01X3272249Y-3586259D01*
G01X3258423Y-3597601D01*
G01X3244598Y-3608944D01*
G01X3232186Y-3620016D01*
G01X3219774Y-3631089D01*
G01X3197623Y-3651934D01*
G01X3175471Y-3672779D01*
G01X3158880Y-3688448D01*
G01X3142290Y-3704118D01*
G01X3139525Y-3800237D01*
G01X3135377Y-3805455D01*
G01X3131230Y-3810672D01*
G01X3126129Y-3816235D01*
G01X3121029Y-3821799D01*
G01X3112995Y-3833353D01*
G01X3104961Y-3844907D01*
G01X3104961Y-3854220D01*
G01X3120169Y-3844438D01*
G01X3143673Y-3821828D01*
G01X3167176Y-3799217D01*
G01X3192061Y-3776592D01*
G01X3192338Y-3743485D01*
G01X3192614Y-3710378D01*
G01X3206691Y-3694200D01*
G01X3220767Y-3678023D01*
G01X3243743Y-3658133D01*
G01X3266719Y-3638244D01*
G01X3286074Y-3623595D01*
G01X3305430Y-3608947D01*
G01X3329374Y-3591707D01*
G01X3353317Y-3574466D01*
G01X3376380Y-3561268D01*
G01X3399442Y-3548070D01*
G01X3449214Y-3524016D01*
G01X3461657Y-3519150D01*
G01X3474100Y-3514136D01*
G01X3498985Y-3504809D01*
G01X3510046Y-3501149D01*
G01X3521106Y-3497489D01*
G01X3559817Y-3486271D01*
G01X3580555Y-3480897D01*
G01X3601293Y-3475522D01*
G01X3628152Y-3471736D01*
G01X3626514Y-3474386D01*
G01X3624875Y-3477036D01*
G01X3606172Y-3484596D01*
G01X3587468Y-3492157D01*
G01X3581938Y-3494383D01*
G01X3576408Y-3496609D01*
G01X3563987Y-3501661D01*
G01X3551566Y-3506713D01*
G01X3507303Y-3529074D01*
G01X3463039Y-3551435D01*
G01X3451979Y-3557671D01*
G01X3440919Y-3563907D01*
G01X3410503Y-3580946D01*
G01X3390783Y-3594134D01*
G01X3371064Y-3607322D01*
G01X3360367Y-3613449D01*
G01X3349671Y-3619575D01*
G01X3299900Y-3645143D01*
G01X3289928Y-3651936D01*
G01X3279956Y-3658728D01*
G01X3265042Y-3671124D01*
G01X3250128Y-3683520D01*
G01X3238377Y-3694944D01*
G01X3226625Y-3706369D01*
G01X3226625Y-3774986D01*
G01X3212407Y-3790101D01*
G01X3198188Y-3805216D01*
G01X3176461Y-3827680D01*
G01X3154733Y-3850145D01*
G01X3154733Y-3928210D01*
G01X3158085Y-3928210D01*
G01X3163813Y-3920931D01*
G01X3169540Y-3913652D01*
G01X3191547Y-3888455D01*
G01X3213553Y-3863258D01*
G01X3225273Y-3849438D01*
G01X3235960Y-3836310D01*
G01X3246647Y-3823181D01*
G01X3255063Y-3823181D01*
G01X3251324Y-3885369D01*
G01X3249650Y-3902669D01*
G01X3247977Y-3919969D01*
G01X3232083Y-3937966D01*
G01X3216188Y-3955963D01*
G01X3212717Y-3964341D01*
G01X3209245Y-3972719D01*
G01X3212673Y-3984155D01*
G01X3216100Y-3995590D01*
G01X3224420Y-4003359D01*
G01X3232740Y-4011128D01*
G01X3262935Y-4011128D01*
G01X3268917Y-4007927D01*
G01X3274900Y-4004727D01*
G01X3278573Y-4001055D01*
G01X3282246Y-3997383D01*
G01X3293838Y-3977213D01*
G01X3305430Y-3957043D01*
G01X3313725Y-3945450D01*
G01X3322020Y-3933856D01*
G01X3326859Y-3933797D01*
G01X3331698Y-3933738D01*
G01X3331698Y-3941844D01*
G01X3328998Y-3990996D01*
G01X3326299Y-4040149D01*
G01X3323007Y-4087934D01*
G01X3319716Y-4135720D01*
G01X3329348Y-4156233D01*
G01X3355201Y-4196239D01*
G01X3359154Y-4196310D01*
G01X3397226Y-4156233D01*
G01X3407642Y-4144487D01*
G01X3418059Y-4132740D01*
G01X3425428Y-4132740D01*
G01X3434268Y-4151397D01*
G01X3443107Y-4170053D01*
G01X3456863Y-4190782D01*
G01X3456863Y-4190782D01*
G01X3470619Y-4211512D01*
G01X3490444Y-4237769D01*
G01X3496668Y-4237769D01*
G01X3504421Y-4222567D01*
G01X3575730Y-4115205D01*
G01X3591616Y-4088274D01*
G01X3591616Y-3917606D01*
G01X3559663Y-3887692D01*
G01X3527711Y-3857778D01*
G01X3523905Y-3855649D01*
G01X3520100Y-3853520D01*
G01X3504012Y-3868063D01*
G01X3487925Y-3882605D01*
G01X3456055Y-3913009D01*
G01X3454274Y-3951135D01*
G01X3452492Y-3989261D01*
G01X3466752Y-4002435D01*
G01X3481012Y-4015607D01*
G01X3481012Y-4039041D01*
G01X3476987Y-4046823D01*
G01X3472961Y-4054605D01*
G01X3463853Y-4058816D01*
G01X3454744Y-4063027D01*
G01X3449109Y-4064717D01*
G01X3443474Y-4066407D01*
G01X3431145Y-4060187D01*
G01X3418817Y-4053968D01*
G01X3415234Y-4047059D01*
G01X3411652Y-4040149D01*
G01X3412805Y-4026400D01*
G01X3413066Y-4023289D01*
G01X3431241Y-4023289D01*
G01X3431241Y-4037661D01*
G01X3437877Y-4044295D01*
G01X3437877Y-4044295D01*
G01X3455999Y-4044295D01*
G01X3460611Y-4037260D01*
G01X3465222Y-4030224D01*
G01X3461590Y-4023440D01*
G01X3457957Y-4016655D01*
G01X3437877Y-4016655D01*
G01X3431241Y-4023289D01*
G01X3413066Y-4023289D01*
G01X3413958Y-4012651D01*
G01X3425365Y-4002831D01*
G01X3436771Y-3993012D01*
G01X3436771Y-3907245D01*
G01X3516958Y-3830989D01*
G01X3516958Y-3818473D01*
G01X3508565Y-3809694D01*
G01X3500172Y-3800916D01*
G01X3497471Y-3793813D01*
G01X3494770Y-3786712D01*
G01X3496774Y-3779272D01*
G01X3514193Y-3779272D01*
G01X3514193Y-3788197D01*
G01X3518770Y-3793252D01*
G01X3523346Y-3798306D01*
G01X3523346Y-3798306D01*
G01X3537261Y-3798306D01*
G01X3542318Y-3793732D01*
G01X3547374Y-3789157D01*
G01X3547374Y-3779272D01*
G01X3535083Y-3770667D01*
G01X3526484Y-3770667D01*
G01X3514193Y-3779272D01*
G01X3496774Y-3779272D01*
G01X3500747Y-3764524D01*
G01X3507700Y-3758083D01*
G01X3514652Y-3751642D01*
G01X3529401Y-3749937D01*
G01X3547578Y-3751948D01*
G01X3563965Y-3768328D01*
G01X3563965Y-3799035D01*
G01X3544215Y-3817653D01*
G01X3536959Y-3817653D01*
G01X3533911Y-3829302D01*
G01X3538453Y-3841147D01*
G01X3569943Y-3871550D01*
G01X3601432Y-3901953D01*
G01X3607584Y-3910671D01*
G01X3613736Y-3919390D01*
G01X3613736Y-4102871D01*
G01X3603022Y-4115037D01*
G01X3592308Y-4127203D01*
G01X3588788Y-4144798D01*
G01X3590427Y-4153531D01*
G01X3592066Y-4162264D01*
G01X3598062Y-4169179D01*
G01X3604058Y-4176094D01*
G01X3610098Y-4179292D01*
G01X3616138Y-4182491D01*
G01X3636131Y-4182491D01*
G01X3644412Y-4178211D01*
G01X3652692Y-4173930D01*
G01X3658089Y-4165082D01*
G01X3663487Y-4156233D01*
G01X3663497Y-4144349D01*
G01X3663508Y-4132466D01*
G01X3659501Y-4124721D01*
G01X3655495Y-4116977D01*
G01X3648441Y-4112357D01*
G01X3641387Y-4107737D01*
G01X3641387Y-3939947D01*
G01X3667362Y-3916113D01*
G01X3693338Y-3892279D01*
G01X3696689Y-3892279D01*
G01X3696689Y-4036557D01*
G01X3708440Y-4048126D01*
G01X3720192Y-4059694D01*
G01X3740919Y-4077561D01*
G01X3761646Y-4095427D01*
G01X3769952Y-4103015D01*
G01X3778258Y-4110603D01*
G01X3781715Y-4110616D01*
G01X3785171Y-4110629D01*
G01X3785171Y-3989816D01*
G01X3767901Y-3970760D01*
G01X3750631Y-3951703D01*
G01X3736633Y-3937884D01*
G01X3730486Y-3929910D01*
G01X3724339Y-3921937D01*
G01X3724339Y-3842817D01*
G01X3735785Y-3808124D01*
G01X3747230Y-3773431D01*
G01X3751345Y-3773431D01*
G01X3753346Y-3779649D01*
G01X3755346Y-3785868D01*
G01X3756543Y-3842529D01*
G01X3757739Y-3899189D01*
G01X3760113Y-3910245D01*
G01X3772808Y-3924064D01*
G01X3796272Y-3950652D01*
G01X3819735Y-3977240D01*
G01X3828541Y-3988256D01*
G01X3837347Y-3999271D01*
G01X3847381Y-4004031D01*
G01X3857416Y-4008790D01*
G01X3868592Y-4006903D01*
G01X3879769Y-4005015D01*
G01X3900906Y-3983887D01*
G01X3902763Y-3971505D01*
G01X3904621Y-3959123D01*
G01X3902592Y-3949885D01*
G01X3900563Y-3940648D01*
G01X3894021Y-3931023D01*
G01X3887479Y-3921399D01*
G01X3887479Y-3914564D01*
G01X3892318Y-3916296D01*
G01X3897157Y-3918029D01*
G01X3910891Y-3927957D01*
G01X3924626Y-3937884D01*
G01X3931410Y-3941420D01*
G01X3938195Y-3944955D01*
G01X3942620Y-3940532D01*
G01X3930774Y-3919861D01*
G01X3918928Y-3899189D01*
G01X3914955Y-3892279D01*
G01X3910982Y-3885369D01*
G01X3894851Y-3863258D01*
G01X3878700Y-3846577D01*
G01X3862548Y-3829897D01*
G01X3859806Y-3820338D01*
G01X3857063Y-3810780D01*
G01X3857063Y-3752677D01*
G01X3863660Y-3734724D01*
G01X3870257Y-3716770D01*
G01X3876323Y-3701569D01*
G01X3882389Y-3686367D01*
G01X3901735Y-3650436D01*
G01X3912919Y-3635595D01*
G01X3924103Y-3620755D01*
G01X3941713Y-3603239D01*
G01X3959322Y-3585724D01*
G01X3975246Y-3574926D01*
G01X3991170Y-3564128D01*
G01X4018820Y-3550090D01*
G01X4028498Y-3545818D01*
G01X4038176Y-3541547D01*
G01X4074122Y-3530728D01*
G01X4107303Y-3524962D01*
G01X4150162Y-3518368D01*
G01X4150162Y-3514508D01*
G01X4131498Y-3511418D01*
G01X4112833Y-3508328D01*
G01X4069620Y-3505001D01*
G01X4026407Y-3501674D01*
G01X3988050Y-3505128D01*
G01X3949693Y-3508583D01*
G01X3905452Y-3516429D01*
G01X3893009Y-3519111D01*
G01X3880566Y-3521792D01*
G01X3839090Y-3532280D01*
G01X3836520Y-3529918D01*
G01X3833950Y-3527555D01*
G01X3842050Y-3520296D01*
G01X3850151Y-3513036D01*
G01X3912365Y-3471993D01*
G01X3912365Y-3465018D01*
G01X3886097Y-3457938D01*
G01X3810057Y-3455436D01*
G01X3734017Y-3452934D01*
G01X3720192Y-3449005D01*
G01X3706366Y-3445075D01*
G01X3684323Y-3437615D01*
G01X3662279Y-3430156D01*
G01X3637239Y-3418650D01*
G01X3614438Y-3403283D01*
G01X3611641Y-3392591D01*
G01X3615580Y-3384459D01*
G01X3615979Y-3383637D01*
G01X3663508Y-3383637D01*
G01X3663508Y-3396929D01*
G01X3675259Y-3402391D01*
G01X3687011Y-3407853D01*
G01X3703601Y-3413421D01*
G01X3720192Y-3418989D01*
G01X3740222Y-3422523D01*
G01X3760253Y-3426057D01*
G01X3823175Y-3424407D01*
G01X3886097Y-3422756D01*
G01X3930338Y-3427797D01*
G01X3942781Y-3430390D01*
G01X3955224Y-3432982D01*
G01X3999465Y-3445011D01*
G01X4011908Y-3447543D01*
G01X4024351Y-3450075D01*
G01X4042324Y-3452855D01*
G01X4060297Y-3455635D01*
G01X4060297Y-3455635D01*
G01X4121128Y-3461033D01*
G01X4164847Y-3464735D01*
G01X4163128Y-3461953D01*
G01X4161408Y-3459172D01*
G01X4123894Y-3447762D01*
G01X4085182Y-3441116D01*
G01X4057532Y-3435656D01*
G01X4029881Y-3430197D01*
G01X4014673Y-3426065D01*
G01X3999465Y-3421934D01*
G01X3982874Y-3417351D01*
G01X3955224Y-3410338D01*
G01X3927573Y-3403325D01*
G01X3913747Y-3399890D01*
G01X3899922Y-3396453D01*
G01X3828030Y-3396446D01*
G01X3812822Y-3400446D01*
G01X3797614Y-3404448D01*
G01X3760285Y-3404007D01*
G01X3722957Y-3403566D01*
G01X3681481Y-3389988D01*
G01X3679641Y-3380689D01*
G01X3682974Y-3376676D01*
G01X3686305Y-3372662D01*
G01X3683893Y-3372673D01*
G01X3681481Y-3372683D01*
G01X3672494Y-3378160D01*
G01X3663508Y-3383637D01*
G01X3615979Y-3383637D01*
G01X3619520Y-3376329D01*
G01X3631145Y-3364990D01*
G01X3642770Y-3353652D01*
G01X3658919Y-3343977D01*
G01X3675069Y-3334303D01*
G01X3697630Y-3327474D01*
G01X3720192Y-3320645D01*
G01X3734017Y-3317799D01*
G01X3747843Y-3314952D01*
G01X3765816Y-3312155D01*
G01X3783789Y-3309358D01*
G01X3836325Y-3303071D01*
G01X3858446Y-3290113D01*
G01X3869009Y-3277544D01*
G01X3879572Y-3264975D01*
G01X3891130Y-3261771D01*
G01X3899890Y-3259342D01*
G01X4094860Y-3259342D01*
G01X4139162Y-3259342D01*
G01X4163688Y-3247818D01*
G01X4176542Y-3230321D01*
G01X4180310Y-3222906D01*
G01X4184078Y-3215492D01*
G01X4180448Y-3206037D01*
G01X4161825Y-3207597D01*
G01X4143202Y-3209158D01*
G01X4130842Y-3215593D01*
G01X4118482Y-3222029D01*
G01X4106671Y-3233703D01*
G01X4094860Y-3245377D01*
G01X4094860Y-3259342D01*
G01X4094860Y-3259342D01*
G01X3899890Y-3259342D01*
G01X3902687Y-3258566D01*
G01X3915130Y-3254615D01*
G01X3927573Y-3250663D01*
G01X3939334Y-3243256D01*
G01X3951095Y-3235848D01*
G01X3961341Y-3213737D01*
G01X3964763Y-3187720D01*
G01X3962087Y-3186068D01*
G01X3959411Y-3184414D01*
G01X3942109Y-3192554D01*
G01X3924808Y-3200694D01*
G01X3918227Y-3202678D01*
G01X3911647Y-3204663D01*
G01X3889194Y-3204460D01*
G01X3866741Y-3204256D01*
G01X3832016Y-3192822D01*
G01X3812465Y-3181846D01*
G01X3808320Y-3184407D01*
G01X3801659Y-3197690D01*
G01X3794998Y-3210973D01*
G01X3776605Y-3229308D01*
G01X3758212Y-3247642D01*
G01X3737819Y-3257659D01*
G01X3717427Y-3267676D01*
G01X3685358Y-3275925D01*
G01X3628475Y-3275925D01*
G01X3611347Y-3270305D01*
G01X3594219Y-3264684D01*
G01X3573643Y-3253233D01*
G01X3547383Y-3233337D01*
G01X3536210Y-3217415D01*
G01X3525037Y-3201493D01*
G01X3517541Y-3185504D01*
G01X3510046Y-3169514D01*
G01X3507281Y-3114236D01*
G01X3460274Y-3078934D01*
G01X3458373Y-3070808D01*
G01X3464310Y-3064874D01*
G01X3479630Y-3072531D01*
G01X3499580Y-3087474D01*
G01X3519529Y-3102416D01*
G01X3525157Y-3114035D01*
G01X3530784Y-3125655D01*
G01X3530784Y-3145196D01*
G01X3533777Y-3154591D01*
G01X3536770Y-3163987D01*
G01X3543058Y-3177806D01*
G01X3559204Y-3202681D01*
G01X3574564Y-3217162D01*
G01X3589924Y-3231642D01*
G01X3606936Y-3239844D01*
G01X3623948Y-3248045D01*
G01X3642090Y-3249903D01*
G01X3660232Y-3251761D01*
G01X3680252Y-3248007D01*
G01X3678629Y-3245383D01*
G01X3677007Y-3242758D01*
G01X3663386Y-3242758D01*
G01X3645442Y-3234625D01*
G01X3627498Y-3226492D01*
G01X3602120Y-3205707D01*
G01X3591846Y-3190374D01*
G01X3581571Y-3175042D01*
G01X3573706Y-3155695D01*
G01X3573706Y-3132958D01*
G01X3613366Y-3132958D01*
G01X3616626Y-3147090D01*
G01X3619886Y-3161223D01*
G01X3626242Y-3172278D01*
G01X3632598Y-3183334D01*
G01X3648300Y-3198013D01*
G01X3657977Y-3203364D01*
G01X3667655Y-3208714D01*
G01X3667655Y-3208714D01*
G01X3696884Y-3215717D01*
G01X3708557Y-3213968D01*
G01X3720230Y-3212218D01*
G01X3734036Y-3205802D01*
G01X3747843Y-3199385D01*
G01X3767955Y-3178611D01*
G01X3775238Y-3165009D01*
G01X3772545Y-3160741D01*
G01X3769852Y-3156474D01*
G01X3757465Y-3149539D01*
G01X3745078Y-3142604D01*
G01X3737738Y-3137403D01*
G01X3730399Y-3132202D01*
G01X3727718Y-3132202D01*
G01X3690774Y-3109707D01*
G01X3653830Y-3087213D01*
G01X3646917Y-3083467D01*
G01X3640004Y-3079721D01*
G01X3637970Y-3079704D01*
G01X3635935Y-3079687D01*
G01X3628789Y-3090481D01*
G01X3621643Y-3101275D01*
G01X3613366Y-3132958D01*
G01X3573706Y-3132958D01*
G01X3573706Y-3111472D01*
G01X3581117Y-3092125D01*
G01X3589757Y-3074921D01*
G01X3598396Y-3057717D01*
G01X3592932Y-3053555D01*
G01X3587468Y-3049393D01*
G01X3554287Y-3032742D01*
G01X3521106Y-3024218D01*
G01X3489308Y-3020190D01*
G01X3457509Y-3016161D01*
G01X3426402Y-3016117D01*
G01X3409120Y-3019572D01*
G01X3409120Y-3025355D01*
G01X3418086Y-3035258D01*
G01X3416455Y-3039507D01*
G01X3414824Y-3043756D01*
G01X3312294Y-3043756D01*
G01X3280544Y-3014624D01*
G01X3270007Y-3008132D01*
G01X3259470Y-3001639D01*
G01X3246504Y-2998069D01*
G01X3233538Y-2994500D01*
G01X3171481Y-2994006D01*
G01X3156194Y-3000763D01*
G01X3140907Y-3007521D01*
G01X3140907Y-3013353D01*
G01X3202390Y-3013353D01*
G01X3212444Y-3023718D01*
G01X3222498Y-3034082D01*
G01X3252695Y-3066660D01*
G01X3282893Y-3099237D01*
G01X3450404Y-3098589D01*
G01X3453265Y-3100357D01*
G01X3456127Y-3102125D01*
G01X3456127Y-3115618D01*
G01X3452670Y-3115775D01*
G01X3449214Y-3115931D01*
G01X3361432Y-3115981D01*
G01X3273650Y-3116032D01*
G01X3266696Y-3108708D01*
G01X3232346Y-3070634D01*
G01X3197995Y-3032560D01*
G01X3191377Y-3030900D01*
G01X3184760Y-3029240D01*
G01X3138477Y-3030443D01*
G01X3092195Y-3031647D01*
G01X3063650Y-3046167D01*
G01X3035105Y-3060687D01*
G01X3009893Y-3077555D01*
G01X2984680Y-3094423D01*
G01X2981915Y-3097782D01*
G01X2915525Y-3148043D01*
G01X2905861Y-3153932D01*
G01X2896198Y-3159820D01*
G01X2853060Y-3159830D01*
G01X2809923Y-3159841D01*
G01X2793890Y-3164796D01*
G01X2777299Y-3169604D01*
G01X2760709Y-3174412D01*
G01X2735823Y-3199978D01*
G01X2726768Y-3211488D01*
G01X2717712Y-3222999D01*
G01X2719898Y-3224350D01*
G01X2722085Y-3225701D01*
G01X2737249Y-3221725D01*
G01X2752414Y-3217749D01*
G01X2782830Y-3213921D01*
G01X2813245Y-3210092D01*
G01X2909760Y-3208317D01*
G01X3006275Y-3206541D01*
G01X3015734Y-3199918D01*
G01X3042618Y-3174351D01*
G01X3069501Y-3148785D01*
G01X3170632Y-3148785D01*
G01X3187914Y-3152240D01*
G01X3187914Y-3157250D01*
G01X3181001Y-3159399D01*
G01X3142888Y-3171223D01*
G01X3127381Y-3181779D01*
G01X3111874Y-3192335D01*
G01X3086955Y-3218238D01*
G01X3062035Y-3244140D01*
G01X3051367Y-3257269D01*
G01X3040698Y-3270397D01*
G01X2912081Y-3270397D01*
G01X2902169Y-3274538D01*
G01X2892256Y-3278677D01*
G01X2882764Y-3287008D01*
G01X2873273Y-3295338D01*
G01X2867159Y-3308339D01*
G01X2861045Y-3321340D01*
G01X2862310Y-3334496D01*
G01X2863575Y-3347651D01*
G01X2870810Y-3358581D01*
G01X2878046Y-3369510D01*
G01X2890578Y-3378129D01*
G01X2903111Y-3386748D01*
G01X2903111Y-3391804D01*
G01X2869211Y-3414815D01*
G01X2738588Y-3513022D01*
G01X2694347Y-3549989D01*
G01X2671696Y-3570563D01*
G01X2649044Y-3591137D01*
G01X2636047Y-3606343D01*
G01X2623050Y-3621550D01*
G01X2503047Y-3621550D01*
G01X2516662Y-3595158D01*
G01X2532148Y-3565594D01*
G01X2547634Y-3536030D01*
G01X2545815Y-3534212D01*
G01X2543996Y-3532394D01*
G01X2527924Y-3539881D01*
G01X2511852Y-3547369D01*
G01X2500791Y-3551816D01*
G01X2495261Y-3553767D01*
G01X2489731Y-3555718D01*
G01X2480053Y-3558291D01*
G01X2470375Y-3560863D01*
G01X2453708Y-3564609D01*
G01X2437040Y-3568355D01*
G01X2406033Y-3570364D01*
G01X2375026Y-3572373D01*
G01X2370971Y-3572079D01*
G01X2370111Y-3569500D01*
G01X2369251Y-3566921D01*
G01X2394927Y-3547999D01*
G01X2420604Y-3529078D01*
G01X2462310Y-3487492D01*
G01X2504016Y-3445906D01*
G01X2521759Y-3422529D01*
G01X2539502Y-3399151D01*
G01X2561623Y-3367788D01*
G01X2576523Y-3346041D01*
G01X2591424Y-3324294D01*
G01X2597042Y-3318086D01*
G01X2602660Y-3311878D01*
G01X2600717Y-3309936D01*
G01X2598774Y-3307993D01*
G01X2573987Y-3314620D01*
G01X2549832Y-3314578D01*
G01X2525677Y-3314535D01*
G01X2503775Y-3309019D01*
G01X2481873Y-3303503D01*
G01X2471285Y-3300332D01*
G01X2460698Y-3297162D01*
G01X2460698Y-3293227D01*
G01X2473832Y-3289840D01*
G01X2486966Y-3286453D01*
G01X2495261Y-3283513D01*
G01X2503556Y-3280573D01*
G01X2539502Y-3263900D01*
G01X2563381Y-3247716D01*
G01X2587259Y-3231532D01*
G01X2621447Y-3199509D01*
G01X2655636Y-3167487D01*
G01X2656470Y-3163974D01*
G01X2657305Y-3160461D01*
G01X2643096Y-3157054D01*
G01X2628889Y-3153647D01*
G01X2610464Y-3146983D01*
G01X2592039Y-3140319D01*
G01X2567418Y-3127467D01*
G01X2566364Y-3124306D01*
G01X2565310Y-3121146D01*
G01X2579253Y-3121146D01*
G01X2597521Y-3116911D01*
G01X2615789Y-3112676D01*
G01X2644575Y-3101367D01*
G01X2663931Y-3092310D01*
G01X2708172Y-3065380D01*
G01X2713703Y-3060480D01*
G01X2719233Y-3055579D01*
G01X2740472Y-3041420D01*
G01X2761710Y-3027261D01*
G01X2763363Y-3024588D01*
G01X2765016Y-3021915D01*
G01X2754567Y-3019182D01*
G01X2744118Y-3016449D01*
G01X2708172Y-3007242D01*
G01X2650106Y-2988096D01*
G01X2594804Y-2960436D01*
G01X2564388Y-2937658D01*
G01X2555509Y-2929463D01*
G01X2546630Y-2921268D01*
G01X2548096Y-2918897D01*
G01X2549562Y-2916526D01*
G01X2551782Y-2917897D01*
G01X2554001Y-2919268D01*
G01X2581988Y-2923470D01*
G01X2609975Y-2927672D01*
G01X2680522Y-2927562D01*
G01X2713703Y-2923536D01*
G01X2746883Y-2919510D01*
G01X2762091Y-2916840D01*
G01X2777299Y-2914170D01*
G01X2804950Y-2908394D01*
G01X2827071Y-2902485D01*
G01X2835366Y-2900230D01*
G01X2843661Y-2897975D01*
G01X2868547Y-2889553D01*
G01X2893433Y-2881132D01*
G01X2916034Y-2872846D01*
G01X2938634Y-2864561D01*
G01X2949215Y-2859904D01*
G01X2959795Y-2855246D01*
G01X2965325Y-2853027D01*
G01X2970855Y-2850809D01*
G01X3015096Y-2833989D01*
G01X3042056Y-2825043D01*
G01X3069015Y-2816097D01*
G01X3069015Y-2812087D01*
G01X3028922Y-2789812D01*
G01X3015096Y-2779840D01*
G01X3001271Y-2769868D01*
G01X2983939Y-2753229D01*
G01X2966606Y-2736591D01*
G01X2955830Y-2722265D01*
G01X2945053Y-2707940D01*
G01X2922536Y-2663717D01*
G01X2922466Y-2654044D01*
G01X2926614Y-2654080D01*
G01X2943204Y-2665392D01*
G01X2979304Y-2683898D01*
G01X3000727Y-2691086D01*
G01X3022149Y-2698274D01*
G01X3035213Y-2701238D01*
G01X3048277Y-2704202D01*
G01X3074305Y-2708144D01*
G01X3100332Y-2712086D01*
G01X3200357Y-2712132D01*
G01X3266719Y-2706530D01*
G01X3346906Y-2701816D01*
G01X3385617Y-2705385D01*
G01X3424328Y-2708953D01*
G01X3438845Y-2710904D01*
G01X3453362Y-2712856D01*
G01X3453362Y-2704120D01*
G01X3450896Y-2702597D01*
G01X3448431Y-2701074D01*
G01X3440124Y-2683778D01*
G01X3431818Y-2666481D01*
G01X3420181Y-2627190D01*
G01X3420181Y-2618113D01*
G01X3426189Y-2618113D01*
G01X3443232Y-2634378D01*
G01X3460274Y-2650644D01*
G01X3494671Y-2672729D01*
G01X3540462Y-2694861D01*
G01X3557052Y-2700603D01*
G01X3573643Y-2706346D01*
G01X3606823Y-2715384D01*
G01X3628944Y-2720392D01*
G01X3644152Y-2723404D01*
G01X3659360Y-2726417D01*
G01X3681481Y-2730720D01*
G01X3703601Y-2735250D01*
G01X3725722Y-2739780D01*
G01X3746460Y-2745253D01*
G01X3756829Y-2747885D01*
G01X3767198Y-2750517D01*
G01X3796232Y-2759384D01*
G01X3825265Y-2768251D01*
G01X3830518Y-2772892D01*
G01X3838228Y-2772892D01*
G01X3899922Y-2803054D01*
G01X3937929Y-2828078D01*
G01X3939984Y-2826808D01*
G01X3942039Y-2825538D01*
G01X3939354Y-2811497D01*
G01X3942760Y-2789607D01*
G01X3946167Y-2767718D01*
G01X3949706Y-2766360D01*
G01X3953245Y-2765003D01*
G01X3973189Y-2804677D01*
G01X3990475Y-2822805D01*
G01X4007760Y-2840933D01*
G01X4031246Y-2861500D01*
G01X4054732Y-2882067D01*
G01X4076517Y-2902796D01*
G01X4098301Y-2923526D01*
G01X4113143Y-2942000D01*
G01X4127985Y-2960473D01*
G01X4136000Y-2977931D01*
G01X4144014Y-2995388D01*
G01X4149633Y-3011971D01*
G01X4152742Y-3024409D01*
G01X4155851Y-3036846D01*
G01X4157845Y-3069586D01*
G01X4159840Y-3102326D01*
G01X4180578Y-3109105D01*
G01X4201316Y-3115883D01*
G01X4231732Y-3127213D01*
G01X4237262Y-3129425D01*
G01X4242792Y-3131638D01*
G01X4264913Y-3140971D01*
G01X4282886Y-3150038D01*
G01X4300859Y-3159106D01*
G01X4311555Y-3165137D01*
G01X4322251Y-3171169D01*
G01X4343354Y-3185238D01*
G01X4364456Y-3199307D01*
G01X4381046Y-3213426D01*
G01X4397637Y-3227545D01*
G01X4403172Y-3233079D01*
G01X4408708Y-3238612D01*
G01X4436898Y-3271779D01*
G01X4453443Y-3296655D01*
G01X4461643Y-3311856D01*
G01X4469842Y-3327058D01*
G01X4478344Y-3349169D01*
G01X4486847Y-3371280D01*
G01X4492683Y-3393392D01*
G01X4498427Y-3418267D01*
G01X4501562Y-3444905D01*
G01X4504697Y-3471544D01*
G01X4501475Y-3501566D01*
G01X4498253Y-3531588D01*
G01X4492451Y-3561991D01*
G01X4488143Y-3575810D01*
G01X4484446Y-3588248D01*
G01X4480748Y-3600686D01*
G01X4470267Y-3622261D01*
G01X4459786Y-3643835D01*
G01X4427232Y-3691895D01*
G01X4417591Y-3702260D01*
G01X4407951Y-3712624D01*
G01X4404549Y-3712624D01*
G01X4404549Y-3663296D01*
G01X4398577Y-3633853D01*
G01X4392691Y-3611741D01*
G01X4385717Y-3589630D01*
G01X4382283Y-3582109D01*
G01X4378849Y-3574589D01*
G01X4368887Y-3571631D01*
G01X4358925Y-3568673D01*
G01X4349248Y-3566080D01*
G01X4339570Y-3563486D01*
G01X4298094Y-3552204D01*
G01X4277356Y-3546789D01*
G01X4256617Y-3541504D01*
G01X4226202Y-3534426D01*
G01X4143249Y-3535586D01*
G01X4104538Y-3541497D01*
G01X4076887Y-3547297D01*
G01X4060541Y-3552910D01*
G01X4044195Y-3558522D01*
G01X4028743Y-3566906D01*
G01X4013290Y-3575290D01*
G01X3991170Y-3592114D01*
G01X3977098Y-3606074D01*
G01X3963026Y-3620033D01*
G01X3940464Y-3653618D01*
G01X3928609Y-3689131D01*
G01X3928350Y-3717227D01*
G01X3928090Y-3745322D01*
G01X3931573Y-3754540D01*
G01X3935055Y-3763757D01*
G01X3940845Y-3776195D01*
G01X3946634Y-3788632D01*
G01X3969911Y-3822061D01*
G01X3987866Y-3838850D01*
G01X4005821Y-3855639D01*
G01X4014459Y-3859448D01*
G01X4023098Y-3863258D01*
G01X4021517Y-3871514D01*
G01X3996665Y-3875485D01*
G01X3971814Y-3879456D01*
G01X3970553Y-3880449D01*
G01X3969292Y-3881442D01*
G01X3979306Y-3900029D01*
G01X4057696Y-3977689D01*
G01X4136088Y-4055350D01*
G01X4361312Y-4055350D01*
G01X4451556Y-3965741D01*
G01X4451596Y-3951813D01*
G01X4451622Y-3943072D01*
G01X4470911Y-3943072D01*
G01X4470911Y-3952043D01*
G01X4476549Y-3958092D01*
G01X4482187Y-3964141D01*
G01X4482187Y-3964141D01*
G01X4493979Y-3964141D01*
G01X4499036Y-3959567D01*
G01X4504092Y-3954992D01*
G01X4504092Y-3939579D01*
G01X4491801Y-3930974D01*
G01X4482187Y-3930974D01*
G01X4476549Y-3937023D01*
G01X4470911Y-3943072D01*
G01X4451622Y-3943072D01*
G01X4451637Y-3937884D01*
G01X4458549Y-3924230D01*
G01X4467904Y-3917928D01*
G01X4477259Y-3911627D01*
G01X4500406Y-3911627D01*
G01X4511131Y-3920895D01*
G01X4521857Y-3930162D01*
G01X4521961Y-3947462D01*
G01X4522065Y-3964762D01*
G01X4511005Y-3974355D01*
G01X4499944Y-3983949D01*
G01X4481581Y-3983028D01*
G01X4463217Y-3982107D01*
G01X4414845Y-4028345D01*
G01X4366472Y-4074583D01*
G01X4137719Y-4074814D01*
G01X4132557Y-4074756D01*
G01X4127396Y-4074698D01*
G01X4008328Y-3957231D01*
G01X3978847Y-3928210D01*
G01X3973197Y-3928210D01*
G01X3973197Y-3930704D01*
G01X3977584Y-3946732D01*
G01X3981971Y-3962759D01*
G01X3984341Y-3971051D01*
G01X3986710Y-3979343D01*
G01X3989446Y-3989016D01*
G01X3992181Y-3998690D01*
G01X4001443Y-4037385D01*
G01X4004602Y-4047268D01*
G01X4007760Y-4057151D01*
G01X4039563Y-4085963D01*
G01X4071366Y-4114775D01*
G01X4097630Y-4138386D01*
G01X4268337Y-4136487D01*
G01X4439044Y-4134589D01*
G01X4462007Y-4109247D01*
G01X4477490Y-4109392D01*
G01X4492973Y-4109538D01*
G01X4500901Y-4117131D01*
G01X4508829Y-4124723D01*
G01X4515478Y-4146906D01*
G01X4509663Y-4158913D01*
G01X4503848Y-4170921D01*
G01X4494566Y-4175324D01*
G01X4485283Y-4179727D01*
G01X4468506Y-4179727D01*
G01X4461507Y-4177067D01*
G01X4454508Y-4174407D01*
G01X4448193Y-4164663D01*
G01X4441878Y-4154920D01*
G01X4084261Y-4154851D01*
G01X4083339Y-4152778D01*
G01X4082417Y-4150706D01*
G01X4073962Y-4143054D01*
G01X4459325Y-4143054D01*
G01X4463807Y-4151717D01*
G01X4468288Y-4160379D01*
G01X4486396Y-4160379D01*
G01X4493032Y-4153746D01*
G01X4493032Y-4137321D01*
G01X4483643Y-4126950D01*
G01X4476859Y-4127772D01*
G01X4470076Y-4128594D01*
G01X4464700Y-4135824D01*
G01X4459325Y-4143054D01*
G01X4459325Y-4143054D01*
G01X4073962Y-4143054D01*
G01X4024384Y-4098191D01*
G01X4017642Y-4092120D01*
G01X4010901Y-4086049D01*
G01X4008639Y-4087446D01*
G01X4006378Y-4088844D01*
G01X4006048Y-4147942D01*
G01X4003742Y-4161761D01*
G01X4001437Y-4175581D01*
G01X4021265Y-4194928D01*
G01X4041092Y-4214276D01*
G01X4054089Y-4226022D01*
G01X4067086Y-4237769D01*
G01X4368152Y-4237769D01*
G01X4374135Y-4228093D01*
G01X4380117Y-4218417D01*
G01X4386036Y-4214274D01*
G01X4391954Y-4210130D01*
G01X4420090Y-4210130D01*
G01X4428832Y-4218673D01*
G01X4437574Y-4227217D01*
G01X4441104Y-4246025D01*
G01X4439233Y-4253475D01*
G01X4437362Y-4260925D01*
G01X4426983Y-4275495D01*
G01X4405769Y-4281848D01*
G01X4384550Y-4275339D01*
G01X4376114Y-4264846D01*
G01X4367678Y-4254352D01*
G01X4055347Y-4254352D01*
G01X4045339Y-4244508D01*
G01X4388443Y-4244508D01*
G01X4392420Y-4252194D01*
G01X4396396Y-4259880D01*
G01X4396396Y-4259880D01*
G01X4414503Y-4259880D01*
G01X4421140Y-4253247D01*
G01X4421140Y-4238164D01*
G01X4416795Y-4233820D01*
G01X4412449Y-4229477D01*
G01X4406426Y-4229520D01*
G01X4400402Y-4229562D01*
G01X4397400Y-4231592D01*
G01X4394399Y-4233623D01*
G01X4388443Y-4244508D01*
G01X4045339Y-4244508D01*
G01X3999149Y-4199074D01*
G01X3990164Y-4199074D01*
G01X3983904Y-4190091D01*
G01X3977644Y-4181109D01*
G01X3960966Y-4160379D01*
G01X3944287Y-4139650D01*
G01X3940966Y-4136195D01*
G01X3937646Y-4132740D01*
G01X3934486Y-4132740D01*
G01X3934481Y-4169362D01*
G01X3934476Y-4205984D01*
G01X4049820Y-4320687D01*
G01X4273381Y-4320687D01*
G01X4306389Y-4354062D01*
G01X4320591Y-4352297D01*
G01X4334792Y-4350531D01*
G01X4344332Y-4355056D01*
G01X4353872Y-4359581D01*
G01X4359855Y-4370223D01*
G01X4365838Y-4380863D01*
G01X4365838Y-4392288D01*
G01X4362446Y-4400019D01*
G01X4359053Y-4407750D01*
G01X4347865Y-4418008D01*
G01X4340952Y-4420682D01*
G01X4334040Y-4423357D01*
G01X4322358Y-4421614D01*
G01X4310677Y-4419870D01*
G01X4302311Y-4409725D01*
G01X4293946Y-4399581D01*
G01X4293946Y-4381708D01*
G01X4313302Y-4381708D01*
G01X4313302Y-4393495D01*
G01X4317878Y-4398550D01*
G01X4322454Y-4403604D01*
G01X4322454Y-4403604D01*
G01X4338060Y-4403604D01*
G01X4342501Y-4396830D01*
G01X4346941Y-4390055D01*
G01X4344927Y-4383712D01*
G01X4342913Y-4377368D01*
G01X4338476Y-4373990D01*
G01X4334040Y-4370613D01*
G01X4329722Y-4370525D01*
G01X4325405Y-4370437D01*
G01X4319353Y-4376073D01*
G01X4313302Y-4381708D01*
G01X4293946Y-4381708D01*
G01X4293946Y-4367083D01*
G01X4265123Y-4340034D01*
G01X4154414Y-4340020D01*
G01X4043706Y-4340006D01*
G01X3988926Y-4285741D01*
G01X3934145Y-4231476D01*
G01X3929138Y-4236481D01*
G01X3928805Y-4251635D01*
G01X3928471Y-4266790D01*
G01X4124156Y-4463028D01*
G01X4133223Y-4470629D01*
G01X4142291Y-4478230D01*
G01X4212376Y-4478169D01*
G01X4232268Y-4474880D01*
G01X4242081Y-4458274D01*
G01X4266515Y-4447471D01*
G01X4276774Y-4450753D01*
G01X4287033Y-4454035D01*
G01X4292844Y-4459319D01*
G01X4298654Y-4464602D01*
G01X4302139Y-4475157D01*
G01X4305624Y-4485711D01*
G01X4294463Y-4510931D01*
G01X4286966Y-4515841D01*
G01X4279468Y-4520752D01*
G01X4251548Y-4520752D01*
G01X4241485Y-4509072D01*
G01X4231422Y-4497393D01*
G01X4198396Y-4498176D01*
G01X4165370Y-4498959D01*
G01X4165370Y-4601224D01*
G01X4506133Y-4601926D01*
G01X4846897Y-4602628D01*
G01X4853109Y-4593156D01*
G01X4859320Y-4583684D01*
G01X4866702Y-4579326D01*
G01X4874084Y-4574967D01*
G01X4897594Y-4574967D01*
G01X4906752Y-4581950D01*
G01X4915911Y-4588932D01*
G01X4919123Y-4599648D01*
G01X4922335Y-4610365D01*
G01X4920491Y-4620189D01*
G01X4918647Y-4630014D01*
G01X4908443Y-4638421D01*
G01X4898239Y-4646829D01*
G01X4868087Y-4646829D01*
G01X4844912Y-4621954D01*
G01X4144738Y-4621954D01*
G01X4144514Y-4603463D01*
G01X4869083Y-4603463D01*
G01X4869083Y-4621812D01*
G01X4885673Y-4630387D01*
G01X4902264Y-4621812D01*
G01X4902264Y-4602920D01*
G01X4889973Y-4594314D01*
G01X4879196Y-4594314D01*
G01X4874139Y-4598889D01*
G01X4869083Y-4603463D01*
G01X4869083Y-4603463D01*
G01X4144514Y-4603463D01*
G01X4143993Y-4560456D01*
G01X4143249Y-4498959D01*
G01X4136894Y-4498059D01*
G01X4130540Y-4497158D01*
G01X4112580Y-4479087D01*
G01X4252470Y-4479087D01*
G01X4252470Y-4491834D01*
G01X4258521Y-4497470D01*
G01X4264573Y-4503105D01*
G01X4264573Y-4503105D01*
G01X4270595Y-4503105D01*
G01X4282886Y-4494500D01*
G01X4282886Y-4476572D01*
G01X4276249Y-4469938D01*
G01X4262583Y-4469938D01*
G01X4257526Y-4474512D01*
G01X4252470Y-4479087D01*
G01X4112580Y-4479087D01*
G01X4029114Y-4395103D01*
G01X3927688Y-4293047D01*
G01X3923647Y-4293047D01*
G01X3917457Y-4316541D01*
G01X3914513Y-4327596D01*
G01X3911567Y-4338652D01*
G01X3904602Y-4360763D01*
G01X3896884Y-4380111D01*
G01X3889166Y-4399458D01*
G01X3864729Y-4446445D01*
G01X3848192Y-4472702D01*
G01X3840473Y-4472702D01*
G01X3840473Y-4445207D01*
G01X3834500Y-4422333D01*
G01X3828527Y-4399458D01*
G01X3819714Y-4378431D01*
G01X3810901Y-4357403D01*
G01X3797509Y-4334899D01*
G01X3784117Y-4312395D01*
G01X3776876Y-4312395D01*
G01X3776876Y-4464895D01*
G01X3789638Y-4476444D01*
G01X3802400Y-4487993D01*
G01X3802400Y-4516146D01*
G01X3797771Y-4523207D01*
G01X3793143Y-4530268D01*
G01X3783242Y-4534964D01*
G01X3773341Y-4539661D01*
G01X3762232Y-4538171D01*
G01X3751124Y-4536682D01*
G01X3734017Y-4519572D01*
G01X3734098Y-4511792D01*
G01X3751990Y-4511792D01*
G01X3755940Y-4515740D01*
G01X3759890Y-4519689D01*
G01X3767692Y-4519601D01*
G01X3775493Y-4519513D01*
G01X3780332Y-4515841D01*
G01X3785171Y-4512169D01*
G01X3785171Y-4495488D01*
G01X3772728Y-4486812D01*
G01X3770473Y-4486667D01*
G01X3768217Y-4486522D01*
G01X3762178Y-4489699D01*
G01X3756138Y-4492877D01*
G01X3752075Y-4498959D01*
G01X3752033Y-4505375D01*
G01X3751990Y-4511792D01*
G01X3751990Y-4511792D01*
G01X3734098Y-4511792D01*
G01X3734167Y-4505120D01*
G01X3734317Y-4490668D01*
G01X3739024Y-4483524D01*
G01X3743731Y-4476381D01*
G01X3750626Y-4472692D01*
G01X3757520Y-4469004D01*
G01X3757520Y-4367673D01*
G01X3751990Y-4367673D01*
G01X3751990Y-4375085D01*
G01X3734015Y-4410765D01*
G01X3716039Y-4446445D01*
G01X3708832Y-4458794D01*
G01X3701625Y-4471143D01*
G01X3690832Y-4486433D01*
G01X3680038Y-4501723D01*
G01X3642579Y-4557002D01*
G01X3625049Y-4592933D01*
G01X3613511Y-4628863D01*
G01X3611089Y-4678614D01*
G01X3607467Y-4679395D01*
G01X3603844Y-4680176D01*
G01X3551522Y-4636482D01*
G01X3530725Y-4616089D01*
G01X3509927Y-4595696D01*
G01X3494779Y-4577798D01*
G01X3479630Y-4559899D01*
G01X3476865Y-4556834D01*
G01X3474100Y-4553770D01*
G01X3461657Y-4536658D01*
G01X3449214Y-4519546D01*
G01X3434390Y-4495433D01*
G01X3419566Y-4471320D01*
G01X3408576Y-4450591D01*
G01X3397585Y-4429861D01*
G01X3396440Y-4428710D01*
G01X3395295Y-4427558D01*
G01X3395295Y-4607200D01*
G01X3407738Y-4613885D01*
G01X3420181Y-4632932D01*
G01X3420181Y-4654888D01*
G01X3409786Y-4665810D01*
G01X3399392Y-4676732D01*
G01X3389384Y-4678608D01*
G01X3379376Y-4680485D01*
G01X3370888Y-4676098D01*
G01X3362400Y-4671710D01*
G01X3355344Y-4662464D01*
G01X3348288Y-4653217D01*
G01X3348299Y-4643804D01*
G01X3348305Y-4638537D01*
G01X3367644Y-4638537D01*
G01X3367644Y-4647192D01*
G01X3370506Y-4652538D01*
G01X3373369Y-4657885D01*
G01X3373369Y-4657885D01*
G01X3395100Y-4657885D01*
G01X3397963Y-4652538D01*
G01X3400825Y-4647192D01*
G01X3400825Y-4636168D01*
G01X3396480Y-4631825D01*
G01X3392135Y-4627481D01*
G01X3378704Y-4627481D01*
G01X3367644Y-4638537D01*
G01X3348305Y-4638537D01*
G01X3348309Y-4634391D01*
G01X3353617Y-4625690D01*
G01X3358925Y-4616989D01*
G01X3367064Y-4612183D01*
G01X3375203Y-4607377D01*
G01X3378895Y-4421570D01*
G01X3380472Y-4406717D01*
G01X3382049Y-4391864D01*
G01X3379296Y-4393565D01*
G01X3376542Y-4395266D01*
G01X3354658Y-4440917D01*
G01X3351194Y-4450591D01*
G01X3347730Y-4460264D01*
G01X3343389Y-4471320D01*
G01X3340460Y-4482376D01*
G01X3337531Y-4493431D01*
G01X3334615Y-4506402D01*
G01X3331698Y-4519372D01*
G01X3331746Y-4543715D01*
G01X3331794Y-4568057D01*
G01X3335883Y-4592933D01*
G01X3339972Y-4617808D01*
G01X3339993Y-4621954D01*
G01X3333007Y-4621954D01*
G01X3319193Y-4612655D01*
G01X3305379Y-4603356D01*
G01X3276828Y-4576220D01*
G01X3248277Y-4549085D01*
G01X3232320Y-4529550D01*
G01X3216363Y-4510015D01*
G01X3176853Y-4450063D01*
G01X3176853Y-4445063D01*
G01X3171323Y-4445063D01*
G01X3171323Y-4610585D01*
G01X3179402Y-4615356D01*
G01X3187481Y-4620126D01*
G01X3191153Y-4626994D01*
G01X3194827Y-4633862D01*
G01X3194621Y-4647414D01*
G01X3194416Y-4660967D01*
G01X3174741Y-4680634D01*
G01X3145977Y-4680634D01*
G01X3136854Y-4671796D01*
G01X3127732Y-4662957D01*
G01X3126216Y-4653623D01*
G01X3124701Y-4644289D01*
G01X3126053Y-4639394D01*
G01X3143673Y-4639394D01*
G01X3143673Y-4650619D01*
G01X3149685Y-4657015D01*
G01X3155697Y-4663412D01*
G01X3155697Y-4663412D01*
G01X3163223Y-4663412D01*
G01X3176853Y-4654485D01*
G01X3176853Y-4641226D01*
G01X3173423Y-4635736D01*
G01X3169993Y-4630245D01*
G01X3153786Y-4630245D01*
G01X3148729Y-4634820D01*
G01X3143673Y-4639394D01*
G01X3126053Y-4639394D01*
G01X3127280Y-4634951D01*
G01X3129860Y-4625613D01*
G01X3141036Y-4615584D01*
G01X3152212Y-4605556D01*
G01X3151379Y-4498361D01*
G01X3150545Y-4391166D01*
G01X3137405Y-4362145D01*
G01X3132263Y-4362145D01*
G01X3007096Y-4482376D01*
G01X2986902Y-4502148D01*
G01X2966707Y-4521919D01*
G01X2966707Y-4528970D01*
G01X2969896Y-4537784D01*
G01X2973084Y-4546598D01*
G01X2967177Y-4558709D01*
G01X2961271Y-4570821D01*
G01X2952705Y-4575658D01*
G01X2944138Y-4580495D01*
G01X2933994Y-4580485D01*
G01X2923849Y-4580474D01*
G01X2915332Y-4575283D01*
G01X2906815Y-4570092D01*
G01X2902198Y-4560365D01*
G01X2897580Y-4550638D01*
G01X2897580Y-4544815D01*
G01X2916136Y-4544815D01*
G01X2923151Y-4557918D01*
G01X2923151Y-4557918D01*
G01X2928892Y-4559419D01*
G01X2934633Y-4560919D01*
G01X2941683Y-4557541D01*
G01X2948734Y-4554163D01*
G01X2948734Y-4535054D01*
G01X2942280Y-4531837D01*
G01X2935825Y-4528620D01*
G01X2930350Y-4530051D01*
G01X2924875Y-4531482D01*
G01X2916136Y-4544815D01*
G01X2897580Y-4544815D01*
G01X2897580Y-4538490D01*
G01X2902198Y-4528763D01*
G01X2906815Y-4519036D01*
G01X2915332Y-4513845D01*
G01X2923849Y-4508654D01*
G01X2954265Y-4508436D01*
G01X3042123Y-4422162D01*
G01X3129982Y-4335888D01*
G01X3120569Y-4297193D01*
G01X3119117Y-4295220D01*
G01X3082315Y-4315582D01*
G01X3045512Y-4335944D01*
G01X3032768Y-4342369D01*
G01X3020024Y-4348793D01*
G01X3010347Y-4357542D01*
G01X3000669Y-4366291D01*
G01X2989744Y-4382875D01*
G01X2984844Y-4395312D01*
G01X2979944Y-4407750D01*
G01X2976091Y-4422395D01*
G01X2972238Y-4437041D01*
G01X2972200Y-4444507D01*
G01X2972162Y-4451973D01*
G01X2968827Y-4464410D01*
G01X2962262Y-4464410D01*
G01X2945388Y-4446445D01*
G01X2927731Y-4420188D01*
G01X2925790Y-4420243D01*
G01X2923849Y-4420299D01*
G01X2808390Y-4533508D01*
G01X2759664Y-4533827D01*
G01X2710937Y-4534146D01*
G01X2706790Y-4534518D01*
G01X2702642Y-4534890D01*
G01X2701113Y-4612894D01*
G01X2710777Y-4620262D01*
G01X2720442Y-4627631D01*
G01X2723449Y-4638792D01*
G01X2726455Y-4649953D01*
G01X2723351Y-4659356D01*
G01X2720246Y-4668759D01*
G01X2712054Y-4675650D01*
G01X2703862Y-4682540D01*
G37*
G36*
G01X3392880Y-4008936D02*
G01X3391322Y-4010492D01*
G01X3389765Y-4012049D01*
G01X3372688Y-4012049D01*
G01X3370208Y-4008133D01*
G01X3367729Y-4004218D01*
G01X3367686Y-3997145D01*
G01X3367644Y-3990073D01*
G01X3371704Y-3984708D01*
G01X3375763Y-3979343D01*
G01X3375939Y-3870890D01*
G01X3438154Y-3796919D01*
G01X3468003Y-3761929D01*
G01X3497854Y-3726939D01*
G01X3505357Y-3724061D01*
G01X3507010Y-3725713D01*
G01X3508663Y-3727365D01*
G01X3508648Y-3733124D01*
G01X3508632Y-3738882D01*
G01X3477742Y-3777577D01*
G01X3467309Y-3790014D01*
G01X3456876Y-3802452D01*
G01X3435104Y-3828709D01*
G01X3413332Y-3854966D01*
G01X3409802Y-3858660D01*
G01X3406271Y-3862354D01*
G01X3392390Y-3880547D01*
G01X3392880Y-4008936D01*
G37*
G36*
G01X3863823Y-3963045D02*
G01X3856840Y-3964796D01*
G01X3851634Y-3960086D01*
G01X3846427Y-3955376D01*
G01X3847982Y-3945802D01*
G01X3849536Y-3936228D01*
G01X3821948Y-3908748D01*
G01X3794360Y-3881267D01*
G01X3792593Y-3794662D01*
G01X3790827Y-3708057D01*
G01X3796177Y-3693427D01*
G01X3801526Y-3678797D01*
G01X3813395Y-3659120D01*
G01X3825265Y-3639443D01*
G01X3858056Y-3597922D01*
G01X3868970Y-3588248D01*
G01X3871215Y-3588248D01*
G01X3867135Y-3595158D01*
G01X3851549Y-3618651D01*
G01X3835964Y-3642145D01*
G01X3827419Y-3660110D01*
G01X3818874Y-3678075D01*
G01X3811439Y-3697423D01*
G01X3813226Y-3876807D01*
G01X3834045Y-3898129D01*
G01X3854865Y-3919452D01*
G01X3874130Y-3948047D01*
G01X3872468Y-3954670D01*
G01X3870804Y-3961293D01*
G01X3863823Y-3963045D01*
G37*
G36*
G01X3281451Y-3954798D02*
G01X3280544Y-3962712D01*
G01X3270455Y-3964626D01*
G01X3265130Y-3959809D01*
G01X3259806Y-3954992D01*
G01X3259806Y-3930700D01*
G01X3264249Y-3922110D01*
G01X3268693Y-3913522D01*
G01X3292136Y-3888133D01*
G01X3313991Y-3861661D01*
G01X3335846Y-3835189D01*
G01X3357966Y-3808072D01*
G01X3426889Y-3725062D01*
G01X3428411Y-3723680D01*
G01X3429934Y-3722298D01*
G01X3442327Y-3707097D01*
G01X3454719Y-3691895D01*
G01X3457584Y-3688846D01*
G01X3460450Y-3685797D01*
G01X3475164Y-3667668D01*
G01X3489879Y-3649540D01*
G01X3532253Y-3648606D01*
G01X3574628Y-3647672D01*
G01X3614229Y-3608764D01*
G01X3653830Y-3569856D01*
G01X3695306Y-3542101D01*
G01X3731252Y-3523968D01*
G01X3736053Y-3521559D01*
G01X3740855Y-3519150D01*
G01X3746460Y-3519150D01*
G01X3746460Y-3524678D01*
G01X3740770Y-3524678D01*
G01X3684246Y-3561792D01*
G01X3633253Y-3612754D01*
G01X3582261Y-3663715D01*
G01X3542006Y-3665014D01*
G01X3501750Y-3666313D01*
G01X3495429Y-3669784D01*
G01X3476619Y-3693277D01*
G01X3457809Y-3716770D01*
G01X3454668Y-3719534D01*
G01X3442263Y-3734708D01*
G01X3429858Y-3749883D01*
G01X3418066Y-3763757D01*
G01X3400736Y-3784486D01*
G01X3383405Y-3805216D01*
G01X3366538Y-3825732D01*
G01X3349671Y-3846248D01*
G01X3276396Y-3931915D01*
G01X3276396Y-3940924D01*
G01X3282359Y-3946884D01*
G01X3281451Y-3954798D01*
G37*
G36*
G01X3636113Y-3876578D02*
G01X3633083Y-3884371D01*
G01X3626866Y-3883488D01*
G01X3620649Y-3882605D01*
G01X3619851Y-3860113D01*
G01X3619053Y-3837621D01*
G01X3602569Y-3820305D01*
G01X3586085Y-3802989D01*
G01X3586085Y-3752358D01*
G01X3592007Y-3740092D01*
G01X3597928Y-3727826D01*
G01X3625745Y-3686367D01*
G01X3642553Y-3665672D01*
G01X3659360Y-3644977D01*
G01X3695306Y-3606654D01*
G01X3720532Y-3585704D01*
G01X3745759Y-3564755D01*
G01X3757170Y-3558675D01*
G01X3768581Y-3552596D01*
G01X3768581Y-3555712D01*
G01X3756879Y-3565761D01*
G01X3745178Y-3575810D01*
G01X3731635Y-3588248D01*
G01X3718092Y-3600686D01*
G01X3670420Y-3656095D01*
G01X3662125Y-3666826D01*
G01X3653830Y-3677558D01*
G01X3648060Y-3684726D01*
G01X3642291Y-3691895D01*
G01X3627891Y-3713372D01*
G01X3613491Y-3734849D01*
G01X3608083Y-3747459D01*
G01X3602676Y-3760069D01*
G01X3602676Y-3790378D01*
G01X3605638Y-3796415D01*
G01X3608599Y-3802452D01*
G01X3622621Y-3815233D01*
G01X3636643Y-3828014D01*
G01X3637893Y-3848400D01*
G01X3639144Y-3868786D01*
G01X3636113Y-3876578D01*
G37*
G36*
G01X3678716Y-3851612D02*
G01X3673715Y-3854671D01*
G01X3668714Y-3857730D01*
G01X3660938Y-3847267D01*
G01X3664332Y-3738882D01*
G01X3672724Y-3726444D01*
G01X3681116Y-3714006D01*
G01X3714439Y-3669784D01*
G01X3736766Y-3644908D01*
G01X3749217Y-3632788D01*
G01X3761668Y-3620668D01*
G01X3782664Y-3602385D01*
G01X3803659Y-3584102D01*
G01X3809054Y-3579779D01*
G01X3814450Y-3575456D01*
G01X3825265Y-3571337D01*
G01X3790685Y-3606741D01*
G01X3756104Y-3642145D01*
G01X3741825Y-3659058D01*
G01X3701250Y-3714006D01*
G01X3686658Y-3733354D01*
G01X3684070Y-3737500D01*
G01X3681481Y-3741646D01*
G01X3680098Y-3796629D01*
G01X3678716Y-3851612D01*
G37*
G36*
G01X3314687Y-3817653D02*
G01X3304724Y-3817653D01*
G01X3297900Y-3809433D01*
G01X3301387Y-3795542D01*
G01X3304791Y-3795541D01*
G01X3308195Y-3795539D01*
G01X3319376Y-3782412D01*
G01X3330557Y-3769285D01*
G01X3374679Y-3716770D01*
G01X3410983Y-3672442D01*
G01X3447287Y-3628114D01*
G01X3484309Y-3588319D01*
G01X3502963Y-3575924D01*
G01X3521616Y-3563528D01*
G01X3570877Y-3539075D01*
G01X3584703Y-3532967D01*
G01X3598528Y-3526858D01*
G01X3615119Y-3519755D01*
G01X3627562Y-3515011D01*
G01X3640004Y-3510266D01*
G01X3673185Y-3499491D01*
G01X3685628Y-3497074D01*
G01X3698071Y-3494657D01*
G01X3702910Y-3492788D01*
G01X3707749Y-3490919D01*
G01X3707749Y-3495689D01*
G01X3698762Y-3499360D01*
G01X3689776Y-3503030D01*
G01X3684246Y-3505293D01*
G01X3678716Y-3507555D01*
G01X3662125Y-3513830D01*
G01X3645535Y-3520105D01*
G01X3609589Y-3536093D01*
G01X3545992Y-3567966D01*
G01X3530784Y-3577754D01*
G01X3515576Y-3587541D01*
G01X3501494Y-3598671D01*
G01X3487412Y-3609801D01*
G01X3439314Y-3667432D01*
G01X3391216Y-3725062D01*
G01X3359383Y-3762935D01*
G01X3327550Y-3800808D01*
G01X3321119Y-3809231D01*
G01X3314687Y-3817653D01*
G37*
G36*
G01X3755677Y-3516386D02*
G01X3753834Y-3518229D01*
G01X3751990Y-3520071D01*
G01X3750147Y-3518229D01*
G01X3748304Y-3516386D01*
G01X3755677Y-3516386D01*
G37*
G36*
G01X3043384Y-3436233D02*
G01X3016284Y-3436233D01*
G01X3002371Y-3427120D01*
G01X2998364Y-3419376D01*
G01X2994358Y-3411632D01*
G01X2994358Y-3403066D01*
G01X3009869Y-3403066D01*
G01X3015521Y-3410666D01*
G01X3015521Y-3410666D01*
G01X3021173Y-3418267D01*
G01X3035499Y-3419984D01*
G01X3047374Y-3408114D01*
G01X3045530Y-3400768D01*
G01X3043685Y-3393423D01*
G01X3040687Y-3389811D01*
G01X3037688Y-3386200D01*
G01X3029430Y-3387032D01*
G01X3021173Y-3387864D01*
G01X3009869Y-3403066D01*
G01X2994358Y-3403066D01*
G01X2994358Y-3394499D01*
G01X3002087Y-3379559D01*
G01X3008087Y-3374132D01*
G01X3014087Y-3368704D01*
G01X3047337Y-3368517D01*
G01X3055473Y-3377612D01*
G01X3063610Y-3386708D01*
G01X3074776Y-3378890D01*
G01X3096090Y-3358484D01*
G01X3117404Y-3338078D01*
G01X3134056Y-3323718D01*
G01X3150707Y-3309359D01*
G01X3161707Y-3307605D01*
G01X3172706Y-3305851D01*
G01X3174780Y-3307933D01*
G01X3176853Y-3310014D01*
G01X3176853Y-3317310D01*
G01X3166654Y-3321569D01*
G01X3156455Y-3325829D01*
G01X3134165Y-3345737D01*
G01X3111874Y-3365644D01*
G01X3095774Y-3380900D01*
G01X3079674Y-3396156D01*
G01X3073020Y-3400216D01*
G01X3066366Y-3404275D01*
G01X3062311Y-3414408D01*
G01X3058255Y-3424540D01*
G01X3050819Y-3430386D01*
G01X3043384Y-3436233D01*
G37*
G36*
G01X3157498Y-3402823D02*
G01X3154042Y-3403272D01*
G01X3150585Y-3403721D01*
G01X3144045Y-3403066D01*
G01X3142323Y-3397642D01*
G01X3140601Y-3392219D01*
G01X3143617Y-3386587D01*
G01X3146632Y-3380954D01*
G01X3152762Y-3380954D01*
G01X3198844Y-3336732D01*
G01X3346487Y-3336732D01*
G01X3386410Y-3298037D01*
G01X3446449Y-3298915D01*
G01X3532166Y-3303600D01*
G01X3588685Y-3309888D01*
G01X3585759Y-3314620D01*
G01X3407738Y-3314651D01*
G01X3397655Y-3317450D01*
G01X3387572Y-3320250D01*
G01X3373130Y-3336782D01*
G01X3358687Y-3353315D01*
G01X3205343Y-3353315D01*
G01X3181420Y-3378069D01*
G01X3157498Y-3402823D01*
G37*
G36*
G01X2964505Y-3338113D02*
G01X2952279Y-3351242D01*
G01X2940053Y-3364371D01*
G01X2914090Y-3364371D01*
G01X2894177Y-3346130D01*
G01X2894177Y-3323769D01*
G01X2911406Y-3323769D01*
G01X2911406Y-3339182D01*
G01X2923697Y-3347787D01*
G01X2923697Y-3347787D01*
G01X2931013Y-3347787D01*
G01X2937800Y-3341003D01*
G01X2944587Y-3334219D01*
G01X2944587Y-3329185D01*
G01X2938856Y-3321903D01*
G01X2933125Y-3314620D01*
G01X2921519Y-3314620D01*
G01X2916462Y-3319194D01*
G01X2911406Y-3323769D01*
G01X2894177Y-3323769D01*
G01X2894177Y-3318163D01*
G01X2903894Y-3303340D01*
G01X2909281Y-3300458D01*
G01X2914668Y-3297576D01*
G01X2938394Y-3297576D01*
G01X2943933Y-3301034D01*
G01X2949473Y-3304492D01*
G01X2954099Y-3312320D01*
G01X2958725Y-3320148D01*
G01X3044741Y-3320148D01*
G01X3085220Y-3280862D01*
G01X3125699Y-3241576D01*
G01X3146831Y-3220312D01*
G01X3167962Y-3199049D01*
G01X3179255Y-3193008D01*
G01X3202249Y-3193626D01*
G01X3225242Y-3194244D01*
G01X3341847Y-3195699D01*
G01X3458452Y-3197154D01*
G01X3466045Y-3204063D01*
G01X3473637Y-3210973D01*
G01X3526053Y-3264870D01*
G01X3538022Y-3264870D01*
G01X3548548Y-3272563D01*
G01X3541167Y-3281453D01*
G01X3522060Y-3281453D01*
G01X3491167Y-3251512D01*
G01X3460274Y-3221572D01*
G01X3446601Y-3212355D01*
G01X3178679Y-3212355D01*
G01X3141129Y-3249334D01*
G01X3103579Y-3286313D01*
G01X3051736Y-3336258D01*
G01X3008121Y-3337186D01*
G01X2964505Y-3338113D01*
G37*
G36*
G01X3226174Y-3289785D02*
G01X3216248Y-3293372D01*
G01X3194827Y-3284949D01*
G01X3182384Y-3266816D01*
G01X3182384Y-3251907D01*
G01X3201739Y-3251907D01*
G01X3201824Y-3263488D01*
G01X3205887Y-3269570D01*
G01X3212294Y-3272944D01*
G01X3212294Y-3272944D01*
G01X3218700Y-3276318D01*
G01X3225428Y-3271912D01*
G01X3232155Y-3267506D01*
G01X3232155Y-3252867D01*
G01X3227579Y-3247813D01*
G01X3223003Y-3242758D01*
G01X3211852Y-3242758D01*
G01X3206796Y-3247333D01*
G01X3201739Y-3251907D01*
G01X3182384Y-3251907D01*
G01X3182384Y-3249104D01*
G01X3188688Y-3239753D01*
G01X3194992Y-3230401D01*
G01X3208652Y-3223492D01*
G01X3216947Y-3223627D01*
G01X3225242Y-3223761D01*
G01X3231196Y-3226162D01*
G01X3237149Y-3228562D01*
G01X3245021Y-3238424D01*
G01X3252893Y-3248286D01*
G01X3341376Y-3248092D01*
G01X3429858Y-3247898D01*
G01X3435389Y-3245722D01*
G01X3440919Y-3243546D01*
G01X3447140Y-3246360D01*
G01X3453362Y-3249173D01*
G01X3453362Y-3261249D01*
G01X3447731Y-3266342D01*
G01X3442101Y-3271436D01*
G01X3433018Y-3268153D01*
G01X3423936Y-3264870D01*
G01X3252147Y-3264870D01*
G01X3242201Y-3280071D01*
G01X3239150Y-3283134D01*
G01X3236100Y-3286197D01*
G01X3226174Y-3289785D01*
G37*
G36*
G01X3382089Y-3154929D02*
G01X3376574Y-3162222D01*
G01X3371059Y-3169514D01*
G01X3364513Y-3168444D01*
G01X3357966Y-3167374D01*
G01X3304146Y-3166254D01*
G01X3250326Y-3165134D01*
G01X3216604Y-3132084D01*
G01X3182882Y-3099035D01*
G01X3172180Y-3099035D01*
G01X3161646Y-3110853D01*
G01X3152308Y-3114801D01*
G01X3142970Y-3118749D01*
G01X3132225Y-3116934D01*
G01X3121479Y-3115120D01*
G01X3113220Y-3106864D01*
G01X3104961Y-3098609D01*
G01X3104961Y-3077318D01*
G01X3124317Y-3077318D01*
G01X3124317Y-3088342D01*
G01X3127179Y-3093688D01*
G01X3130042Y-3099035D01*
G01X3130042Y-3099035D01*
G01X3144620Y-3099035D01*
G01X3149676Y-3094460D01*
G01X3154733Y-3089886D01*
G01X3154733Y-3077237D01*
G01X3142442Y-3068631D01*
G01X3133007Y-3068631D01*
G01X3128662Y-3072975D01*
G01X3124317Y-3077318D01*
G01X3104961Y-3077318D01*
G01X3104961Y-3071201D01*
G01X3114078Y-3057293D01*
G01X3121825Y-3053289D01*
G01X3129573Y-3049284D01*
G01X3151383Y-3049284D01*
G01X3160043Y-3057370D01*
G01X3168702Y-3065456D01*
G01X3171527Y-3073555D01*
G01X3174352Y-3081655D01*
G01X3197592Y-3088495D01*
G01X3227217Y-3117568D01*
G01X3256843Y-3146641D01*
G01X3316584Y-3145640D01*
G01X3376325Y-3144639D01*
G01X3379207Y-3149784D01*
G01X3382089Y-3154929D01*
G37*
G36*
G01X2150317Y-4524542D02*
G01X1924272Y-4525249D01*
G01X1924238Y-4517632D01*
G01X1924204Y-4510015D01*
G01X1924271Y-4303578D01*
G01X1924339Y-4097142D01*
G01X1914220Y-4089426D01*
G01X1904100Y-4081711D01*
G01X1900360Y-4072765D01*
G01X1896621Y-4063820D01*
G01X1896621Y-4050462D01*
G01X1915674Y-4050462D01*
G01X1916517Y-4059039D01*
G01X1917359Y-4067616D01*
G01X1917359Y-4067616D01*
G01X1932567Y-4076080D01*
G01X1947775Y-4067616D01*
G01X1948680Y-4058201D01*
G01X1949586Y-4048787D01*
G01X1943150Y-4043838D01*
G01X1936715Y-4038890D01*
G01X1933632Y-4038828D01*
G01X1930548Y-4038767D01*
G01X1923111Y-4044614D01*
G01X1915674Y-4050462D01*
G01X1896621Y-4050462D01*
G01X1896621Y-4049276D01*
G01X1901007Y-4040037D01*
G01X1905393Y-4030799D01*
G01X1911663Y-4026692D01*
G01X1917933Y-4022585D01*
G01X1927324Y-4021166D01*
G01X1936715Y-4019746D01*
G01X1953610Y-4024826D01*
G01X1964982Y-4037385D01*
G01X1968123Y-4046761D01*
G01X1971265Y-4056136D01*
G01X1968005Y-4067013D01*
G01X1964745Y-4077890D01*
G01X1943592Y-4095988D01*
G01X1945010Y-4504487D01*
G01X2357007Y-4504487D01*
G01X2359772Y-4346944D01*
G01X2376363Y-4346944D01*
G01X2376363Y-4523835D01*
G01X2150317Y-4524542D01*
G37*
G36*
G01X2072131Y-5170591D02*
G01X2043430Y-5201686D01*
G01X2014728Y-5232780D01*
G01X1882796Y-5232780D01*
G01X1882864Y-5225870D01*
G01X1914594Y-5192703D01*
G01X1940830Y-5163682D01*
G01X1967065Y-5134661D01*
G01X1971245Y-5130479D01*
G01X1975426Y-5126298D01*
G01X1990634Y-5109717D01*
G01X2005842Y-5093135D01*
G01X2088794Y-5005556D01*
G01X2091076Y-5001575D01*
G01X2093358Y-4997595D01*
G01X2083074Y-4985974D01*
G01X2072789Y-4974353D01*
G01X2053141Y-4953587D01*
G01X2033493Y-4932820D01*
G01X1995070Y-4891436D01*
G01X1955987Y-4849977D01*
G01X1898004Y-4786407D01*
G01X1888326Y-4777467D01*
G01X1888326Y-4773969D01*
G01X2024210Y-4773969D01*
G01X2027469Y-4777494D01*
G01X2030728Y-4781019D01*
G01X2055613Y-4808648D01*
G01X2113680Y-4871958D01*
G01X2126104Y-4885843D01*
G01X2138529Y-4899727D01*
G01X2183496Y-4946714D01*
G01X2192829Y-4957543D01*
G01X2202163Y-4968371D01*
G01X2203545Y-4871861D01*
G01X2204928Y-4775351D01*
G01X2257637Y-4774602D01*
G01X2310346Y-4773853D01*
G01X2314148Y-4777654D01*
G01X2314148Y-5232780D01*
G01X2206910Y-5232780D01*
G01X2203020Y-5217578D01*
G01X2203974Y-5127291D01*
G01X2204928Y-5037003D01*
G01X2203284Y-5035360D01*
G01X2201640Y-5033716D01*
G01X2186884Y-5049639D01*
G01X2172127Y-5065563D01*
G01X2141521Y-5097431D01*
G01X2110915Y-5129300D01*
G01X2091523Y-5149946D01*
G01X2072131Y-5170591D01*
G37*
G36*
G01X4909176Y-4877616D02*
G01X4908465Y-5055198D01*
G01X4907753Y-5232780D01*
G01X4799956Y-5232780D01*
G01X4799489Y-5226561D01*
G01X4799023Y-5220342D01*
G01X4798789Y-5199613D01*
G01X4798556Y-5178883D01*
G01X4797191Y-4876234D01*
G01X4642346Y-4876234D01*
G01X4642346Y-4773969D01*
G01X4809633Y-4773963D01*
G01X5061256Y-4770333D01*
G01X5064278Y-4774224D01*
G01X5067300Y-4778115D01*
G01X5066949Y-4824366D01*
G01X5066598Y-4870618D01*
G01X5061070Y-4876143D01*
G01X4985123Y-4876880D01*
G01X4909176Y-4877616D01*
G37*
G36*
G01X3232155Y-4860475D02*
G01X3232155Y-5232454D01*
G01X3228007Y-5234162D01*
G01X3176202Y-5233300D01*
G01X3124396Y-5232439D01*
G01X3123665Y-5147619D01*
G01X3122934Y-5062799D01*
G01X2923849Y-5062799D01*
G01X2923117Y-5147789D01*
G01X2922386Y-5232780D01*
G01X2817393Y-5232780D01*
G01X2817393Y-4880380D01*
G01X2923849Y-4880380D01*
G01X2923849Y-4957770D01*
G01X3021824Y-4958497D01*
G01X3021824Y-4958497D01*
G01X3119799Y-4959224D01*
G01X3122015Y-4955733D01*
G01X3124232Y-4952242D01*
G01X3124317Y-4882683D01*
G01X3120561Y-4878929D01*
G01X3022205Y-4879655D01*
G01X2923849Y-4880380D01*
G01X2817393Y-4880380D01*
G01X2817393Y-4856524D01*
G01X2826577Y-4836667D01*
G01X2835761Y-4816810D01*
G01X2863537Y-4791865D01*
G01X2887903Y-4780116D01*
G01X2910665Y-4773969D01*
G01X3027860Y-4774259D01*
G01X3145055Y-4774549D01*
G01X3154733Y-4777786D01*
G01X3164411Y-4781023D01*
G01X3177271Y-4787114D01*
G01X3190131Y-4793205D01*
G01X3214237Y-4817301D01*
G01X3220197Y-4829493D01*
G01X3226157Y-4841685D01*
G01X3229156Y-4851080D01*
G01X3232155Y-4860475D01*
G37*
G36*
G01X3396677Y-5051743D02*
G01X3395948Y-5142321D01*
G01X3395219Y-5232899D01*
G01X3342029Y-5232148D01*
G01X3288839Y-5231398D01*
G01X3287425Y-4773969D01*
G01X3395217Y-4773969D01*
G01X3395947Y-4861724D01*
G01X3396677Y-4949478D01*
G01X3490515Y-4950206D01*
G01X3584351Y-4950935D01*
G01X3587292Y-4947997D01*
G01X3590233Y-4945059D01*
G01X3591191Y-4859514D01*
G01X3592150Y-4773969D01*
G01X3699627Y-4773969D01*
G01X3702265Y-4780879D01*
G01X3700836Y-5231398D01*
G01X3591691Y-5232896D01*
G01X3590233Y-5051743D01*
G01X3396677Y-5051743D01*
G37*
G36*
G01X2680522Y-5233788D02*
G01X2545388Y-5234965D01*
G01X2410255Y-5236141D01*
G01X2387026Y-5234207D01*
G01X2363797Y-5232273D01*
G01X2365302Y-5131897D01*
G01X2652871Y-5129133D01*
G01X2654310Y-4879047D01*
G01X2365302Y-4877616D01*
G01X2365302Y-4775351D01*
G01X2674991Y-4774340D01*
G01X2691157Y-4779816D01*
G01X2707324Y-4785292D01*
G01X2717657Y-4791813D01*
G01X2727990Y-4798333D01*
G01X2749782Y-4823080D01*
G01X2762147Y-4858269D01*
G01X2762091Y-5151322D01*
G01X2756852Y-5165649D01*
G01X2751614Y-5179976D01*
G01X2745302Y-5189103D01*
G01X2738990Y-5198231D01*
G01X2721195Y-5215029D01*
G01X2697112Y-5226553D01*
G01X2680522Y-5233788D01*
G37*
G36*
G01X4546252Y-5215731D02*
G01X4533125Y-5224125D01*
G01X4505475Y-5234162D01*
G01X4200393Y-5234162D01*
G01X4195892Y-5229661D01*
G01X4195839Y-5183087D01*
G01X4195786Y-5136513D01*
G01X4198088Y-5134205D01*
G01X4200390Y-5131897D01*
G01X4340490Y-5130515D01*
G01X4480589Y-5129133D01*
G01X4480589Y-5054507D01*
G01X4210114Y-5053072D01*
G01X4206406Y-5049996D01*
G01X4202698Y-5046920D01*
G01X4202783Y-4957770D01*
G01X4204961Y-4954341D01*
G01X4207140Y-4950913D01*
G01X4343864Y-4950195D01*
G01X4480589Y-4949478D01*
G01X4480589Y-4880380D01*
G01X4198551Y-4877616D01*
G01X4197798Y-4825793D01*
G01X4197046Y-4773969D01*
G01X4508240Y-4774592D01*
G01X4524726Y-4780499D01*
G01X4541213Y-4786407D01*
G01X4557331Y-4801322D01*
G01X4573449Y-4816236D01*
G01X4579436Y-4828961D01*
G01X4585422Y-4841685D01*
G01X4588876Y-4854123D01*
G01X4592331Y-4866560D01*
G01X4592509Y-5140188D01*
G01X4588816Y-5154008D01*
G01X4585123Y-5167828D01*
G01X4579303Y-5179205D01*
G01X4573483Y-5190583D01*
G01X4566431Y-5198960D01*
G01X4559380Y-5207337D01*
G01X4546252Y-5215731D01*
G37*
G36*
G01X4079652Y-5226683D02*
G01X4069974Y-5230422D01*
G01X4060297Y-5234162D01*
G01X3753373Y-5234162D01*
G01X3753373Y-5131897D01*
G01X3893701Y-5131180D01*
G01X4034028Y-5130464D01*
G01X4034028Y-4878998D01*
G01X3752582Y-4878998D01*
G01X3749225Y-4870254D01*
G01X3749225Y-4799616D01*
G01X3750983Y-4786793D01*
G01X3752742Y-4773969D01*
G01X3905137Y-4774147D01*
G01X4057532Y-4774325D01*
G01X4074721Y-4780366D01*
G01X4091911Y-4786407D01*
G01X4104112Y-4795097D01*
G01X4116313Y-4803788D01*
G01X4133076Y-4828142D01*
G01X4144632Y-4863327D01*
G01X4144572Y-5145716D01*
G01X4136634Y-5171863D01*
G01X4122743Y-5195467D01*
G01X4113163Y-5205287D01*
G01X4103583Y-5215107D01*
G01X4091617Y-5220895D01*
G01X4079652Y-5226683D01*
G37*
G36*
G01X1880124Y-4646829D02*
G01X1852640Y-4646829D01*
G01X1846238Y-4643913D01*
G01X1839836Y-4640997D01*
G01X1833665Y-4631996D01*
G01X1827494Y-4622993D01*
G01X1827494Y-4605765D01*
G01X1846850Y-4605765D01*
G01X1846892Y-4611786D01*
G01X1846934Y-4617808D01*
G01X1850997Y-4623890D01*
G01X1850997Y-4623890D01*
G01X1857061Y-4627080D01*
G01X1863124Y-4630271D01*
G01X1870261Y-4627020D01*
G01X1877398Y-4623770D01*
G01X1880733Y-4610490D01*
G01X1877676Y-4603784D01*
G01X1874619Y-4597078D01*
G01X1855540Y-4597078D01*
G01X1851195Y-4601422D01*
G01X1846850Y-4605765D01*
G01X1827494Y-4605765D01*
G01X1827494Y-4603456D01*
G01X1831962Y-4594504D01*
G01X1836429Y-4585553D01*
G01X1845096Y-4580270D01*
G01X1853762Y-4574988D01*
G01X1873118Y-4574988D01*
G01X1891415Y-4586138D01*
G01X1900769Y-4602589D01*
G01X2224283Y-4601907D01*
G01X2547798Y-4601224D01*
G01X2549185Y-4554238D01*
G01X2550618Y-4548019D01*
G01X2552051Y-4541800D01*
G01X2568684Y-4541800D01*
G01X2567918Y-4582568D01*
G01X2567153Y-4623336D01*
G01X2235888Y-4622303D01*
G01X1904623Y-4621271D01*
G01X1892373Y-4634050D01*
G01X1880124Y-4646829D01*
G37*
G36*
G01X1866205Y-4873470D02*
G01X1695448Y-4873470D01*
G01X1689100Y-4865825D01*
G01X1689862Y-4820588D01*
G01X1690623Y-4775351D01*
G01X1803991Y-4774232D01*
G01X1820804Y-4797462D01*
G01X1843505Y-4830965D01*
G01X1866205Y-4864468D01*
G01X1866205Y-4873470D01*
G37*
G36*
G01X1803991Y-4994302D02*
G01X1750072Y-4994749D01*
G01X1696153Y-4995195D01*
G01X1692627Y-4992860D01*
G01X1689102Y-4990525D01*
G01X1689862Y-4943744D01*
G01X1690623Y-4896964D01*
G01X1748866Y-4896219D01*
G01X1807110Y-4895475D01*
G01X1810904Y-4899267D01*
G01X1810904Y-4991727D01*
G01X1803991Y-4994302D01*
G37*
G36*
G01X1754839Y-5234911D02*
G01X1700156Y-5235661D01*
G01X1694630Y-5232705D01*
G01X1689104Y-5229749D01*
G01X1689864Y-5184969D01*
G01X1690623Y-5140188D01*
G01X1750829Y-5139443D01*
G01X1811035Y-5138698D01*
G01X1810278Y-5186430D01*
G01X1809521Y-5234162D01*
G01X1754839Y-5234911D01*
G37*
G36*
G01X1811035Y-5017086D02*
G01X1810278Y-5064817D01*
G01X1809521Y-5112549D01*
G01X1690623Y-5112549D01*
G01X1690623Y-5018576D01*
G01X1750829Y-5017831D01*
G01X1811035Y-5017086D01*
G37*
G36*
G01X4849527Y-568299D02*
G01X4836473Y-569078D01*
G01X4833367Y-568299D01*
G01X4833367Y-404533D01*
G01X4835226Y-403820D01*
G01X4865467Y-403820D01*
G01X4867075Y-402142D01*
G01X4868683Y-400464D01*
G01X4874215Y-400134D01*
G01X4879747Y-399804D01*
G01X4881075Y-398874D01*
G01X4882402Y-397945D01*
G01X4888931Y-397945D01*
G01X4890090Y-397148D01*
G01X4891249Y-396352D01*
G01X4898301Y-395708D01*
G01X4901826Y-393839D01*
G01X4904206Y-393836D01*
G01X4906586Y-393832D01*
G01X4907926Y-392493D01*
G01X4911042Y-392000D01*
G01X4914158Y-391508D01*
G01X4914353Y-390922D01*
G01X4914549Y-390336D01*
G01X4917433Y-389953D01*
G01X4920316Y-389571D01*
G01X4921656Y-387957D01*
G01X4925542Y-387957D01*
G01X4926352Y-387147D01*
G01X4927163Y-386336D01*
G01X4929592Y-385926D01*
G01X4932022Y-385515D01*
G01X4932715Y-384680D01*
G01X4933409Y-383845D01*
G01X4936566Y-383845D01*
G01X4937707Y-382982D01*
G01X4938847Y-382119D01*
G01X4939664Y-382101D01*
G01X4940481Y-382082D01*
G01X4943190Y-380837D01*
G01X4945899Y-379593D01*
G01X4946780Y-379071D01*
G01X4947662Y-378550D01*
G01X4948543Y-378222D01*
G01X4949425Y-377894D01*
G01X4954713Y-375446D01*
G01X4955595Y-374942D01*
G01X4956476Y-374437D01*
G01X4958239Y-373772D01*
G01X4960002Y-372684D01*
G01X4967054Y-369063D01*
G01X4970834Y-367064D01*
G01X4974614Y-365065D01*
G01X4975809Y-363869D01*
G01X4977743Y-363869D01*
G01X4979870Y-361519D01*
G01X4981498Y-361519D01*
G01X4985270Y-358876D01*
G01X4985576Y-358472D01*
G01X4985882Y-358068D01*
G01X4987339Y-357447D01*
G01X4988796Y-356827D01*
G01X4997023Y-350856D01*
G01X4999081Y-349515D01*
G01X5001140Y-348175D01*
G01X5006802Y-343750D01*
G01X5012465Y-339324D01*
G01X5013585Y-338231D01*
G01X5014706Y-337138D01*
G01X5017849Y-334494D01*
G01X5020991Y-331850D01*
G01X5026992Y-326703D01*
G01X5044741Y-308938D01*
G01X5050497Y-302427D01*
G01X5055786Y-296160D01*
G01X5056732Y-295205D01*
G01X5057678Y-294250D01*
G01X5062090Y-287787D01*
G01X5062758Y-287193D01*
G01X5063425Y-286599D01*
G01X5066070Y-282841D01*
G01X5066070Y-282172D01*
G01X5070780Y-276037D01*
G01X5071946Y-274618D01*
G01X5071946Y-273537D01*
G01X5072889Y-272755D01*
G01X5073831Y-271973D01*
G01X5074383Y-270774D01*
G01X5074935Y-269575D01*
G01X5075667Y-268316D01*
G01X5076399Y-267056D01*
G01X5078070Y-265043D01*
G01X5078803Y-263784D01*
G01X5079535Y-262525D01*
G01X5080168Y-261111D01*
G01X5080801Y-259697D01*
G01X5082544Y-257116D01*
G01X5084286Y-254534D01*
G01X5084286Y-252794D01*
G01X5085115Y-252476D01*
G01X5085943Y-252158D01*
G01X5086319Y-250661D01*
G01X5086695Y-249164D01*
G01X5087547Y-248312D01*
G01X5088400Y-247459D01*
G01X5088400Y-245337D01*
G01X5089224Y-244654D01*
G01X5090047Y-243970D01*
G01X5090428Y-242454D01*
G01X5090808Y-240939D01*
G01X5091661Y-240087D01*
G01X5092513Y-239234D01*
G01X5092513Y-237112D01*
G01X5094276Y-235649D01*
G01X5094276Y-233335D01*
G01X5096627Y-230347D01*
G01X5096627Y-228299D01*
G01X5098390Y-226837D01*
G01X5098390Y-224879D01*
G01X5100740Y-220270D01*
G01X5100740Y-218312D01*
G01X5102503Y-216849D01*
G01X5102522Y-215305D01*
G01X5102540Y-213762D01*
G01X5103403Y-212621D01*
G01X5104266Y-211481D01*
G01X5104266Y-209044D01*
G01X5106616Y-204660D01*
G01X5106616Y-201942D01*
G01X5107479Y-200802D01*
G01X5108342Y-199662D01*
G01X5108381Y-197899D01*
G01X5108419Y-196136D01*
G01X5110690Y-191436D01*
G01X5110729Y-189674D01*
G01X5110767Y-187911D01*
G01X5111630Y-186771D01*
G01X5112493Y-185631D01*
G01X5112493Y-180242D01*
G01X5113333Y-179042D01*
G01X5114173Y-177843D01*
G01X5115018Y-170378D01*
G01X5116599Y-167349D01*
G01X5116602Y-163638D01*
G01X5116606Y-159928D01*
G01X5117318Y-158644D01*
G01X5118030Y-157361D01*
G01X5118750Y-150605D01*
G01X5119469Y-143848D01*
G01X5120059Y-140911D01*
G01X5120650Y-137973D01*
G01X5120634Y-87448D01*
G01X5120056Y-84217D01*
G01X5119477Y-80985D01*
G01X5118752Y-73935D01*
G01X5118027Y-66885D01*
G01X5117317Y-65602D01*
G01X5116606Y-64319D01*
G01X5116606Y-57721D01*
G01X5115807Y-56134D01*
G01X5115007Y-54548D01*
G01X5114652Y-50982D01*
G01X5114296Y-47415D01*
G01X5113398Y-45694D01*
G01X5112500Y-43973D01*
G01X5112496Y-41588D01*
G01X5112493Y-39203D01*
G01X5111630Y-38063D01*
G01X5110767Y-36922D01*
G01X5110730Y-33380D01*
G01X5108379Y-28995D01*
G01X5108379Y-25022D01*
G01X5106616Y-23560D01*
G01X5106616Y-19852D01*
G01X5105754Y-18621D01*
G01X5104891Y-17390D01*
G01X5104505Y-14977D01*
G01X5104119Y-12563D01*
G01X5103311Y-11893D01*
G01X5102503Y-11222D01*
G01X5102503Y-8512D01*
G01X5101692Y-7702D01*
G01X5100881Y-6891D01*
G01X5100471Y-4462D01*
G01X5100061Y-2033D01*
G01X5099225Y-1340D01*
G01X5098390Y-647D01*
G01X5098390Y2003D01*
G01X5096627Y3466D01*
G01X5096627Y5145D01*
G01X5094076Y10078D01*
G01X5093584Y10959D01*
G01X5093093Y11841D01*
G01X5092418Y13603D01*
G01X5091346Y15953D01*
G01X5090755Y16981D01*
G01X5090163Y18009D01*
G01X5089571Y19037D01*
G01X5088980Y20066D01*
G01X5088296Y21828D01*
G01X5086732Y24929D01*
G01X5085168Y28031D01*
G01X5084401Y29483D01*
G01X5083635Y30934D01*
G01X5082523Y30934D01*
G01X5082523Y33126D01*
G01X5080173Y36114D01*
G01X5080173Y36857D01*
G01X5077529Y40597D01*
G01X5076794Y41389D01*
G01X5076059Y42181D01*
G01X5076059Y43320D01*
G01X5073415Y47091D01*
G01X5073109Y47385D01*
G01X5072804Y47678D01*
G01X5071384Y50910D01*
G01X5070183Y50910D01*
G01X5070183Y52614D01*
G01X5068711Y53553D01*
G01X5065188Y58841D01*
G01X5064013Y60269D01*
G01X5062789Y61779D01*
G01X5059096Y67066D01*
G01X5054319Y72354D01*
G01X5054317Y73174D01*
G01X5051673Y76077D01*
G01X5046995Y81265D01*
G01X5042318Y86454D01*
G01X5034617Y94091D01*
G01X5026917Y101729D01*
G01X5022612Y105548D01*
G01X5018306Y109366D01*
G01X5017361Y110268D01*
G01X5016415Y111169D01*
G01X5013917Y112845D01*
G01X5011420Y114520D01*
G01X5011420Y115535D01*
G01X5010310Y115535D01*
G01X5008074Y117589D01*
G01X5005837Y119642D01*
G01X5004974Y119648D01*
G01X4996887Y125817D01*
G01X4995565Y126698D01*
G01X4994243Y127579D01*
G01X4991549Y129635D01*
G01X4990890Y129635D01*
G01X4987198Y132131D01*
G01X4983507Y134627D01*
G01X4983202Y135032D01*
G01X4982896Y135437D01*
G01X4981439Y136070D01*
G01X4979982Y136703D01*
G01X4976456Y138998D01*
G01X4974693Y139897D01*
G01X4972930Y140796D01*
G01X4971167Y141963D01*
G01X4969404Y143131D01*
G01X4968044Y143727D01*
G01X4966683Y144323D01*
G01X4965585Y144323D01*
G01X4965585Y145254D01*
G01X4958827Y148522D01*
G01X4957358Y149351D01*
G01X4955889Y150181D01*
G01X4954932Y150189D01*
G01X4953976Y150198D01*
G01X4952513Y151961D01*
G01X4949862Y151961D01*
G01X4948517Y153582D01*
G01X4944949Y154295D01*
G01X4943171Y156073D01*
G01X4939873Y156073D01*
G01X4938410Y157836D01*
G01X4936199Y157836D01*
G01X4931813Y160186D01*
G01X4929295Y160186D01*
G01X4927832Y161948D01*
G01X4925034Y161948D01*
G01X4920648Y164298D01*
G01X4918868Y164336D01*
G01X4917727Y165198D01*
G01X4916586Y166061D01*
G01X4911079Y166061D01*
G01X4909749Y167663D01*
G01X4906596Y168033D01*
G01X4903444Y168404D01*
G01X4901754Y169285D01*
G01X4900063Y170166D01*
G01X4899006Y170170D01*
G01X4897948Y170173D01*
G01X4896362Y170979D01*
G01X4894775Y171785D01*
G01X4890242Y172065D01*
G01X4885709Y172344D01*
G01X4883861Y173878D01*
G01X4879328Y174131D01*
G01X4874795Y174385D01*
G01X4870094Y175967D01*
G01X4855991Y176627D01*
G01X4853641Y177205D01*
G01X4851290Y177783D01*
G01X4844532Y177803D01*
G01X4837774Y177824D01*
G01X4835569Y178188D01*
G01X4833363Y178553D01*
G01X4833512Y260580D01*
G01X4833661Y342606D01*
G01X4845414Y342790D01*
G01X4855991Y341218D01*
G01X4878909Y340427D01*
G01X4881427Y339607D01*
G01X4883945Y338787D01*
G01X4893282Y338787D01*
G01X4895497Y337952D01*
G01X4897713Y337116D01*
G01X4905940Y336573D01*
G01X4907703Y335628D01*
G01X4909466Y334682D01*
G01X4912698Y334660D01*
G01X4915930Y334638D01*
G01X4917070Y333775D01*
G01X4918211Y332912D01*
G01X4921184Y332909D01*
G01X4924156Y332905D01*
G01X4925919Y331977D01*
G01X4927682Y331049D01*
G01X4930914Y330725D01*
G01X4934146Y330400D01*
G01X4935733Y329600D01*
G01X4937320Y328800D01*
G01X4939553Y328796D01*
G01X4941785Y328793D01*
G01X4943398Y327951D01*
G01X4945011Y327110D01*
G01X4947806Y326699D01*
G01X4950600Y326288D01*
G01X4951759Y325488D01*
G01X4952918Y324687D01*
G01X4957801Y324687D01*
G01X4959141Y323073D01*
G01X4962163Y322673D01*
G01X4965186Y322272D01*
G01X4966397Y321423D01*
G01X4967609Y320575D01*
G01X4970061Y320575D01*
G01X4971202Y319712D01*
G01X4972342Y318850D01*
G01X4974710Y318812D01*
G01X4979096Y316462D01*
G01X4981894Y316462D01*
G01X4983357Y314700D01*
G01X4984901Y314696D01*
G01X4986445Y314692D01*
G01X4989971Y312357D01*
G01X4992322Y312312D01*
G01X4993462Y311450D01*
G01X4994603Y310587D01*
G01X4996733Y310587D01*
G01X5001119Y308237D01*
G01X5002899Y308200D01*
G01X5004040Y307337D01*
G01X5005181Y306475D01*
G01X5007750Y306475D01*
G01X5009213Y304712D01*
G01X5010410Y304712D01*
G01X5013118Y303468D01*
G01X5015827Y302223D01*
G01X5016709Y301701D01*
G01X5017590Y301180D01*
G01X5018471Y300842D01*
G01X5019353Y300505D01*
G01X5021768Y299377D01*
G01X5024183Y298250D01*
G01X5026041Y298250D01*
G01X5026357Y297738D01*
G01X5026673Y297227D01*
G01X5030065Y295537D01*
G01X5033456Y293847D01*
G01X5034233Y293111D01*
G01X5035009Y292375D01*
G01X5036544Y292375D01*
G01X5037228Y291551D01*
G01X5037912Y290727D01*
G01X5039428Y290347D01*
G01X5040943Y289966D01*
G01X5041796Y289114D01*
G01X5042648Y288262D01*
G01X5044789Y288262D01*
G01X5045106Y287436D01*
G01X5045423Y286610D01*
G01X5047226Y286214D01*
G01X5049028Y285819D01*
G01X5049028Y284852D01*
G01X5052260Y283558D01*
G01X5055786Y281249D01*
G01X5057549Y280361D01*
G01X5059312Y279473D01*
G01X5061662Y278089D01*
G01X5062544Y277590D01*
G01X5063425Y277091D01*
G01X5066364Y275668D01*
G01X5068945Y273740D01*
G01X5071527Y271812D01*
G01X5073023Y271812D01*
G01X5073219Y271371D01*
G01X5073415Y270931D01*
G01X5077714Y267993D01*
G01X5082013Y265055D01*
G01X5083591Y264034D01*
G01X5085168Y263012D01*
G01X5087812Y261636D01*
G01X5087812Y260761D01*
G01X5090431Y259226D01*
G01X5093050Y257692D01*
G01X5096889Y254187D01*
G01X5097865Y254187D01*
G01X5105966Y247724D01*
G01X5106616Y247724D01*
G01X5107695Y246696D01*
G01X5108773Y245668D01*
G01X5111367Y243507D01*
G01X5113962Y241346D01*
G01X5116372Y239601D01*
G01X5118782Y237856D01*
G01X5123952Y232909D01*
G01X5129185Y228420D01*
G01X5134419Y223930D01*
G01X5141754Y216880D01*
G01X5149089Y209830D01*
G01X5153561Y205225D01*
G01X5158034Y200620D01*
G01X5161881Y196660D01*
G01X5165727Y192700D01*
G01X5169303Y188340D01*
G01X5172879Y183980D01*
G01X5174527Y182217D01*
G01X5176175Y180455D01*
G01X5179605Y176140D01*
G01X5183036Y171825D01*
G01X5183757Y171020D01*
G01X5184478Y170214D01*
G01X5185083Y169459D01*
G01X5185688Y168705D01*
G01X5187434Y166355D01*
G01X5189179Y164005D01*
G01X5189766Y163330D01*
G01X5190354Y162655D01*
G01X5191930Y160686D01*
G01X5193506Y158717D01*
G01X5195579Y155779D01*
G01X5197652Y152842D01*
G01X5199699Y149904D01*
G01X5201745Y146967D01*
G01X5207697Y138742D01*
G01X5208307Y137273D01*
G01X5208917Y135804D01*
G01X5209625Y135216D01*
G01X5210334Y134627D01*
G01X5211783Y131852D01*
G01X5213232Y129076D01*
G01X5213986Y128787D01*
G01X5214741Y128497D01*
G01X5214741Y126573D01*
G01X5218092Y122292D01*
G01X5219948Y118767D01*
G01X5221790Y115242D01*
G01X5222958Y113479D01*
G01X5224125Y111717D01*
G01X5225346Y109366D01*
G01X5228112Y104666D01*
G01X5234648Y91723D01*
G01X5241184Y78779D01*
G01X5241184Y77491D01*
G01X5242947Y76029D01*
G01X5242947Y73379D01*
G01X5244587Y72018D01*
G01X5244969Y69983D01*
G01X5245351Y67947D01*
G01X5246473Y67947D01*
G01X5246473Y66433D01*
G01X5248823Y61824D01*
G01X5248823Y60306D01*
G01X5251174Y55921D01*
G01X5251174Y53404D01*
G01X5252937Y51941D01*
G01X5252937Y49730D01*
G01X5255287Y45346D01*
G01X5255287Y43497D01*
G01X5256150Y42356D01*
G01X5257013Y41216D01*
G01X5257032Y39378D01*
G01X5257050Y37541D01*
G01X5257858Y36870D01*
G01X5258667Y36200D01*
G01X5259053Y33786D01*
G01X5259439Y31373D01*
G01X5260301Y30142D01*
G01X5261164Y28911D01*
G01X5261164Y25872D01*
G01X5262027Y24731D01*
G01X5262889Y23591D01*
G01X5262928Y21828D01*
G01X5262967Y20066D01*
G01X5265237Y15366D01*
G01X5265257Y13568D01*
G01X5265277Y11771D01*
G01X5266140Y10631D01*
G01X5267003Y9491D01*
G01X5267041Y7434D01*
G01X5267080Y5378D01*
G01X5269351Y678D01*
G01X5269389Y-1672D01*
G01X5269428Y-4022D01*
G01X5270291Y-5163D01*
G01X5271154Y-6303D01*
G01X5271154Y-11692D01*
G01X5271962Y-12851D01*
G01X5272771Y-14010D01*
G01X5273206Y-17829D01*
G01X5273641Y-21647D01*
G01X5274454Y-23234D01*
G01X5275267Y-24820D01*
G01X5275267Y-31317D01*
G01X5276100Y-33532D01*
G01X5276934Y-35747D01*
G01X5277647Y-44560D01*
G01X5278488Y-46910D01*
G01X5279329Y-49260D01*
G01X5279355Y-54683D01*
G01X5279380Y-60105D01*
G01X5280212Y-62320D01*
G01X5281043Y-64535D01*
G01X5281683Y-83923D01*
G01X5282442Y-85979D01*
G01X5283200Y-88035D01*
G01X5283200Y-136211D01*
G01X5282461Y-138561D01*
G01X5281722Y-140911D01*
G01X5281045Y-160886D01*
G01X5280213Y-163488D01*
G01X5279380Y-166089D01*
G01X5279380Y-176307D01*
G01X5278471Y-178878D01*
G01X5277562Y-181449D01*
G01X5277200Y-186120D01*
G01X5276837Y-190792D01*
G01X5275274Y-193786D01*
G01X5275271Y-197621D01*
G01X5275267Y-201456D01*
G01X5274458Y-202615D01*
G01X5273649Y-203774D01*
G01X5273219Y-207503D01*
G01X5272788Y-211231D01*
G01X5271974Y-212790D01*
G01X5271161Y-214349D01*
G01X5271138Y-216993D01*
G01X5271116Y-219637D01*
G01X5270253Y-220777D01*
G01X5269391Y-221918D01*
G01X5269371Y-224302D01*
G01X5269351Y-226687D01*
G01X5267080Y-231387D01*
G01X5267060Y-233518D01*
G01X5267040Y-235649D01*
G01X5265277Y-237112D01*
G01X5265257Y-239243D01*
G01X5265237Y-241374D01*
G01X5262967Y-246074D01*
G01X5262947Y-247912D01*
G01X5262927Y-249749D01*
G01X5261164Y-251212D01*
G01X5261164Y-255037D01*
G01X5259458Y-256452D01*
G01X5259050Y-259176D01*
G01X5258641Y-261899D01*
G01X5257846Y-262694D01*
G01X5257050Y-263490D01*
G01X5257050Y-267375D01*
G01X5255287Y-268837D01*
G01X5255284Y-270087D01*
G01X5255280Y-271337D01*
G01X5252945Y-274862D01*
G01X5252941Y-276406D01*
G01X5252937Y-277950D01*
G01X5251174Y-279412D01*
G01X5251174Y-281342D01*
G01X5248823Y-285727D01*
G01X5248823Y-287937D01*
G01X5247061Y-289400D01*
G01X5247061Y-292050D01*
G01X5246195Y-292768D01*
G01X5245329Y-293487D01*
G01X5244958Y-295463D01*
G01X5244587Y-297439D01*
G01X5242947Y-298800D01*
G01X5242947Y-301450D01*
G01X5242103Y-302150D01*
G01X5241260Y-302850D01*
G01X5240521Y-306213D01*
G01X5239677Y-306913D01*
G01X5238834Y-307613D01*
G01X5238834Y-310171D01*
G01X5237720Y-311288D01*
G01X5234720Y-316931D01*
G01X5234720Y-318506D01*
G01X5232957Y-319182D01*
G01X5232957Y-321677D01*
G01X5230607Y-324665D01*
G01X5230607Y-326125D01*
G01X5228844Y-327588D01*
G01X5228844Y-330418D01*
G01X5228004Y-330741D01*
G01X5227163Y-331063D01*
G01X5226533Y-332632D01*
G01X5225902Y-334200D01*
G01X5223593Y-337725D01*
G01X5222704Y-339488D01*
G01X5221816Y-341250D01*
G01X5220617Y-343307D01*
G01X5220025Y-344335D01*
G01X5219433Y-345363D01*
G01X5217997Y-348300D01*
G01X5217691Y-348594D01*
G01X5217385Y-348888D01*
G01X5216170Y-350650D01*
G01X5214955Y-352413D01*
G01X5214550Y-353294D01*
G01X5214145Y-354176D01*
G01X5209459Y-361226D01*
G01X5208733Y-362694D01*
G01X5208007Y-364163D01*
G01X5207691Y-364457D01*
G01X5207376Y-364751D01*
G01X5204568Y-368863D01*
G01X5201760Y-372976D01*
G01X5195825Y-381201D01*
G01X5194647Y-383110D01*
G01X5193470Y-385020D01*
G01X5192411Y-385020D01*
G01X5192411Y-386684D01*
G01X5191853Y-386880D01*
G01X5191295Y-387076D01*
G01X5188768Y-390381D01*
G01X5186241Y-393685D01*
G01X5185359Y-395013D01*
G01X5184478Y-396340D01*
G01X5183550Y-397289D01*
G01X5182623Y-398238D01*
G01X5179198Y-402582D01*
G01X5175772Y-406926D01*
G01X5172137Y-410711D01*
G01X5169199Y-414117D01*
G01X5165696Y-418784D01*
G01X5137467Y-447007D01*
G01X5134814Y-449354D01*
G01X5132161Y-451701D01*
G01X5128699Y-454639D01*
G01X5125237Y-457577D01*
G01X5118930Y-463745D01*
G01X5117840Y-463745D01*
G01X5116900Y-465242D01*
G01X5115337Y-466235D01*
G01X5113775Y-467227D01*
G01X5112304Y-468571D01*
G01X5110834Y-469914D01*
G01X5108232Y-471677D01*
G01X5104927Y-474203D01*
G01X5101622Y-476730D01*
G01X5101426Y-477288D01*
G01X5101230Y-477845D01*
G01X5099804Y-477845D01*
G01X5098439Y-478874D01*
G01X5097075Y-479902D01*
G01X5095969Y-480930D01*
G01X5094864Y-481958D01*
G01X5094081Y-481958D01*
G01X5093150Y-482854D01*
G01X5092219Y-483751D01*
G01X5086931Y-487640D01*
G01X5083852Y-489793D01*
G01X5080773Y-491946D01*
G01X5080161Y-491946D01*
G01X5074309Y-496058D01*
G01X5073697Y-496058D01*
G01X5070883Y-497968D01*
G01X5068068Y-499877D01*
G01X5065776Y-501349D01*
G01X5064601Y-501965D01*
G01X5063425Y-502581D01*
G01X5058724Y-505444D01*
G01X5055492Y-506748D01*
G01X5055492Y-507693D01*
G01X5052260Y-508987D01*
G01X5048735Y-511296D01*
G01X5045058Y-512976D01*
G01X5044658Y-513623D01*
G01X5044258Y-514271D01*
G01X5042121Y-514271D01*
G01X5040658Y-516033D01*
G01X5038631Y-516033D01*
G01X5035921Y-518383D01*
G01X5033713Y-518383D01*
G01X5033037Y-520146D01*
G01X5030970Y-520146D01*
G01X5027982Y-522496D01*
G01X5025667Y-522496D01*
G01X5024204Y-524258D01*
G01X5022081Y-524258D01*
G01X5020318Y-526021D01*
G01X5018894Y-526021D01*
G01X5016185Y-527266D01*
G01X5013477Y-528510D01*
G01X5012595Y-529032D01*
G01X5011714Y-529553D01*
G01X5009951Y-530192D01*
G01X5007778Y-531338D01*
G01X5005605Y-532484D01*
G01X5003337Y-532484D01*
G01X5001874Y-534246D01*
G01X4999944Y-534246D01*
G01X4995558Y-536596D01*
G01X4993347Y-536596D01*
G01X4991884Y-538359D01*
G01X4989234Y-538359D01*
G01X4987819Y-540064D01*
G01X4985241Y-540450D01*
G01X4982664Y-540836D01*
G01X4981985Y-541654D01*
G01X4981307Y-542471D01*
G01X4977421Y-542471D01*
G01X4976630Y-543262D01*
G01X4975839Y-544053D01*
G01X4973533Y-544486D01*
G01X4971227Y-544918D01*
G01X4970038Y-545751D01*
G01X4968849Y-546584D01*
G01X4965141Y-546584D01*
G01X4963678Y-548346D01*
G01X4961840Y-548366D01*
G01X4960002Y-548386D01*
G01X4955301Y-550656D01*
G01X4953463Y-550676D01*
G01X4951625Y-550696D01*
G01X4950162Y-552459D01*
G01X4948324Y-552462D01*
G01X4946486Y-552466D01*
G01X4944724Y-553394D01*
G01X4942961Y-554322D01*
G01X4936497Y-554947D01*
G01X4933894Y-556571D01*
G01X4931376Y-556575D01*
G01X4928857Y-556578D01*
G01X4925789Y-558179D01*
G01X4917692Y-559045D01*
G01X4916106Y-559864D01*
G01X4914519Y-560684D01*
G01X4907351Y-560684D01*
G01X4905764Y-561483D01*
G01X4904177Y-562283D01*
G01X4898846Y-562644D01*
G01X4893516Y-563006D01*
G01X4891373Y-563901D01*
G01X4889230Y-564796D01*
G01X4879416Y-564796D01*
G01X4876518Y-565618D01*
G01X4873620Y-566440D01*
G01X4863924Y-566784D01*
G01X4854228Y-567128D01*
G01X4851878Y-567714D01*
G01X4849527Y-568299D01*
G37*
G36*
G01X4789589Y-403819D02*
G01X4800754Y-404114D01*
G01X4800754Y-568615D01*
G01X4786063Y-568324D01*
G01X4782831Y-567701D01*
G01X4779599Y-567078D01*
G01X4760795Y-566436D01*
G01X4758277Y-565616D01*
G01X4755759Y-564796D01*
G01X4745772Y-564796D01*
G01X4743682Y-563923D01*
G01X4741592Y-563050D01*
G01X4730300Y-562257D01*
G01X4728800Y-561474D01*
G01X4727299Y-560691D01*
G01X4723891Y-560687D01*
G01X4720483Y-560684D01*
G01X4718897Y-559871D01*
G01X4717310Y-559058D01*
G01X4708495Y-558189D01*
G01X4706177Y-556571D01*
G01X4703517Y-556550D01*
G01X4700856Y-556530D01*
G01X4697918Y-554850D01*
G01X4693217Y-554769D01*
G01X4688516Y-552499D01*
G01X4686753Y-552460D01*
G01X4684990Y-552421D01*
G01X4683849Y-551559D01*
G01X4682709Y-550696D01*
G01X4679403Y-550696D01*
G01X4675018Y-548346D01*
G01X4671097Y-548346D01*
G01X4669334Y-546584D01*
G01X4666153Y-546584D01*
G01X4664964Y-545751D01*
G01X4663775Y-544918D01*
G01X4661455Y-544493D01*
G01X4659134Y-544067D01*
G01X4656816Y-542471D01*
G01X4653813Y-542471D01*
G01X4651495Y-540875D01*
G01X4649207Y-540456D01*
G01X4646919Y-540036D01*
G01X4646080Y-539197D01*
G01X4645241Y-538359D01*
G01X4642530Y-538359D01*
G01X4641067Y-536596D01*
G01X4639817Y-536592D01*
G01X4638567Y-536588D01*
G01X4635041Y-534254D01*
G01X4633791Y-534250D01*
G01X4632541Y-534246D01*
G01X4631078Y-532484D01*
G01X4628427Y-532484D01*
G01X4626964Y-530721D01*
G01X4625768Y-530721D01*
G01X4623206Y-529546D01*
G01X4618082Y-527196D01*
G01X4615521Y-526021D01*
G01X4614324Y-526021D01*
G01X4612861Y-524258D01*
G01X4610211Y-524258D01*
G01X4608748Y-522496D01*
G01X4606721Y-522496D01*
G01X4604011Y-520146D01*
G01X4601984Y-520146D01*
G01X4600521Y-518383D01*
G01X4598793Y-518383D01*
G01X4595805Y-516033D01*
G01X4593739Y-516033D01*
G01X4593062Y-514271D01*
G01X4590759Y-514271D01*
G01X4589906Y-513419D01*
G01X4589054Y-512566D01*
G01X4587514Y-512180D01*
G01X4585974Y-511793D01*
G01X4585974Y-510991D01*
G01X4582802Y-509386D01*
G01X4579630Y-507780D01*
G01X4578910Y-506913D01*
G01X4578191Y-506046D01*
G01X4576631Y-506046D01*
G01X4573810Y-504212D01*
G01X4570989Y-502378D01*
G01X4569509Y-501357D01*
G01X4568028Y-500336D01*
G01X4566718Y-499920D01*
G01X4565407Y-499504D01*
G01X4565407Y-498600D01*
G01X4562175Y-496965D01*
G01X4558943Y-495331D01*
G01X4558943Y-494565D01*
G01X4553439Y-491652D01*
G01X4551303Y-489596D01*
G01X4550079Y-489596D01*
G01X4549369Y-488990D01*
G01X4548659Y-488383D01*
G01X4546309Y-486346D01*
G01X4543958Y-484309D01*
G01X4543578Y-484309D01*
G01X4543198Y-484308D01*
G01X4539168Y-481195D01*
G01X4535138Y-478082D01*
G01X4534112Y-477688D01*
G01X4533087Y-477295D01*
G01X4533087Y-476083D01*
G01X4531382Y-476083D01*
G01X4530912Y-475327D01*
G01X4530443Y-474572D01*
G01X4523598Y-469463D01*
G01X4516754Y-464355D01*
G01X4514273Y-462141D01*
G01X4511792Y-459927D01*
G01X4509365Y-457648D01*
G01X4506937Y-455369D01*
G01X4504319Y-453241D01*
G01X4501700Y-451114D01*
G01X4491786Y-441714D01*
G01X4484083Y-434000D01*
G01X4476380Y-426286D01*
G01X4468835Y-418360D01*
G01X4464110Y-412339D01*
G01X4462499Y-410576D01*
G01X4460887Y-408814D01*
G01X4458644Y-406375D01*
G01X4456401Y-403936D01*
G01X4454638Y-401302D01*
G01X4453325Y-399770D01*
G01X4452012Y-398238D01*
G01X4451314Y-397420D01*
G01X4450615Y-396602D01*
G01X4445281Y-389706D01*
G01X4439947Y-382809D01*
G01X4438184Y-380203D01*
G01X4433871Y-374151D01*
G01X4432014Y-372094D01*
G01X4432014Y-371459D01*
G01X4429370Y-367688D01*
G01X4428782Y-367101D01*
G01X4427567Y-365338D01*
G01X4426352Y-363576D01*
G01X4425947Y-362694D01*
G01X4425542Y-361813D01*
G01X4423202Y-358288D01*
G01X4420862Y-354763D01*
G01X4420250Y-353357D01*
G01X4419639Y-351950D01*
G01X4417972Y-349832D01*
G01X4416305Y-347713D01*
G01X4415910Y-346444D01*
G01X4415515Y-345175D01*
G01X4414656Y-344463D01*
G01X4413797Y-343750D01*
G01X4413797Y-341603D01*
G01X4413057Y-341133D01*
G01X4412316Y-340663D01*
G01X4410559Y-337268D01*
G01X4408803Y-333873D01*
G01X4407977Y-332274D01*
G01X4407152Y-330675D01*
G01X4406702Y-330376D01*
G01X4406251Y-330076D01*
G01X4405858Y-328509D01*
G01X4405465Y-326942D01*
G01X4404636Y-326624D01*
G01X4403808Y-326306D01*
G01X4403808Y-323295D01*
G01X4402045Y-322618D01*
G01X4402045Y-320552D01*
G01X4400959Y-319151D01*
G01X4399873Y-317750D01*
G01X4399479Y-316135D01*
G01X4399084Y-314519D01*
G01X4397931Y-314519D01*
G01X4397931Y-312327D01*
G01X4395581Y-309340D01*
G01X4395581Y-307025D01*
G01X4393818Y-305562D01*
G01X4393818Y-303980D01*
G01X4391366Y-298950D01*
G01X4389705Y-295831D01*
G01X4389705Y-294040D01*
G01X4388085Y-292421D01*
G01X4387682Y-290585D01*
G01X4387278Y-288750D01*
G01X4386435Y-288050D01*
G01X4385591Y-287350D01*
G01X4385591Y-284781D01*
G01X4384728Y-283640D01*
G01X4383866Y-282500D01*
G01X4383820Y-280150D01*
G01X4381485Y-276625D01*
G01X4381440Y-274275D01*
G01X4380578Y-273134D01*
G01X4379715Y-271994D01*
G01X4379715Y-269425D01*
G01X4378009Y-268010D01*
G01X4377623Y-265433D01*
G01X4377236Y-262856D01*
G01X4376419Y-262178D01*
G01X4375601Y-261499D01*
G01X4375601Y-257792D01*
G01X4374005Y-255475D01*
G01X4373579Y-253155D01*
G01X4373154Y-250835D01*
G01X4372321Y-249646D01*
G01X4371488Y-248457D01*
G01X4371488Y-244830D01*
G01X4370625Y-243690D01*
G01X4369762Y-242549D01*
G01X4369724Y-240493D01*
G01X4369685Y-238437D01*
G01X4367414Y-233737D01*
G01X4367376Y-231974D01*
G01X4367337Y-230212D01*
G01X4366474Y-229071D01*
G01X4365612Y-227931D01*
G01X4365608Y-225546D01*
G01X4365604Y-223162D01*
G01X4364676Y-221399D01*
G01X4363748Y-219637D01*
G01X4363123Y-213174D01*
G01X4362399Y-211999D01*
G01X4361675Y-210824D01*
G01X4361360Y-206853D01*
G01X4361045Y-202881D01*
G01X4360465Y-202153D01*
G01X4359886Y-201424D01*
G01X4359469Y-197044D01*
G01X4359053Y-192663D01*
G01X4358219Y-191051D01*
G01X4357385Y-189439D01*
G01X4357385Y-182371D01*
G01X4356568Y-179854D01*
G01X4355750Y-177336D01*
G01X4355396Y-170989D01*
G01X4355041Y-164641D01*
G01X4354331Y-163351D01*
G01X4353621Y-162061D01*
G01X4352819Y-139736D01*
G01X4352164Y-138082D01*
G01X4351508Y-136428D01*
G01X4351508Y-88993D01*
G01X4352848Y-85685D01*
G01X4353219Y-74817D01*
G01X4353589Y-63948D01*
G01X4354325Y-62640D01*
G01X4355060Y-61333D01*
G01X4355391Y-54709D01*
G01X4355722Y-48085D01*
G01X4356554Y-45870D01*
G01X4357385Y-43655D01*
G01X4357388Y-39995D01*
G01X4357392Y-36335D01*
G01X4358228Y-34732D01*
G01X4359065Y-33129D01*
G01X4359484Y-28321D01*
G01X4359904Y-23513D01*
G01X4361491Y-20472D01*
G01X4361494Y-17946D01*
G01X4361498Y-15420D01*
G01X4362297Y-13834D01*
G01X4363097Y-12247D01*
G01X4363808Y-5954D01*
G01X4365065Y-4440D01*
G01X4365776Y1853D01*
G01X4366575Y3439D01*
G01X4367374Y5026D01*
G01X4367374Y8613D01*
G01X4369725Y12998D01*
G01X4369725Y17278D01*
G01X4371488Y18741D01*
G01X4371488Y23153D01*
G01X4372323Y23846D01*
G01X4373159Y24540D01*
G01X4373572Y27003D01*
G01X4373986Y29466D01*
G01X4374794Y30625D01*
G01X4375601Y31783D01*
G01X4375601Y35491D01*
G01X4376409Y36161D01*
G01X4377218Y36832D01*
G01X4377604Y39245D01*
G01X4377990Y41659D01*
G01X4378852Y42890D01*
G01X4379715Y44121D01*
G01X4379715Y46573D01*
G01X4380578Y47713D01*
G01X4381440Y48853D01*
G01X4381485Y51203D01*
G01X4383820Y54728D01*
G01X4383824Y55978D01*
G01X4383828Y57228D01*
G01X4385591Y58691D01*
G01X4385595Y60235D01*
G01X4385599Y61779D01*
G01X4387934Y65304D01*
G01X4387938Y66260D01*
G01X4387942Y67216D01*
G01X4389705Y68679D01*
G01X4389705Y71328D01*
G01X4391467Y72791D01*
G01X4391467Y73987D01*
G01X4392731Y76696D01*
G01X4393995Y79404D01*
G01X4399277Y90142D01*
G01X4404560Y100880D01*
G01X4405065Y101192D01*
G01X4405571Y101504D01*
G01X4405571Y103605D01*
G01X4407921Y106315D01*
G01X4407921Y108485D01*
G01X4409156Y108485D01*
G01X4410930Y112304D01*
G01X4411708Y113675D01*
G01X4412486Y115047D01*
G01X4413797Y116358D01*
G01X4413797Y118510D01*
G01X4414638Y118832D01*
G01X4415478Y119155D01*
G01X4416106Y120723D01*
G01X4416734Y122292D01*
G01X4421382Y129342D01*
G01X4425256Y135637D01*
G01X4426276Y137189D01*
G01X4427296Y138742D01*
G01X4428459Y141386D01*
G01X4429521Y141386D01*
G01X4430981Y144911D01*
G01X4432014Y144911D01*
G01X4432014Y146615D01*
G01X4433483Y147554D01*
G01X4436127Y151326D01*
G01X4436127Y152287D01*
G01X4438184Y154128D01*
G01X4439947Y156831D01*
G01X4444207Y162278D01*
G01X4448468Y167726D01*
G01X4448468Y168411D01*
G01X4449496Y169482D01*
G01X4450524Y170553D01*
G01X4452009Y172272D01*
G01X4453493Y173992D01*
G01X4454373Y175255D01*
G01X4455254Y176518D01*
G01X4457590Y179299D01*
G01X4459927Y182079D01*
G01X4461909Y184205D01*
G01X4463891Y186330D01*
G01X4471092Y195136D01*
G01X4499662Y223636D01*
G01X4500767Y223636D01*
G01X4500767Y224570D01*
G01X4503558Y226721D01*
G01X4506350Y228871D01*
G01X4514572Y236598D01*
G01X4518102Y239444D01*
G01X4521334Y241928D01*
G01X4524566Y244413D01*
G01X4524860Y244835D01*
G01X4525154Y245258D01*
G01X4530874Y249575D01*
G01X4536595Y253893D01*
G01X4539381Y255949D01*
G01X4542168Y258005D01*
G01X4542769Y258242D01*
G01X4543370Y258479D01*
G01X4549834Y263323D01*
G01X4555123Y266818D01*
G01X4555900Y267552D01*
G01X4556676Y268287D01*
G01X4557838Y268287D01*
G01X4563225Y272399D01*
G01X4564819Y272399D01*
G01X4564819Y273603D01*
G01X4567757Y274720D01*
G01X4567757Y275831D01*
G01X4569471Y276207D01*
G01X4571185Y276584D01*
G01X4571509Y277429D01*
G01X4571834Y278274D01*
G01X4574152Y278274D01*
G01X4574521Y278871D01*
G01X4574889Y279467D01*
G01X4576759Y280356D01*
G01X4578628Y281244D01*
G01X4585680Y285315D01*
G01X4589206Y287104D01*
G01X4590087Y287641D01*
G01X4590969Y288177D01*
G01X4591850Y288541D01*
G01X4592732Y288906D01*
G01X4597433Y291698D01*
G01X4602721Y294424D01*
G01X4608010Y297150D01*
G01X4608891Y297600D01*
G01X4609773Y298049D01*
G01X4614707Y300600D01*
G01X4616387Y300600D01*
G01X4617850Y302362D01*
G01X4620500Y302362D01*
G01X4621963Y304125D01*
G01X4623306Y304125D01*
G01X4627692Y306475D01*
G01X4629463Y306475D01*
G01X4633848Y308825D01*
G01X4635629Y308862D01*
G01X4636769Y309725D01*
G01X4637910Y310587D01*
G01X4640480Y310587D01*
G01X4641943Y312350D01*
G01X4644154Y312350D01*
G01X4648539Y314700D01*
G01X4651057Y314700D01*
G01X4651725Y315505D01*
G01X4652394Y316310D01*
G01X4654820Y316635D01*
G01X4657247Y316961D01*
G01X4658083Y318314D01*
G01X4660510Y318639D01*
G01X4662936Y318965D01*
G01X4663605Y319770D01*
G01X4664273Y320575D01*
G01X4667393Y320575D01*
G01X4668552Y321382D01*
G01X4669711Y322190D01*
G01X4672356Y322614D01*
G01X4675000Y323038D01*
G01X4677603Y324687D01*
G01X4679534Y324691D01*
G01X4681464Y324695D01*
G01X4683032Y325512D01*
G01X4684600Y326330D01*
G01X4689493Y327157D01*
G01X4691061Y327975D01*
G01X4692629Y328793D01*
G01X4695308Y328796D01*
G01X4697987Y328800D01*
G01X4699128Y329662D01*
G01X4700268Y330525D01*
G01X4702913Y330547D01*
G01X4705557Y330570D01*
G01X4709083Y332438D01*
G01X4712609Y332743D01*
G01X4716134Y333047D01*
G01X4718737Y334675D01*
G01X4724402Y334675D01*
G01X4727746Y335850D01*
G01X4731090Y337025D01*
G01X4736972Y337025D01*
G01X4739187Y337869D01*
G01X4741403Y338712D01*
G01X4747357Y338915D01*
G01X4753312Y339117D01*
G01X4754115Y339756D01*
G01X4754918Y340395D01*
G01X4766965Y340802D01*
G01X4779011Y341209D01*
G01X4790764Y342878D01*
G01X4795514Y342889D01*
G01X4800264Y342900D01*
G01X4800656Y342508D01*
G01X4801047Y342117D01*
G01X4801047Y178398D01*
G01X4770318Y178398D01*
G01X4767220Y176342D01*
G01X4764121Y174286D01*
G01X4756540Y174286D01*
G01X4749183Y171936D01*
G01X4742509Y171936D01*
G01X4741368Y171073D01*
G01X4740227Y170211D01*
G01X4738465Y170188D01*
G01X4736702Y170166D01*
G01X4735139Y169351D01*
G01X4733576Y168536D01*
G01X4730438Y168107D01*
G01X4727299Y167677D01*
G01X4726140Y166869D01*
G01X4724981Y166061D01*
G01X4720216Y166061D01*
G01X4719056Y165253D01*
G01X4717897Y164446D01*
G01X4715434Y164032D01*
G01X4712970Y163619D01*
G01X4712277Y162784D01*
G01X4711583Y161948D01*
G01X4708345Y161948D01*
G01X4706882Y160186D01*
G01X4705338Y160182D01*
G01X4703794Y160178D01*
G01X4700268Y157843D01*
G01X4699059Y157840D01*
G01X4697849Y157836D01*
G01X4696708Y156973D01*
G01X4695567Y156111D01*
G01X4694287Y156092D01*
G01X4693007Y156073D01*
G01X4691244Y154311D01*
G01X4689646Y154311D01*
G01X4685035Y151961D01*
G01X4683077Y151961D01*
G01X4681614Y150198D01*
G01X4680658Y150194D01*
G01X4679701Y150190D01*
G01X4676175Y147856D01*
G01X4674082Y147848D01*
G01X4673405Y146086D01*
G01X4671339Y146086D01*
G01X4668351Y143736D01*
G01X4666715Y143736D01*
G01X4665403Y142424D01*
G01X4664032Y141627D01*
G01X4662660Y140829D01*
G01X4659134Y138998D01*
G01X4657371Y137848D01*
G01X4655608Y136698D01*
G01X4652670Y135268D01*
G01X4648388Y131985D01*
G01X4647327Y131985D01*
G01X4645962Y130957D01*
G01X4644598Y129929D01*
G01X4643492Y128901D01*
G01X4642387Y127873D01*
G01X4641189Y127873D01*
G01X4638409Y125788D01*
G01X4635629Y123703D01*
G01X4628871Y118647D01*
G01X4622113Y113592D01*
G01X4621232Y112809D01*
G01X4620350Y112026D01*
G01X4614474Y107186D01*
G01X4603987Y97616D01*
G01X4592732Y86313D01*
G01X4588813Y81977D01*
G01X4584895Y77641D01*
G01X4583538Y75879D01*
G01X4582182Y74116D01*
G01X4581550Y73529D01*
G01X4580919Y72941D01*
G01X4578598Y70011D01*
G01X4576278Y67080D01*
G01X4575515Y66192D01*
G01X4574752Y65304D01*
G01X4568345Y56767D01*
G01X4568345Y55735D01*
G01X4566582Y55059D01*
G01X4566582Y53318D01*
G01X4565113Y52378D01*
G01X4562469Y48607D01*
G01X4562469Y47443D01*
G01X4561722Y46973D01*
G01X4560975Y46503D01*
G01X4560106Y44786D01*
G01X4559237Y43069D01*
G01X4558656Y41996D01*
G01X4558076Y40922D01*
G01X4557196Y40922D01*
G01X4555419Y37103D01*
G01X4554252Y35341D01*
G01X4553084Y33578D01*
G01X4551831Y31228D01*
G01X4549031Y26528D01*
G01X4547523Y23480D01*
G01X4546015Y20432D01*
G01X4546015Y19722D01*
G01X4545417Y19013D01*
G01X4544819Y18303D01*
G01X4542479Y13669D01*
G01X4540138Y9034D01*
G01X4540138Y6847D01*
G01X4539009Y6847D01*
G01X4537743Y2147D01*
G01X4536706Y2147D01*
G01X4535875Y-1672D01*
G01X4535068Y-2831D01*
G01X4534262Y-3990D01*
G01X4534262Y-6522D01*
G01X4532622Y-7883D01*
G01X4532218Y-10035D01*
G01X4531814Y-12187D01*
G01X4530982Y-13376D01*
G01X4530149Y-14565D01*
G01X4530111Y-17535D01*
G01X4529249Y-18675D01*
G01X4528386Y-19816D01*
G01X4528386Y-22533D01*
G01X4526035Y-26917D01*
G01X4525998Y-30460D01*
G01X4525135Y-31600D01*
G01X4524272Y-32741D01*
G01X4524272Y-36633D01*
G01X4521922Y-41018D01*
G01X4521901Y-43376D01*
G01X4521880Y-45735D01*
G01X4520201Y-48673D01*
G01X4520180Y-51188D01*
G01X4520159Y-53704D01*
G01X4519274Y-55821D01*
G01X4518389Y-57938D01*
G01X4518019Y-62118D01*
G01X4517648Y-66298D01*
G01X4516422Y-67847D01*
G01X4515695Y-81573D01*
G01X4514854Y-83042D01*
G01X4514012Y-84510D01*
G01X4514096Y-142086D01*
G01X4515071Y-144657D01*
G01X4516046Y-147228D01*
G01X4516046Y-155851D01*
G01X4516864Y-158369D01*
G01X4517682Y-160886D01*
G01X4518444Y-168969D01*
G01X4519302Y-170627D01*
G01X4520159Y-172284D01*
G01X4520159Y-177956D01*
G01X4521750Y-180274D01*
G01X4522409Y-186736D01*
G01X4523337Y-188499D01*
G01X4524265Y-190261D01*
G01X4524287Y-192024D01*
G01X4524310Y-193786D01*
G01X4525173Y-194927D01*
G01X4526035Y-196067D01*
G01X4526035Y-199694D01*
G01X4526898Y-200925D01*
G01X4527760Y-202156D01*
G01X4528146Y-204570D01*
G01X4528532Y-206983D01*
G01X4529341Y-207654D01*
G01X4530149Y-208324D01*
G01X4530149Y-212068D01*
G01X4531011Y-213209D01*
G01X4531874Y-214349D01*
G01X4531912Y-216129D01*
G01X4534262Y-220514D01*
G01X4534262Y-222784D01*
G01X4536025Y-224547D01*
G01X4536025Y-226454D01*
G01X4538576Y-231387D01*
G01X4539067Y-232268D01*
G01X4539558Y-233149D01*
G01X4540197Y-234912D01*
G01X4541343Y-237085D01*
G01X4542489Y-239257D01*
G01X4542489Y-240937D01*
G01X4544252Y-242400D01*
G01X4544252Y-244522D01*
G01X4545056Y-245326D01*
G01X4545860Y-246129D01*
G01X4546303Y-247571D01*
G01X4546746Y-249012D01*
G01X4547386Y-249809D01*
G01X4548026Y-250606D01*
G01X4548730Y-251865D01*
G01X4549434Y-253125D01*
G01X4553164Y-260468D01*
G01X4554114Y-260468D01*
G01X4554511Y-262049D01*
G01X4554908Y-263630D01*
G01X4556632Y-265806D01*
G01X4558355Y-267981D01*
G01X4558355Y-269197D01*
G01X4559090Y-269989D01*
G01X4559824Y-270781D01*
G01X4562469Y-274521D01*
G01X4562469Y-275252D01*
G01X4566582Y-280271D01*
G01X4566582Y-281204D01*
G01X4570695Y-286223D01*
G01X4570695Y-287079D01*
G01X4572899Y-289776D01*
G01X4575103Y-292474D01*
G01X4575984Y-293467D01*
G01X4576866Y-294459D01*
G01X4577493Y-295243D01*
G01X4578120Y-296027D01*
G01X4578668Y-296982D01*
G01X4579216Y-297937D01*
G01X4583917Y-303129D01*
G01X4588618Y-308320D01*
G01X4609799Y-329500D01*
G01X4618475Y-337138D01*
G01X4625051Y-342248D01*
G01X4625639Y-343093D01*
G01X4631646Y-347713D01*
G01X4632994Y-348594D01*
G01X4634343Y-349475D01*
G01X4636184Y-351532D01*
G01X4637145Y-351532D01*
G01X4640917Y-354176D01*
G01X4641279Y-354669D01*
G01X4641640Y-355163D01*
G01X4644443Y-356769D01*
G01X4645708Y-357345D01*
G01X4646973Y-357922D01*
G01X4647789Y-359242D01*
G01X4649054Y-359802D01*
G01X4650320Y-360362D01*
G01X4652083Y-361529D01*
G01X4653845Y-362697D01*
G01X4657371Y-364474D01*
G01X4658253Y-365011D01*
G01X4659134Y-365547D01*
G01X4660016Y-365911D01*
G01X4660897Y-366275D01*
G01X4665598Y-369053D01*
G01X4676175Y-374504D01*
G01X4677938Y-375419D01*
G01X4682872Y-377970D01*
G01X4684552Y-377970D01*
G01X4685252Y-378813D01*
G01X4685953Y-379656D01*
G01X4687675Y-380035D01*
G01X4689397Y-380413D01*
G01X4689397Y-381441D01*
G01X4693775Y-382262D01*
G01X4694566Y-383053D01*
G01X4695357Y-383845D01*
G01X4697950Y-383845D01*
G01X4699139Y-384677D01*
G01X4700328Y-385510D01*
G01X4702502Y-385918D01*
G01X4704676Y-386325D01*
G01X4704676Y-387316D01*
G01X4709083Y-388028D01*
G01X4712202Y-389720D01*
G01X4714670Y-389720D01*
G01X4719055Y-392070D01*
G01X4722598Y-392107D01*
G01X4723739Y-392970D01*
G01X4724880Y-393832D01*
G01X4726677Y-393836D01*
G01X4728475Y-393839D01*
G01X4730238Y-394767D01*
G01X4732001Y-395695D01*
G01X4735233Y-396020D01*
G01X4738465Y-396345D01*
G01X4740051Y-397145D01*
G01X4741638Y-397945D01*
G01X4747044Y-397945D01*
G01X4748763Y-398833D01*
G01X4750481Y-399722D01*
G01X4757856Y-400456D01*
G01X4759479Y-401741D01*
G01X4776661Y-402358D01*
G01X4777542Y-402942D01*
G01X4778424Y-403525D01*
G01X4789589Y-403819D01*
G37*
G36*
G01X4839978Y-344471D02*
G01X4836305Y-344482D01*
G01X4836305Y118473D01*
G01X4855991Y118437D01*
G01X4857086Y117801D01*
G01X4858182Y117164D01*
G01X4864432Y116872D01*
G01X4870682Y116579D01*
G01X4871857Y115853D01*
G01X4873032Y115128D01*
G01X4880084Y114474D01*
G01X4883610Y112605D01*
G01X4886254Y112583D01*
G01X4888898Y112560D01*
G01X4890039Y111698D01*
G01X4891180Y110835D01*
G01X4895073Y110835D01*
G01X4899458Y108485D01*
G01X4902564Y108485D01*
G01X4904027Y106723D01*
G01X4907735Y106723D01*
G01X4910053Y105135D01*
G01X4911816Y104734D01*
G01X4913579Y104332D01*
G01X4917105Y102737D01*
G01X4919814Y101498D01*
G01X4922522Y100260D01*
G01X4923719Y100260D01*
G01X4925182Y98498D01*
G01X4927832Y98498D01*
G01X4929295Y96735D01*
G01X4930975Y96735D01*
G01X4935909Y94185D01*
G01X4937672Y93259D01*
G01X4941198Y91471D01*
G01X4944724Y89683D01*
G01X4945870Y88949D01*
G01X4947016Y88216D01*
G01X4949830Y86307D01*
G01X4952645Y84397D01*
G01X4953256Y84397D01*
G01X4959109Y80285D01*
G01X4960296Y80285D01*
G01X4960296Y79073D01*
G01X4961324Y78691D01*
G01X4962353Y78308D01*
G01X4964115Y77093D01*
G01X4965878Y75879D01*
G01X4966818Y74410D01*
G01X4968261Y74410D01*
G01X4969268Y73235D01*
G01X4970274Y72060D01*
G01X4971951Y72060D01*
G01X4972146Y71533D01*
G01X4972342Y71007D01*
G01X4978219Y66435D01*
G01X4984095Y61863D01*
G01X4994379Y51521D01*
G01X5004662Y41180D01*
G01X5008247Y36961D01*
G01X5009285Y35377D01*
G01X5010323Y33793D01*
G01X5012655Y31462D01*
G01X5015853Y27232D01*
G01X5019050Y23003D01*
G01X5019936Y22073D01*
G01X5020822Y21142D01*
G01X5020822Y20312D01*
G01X5023466Y16541D01*
G01X5024935Y15601D01*
G01X5024935Y13849D01*
G01X5027580Y10078D01*
G01X5027984Y9772D01*
G01X5028388Y9467D01*
G01X5029021Y8010D01*
G01X5029654Y6553D01*
G01X5030806Y4790D01*
G01X5031958Y3028D01*
G01X5033122Y972D01*
G01X5034287Y-1085D01*
G01X5035628Y-4316D01*
G01X5036595Y-4316D01*
G01X5036973Y-6038D01*
G01X5037351Y-7760D01*
G01X5038195Y-8460D01*
G01X5039039Y-9160D01*
G01X5039039Y-11222D01*
G01X5040802Y-12685D01*
G01X5040802Y-14364D01*
G01X5043359Y-19297D01*
G01X5044755Y-22235D01*
G01X5045158Y-23921D01*
G01X5045561Y-25608D01*
G01X5046413Y-26460D01*
G01X5047265Y-27313D01*
G01X5047284Y-28592D01*
G01X5047303Y-29872D01*
G01X5048166Y-31013D01*
G01X5049028Y-32153D01*
G01X5049028Y-35192D01*
G01X5049835Y-36351D01*
G01X5050641Y-37510D01*
G01X5051494Y-41622D01*
G01X5052318Y-42924D01*
G01X5053142Y-44225D01*
G01X5053142Y-48117D01*
G01X5053942Y-49276D01*
G01X5054743Y-50435D01*
G01X5055154Y-53229D01*
G01X5055565Y-56023D01*
G01X5056407Y-57635D01*
G01X5057248Y-59248D01*
G01X5057252Y-61926D01*
G01X5057255Y-64604D01*
G01X5058118Y-65745D01*
G01X5058981Y-66885D01*
G01X5059070Y-73935D01*
G01X5060855Y-78635D01*
G01X5061845Y-96261D01*
G01X5063132Y-99568D01*
G01X5063132Y-125056D01*
G01X5061857Y-129161D01*
G01X5060959Y-147039D01*
G01X5060240Y-147905D01*
G01X5059520Y-148772D01*
G01X5059184Y-153360D01*
G01X5058847Y-157949D01*
G01X5057255Y-160266D01*
G01X5057255Y-165938D01*
G01X5056364Y-167662D01*
G01X5055473Y-169385D01*
G01X5055101Y-172186D01*
G01X5054729Y-174986D01*
G01X5053936Y-176145D01*
G01X5053142Y-177304D01*
G01X5053142Y-180894D01*
G01X5052334Y-182053D01*
G01X5051526Y-183211D01*
G01X5051107Y-185708D01*
G01X5050688Y-188205D01*
G01X5049669Y-188205D01*
G01X5049260Y-190408D01*
G01X5048851Y-192611D01*
G01X5048102Y-193786D01*
G01X5047352Y-194961D01*
G01X5046547Y-199368D01*
G01X5045556Y-199368D01*
G01X5045174Y-201403D01*
G01X5044792Y-203438D01*
G01X5043152Y-204799D01*
G01X5043153Y-205755D01*
G01X5043155Y-206712D01*
G01X5036001Y-220812D01*
G01X5033763Y-224337D01*
G01X5033420Y-225218D01*
G01X5033077Y-226099D01*
G01X5032520Y-226981D01*
G01X5031963Y-227862D01*
G01X5031077Y-229624D01*
G01X5030191Y-231387D01*
G01X5025536Y-238437D01*
G01X5024939Y-239803D01*
G01X5024343Y-241169D01*
G01X5022879Y-242749D01*
G01X5021821Y-244118D01*
G01X5020764Y-245487D01*
G01X5017708Y-249687D01*
G01X5014652Y-253887D01*
G01X5012889Y-256524D01*
G01X5011559Y-258002D01*
G01X5010229Y-259481D01*
G01X5007446Y-262704D01*
G01X5004662Y-265926D01*
G01X5002605Y-268278D01*
G01X5000549Y-270631D01*
G01X4995216Y-275978D01*
G01X4989884Y-281325D01*
G01X4985520Y-285132D01*
G01X4981157Y-288940D01*
G01X4980863Y-289285D01*
G01X4980569Y-289630D01*
G01X4974562Y-294250D01*
G01X4971881Y-296012D01*
G01X4970349Y-297406D01*
G01X4968817Y-298799D01*
G01X4965878Y-300655D01*
G01X4962269Y-303475D01*
G01X4958660Y-306294D01*
G01X4957540Y-306294D01*
G01X4955413Y-308644D01*
G01X4953832Y-308644D01*
G01X4953832Y-309704D01*
G01X4950600Y-311041D01*
G01X4947074Y-312938D01*
G01X4946780Y-313313D01*
G01X4946486Y-313689D01*
G01X4935321Y-319279D01*
G01X4934440Y-319794D01*
G01X4933559Y-320309D01*
G01X4932677Y-320653D01*
G01X4931796Y-320997D01*
G01X4925355Y-324506D01*
G01X4923500Y-324506D01*
G01X4922359Y-325369D01*
G01X4921218Y-326232D01*
G01X4919438Y-326269D01*
G01X4915052Y-328619D01*
G01X4912842Y-328619D01*
G01X4911378Y-330382D01*
G01X4909834Y-330385D01*
G01X4908290Y-330389D01*
G01X4904765Y-332724D01*
G01X4903261Y-332728D01*
G01X4901757Y-332732D01*
G01X4900617Y-333594D01*
G01X4899476Y-334457D01*
G01X4895918Y-334494D01*
G01X4893558Y-336147D01*
G01X4890640Y-336576D01*
G01X4887723Y-337006D01*
G01X4886564Y-337806D01*
G01X4885405Y-338607D01*
G01X4882157Y-338610D01*
G01X4878909Y-338614D01*
G01X4877411Y-339395D01*
G01X4875913Y-340177D01*
G01X4867087Y-340923D01*
G01X4864937Y-341821D01*
G01X4862787Y-342719D01*
G01X4854228Y-342724D01*
G01X4848939Y-343592D01*
G01X4843651Y-344461D01*
G01X4839978Y-344471D01*
G37*
G36*
G01X4819267Y118473D02*
G01X4819119Y1119D01*
G01X4818970Y-116236D01*
G01X4579804Y-116236D01*
G01X4579639Y-108401D01*
G01X4579475Y-100566D01*
G01X4580753Y-94498D01*
G01X4581898Y-78635D01*
G01X4582555Y-77474D01*
G01X4583212Y-76313D01*
G01X4583456Y-72187D01*
G01X4583700Y-68060D01*
G01X4585300Y-63948D01*
G01X4585593Y-61010D01*
G01X4585887Y-58073D01*
G01X4586808Y-56310D01*
G01X4587729Y-54548D01*
G01X4587752Y-52491D01*
G01X4587774Y-50435D01*
G01X4588637Y-49295D01*
G01X4589500Y-48154D01*
G01X4589500Y-44262D01*
G01X4591850Y-39877D01*
G01X4591888Y-37510D01*
G01X4592750Y-36370D01*
G01X4593613Y-35229D01*
G01X4593633Y-34020D01*
G01X4593653Y-32810D01*
G01X4595924Y-28110D01*
G01X4595944Y-27334D01*
G01X4595964Y-26557D01*
G01X4597726Y-24795D01*
G01X4597726Y-22085D01*
G01X4599366Y-20724D01*
G01X4599737Y-18748D01*
G01X4600108Y-16772D01*
G01X4600974Y-16053D01*
G01X4601840Y-15335D01*
G01X4601840Y-12685D01*
G01X4603603Y-11222D01*
G01X4603603Y-9495D01*
G01X4605953Y-6507D01*
G01X4605953Y-4460D01*
G01X4607716Y-2997D01*
G01X4607716Y-1270D01*
G01X4610067Y1718D01*
G01X4610067Y3322D01*
G01X4610948Y3329D01*
G01X4612095Y5235D01*
G01X4613243Y7140D01*
G01X4614767Y10078D01*
G01X4617101Y13603D01*
G01X4618265Y16247D01*
G01X4619354Y16247D01*
G01X4619968Y18009D01*
G01X4620583Y19772D01*
G01X4621819Y19772D01*
G01X4621819Y21142D01*
G01X4622706Y22073D01*
G01X4623592Y23003D01*
G01X4626919Y27409D01*
G01X4630247Y31816D01*
G01X4631708Y32991D01*
G01X4633081Y35047D01*
G01X4634455Y37103D01*
G01X4636217Y39140D01*
G01X4637979Y41176D01*
G01X4648263Y51489D01*
G01X4658546Y61802D01*
G01X4664129Y66153D01*
G01X4669711Y70505D01*
G01X4670364Y71282D01*
G01X4671016Y72060D01*
G01X4671716Y72060D01*
G01X4675627Y74714D01*
G01X4676489Y75454D01*
G01X4677351Y76194D01*
G01X4678763Y77358D01*
G01X4680175Y78522D01*
G01X4681795Y78522D01*
G01X4682471Y80285D01*
G01X4683390Y80285D01*
G01X4693159Y86748D01*
G01X4694686Y86748D01*
G01X4694686Y87808D01*
G01X4697918Y89112D01*
G01X4702619Y91923D01*
G01X4705557Y93459D01*
G01X4708495Y94994D01*
G01X4710258Y96148D01*
G01X4713196Y97320D01*
G01X4714959Y98297D01*
G01X4719893Y100848D01*
G01X4722161Y100848D01*
G01X4723624Y102610D01*
G01X4726531Y102610D01*
G01X4728090Y103420D01*
G01X4729650Y104229D01*
G01X4732893Y105476D01*
G01X4736137Y106723D01*
G01X4738497Y106723D01*
G01X4739656Y107517D01*
G01X4740815Y108312D01*
G01X4745654Y109062D01*
G01X4749042Y110828D01*
G01X4750839Y110832D01*
G01X4752637Y110835D01*
G01X4753778Y111698D01*
G01X4754918Y112560D01*
G01X4759652Y112598D01*
G01X4760950Y113507D01*
G01X4762247Y114416D01*
G01X4766558Y114899D01*
G01X4770869Y115382D01*
G01X4772110Y116046D01*
G01X4773351Y116710D01*
G01X4777650Y116736D01*
G01X4781949Y116762D01*
G01X4784300Y117608D01*
G01X4786650Y118455D01*
G01X4802959Y118464D01*
G01X4819267Y118473D01*
G37*
G36*
G01X4737991Y-322879D02*
G01X4736043Y-323693D01*
G01X4734095Y-324506D01*
G01X4717182Y-324503D01*
G01X4700268Y-324499D01*
G01X4698671Y-323666D01*
G01X4697074Y-322833D01*
G01X4693676Y-322415D01*
G01X4690279Y-321998D01*
G01X4687960Y-320394D01*
G01X4684958Y-320394D01*
G01X4682639Y-318798D01*
G01X4680495Y-318405D01*
G01X4678350Y-318013D01*
G01X4677632Y-317147D01*
G01X4676913Y-316281D01*
G01X4674263Y-316281D01*
G01X4672800Y-314519D01*
G01X4670662Y-314519D01*
G01X4670262Y-313871D01*
G01X4669862Y-313224D01*
G01X4668024Y-312362D01*
G01X4666186Y-311500D01*
G01X4664423Y-310569D01*
G01X4662660Y-309637D01*
G01X4662366Y-309286D01*
G01X4662072Y-308934D01*
G01X4656784Y-305413D01*
G01X4655355Y-304238D01*
G01X4653827Y-303063D01*
G01X4646794Y-297291D01*
G01X4643090Y-293420D01*
G01X4639385Y-289550D01*
G01X4637239Y-286759D01*
G01X4635093Y-283969D01*
G01X4634160Y-283969D01*
G01X4634160Y-282899D01*
G01X4632586Y-280496D01*
G01X4631013Y-278094D01*
G01X4630046Y-278094D01*
G01X4630046Y-276390D01*
G01X4628304Y-273809D01*
G01X4626561Y-271227D01*
G01X4625348Y-268400D01*
G01X4624370Y-266637D01*
G01X4621819Y-261704D01*
G01X4621819Y-259437D01*
G01X4620057Y-257974D01*
G01X4620057Y-254870D01*
G01X4617706Y-250485D01*
G01X4617706Y-246327D01*
G01X4616077Y-243724D01*
G01X4615457Y-233898D01*
G01X4614180Y-232621D01*
G01X4614180Y-211041D01*
G01X4615454Y-208661D01*
G01X4615767Y-204161D01*
G01X4616079Y-199662D01*
G01X4617706Y-197059D01*
G01X4617706Y-192594D01*
G01X4620057Y-188209D01*
G01X4620094Y-186149D01*
G01X4620957Y-185008D01*
G01X4621819Y-183868D01*
G01X4621819Y-181805D01*
G01X4624819Y-176161D01*
G01X4625933Y-175045D01*
G01X4625933Y-172822D01*
G01X4628283Y-169834D01*
G01X4628283Y-168328D01*
G01X4628724Y-168132D01*
G01X4629165Y-167936D01*
G01X4630907Y-165292D01*
G01X4632649Y-162649D01*
G01X4636474Y-157655D01*
G01X4640298Y-152661D01*
G01X4644721Y-148250D01*
G01X4649144Y-143839D01*
G01X4653258Y-140657D01*
G01X4657371Y-137474D01*
G01X4658546Y-136197D01*
G01X4661485Y-134730D01*
G01X4663248Y-133570D01*
G01X4665010Y-132410D01*
G01X4666377Y-131811D01*
G01X4667743Y-131213D01*
G01X4668622Y-130334D01*
G01X4669502Y-129455D01*
G01X4671624Y-129455D01*
G01X4673087Y-127692D01*
G01X4674711Y-127692D01*
G01X4679096Y-125342D01*
G01X4681533Y-125342D01*
G01X4682674Y-124479D01*
G01X4683815Y-123617D01*
G01X4685578Y-123595D01*
G01X4687340Y-123572D01*
G01X4689103Y-122651D01*
G01X4690866Y-121730D01*
G01X4696743Y-121065D01*
G01X4698329Y-120266D01*
G01X4699916Y-119467D01*
G01X4717427Y-119490D01*
G01X4734939Y-119514D01*
G01X4737877Y-121067D01*
G01X4740815Y-121399D01*
G01X4743753Y-121730D01*
G01X4745516Y-122651D01*
G01X4747279Y-123572D01*
G01X4749411Y-123576D01*
G01X4751542Y-123580D01*
G01X4752211Y-124385D01*
G01X4752879Y-125190D01*
G01X4755205Y-125502D01*
G01X4757530Y-125813D01*
G01X4758470Y-126753D01*
G01X4759409Y-127692D01*
G01X4762138Y-127692D01*
G01X4762814Y-129455D01*
G01X4765720Y-129455D01*
G01X4766063Y-130009D01*
G01X4766406Y-130564D01*
G01X4771595Y-133558D01*
G01X4776784Y-136552D01*
G01X4778174Y-137847D01*
G01X4779564Y-139142D01*
G01X4781605Y-140526D01*
G01X4783645Y-141911D01*
G01X4785644Y-143761D01*
G01X4787642Y-145611D01*
G01X4790378Y-148301D01*
G01X4793114Y-150990D01*
G01X4796053Y-154411D01*
G01X4798991Y-158110D01*
G01X4800754Y-160775D01*
G01X4802810Y-162616D01*
G01X4802810Y-163471D01*
G01X4804553Y-166052D01*
G01X4806295Y-168634D01*
G01X4806889Y-170194D01*
G01X4807482Y-171755D01*
G01X4808687Y-171755D01*
G01X4808687Y-173947D01*
G01X4811037Y-176934D01*
G01X4811037Y-179429D01*
G01X4812800Y-180106D01*
G01X4812800Y-182656D01*
G01X4813606Y-183815D01*
G01X4814413Y-184974D01*
G01X4815301Y-189086D01*
G01X4816107Y-190245D01*
G01X4816913Y-191404D01*
G01X4816913Y-195581D01*
G01X4817711Y-196740D01*
G01X4818508Y-197899D01*
G01X4818909Y-202435D01*
G01X4819310Y-206972D01*
G01X4821027Y-211080D01*
G01X4821027Y-231718D01*
G01X4820201Y-233694D01*
G01X4819376Y-235669D01*
G01X4818521Y-244899D01*
G01X4817717Y-246058D01*
G01X4816913Y-247217D01*
G01X4816913Y-251982D01*
G01X4816107Y-253141D01*
G01X4815301Y-254300D01*
G01X4814413Y-258412D01*
G01X4813606Y-259571D01*
G01X4812800Y-260730D01*
G01X4812800Y-263262D01*
G01X4811976Y-263946D01*
G01X4811152Y-264629D01*
G01X4810772Y-266145D01*
G01X4810392Y-267660D01*
G01X4809539Y-268513D01*
G01X4808687Y-269365D01*
G01X4808687Y-271631D01*
G01X4807482Y-271631D01*
G01X4806889Y-273192D01*
G01X4806295Y-274752D01*
G01X4804553Y-277334D01*
G01X4802810Y-279915D01*
G01X4802810Y-280603D01*
G01X4794149Y-291312D01*
G01X4788312Y-297248D01*
G01X4779011Y-304723D01*
G01X4778359Y-305508D01*
G01X4777706Y-306294D01*
G01X4777057Y-306294D01*
G01X4770811Y-310406D01*
G01X4769374Y-310406D01*
G01X4768434Y-311881D01*
G01X4763733Y-314125D01*
G01X4759032Y-316368D01*
G01X4756859Y-317499D01*
G01X4754685Y-318631D01*
G01X4751830Y-318631D01*
G01X4750367Y-320394D01*
G01X4748823Y-320398D01*
G01X4747279Y-320401D01*
G01X4745716Y-321216D01*
G01X4744153Y-322032D01*
G01X4741072Y-322455D01*
G01X4737991Y-322879D01*
G37*
G36*
G01X2315430Y-145611D02*
G01X2311757Y-164852D01*
G01X2308084Y-184093D01*
G01X2285852Y-184093D01*
G01X2286160Y-182771D01*
G01X2286468Y-181449D01*
G01X2297458Y-123873D01*
G01X2319073Y-123873D01*
G01X2319544Y-124755D01*
G01X2364135Y-124755D01*
G01X2364162Y-124314D01*
G01X2364190Y-123873D01*
G01X2342130Y-7907D01*
G01X2341629Y-8408D01*
G01X2330351Y-66141D01*
G01X2330351Y-66141D01*
G01X2319073Y-123873D01*
G01X2297458Y-123873D01*
G01X2324429Y17422D01*
G01X2356821Y17422D01*
G01X2375863Y-82014D01*
G01X2394905Y-181449D01*
G01X2395160Y-182771D01*
G01X2395416Y-184093D01*
G01X2374933Y-184093D01*
G01X2371103Y-163971D01*
G01X2367274Y-143848D01*
G01X2341653Y-143695D01*
G01X2316032Y-143542D01*
G01X2315731Y-144577D01*
G01X2315430Y-145611D01*
G37*
G36*
G01X2535701Y-184093D02*
G01X2502838Y-184093D01*
G01X2502230Y-181449D01*
G01X2483718Y-82348D01*
G01X2465207Y16752D01*
G01X2465207Y17422D01*
G01X2485775Y17422D01*
G01X2485775Y16320D01*
G01X2501349Y-67583D01*
G01X2516923Y-151486D01*
G01X2518271Y-157949D01*
G01X2519070Y-155011D01*
G01X2551266Y17422D01*
G01X2573999Y17422D01*
G01X2573688Y16394D01*
G01X2573377Y15366D01*
G01X2536317Y-181449D01*
G01X2535701Y-184093D01*
G37*
G36*
G01X4104111Y-184093D02*
G01X4082376Y-184093D01*
G01X4082228Y-93470D01*
G01X4082079Y-2847D01*
G01X4063421Y-2692D01*
G01X4044764Y-2537D01*
G01X4044764Y17422D01*
G01X4141724Y17422D01*
G01X4141724Y-2537D01*
G01X4123066Y-2692D01*
G01X4104409Y-2847D01*
G01X4104260Y-93470D01*
G01X4104111Y-184093D01*
G37*
G36*
G01X2180793Y-184093D02*
G01X2158463Y-184093D01*
G01X2158463Y-2553D01*
G01X2121442Y-2553D01*
G01X2121442Y17422D01*
G01X2217814Y17422D01*
G01X2217814Y-2553D01*
G01X2180793Y-2553D01*
G01X2180793Y-184093D01*
G37*
G36*
G01X3075663Y17285D02*
G01X3089861Y17443D01*
G01X3089861Y-184093D01*
G01X3069886Y-184093D01*
G01X3069588Y-21388D01*
G01X3046113Y-95543D01*
G01X3022639Y-169699D01*
G01X3018088Y-184093D01*
G01X2994665Y-184093D01*
G01X2994665Y17422D01*
G01X3014639Y17422D01*
G01X3014938Y-128116D01*
G01X3038202Y-55494D01*
G01X3061466Y17128D01*
G01X3075663Y17285D01*
G37*
G36*
G01X2885701Y17128D02*
G01X2914159Y17443D01*
G01X2914159Y-184093D01*
G01X2894183Y-184093D01*
G01X2893886Y-21194D01*
G01X2869539Y-98090D01*
G01X2845192Y-174986D01*
G01X2842326Y-184093D01*
G01X2818962Y-184093D01*
G01X2818962Y17422D01*
G01X2838937Y17422D01*
G01X2839236Y-127932D01*
G01X2885701Y17128D01*
G37*
G36*
G01X1746279Y17128D02*
G01X1774739Y17443D01*
G01X1774739Y-184093D01*
G01X1754764Y-184093D01*
G01X1754466Y-21184D01*
G01X1730117Y-98085D01*
G01X1705767Y-174986D01*
G01X1702906Y-184093D01*
G01X1679543Y-184093D01*
G01X1679543Y17422D01*
G01X1699518Y17422D01*
G01X1699816Y-127896D01*
G01X1723047Y-55384D01*
G01X1746279Y17128D01*
G37*
G36*
G01X1911951Y-185302D02*
G01X1900231Y-186440D01*
G01X1893935Y-185846D01*
G01X1887641Y-185253D01*
G01X1883636Y-184018D01*
G01X1879632Y-182783D01*
G01X1876367Y-181137D01*
G01X1873102Y-179491D01*
G01X1866442Y-174066D01*
G01X1863851Y-170414D01*
G01X1861260Y-166761D01*
G01X1859494Y-163236D01*
G01X1857727Y-159711D01*
G01X1856745Y-156480D01*
G01X1855763Y-153249D01*
G01X1853930Y-144436D01*
G01X1853660Y-90692D01*
G01X1853390Y-36948D01*
G01X1854312Y-22822D01*
G01X1876106Y-22822D01*
G01X1876106Y-143848D01*
G01X1878193Y-151486D01*
G01X1881059Y-157361D01*
G01X1882863Y-159538D01*
G01X1884668Y-161714D01*
G01X1888601Y-163650D01*
G01X1892535Y-165586D01*
G01X1892535Y-165586D01*
G01X1907250Y-165586D01*
G01X1910509Y-164058D01*
G01X1913768Y-162530D01*
G01X1915928Y-160634D01*
G01X1918088Y-158737D01*
G01X1919876Y-155613D01*
G01X1921664Y-152488D01*
G01X1922831Y-147927D01*
G01X1923998Y-143367D01*
G01X1923983Y-83682D01*
G01X1923969Y-23997D01*
G01X1922830Y-18710D01*
G01X1920858Y-12665D01*
G01X1918755Y-9518D01*
G01X1916652Y-6372D01*
G01X1913790Y-4460D01*
G01X1910929Y-2548D01*
G01X1908208Y-1680D01*
G01X1905487Y-812D01*
G01X1899023Y-964D01*
G01X1892559Y-1117D01*
G01X1885913Y-4200D01*
G01X1883633Y-6549D01*
G01X1881352Y-8898D01*
G01X1879773Y-12042D01*
G01X1878194Y-15185D01*
G01X1876106Y-22822D01*
G01X1854312Y-22822D01*
G01X1854619Y-18122D01*
G01X1855764Y-13669D01*
G01X1856908Y-9217D01*
G01X1858489Y-5444D01*
G01X1860069Y-1672D01*
G01X1865305Y6230D01*
G01X1871405Y11616D01*
G01X1875217Y13766D01*
G01X1879029Y15916D01*
G01X1883738Y17340D01*
G01X1888446Y18764D01*
G01X1898436Y18951D01*
G01X1908426Y19138D01*
G01X1912245Y18338D01*
G01X1916065Y17537D01*
G01X1920049Y16030D01*
G01X1924033Y14524D01*
G01X1927211Y12415D01*
G01X1930388Y10306D01*
G01X1933919Y6533D01*
G01X1937450Y2759D01*
G01X1940132Y-2688D01*
G01X1942814Y-8135D01*
G01X1943992Y-12815D01*
G01X1945170Y-17496D01*
G01X1945744Y-23978D01*
G01X1946318Y-30460D01*
G01X1946303Y-83629D01*
G01X1946288Y-136798D01*
G01X1945215Y-148697D01*
G01X1943980Y-153617D01*
G01X1942746Y-158536D01*
G01X1937263Y-169699D01*
G01X1932540Y-174467D01*
G01X1927817Y-179235D01*
G01X1923410Y-181340D01*
G01X1919003Y-183445D01*
G01X1915477Y-184373D01*
G01X1911951Y-185302D01*
G37*
G36*
G01X2706145Y-185227D02*
G01X2693797Y-186483D01*
G01X2681162Y-185215D01*
G01X2675580Y-183314D01*
G01X2669997Y-181413D01*
G01X2663238Y-176927D01*
G01X2659770Y-173143D01*
G01X2656301Y-169359D01*
G01X2653589Y-163947D01*
G01X2650878Y-158536D01*
G01X2648574Y-149342D01*
G01X2647974Y-144554D01*
G01X2647374Y-139767D01*
G01X2647377Y-26935D01*
G01X2647603Y-25094D01*
G01X2669704Y-25094D01*
G01X2669704Y-142303D01*
G01X2670584Y-146489D01*
G01X2671465Y-150674D01*
G01X2674606Y-157311D01*
G01X2679109Y-162196D01*
G01X2682780Y-163891D01*
G01X2686451Y-165586D01*
G01X2686451Y-165586D01*
G01X2701142Y-165586D01*
G01X2704461Y-164030D01*
G01X2707780Y-162475D01*
G01X2710043Y-160196D01*
G01X2712307Y-157918D01*
G01X2713913Y-154934D01*
G01X2715520Y-151950D01*
G01X2717596Y-144436D01*
G01X2717596Y-22822D01*
G01X2716844Y-19628D01*
G01X2716092Y-16433D01*
G01X2714254Y-12702D01*
G01X2712417Y-8971D01*
G01X2707666Y-4221D01*
G01X2705442Y-3086D01*
G01X2703217Y-1951D01*
G01X2701004Y-1430D01*
G01X2698791Y-909D01*
G01X2693662Y-850D01*
G01X2688533Y-791D01*
G01X2684716Y-2044D01*
G01X2680898Y-3296D01*
G01X2678580Y-5281D01*
G01X2676262Y-7265D01*
G01X2674569Y-10050D01*
G01X2672877Y-12835D01*
G01X2671912Y-15478D01*
G01X2670946Y-18122D01*
G01X2670325Y-21608D01*
G01X2669704Y-25094D01*
G01X2647603Y-25094D01*
G01X2648025Y-21647D01*
G01X2648673Y-16360D01*
G01X2650112Y-11395D01*
G01X2651550Y-6430D01*
G01X2653901Y-1913D01*
G01X2656251Y2604D01*
G01X2659528Y6224D01*
G01X2662805Y9844D01*
G01X2669410Y14305D01*
G01X2673423Y15901D01*
G01X2677435Y17496D01*
G01X2686261Y19184D01*
G01X2694289Y19129D01*
G01X2702317Y19074D01*
G01X2706137Y18304D01*
G01X2709956Y17534D01*
G01X2713188Y16304D01*
G01X2716420Y15074D01*
G01X2719368Y13377D01*
G01X2722315Y11681D01*
G01X2725369Y8935D01*
G01X2728423Y6190D01*
G01X2730988Y2259D01*
G01X2733554Y-1672D01*
G01X2735164Y-5476D01*
G01X2736775Y-9280D01*
G01X2738035Y-13995D01*
G01X2739295Y-18710D01*
G01X2739488Y-80398D01*
G01X2739682Y-142086D01*
G01X2738783Y-147790D01*
G01X2737884Y-153494D01*
G01X2736619Y-157190D01*
G01X2735355Y-160886D01*
G01X2733737Y-164117D01*
G01X2732120Y-167349D01*
G01X2726740Y-174647D01*
G01X2723343Y-177314D01*
G01X2719946Y-179980D01*
G01X2716958Y-181395D01*
G01X2713971Y-182810D01*
G01X2710058Y-184019D01*
G01X2706145Y-185227D01*
G37*
G36*
G01X3619906Y17422D02*
G01X3642236Y17422D01*
G01X3642236Y-184093D01*
G01X3619906Y-184093D01*
G01X3619906Y-93016D01*
G01X3595078Y-93170D01*
G01X3570251Y-93323D01*
G01X3570100Y-138708D01*
G01X3569950Y-184093D01*
G01X3548215Y-184093D01*
G01X3548215Y17422D01*
G01X3569957Y17422D01*
G01X3569957Y-73642D01*
G01X3619906Y-73642D01*
G01X3619906Y17422D01*
G37*
G36*
G01X3416291Y17415D02*
G01X3466534Y17422D01*
G01X3466534Y-184093D01*
G01X3444799Y-184093D01*
G01X3444497Y-98023D01*
G01X3433039Y-98071D01*
G01X3421580Y-98118D01*
G01X3417908Y-99086D01*
G01X3414236Y-100055D01*
G01X3411738Y-101313D01*
G01X3409239Y-102571D01*
G01X3404504Y-106408D01*
G01X3402925Y-109309D01*
G01X3401345Y-112211D01*
G01X3400355Y-115692D01*
G01X3399365Y-119173D01*
G01X3398950Y-146786D01*
G01X3398535Y-174399D01*
G01X3397146Y-179099D01*
G01X3395333Y-184093D01*
G01X3372974Y-184093D01*
G01X3373404Y-183064D01*
G01X3373834Y-182036D01*
G01X3376216Y-174986D01*
G01X3376683Y-147080D01*
G01X3377151Y-119173D01*
G01X3377742Y-116041D01*
G01X3378333Y-112910D01*
G01X3379292Y-109612D01*
G01X3380251Y-106314D01*
G01X3382111Y-102465D01*
G01X3383971Y-98615D01*
G01X3391023Y-91560D01*
G01X3394842Y-89693D01*
G01X3398662Y-87826D01*
G01X3400278Y-87426D01*
G01X3401894Y-87027D01*
G01X3401894Y-85979D01*
G01X3400392Y-85979D01*
G01X3396075Y-83911D01*
G01X3391759Y-81843D01*
G01X3383867Y-73935D01*
G01X3380117Y-66058D01*
G01X3377538Y-56898D01*
G01X3377547Y-36629D01*
G01X3377552Y-26935D01*
G01X3398839Y-26935D01*
G01X3399357Y-58660D01*
G01X3400619Y-62529D01*
G01X3401881Y-66398D01*
G01X3403648Y-68835D01*
G01X3405414Y-71273D01*
G01X3410415Y-74439D01*
G01X3414822Y-75919D01*
G01X3419229Y-77398D01*
G01X3419229Y-77398D01*
G01X3444791Y-77853D01*
G01X3444791Y-3337D01*
G01X3444399Y-2945D01*
G01X3444008Y-2553D01*
G01X3432500Y-2558D01*
G01X3420992Y-2562D01*
G01X3413430Y-3789D01*
G01X3410684Y-4970D01*
G01X3407938Y-6151D01*
G01X3405837Y-8318D01*
G01X3403736Y-10485D01*
G01X3402166Y-13629D01*
G01X3400596Y-16774D01*
G01X3399718Y-21854D01*
G01X3398839Y-26935D01*
G01X3377552Y-26935D01*
G01X3377556Y-16360D01*
G01X3378851Y-11660D01*
G01X3380145Y-6960D01*
G01X3385054Y3028D01*
G01X3388332Y6300D01*
G01X3391610Y9571D01*
G01X3394478Y11247D01*
G01X3397346Y12923D01*
G01X3405058Y15722D01*
G01X3410675Y16568D01*
G01X3416291Y17415D01*
G37*
G36*
G01X1565248Y-185903D02*
G01X1559959Y-186250D01*
G01X1554671Y-186596D01*
G01X1544548Y-185245D01*
G01X1541089Y-184366D01*
G01X1537629Y-183487D01*
G01X1533516Y-181475D01*
G01X1529402Y-179462D01*
G01X1526058Y-176473D01*
G01X1522713Y-173484D01*
G01X1520058Y-169492D01*
G01X1517403Y-165499D01*
G01X1515657Y-161136D01*
G01X1513911Y-156774D01*
G01X1511369Y-144436D01*
G01X1511942Y-123873D01*
G01X1513174Y-119782D01*
G01X1514407Y-115690D01*
G01X1518596Y-106871D01*
G01X1521943Y-101873D01*
G01X1525289Y-96876D01*
G01X1538217Y-83866D01*
G01X1555846Y-69677D01*
G01X1560975Y-64862D01*
G01X1566103Y-60047D01*
G01X1569734Y-55241D01*
G01X1573365Y-50435D01*
G01X1577301Y-42177D01*
G01X1578179Y-37588D01*
G01X1579057Y-33000D01*
G01X1579057Y-24982D01*
G01X1578194Y-20469D01*
G01X1577330Y-15955D01*
G01X1575918Y-12926D01*
G01X1574505Y-9897D01*
G01X1570902Y-5012D01*
G01X1566912Y-3048D01*
G01X1562922Y-1085D01*
G01X1548794Y-1085D01*
G01X1541775Y-4371D01*
G01X1539514Y-6372D01*
G01X1537652Y-9310D01*
G01X1535791Y-12247D01*
G01X1534834Y-14891D01*
G01X1533877Y-17535D01*
G01X1533256Y-21021D01*
G01X1532634Y-24507D01*
G01X1532634Y-36041D01*
G01X1511300Y-36041D01*
G01X1511674Y-27669D01*
G01X1512047Y-19297D01*
G01X1514331Y-9310D01*
G01X1516101Y-5058D01*
G01X1517871Y-806D01*
G01X1519983Y2376D01*
G01X1522095Y5557D01*
G01X1528815Y12223D01*
G01X1533516Y14523D01*
G01X1538217Y16823D01*
G01X1545269Y18743D01*
G01X1564660Y19139D01*
G01X1568480Y18336D01*
G01X1572300Y17534D01*
G01X1575560Y16305D01*
G01X1578821Y15076D01*
G01X1581619Y13302D01*
G01X1584416Y11528D01*
G01X1587315Y8818D01*
G01X1590213Y6107D01*
G01X1594989Y-1453D01*
G01X1596676Y-5675D01*
G01X1598362Y-9897D01*
G01X1600493Y-19885D01*
G01X1600506Y-40447D01*
G01X1598334Y-49848D01*
G01X1593943Y-59248D01*
G01X1591810Y-62565D01*
G01X1589676Y-65883D01*
G01X1586169Y-70241D01*
G01X1582663Y-74599D01*
G01X1578648Y-78380D01*
G01X1574633Y-82160D01*
G01X1565827Y-89466D01*
G01X1557021Y-96772D01*
G01X1542829Y-110948D01*
G01X1539851Y-115457D01*
G01X1536873Y-119965D01*
G01X1535643Y-123682D01*
G01X1534413Y-127398D01*
G01X1533786Y-131955D01*
G01X1533158Y-136513D01*
G01X1533796Y-142237D01*
G01X1534433Y-147961D01*
G01X1536313Y-153933D01*
G01X1540567Y-160299D01*
G01X1543433Y-162213D01*
G01X1546298Y-164128D01*
G01X1552825Y-166025D01*
G01X1558743Y-165754D01*
G01X1564660Y-165484D01*
G01X1567989Y-163900D01*
G01X1571318Y-162317D01*
G01X1575878Y-157758D01*
G01X1577508Y-154430D01*
G01X1579138Y-151103D01*
G01X1579969Y-147182D01*
G01X1580800Y-143261D01*
G01X1580810Y-134008D01*
G01X1580820Y-124755D01*
G01X1601975Y-124755D01*
G01X1601970Y-130776D01*
G01X1601965Y-136798D01*
G01X1601386Y-143261D01*
G01X1600807Y-149724D01*
G01X1599351Y-155138D01*
G01X1597895Y-160552D01*
G01X1595563Y-165125D01*
G01X1593231Y-169699D01*
G01X1590699Y-172792D01*
G01X1588166Y-175885D01*
G01X1584723Y-178442D01*
G01X1581281Y-180999D01*
G01X1573640Y-184136D01*
G01X1569444Y-185020D01*
G01X1565248Y-185903D01*
G37*
G36*
G01X3772445Y-185850D02*
G01X3766226Y-186483D01*
G01X3753877Y-185227D01*
G01X3745953Y-182802D01*
G01X3741968Y-180721D01*
G01X3737982Y-178640D01*
G01X3731581Y-172239D01*
G01X3729209Y-168619D01*
G01X3726837Y-164999D01*
G01X3725024Y-160313D01*
G01X3723212Y-155627D01*
G01X3722305Y-151794D01*
G01X3721398Y-147961D01*
G01X3720879Y-110654D01*
G01X3742133Y-110654D01*
G01X3742133Y-143954D01*
G01X3744485Y-153147D01*
G01X3745948Y-155643D01*
G01X3747411Y-158139D01*
G01X3750433Y-161730D01*
G01X3754351Y-163658D01*
G01X3758268Y-165586D01*
G01X3772984Y-165586D01*
G01X3775822Y-164277D01*
G01X3778660Y-162967D01*
G01X3782974Y-159533D01*
G01X3784873Y-156380D01*
G01X3786772Y-153227D01*
G01X3788077Y-148538D01*
G01X3789383Y-143848D01*
G01X3789803Y-33525D01*
G01X3789217Y-26670D01*
G01X3788632Y-19814D01*
G01X3786023Y-12247D01*
G01X3783134Y-7653D01*
G01X3781291Y-5918D01*
G01X3779448Y-4184D01*
G01X3772984Y-1128D01*
G01X3767037Y-896D01*
G01X3761090Y-663D01*
G01X3757929Y-1585D01*
G01X3754767Y-2506D01*
G01X3752090Y-4207D01*
G01X3749412Y-5909D01*
G01X3747325Y-9078D01*
G01X3745238Y-12247D01*
G01X3743862Y-16066D01*
G01X3742486Y-19885D01*
G01X3742257Y-34426D01*
G01X3742028Y-48966D01*
G01X3720979Y-48966D01*
G01X3720983Y-23410D01*
G01X3721796Y-18416D01*
G01X3722609Y-13422D01*
G01X3725757Y-4022D01*
G01X3727872Y-203D01*
G01X3729987Y3615D01*
G01X3734444Y8075D01*
G01X3738901Y12535D01*
G01X3747716Y16817D01*
G01X3754767Y18743D01*
G01X3774159Y19139D01*
G01X3777979Y18336D01*
G01X3781799Y17534D01*
G01X3785116Y16283D01*
G01X3788434Y15033D01*
G01X3795872Y10226D01*
G01X3799229Y6797D01*
G01X3802586Y3367D01*
G01X3805273Y-2090D01*
G01X3807960Y-7547D01*
G01X3809088Y-12033D01*
G01X3810216Y-16518D01*
G01X3810879Y-22314D01*
G01X3811543Y-28110D01*
G01X3811332Y-87154D01*
G01X3811120Y-146199D01*
G01X3809895Y-151486D01*
G01X3808669Y-156774D01*
G01X3807050Y-160792D01*
G01X3805431Y-164810D01*
G01X3802682Y-169017D01*
G01X3799933Y-173224D01*
G01X3793569Y-178939D01*
G01X3787675Y-182341D01*
G01X3783169Y-183779D01*
G01X3778664Y-185218D01*
G01X3772445Y-185850D01*
G37*
G36*
G01X3888454Y17422D02*
G01X3971310Y17422D01*
G01X3971310Y-184093D01*
G01X3888454Y-184093D01*
G01X3888454Y-164117D01*
G01X3948980Y-164117D01*
G01X3948980Y-91854D01*
G01X3899619Y-91854D01*
G01X3899619Y-71879D01*
G01X3948980Y-71879D01*
G01X3948980Y-2553D01*
G01X3888454Y-2553D01*
G01X3888454Y17422D01*
G37*
G36*
G01X3170954Y17422D02*
G01X3192697Y17422D01*
G01X3192697Y-184093D01*
G01X3170954Y-184093D01*
G01X3170954Y17422D01*
G37*
G36*
G01X2025658Y17422D02*
G01X2047401Y17422D01*
G01X2047401Y-184093D01*
G01X2025658Y-184093D01*
G01X2025658Y17422D01*
G37*
G04 Image End*

G04 Pad Start*
G54D10*
G01X2882900Y-711200D03*
G54D11*
G01X3136900Y-711200D03*
G01X3390900Y-711200D03*
G01X3644900Y-711200D03*
G54D12*
G01X4822012Y-5213706D03*
G01X4572000Y-5213706D03*
G01X4322013Y-5213706D03*
G54D13*
G01X4096995Y-4463694D03*
G01X5047005Y-4463694D03*
G54D14*
G01X1754200Y-850900D03*
G54D15*
G01X1954200Y-850900D03*
G54D16*
G01X2666200Y582600D03*
G01X3836200Y582600D03*
G54D17*
G01X3601199Y382600D03*
G01X3351213Y382600D03*
G01X3151213Y382600D03*
G01X2901201Y382600D03*
G54D19*
G01X3721811Y-5251209D03*
G54D20*
G01X3721811Y-4833226D03*
G01X2856789Y-4833226D03*
G54D19*
G01X2856789Y-5251209D03*
G04 Pad End*

M02*

