G04 Layer: BottomLayer*
G04 EasyEDA Pro v2.2.45.4, 2026-01-30 15:44:45*
G04 Gerber Generator version 0.3*
G04 Scale: 100 percent, Rotated: No, Reflected: No*
G04 Dimensions in millimeters*
G04 Leading zeros omitted, absolute positions, 4 integers and 5 decimals*
G04 Generated by one-click*
%FSLAX45Y45*%
%MOMM*%
%ADD10R,1.7X1.7*%
%ADD11C,1.7*%
%ADD12O,2.79999X2.0*%
%ADD13R,1.5X1.4*%
%ADD14C,1.4*%
%ADD15O,1.4X2.99999*%
%ADD16C,0.6*%
%ADD17O,1.0X1.6*%
%ADD18C,0.6150*%
%ADD19C,0.61*%
%ADD20C,0.6096*%
%ADD21C,0.254*%
%ADD22C,0.5*%
%ADD23C,0.4*%
G75*


G04 Pad Start*
G54D10*
G01X4203700Y-622300D03*
G54D11*
G01X4457700Y-622300D03*
G01X4711700Y-622300D03*
G01X4965700Y-622300D03*
G01X3107512Y-6394806D03*
G01X2857500Y-6394806D03*
G01X2607513Y-6394806D03*
G54D12*
G01X2382495Y-5644794D03*
G01X3332505Y-5644794D03*
G54D13*
G01X2614600Y-3263900D03*
G54D14*
G01X2414600Y-3263900D03*
G54D15*
G01X4012402Y760199D03*
G01X5182400Y760199D03*
G54D16*
G01X4342803Y-5874652D03*
G01X4902797Y-5874652D03*
G01X4862817Y-5944654D03*
G01X4382808Y-5944654D03*
G01X4782833Y-5944654D03*
G01X4462818Y-5944654D03*
G01X4702823Y-5944654D03*
G01X4542803Y-5944654D03*
G01X4742802Y-5874652D03*
G01X4502823Y-5874652D03*
G01X4662818Y-5874652D03*
G01X4582808Y-5874652D03*
G54D17*
G01X5035791Y-5934646D03*
G01X4209809Y-5934646D03*
G01X5071809Y-6373660D03*
G01X4173792Y-6373660D03*
G54D10*
G01X863600Y-6413500D03*
G54D11*
G01X863600Y-6159500D03*
G01X1117600Y-6413500D03*
G01X1117600Y-6159500D03*
G01X1371600Y-6413500D03*
G01X1371600Y-6159500D03*
G01X1625600Y-6413500D03*
G01X1625600Y-6159500D03*
G04 Pad End*

G04 Via Start*
G54D19*
G01X4419600Y-1778000D03*
G01X4800600Y-2857500D03*
G01X4692528Y-1778000D03*
G01X5276096Y-2197100D03*
G01X4673600Y-1930400D03*
G01X5956300Y-2692400D03*
G01X6324600Y-2032000D03*
G01X5969000Y-2806700D03*
G01X5080000Y-2603500D03*
G01X5499100Y-2616200D03*
G01X4864100Y-2540000D03*
G01X5499100Y-2959100D03*
G01X4826000Y-2616200D03*
G01X5511800Y-2705100D03*
G01X6096000Y-2235200D03*
G01X3022600Y-4813300D03*
G01X2921000Y-4635500D03*
G01X4572000Y-5575300D03*
G01X4356100Y-5524500D03*
G01X3632200Y-2806700D03*
G01X5435600Y-4406900D03*
G01X2451100Y-4610100D03*
G01X2679700Y-4635500D03*
G01X3873500Y-2057400D03*
G01X4129300Y-2235200D03*
G01X5689600Y88900D03*
G01X3343320Y-2514600D03*
G01X5118100Y-1993900D03*
G01X4483100Y-3263900D03*
G01X4305300Y-3048000D03*
G01X4991100Y-3403600D03*
G01X4116600Y-2311400D03*
G01X5041900Y-876300D03*
G01X4394200Y-3644900D03*
G01X4876800Y-3492500D03*
G01X6261100Y-1612900D03*
G01X5384800Y-1003300D03*
G01X4610100Y-812800D03*
G01X3898900Y-825500D03*
G01X4143500Y-2596700D03*
G01X4216400Y-2032000D03*
G01X4013200Y-1041400D03*
G01X4089400Y-1295400D03*
G01X3995420Y-1384300D03*
G01X5486400Y-4521200D03*
G01X3924300Y-3390900D03*
G01X4002007Y-3224293D03*
G01X4292600Y-3187700D03*
G01X4724400Y-4737100D03*
G01X4105349Y-2527300D03*
G01X4622800Y-5511800D03*
G01X4727595Y-5508605D03*
G01X3898900Y-1308100D03*
G01X4000500Y-3898900D03*
G01X3594100Y-4584700D03*
G01X4114800Y-3886200D03*
G01X3975100Y-3644900D03*
G01X3435390Y-3638510D03*
G01X3220617Y-3327237D03*
G01X4876800Y-952500D03*
G01X4165600Y-1447800D03*
G01X3898900Y-2362200D03*
G01X3619500Y-1295400D03*
G01X3995420Y-39074D03*
G01X3746500Y101600D03*
G01X5283200Y-177800D03*
G01X3759200Y-2590800D03*
G01X3559195Y-2746395D03*
G01X4508500Y-2120900D03*
G01X3746500Y-2463800D03*
G01X3149600Y-1803400D03*
G01X4800600Y-1117600D03*
G01X4343598Y-2576633D03*
G01X3733800Y-2959100D03*
G01X3515360Y-2941320D03*
G01X3289300Y-2781300D03*
G01X4288364Y-2689086D03*
G01X3797300Y-3035300D03*
G01X3505200Y-3022600D03*
G01X3276600Y-2857500D03*
G01X2146300Y-4927600D03*
G01X3898900Y393700D03*
G01X4384819Y-2642976D03*
G01X3873500Y-3098800D03*
G01X3644900Y-3111500D03*
G01X3276604Y-2555433D03*
G01X2997200Y-2171700D03*
G01X4518961Y-2632597D03*
G01X3937000Y-3175000D03*
G01X3657600Y-3200400D03*
G01X3221913Y-2921327D03*
G01X2527300Y-4927600D03*
G01X2451100Y-4927600D03*
G01X2984500Y-3263900D03*
G01X3190895Y-3476605D03*
G01X3517900Y-3683000D03*
G01X3771900Y-3683000D03*
G01X3708684Y-3557752D03*
G01X4241800Y-3708400D03*
G01X5562600Y-3600600D03*
G01X6781800Y-3314700D03*
G01X4025900Y-2305202D03*
G01X3708400Y-2184400D03*
G01X3949649Y-2544902D03*
G01X4692802Y-2933700D03*
G01X3606800Y-3733800D03*
G01X3644900Y-3886200D03*
G01X3441700Y-3556000D03*
G01X3416300Y-3276600D03*
G01X3213100Y-2705100D03*
G01X3670300Y-2730500D03*
G01X3949700Y-2844800D03*
G01X4749800Y-2628900D03*
G01X4348221Y-2392421D03*
G01X4521200Y-1053490D03*
G01X4267200Y-939800D03*
G01X2679700Y-2057400D03*
G01X2374900Y-4927600D03*
G01X2571750Y-2051050D03*
G01X2298700Y-4927600D03*
G01X2222500Y-4927600D03*
G01X1930400Y-5816600D03*
G01X2476500Y-5143500D03*
G01X2514600Y-5346700D03*
G01X2400300Y-5880100D03*
G01X2806700Y-3759200D03*
G01X2578100Y-3822700D03*
G01X3070567Y-3735737D03*
G01X2997200Y-3454400D03*
G01X2387600Y-4064000D03*
G54D20*
G01X4705415Y-2370717D03*
G01X4705415Y-2270717D03*
G01X4505441Y-2370691D03*
G01X4505441Y-2270717D03*
G01X4705415Y-2470716D03*
G01X4505415Y-2470716D03*
G01X4605415Y-2370717D03*
G01X4605466Y-2470666D03*
G01X4605415Y-2270717D03*
G04 Via End*

G04 Track Start*
G54D21*
G01X5276096Y-2197100D02*
G01X4940300Y-2197100D01*
G01X4673600Y-1930400D01*
G01X5956300Y-2692400D02*
G01X6324600Y-2324100D01*
G01X6324600Y-2032000D01*
G01X5816600Y-2806700D02*
G01X5969000Y-2806700D01*
G01X5080000Y-2603500D02*
G01X5092700Y-2616200D01*
G01X5499100Y-2616200D02*
G01X5422900Y-2540000D01*
G01X4864100Y-2540000D01*
G01X5010110Y-2616200D02*
G01X4826000Y-2616200D01*
G01X5499100Y-2959100D02*
G01X5201900Y-2661900D01*
G01X5055810Y-2661900D01*
G01X5010110Y-2616200D01*
G01X5778500Y-2768600D02*
G01X5816600Y-2806700D01*
G01X5092700Y-2616200D02*
G01X5321300Y-2616200D01*
G01X5473700Y-2768600D01*
G01X5778500Y-2768600D01*
G01X5511800Y-2705100D02*
G01X5981700Y-2235200D01*
G01X6096000Y-2235200D01*
G01X3022600Y-4813300D02*
G01X2921000Y-4711700D01*
G01X2921000Y-4635500D01*
G01X4572000Y-5575300D02*
G01X4521200Y-5524500D01*
G01X4356100Y-5524500D01*
G54D22*
G01X4991100Y-3403600D02*
G01X5060697Y-3473197D01*
G01X5060697Y-4031997D01*
G01X5435600Y-4406900D01*
G54D23*
G01X2451100Y-4610100D02*
G01X2654300Y-4610100D01*
G01X2679700Y-4635500D01*
G54D22*
G01X4991100Y-3403600D02*
G01X6324600Y-3403600D01*
G01X6781800Y-2946400D01*
G01X6781800Y-2184400D01*
G01X6451600Y-1854200D02*
G01X6019800Y-1854200D01*
G01X5219700Y-1054100D02*
G01X5219700Y-292100D01*
G01X5150103Y-222503D01*
G01X4578097Y-222503D01*
G01X4457700Y-342900D02*
G01X4457700Y-622300D01*
G01X6781800Y-2184400D02*
G01X6451600Y-1854200D01*
G01X4578097Y-222503D02*
G01X4457700Y-342900D01*
G01X5219700Y-292100D02*
G01X5308600Y-292100D01*
G54D21*
G01X5118100Y-1993900D02*
G01X5118100Y-1852098D01*
G01X5567899Y-1402299D01*
G54D22*
G01X6019800Y-1854200D02*
G01X5567899Y-1402299D01*
G54D21*
G01X3873500Y-2057400D02*
G01X4103900Y-2057400D01*
G01X4118646Y-2021800D02*
G01X3964900Y-2021800D01*
G01X3924300Y-1981200D01*
G01X4187700Y-2259390D02*
G01X4187700Y-2090854D01*
G01X4118646Y-2021800D01*
G01X3924300Y-1981200D02*
G01X3924300Y-1549400D01*
G01X4394200Y-3644900D02*
G01X4724400Y-3644900D01*
G01X4876800Y-3492500D01*
G54D23*
G01X6261100Y-1612900D02*
G01X5651500Y-1003300D01*
G01X5384800Y-1003300D01*
G01X4610100Y-812800D02*
G01X3911600Y-812800D01*
G01X3898900Y-825500D01*
G54D21*
G01X4013200Y-1041400D02*
G01X4013200Y-1219200D01*
G01X4089400Y-1295400D01*
G01X3995420Y-1251766D02*
G01X3840500Y-1096846D01*
G01X3840500Y-801310D01*
G01X3995420Y-646390D01*
G01X5486400Y-4521200D02*
G01X5430500Y-4465300D01*
G01X5411410Y-4465300D01*
G01X5353010Y-4406900D01*
G01X5207000Y-4406900D01*
G01X4503400Y-3703300D01*
G54D22*
G01X3632200Y-2806700D02*
G01X3632200Y-2971800D01*
G01X4064000Y-3403600D02*
G01X4991100Y-3403600D01*
G54D21*
G01X4483100Y-3263900D02*
G01X4305300Y-3086100D01*
G01X4305300Y-3048000D01*
G01X4662818Y-5874652D02*
G01X4662818Y-5551818D01*
G01X4622800Y-5511800D01*
G01X3309439Y-4236539D02*
G01X3309439Y-3677739D01*
G01X3327400Y-4254500D02*
G01X3309439Y-4236539D01*
G01X3473490Y-4254500D02*
G01X3327400Y-4254500D01*
G01X4727595Y-5508605D02*
G01X3473490Y-4254500D01*
G01X3594100Y-1231900D02*
G01X3822700Y-1231900D01*
G01X3898900Y-1308100D01*
G01X4622800Y-5511800D02*
G01X3403600Y-4292600D01*
G01X3263900Y-4292600D01*
G01X3238500Y-4267200D01*
G01X3238500Y-3657146D01*
G01X3579354Y-1196300D02*
G01X3837446Y-1196300D01*
G01X3890846Y-1249700D01*
G01X3923090Y-1249700D01*
G01X3995420Y-1322030D01*
G01X3995420Y-1384300D01*
G01X3995420Y-1322030D02*
G01X3995420Y-1251766D01*
G54D23*
G01X3853200Y-3328610D02*
G01X3863469Y-3318341D01*
G01X3863469Y-3203069D01*
G01X4000500Y-3898900D02*
G01X3853200Y-3751600D01*
G01X3853200Y-3328610D01*
G54D22*
G01X3632200Y-2971800D02*
G01X3863469Y-3203069D01*
G01X4064000Y-3403600D01*
G54D21*
G01X4503400Y-3703300D02*
G01X4236700Y-3703300D01*
G01X3924300Y-3390900D01*
G01X2857500Y-6394806D02*
G01X3594100Y-5658206D01*
G01X3594100Y-4584700D01*
G01X4876800Y-952500D02*
G01X4381500Y-1447800D01*
G01X4165600Y-1447800D01*
G01X4103900Y-2057400D02*
G01X4129300Y-2082800D01*
G01X4129300Y-2235200D01*
G01X3815100Y-2081590D02*
G01X3815100Y-2033210D01*
G01X3849310Y-1999000D01*
G01X3856154Y-1999000D01*
G01X3888700Y-1966454D01*
G01X3888700Y-1564600D01*
G01X3619500Y-1295400D01*
G01X3995420Y-646390D02*
G01X3995420Y-39074D01*
G01X3746500Y101600D02*
G01X5003800Y101600D01*
G01X5283200Y-177800D01*
G01X4813300Y-1816100D02*
G01X4813300Y-1574800D01*
G01X4508500Y-2120900D02*
G01X4615200Y-2014200D01*
G01X4615200Y-1906210D01*
G01X4649410Y-1872000D01*
G01X4757400Y-1872000D01*
G01X4813300Y-1816100D01*
G01X4813300Y-1574800D02*
G01X4795339Y-1556839D01*
G01X4274639Y-1556839D01*
G01X4165600Y-1447800D01*
G01X4116600Y-2311400D02*
G01X4135690Y-2311400D01*
G01X4187700Y-2259390D01*
G01X3898900Y-2362200D02*
G01X3898900Y-2165390D01*
G01X3815100Y-2081590D01*
G01X3746500Y-2463800D02*
G01X3149600Y-1866900D01*
G01X3149600Y-1803400D01*
G01X4800600Y-1117600D02*
G01X5283200Y-1117600D01*
G54D22*
G01X5283200Y-1117600D02*
G01X5219700Y-1054100D01*
G01X5283200Y-1117600D02*
G01X5567899Y-1402299D01*
G54D21*
G01X3515360Y-2941320D02*
G01X3355340Y-2781300D01*
G01X3289300Y-2781300D01*
G01X3505200Y-3022600D02*
G01X3340100Y-2857500D01*
G01X3276600Y-2857500D01*
G54D22*
G01X5308600Y-292100D02*
G01X5508608Y-92092D01*
G01X5689600Y88900D01*
G54D23*
G01X3898900Y393700D02*
G01X4076700Y215900D01*
G01X5200616Y215900D01*
G01X5508608Y-92092D01*
G54D21*
G01X4346764Y-2713276D02*
G01X4312554Y-2747486D01*
G01X4267857Y-2747486D01*
G01X3916543Y-3098800D01*
G01X3873500Y-3098800D01*
G01X3644900Y-3111500D02*
G01X3573760Y-3040360D01*
G01X3573760Y-2917130D01*
G01X3361730Y-2705100D01*
G01X3327400Y-2705100D01*
G01X3434100Y-2456200D02*
G01X3252410Y-2456200D01*
G01X3517900Y-2540000D02*
G01X3434100Y-2456200D01*
G01X3708400Y-2540000D02*
G01X3517900Y-2540000D01*
G01X3327400Y-2705100D02*
G01X3276604Y-2654304D01*
G01X3276604Y-2555433D01*
G01X3091200Y-1734800D02*
G01X3594100Y-1231900D01*
G01X3055600Y-1720054D02*
G01X3579354Y-1196300D01*
G01X4327300Y-2783086D02*
G01X4303514Y-2783086D01*
G01X4444456Y-2665929D02*
G01X4327300Y-2783086D01*
G01X4002007Y-3224293D02*
G01X4256007Y-3224293D01*
G01X4292600Y-3187700D01*
G01X4303514Y-2783086D02*
G01X3937000Y-3149600D01*
G01X3937000Y-3175000D01*
G01X3657600Y-3200400D02*
G01X3500986Y-3200400D01*
G01X3221913Y-2921327D01*
G01X3190895Y-3476605D02*
G01X3430291Y-3716000D01*
G01X4114800Y-3886200D02*
G01X3975100Y-3746500D01*
G01X3975100Y-3644900D01*
G01X3771900Y-3683000D02*
G01X3771900Y-3620968D01*
G01X3708684Y-3557752D01*
G01X4653300Y-2830890D02*
G01X4687510Y-2865100D01*
G01X4735890Y-2865100D01*
G01X4743490Y-2857500D01*
G01X4800600Y-2857500D01*
G01X4025900Y-2305202D02*
G01X3957300Y-2373802D01*
G01X3957300Y-2386390D01*
G01X3923090Y-2420600D01*
G01X3874710Y-2420600D01*
G01X3840500Y-2386390D01*
G01X3840500Y-2316500D01*
G01X3708400Y-2184400D01*
G01X3721100Y-2527300D02*
G01X3708400Y-2540000D01*
G01X3915166Y-2603500D02*
G01X3838966Y-2527300D01*
G01X3721100Y-2527300D01*
G01X4105349Y-2527300D02*
G01X4029149Y-2603500D01*
G01X3915166Y-2603500D01*
G01X3949649Y-2544902D02*
G01X4025900Y-2468651D01*
G01X4025900Y-2305202D01*
G01X4859000Y-2881690D02*
G01X4824790Y-2915900D01*
G01X4776410Y-2915900D01*
G01X4761210Y-2900700D01*
G01X4725802Y-2900700D01*
G01X4692802Y-2933700D01*
G01X3430291Y-3716000D02*
G01X3491290Y-3716000D01*
G01X3517900Y-3689390D01*
G01X3517900Y-3683000D01*
G01X3606800Y-3733800D02*
G01X3644900Y-3771900D01*
G01X3644900Y-3886200D01*
G01X3606800Y-3733800D02*
G01X3606800Y-3689310D01*
G01X3542090Y-3624600D01*
G01X3435390Y-3638510D02*
G01X3220617Y-3423736D01*
G01X3220617Y-3327237D01*
G01X3542090Y-3624600D02*
G01X3510300Y-3624600D01*
G01X3441700Y-3556000D01*
G01X3238500Y-3657146D02*
G01X3055600Y-3474246D01*
G01X3055600Y-1720054D01*
G01X3309439Y-3677739D02*
G01X3091200Y-3459500D01*
G01X3091200Y-1734800D01*
G01X3252410Y-2456200D02*
G01X3126800Y-2581810D01*
G01X3126800Y-3139500D01*
G01X4724400Y-4737100D01*
G01X3416300Y-3276600D02*
G01X3416300Y-3198304D01*
G01X3163513Y-2945517D01*
G01X3163513Y-2754687D01*
G01X3213100Y-2705100D01*
G01X3343320Y-2514600D02*
G01X3343320Y-2619420D01*
G01X3530600Y-2806700D01*
G01X3632200Y-2806700D01*
G01X3759200Y-2590800D02*
G01X3714790Y-2590800D01*
G01X3559195Y-2746395D01*
G01X4288364Y-2689086D02*
G01X4252443Y-2689086D01*
G01X3906229Y-3035300D01*
G01X3797300Y-3035300D01*
G01X3920353Y-2959100D02*
G01X3733800Y-2959100D01*
G01X3670300Y-2730500D02*
G01X3835400Y-2730500D01*
G01X3949700Y-2844800D01*
G01X4419600Y-1778000D02*
G01X4394200Y-1803400D01*
G01X4653300Y-2751509D02*
G01X4653300Y-2830890D01*
G01X4534354Y-2565400D02*
G01X4597400Y-2628446D01*
G01X4597400Y-2695609D01*
G01X4653300Y-2751509D01*
G01X4518961Y-2632597D02*
G01X4485628Y-2665929D01*
G01X4444456Y-2665929D01*
G01X4384819Y-2642976D02*
G01X4346764Y-2681031D01*
G01X4346764Y-2713276D01*
G01X4343598Y-2576633D02*
G01X4302819Y-2576633D01*
G01X3920353Y-2959100D01*
G01X4635500Y-2609810D02*
G01X4859000Y-2833310D01*
G01X4859000Y-2881690D01*
G54D23*
G01X4705415Y-2270717D02*
G01X4705415Y-2370717D01*
G01X4705415Y-2470716D01*
G01X4605415Y-2270717D02*
G01X4705415Y-2270717D01*
G01X4505441Y-2370691D02*
G01X4505441Y-2270717D01*
G01X4505441Y-2470691D02*
G01X4505441Y-2370691D01*
G01X4505441Y-2270717D02*
G01X4605415Y-2270717D01*
G54D21*
G01X4705415Y-2470716D02*
G01X4635500Y-2540631D01*
G01X4635500Y-2609810D01*
G54D23*
G01X4605415Y-2370717D02*
G01X4605415Y-2470615D01*
G01X4605415Y-2270717D02*
G01X4605415Y-2370717D01*
G54D21*
G01X4767600Y-2592010D02*
G01X4775200Y-2584410D01*
G01X4775200Y-2171700D01*
G01X4749800Y-2628900D02*
G01X4767600Y-2611100D01*
G01X4767600Y-2592010D01*
G01X4775200Y-2171700D02*
G01X4757239Y-2153739D01*
G01X4558251Y-2153739D01*
G01X4493735Y-1976793D02*
G01X4692528Y-1778000D01*
G01X4532690Y-2179300D02*
G01X4484310Y-2179300D01*
G01X4450100Y-2145090D01*
G01X4450100Y-2096710D01*
G01X4493735Y-2053075D01*
G01X4493735Y-1976793D01*
G01X4558251Y-2153739D02*
G01X4532690Y-2179300D01*
G01X4447060Y-2540000D02*
G01X4472460Y-2565400D01*
G01X4534354Y-2565400D01*
G01X4394200Y-1803400D02*
G01X4394200Y-2146300D01*
G01X4447060Y-2199160D01*
G01X4447060Y-2540000D01*
G01X4411461Y-2213906D02*
G01X4229554Y-2032000D01*
G01X4216400Y-2032000D01*
G01X4143500Y-2596700D02*
G01X4232407Y-2596700D01*
G01X4411461Y-2417646D01*
G01X4411461Y-2213906D01*
G01X4025900Y-2305202D02*
G01X4113119Y-2392421D01*
G01X4348221Y-2392421D01*
G01X3924300Y-1549400D02*
G01X4187700Y-1286000D01*
G01X4187700Y-930400D01*
G01X4241800Y-876300D01*
G01X5041900Y-876300D01*
G01X4521200Y-1053490D02*
G01X4407510Y-939800D01*
G01X4267200Y-939800D01*
G01X2451100Y-4927600D02*
G01X2451100Y-4692690D01*
G01X2679700Y-2057400D02*
G01X2679700Y-3144544D01*
G01X2717500Y-3182344D01*
G01X2997200Y-2171700D02*
G01X2876590Y-2171700D01*
G01X2703890Y-1999000D01*
G01X2602290Y-1999000D01*
G01X2576890Y-1973600D01*
G01X2528510Y-1973600D01*
G01X1117600Y-6159500D02*
G01X2146300Y-5130800D01*
G01X2146300Y-4927600D01*
G01X2222500Y-4927600D02*
G01X2222500Y-5308600D01*
G01X1371600Y-6159500D01*
G01X2298700Y-4927600D02*
G01X2298700Y-5282746D01*
G01X1422400Y-6286500D02*
G01X1244600Y-6286500D01*
G01X1117600Y-6413500D01*
G01X2298700Y-5282746D02*
G01X1498600Y-6082846D01*
G01X1498600Y-6210300D01*
G01X1422400Y-6286500D01*
G01X1687700Y-5945000D02*
G01X2400300Y-5232400D01*
G01X1371600Y-6413500D02*
G01X1371600Y-6387646D01*
G01X1486846Y-6272400D01*
G01X1672365Y-6272400D01*
G01X1738500Y-6206265D01*
G01X1738500Y-6112735D01*
G01X1687700Y-6061935D01*
G01X1687700Y-5945000D01*
G01X2400300Y-5232400D02*
G01X2400300Y-4984790D01*
G01X2433300Y-4951790D01*
G01X2433300Y-4945400D01*
G01X2451100Y-4927600D01*
G01X1930400Y-5816600D02*
G01X2476500Y-5270500D01*
G01X2476500Y-5143500D01*
G01X2527300Y-5334000D02*
G01X2514600Y-5346700D01*
G01X2527300Y-4927600D02*
G01X2527300Y-5111710D01*
G01X2534900Y-5119310D01*
G01X2534900Y-5167690D01*
G01X2527300Y-5175290D01*
G01X2527300Y-5334000D01*
G01X2400300Y-5880100D02*
G01X1866900Y-6413500D01*
G01X1625600Y-6413500D01*
G01X2806700Y-3759200D02*
G01X2641600Y-3759200D01*
G01X2578100Y-3822700D01*
G01X3070567Y-3735737D02*
G01X3070567Y-3539558D01*
G01X3020000Y-3488992D01*
G01X3020000Y-3477200D01*
G01X2997200Y-3454400D01*
G01X2501900Y-2933700D02*
G01X2209800Y-3225800D01*
G01X2209800Y-4914900D01*
G01X2222500Y-4927600D01*
G01X2717500Y-3182344D02*
G01X2717500Y-3345456D01*
G01X2374900Y-4826000D02*
G01X2374900Y-4927600D01*
G01X2298700Y-4902200D02*
G01X2298700Y-4927600D01*
G01X2245400Y-3294649D02*
G01X2245400Y-4848900D01*
G01X2298700Y-4902200D01*
G01X2717500Y-3345456D02*
G01X2281000Y-3781956D01*
G01X2281000Y-4732100D01*
G01X2374900Y-4826000D01*
G01X2451100Y-4692690D02*
G01X2316600Y-4558190D01*
G01X2316600Y-3931800D01*
G01X2984500Y-3263900D01*
G01X2387600Y-4064000D02*
G01X2578100Y-3873500D01*
G01X2578100Y-3822700D01*
G01X2571750Y-2051050D02*
G01X2571750Y-2968299D01*
G01X2245400Y-3294649D01*
G01X2528510Y-1973600D02*
G01X2501900Y-2000210D01*
G01X2501900Y-2933700D01*
G04 Track End*

M02*

