G04 Layer: BottomLayer*
G04 EasyEDA Pro v2.2.45.4, 2026-01-19 10:00:02*
G04 Gerber Generator version 0.3*
G04 Scale: 100 percent, Rotated: No, Reflected: No*
G04 Dimensions in millimeters*
G04 Leading zeros omitted, absolute positions, 4 integers and 5 decimals*
G04 Generated by one-click*
%FSLAX45Y45*%
%MOMM*%
%ADD10R,1.7X1.7*%
%ADD11C,1.7*%
%ADD12O,2.79999X2.0*%
%ADD13R,1.5X1.4*%
%ADD14C,1.4*%
%ADD15O,2.0X3.49999*%
%ADD16C,1.6*%
%ADD17O,1.2026X1.8*%
%ADD18O,1.2X1.8*%
%ADD19O,1.2X2.0*%
%ADD20C,0.61*%
%ADD21C,0.254*%
%ADD22C,0.6*%
G75*


G04 Pad Start*
G54D10*
G01X2882900Y-711200D03*
G54D11*
G01X3136900Y-711200D03*
G01X3390900Y-711200D03*
G01X3644900Y-711200D03*
G01X4822012Y-5213706D03*
G01X4572000Y-5213706D03*
G01X4322013Y-5213706D03*
G54D12*
G01X4096995Y-4463694D03*
G01X5047005Y-4463694D03*
G54D13*
G01X1754200Y-850900D03*
G54D14*
G01X1954200Y-850900D03*
G54D15*
G01X2666200Y582600D03*
G01X3836200Y582600D03*
G54D16*
G01X3601199Y382600D03*
G01X3351213Y382600D03*
G01X3151213Y382600D03*
G01X2901201Y382600D03*
G54D18*
G01X3721811Y-5251209D03*
G54D19*
G01X3721811Y-4833226D03*
G01X2856789Y-4833226D03*
G54D18*
G01X2856789Y-5251209D03*
G04 Pad End*

G04 Via Start*
G54D20*
G01X2285136Y-2540000D03*
G01X4876800Y-1588770D03*
G01X4609236Y-2641600D03*
G01X4812436Y-2387600D03*
G01X4553102Y-1498600D03*
G01X4781702Y-1574800D03*
G01X2698902Y-863600D03*
G01X4166464Y-3670300D03*
G01X4547464Y-3568700D03*
G01X5154600Y-2622296D03*
G01X4951400Y-2419096D03*
G01X4660900Y-1842364D03*
G01X4838700Y-1461364D03*
G01X2795295Y-2882405D03*
G01X3021305Y-3441205D03*
G01X2538705Y-3923805D03*
G01X2427453Y-4390657D03*
G01X3402305Y-926605D03*
G01X3656305Y-926605D03*
G01X2294296Y-1977205D03*
G01X2268532Y-2337204D03*
G01X2312264Y-3580933D03*
G01X4621505Y-1460005D03*
G01X4621505Y-1129805D03*
G01X2846095Y-4025405D03*
G01X3340506Y-4609605D03*
G01X3328695Y-952005D03*
G01X2744495Y-4025405D03*
G01X3201695Y-4609605D03*
G01X3049295Y-926605D03*
G01X2541295Y-2155114D03*
G01X2261895Y-2459914D03*
G01X2223399Y-3703211D03*
G01X4443395Y-2638842D03*
G01X5054600Y-2272030D03*
G01X4648200Y-2235200D03*
G01X5257800Y-1968500D03*
G01X4241800Y-1447800D03*
G01X4749800Y-1092200D03*
G01X3467100Y-4318000D03*
G01X3175000Y-3898900D03*
G01X1828800Y-2641600D03*
G01X1968500Y-2984500D03*
G01X2273300Y-3175000D03*
G01X2997200Y-2425700D03*
G01X2527300Y-1346200D03*
G01X2730500Y-1371600D03*
G01X2768600Y-2260600D03*
G04 Via End*

G04 Track Start*
G54D21*
G01X2285136Y-2540000D02*
G01X3123336Y-1701800D01*
G01X4763770Y-1701800D01*
G01X4876800Y-1588770D01*
G01X4609236Y-2641600D02*
G01X4609236Y-2590800D01*
G01X4629302Y-1574800D02*
G01X4781702Y-1574800D01*
G01X2597302Y-965200D02*
G01X1868500Y-965200D01*
G01X4166464Y-3670300D02*
G01X4445864Y-3670300D01*
G01X4547464Y-3568700D01*
G01X5154600Y-2622296D02*
G01X4951400Y-2419096D01*
G01X4660900Y-1842364D02*
G01X4711700Y-1842364D01*
G01X4940300Y-1562964D02*
G01X4838700Y-1461364D01*
G01X2795295Y-2882405D02*
G01X4572000Y-4659109D01*
G01X4572000Y-5213706D01*
G01X3021305Y-3441205D02*
G01X2538705Y-3923805D01*
G01X2538705Y-4279405D02*
G01X2427453Y-4390657D01*
G01X3402305Y-722605D02*
G01X3390900Y-711200D01*
G01X3656305Y-926605D02*
G01X3656305Y-722605D01*
G01X3644900Y-711200D01*
G54D22*
G01X2294296Y-1977205D02*
G01X2328532Y-2011441D01*
G01X2294296Y-1977205D02*
G01X3136900Y-1134600D01*
G01X2148533Y-2457204D02*
G01X2148533Y-3417202D01*
G01X2312264Y-3580933D01*
G54D21*
G01X4621505Y-1460005D02*
G01X4621505Y-1129805D01*
G01X3328695Y-952005D02*
G01X3277895Y-901205D01*
G01X3277895Y309283D02*
G01X3351213Y382600D01*
G01X3049295Y-926605D02*
G01X3023895Y-901205D01*
G01X3023895Y255283D02*
G01X3151213Y382600D01*
G01X2541295Y-2180514D02*
G01X2261895Y-2459914D01*
G54D22*
G01X2223399Y-3703211D02*
G01X2343399Y-3703211D01*
G01X2703398Y-3343211D01*
G01X2703398Y-2863212D01*
G01X2927769Y-2638842D01*
G01X4443395Y-2638842D01*
G54D21*
G01X1868500Y-965200D02*
G01X1754200Y-850900D01*
G01X2698902Y-863600D02*
G01X2597302Y-965200D01*
G01X4553102Y-1498600D02*
G01X4629302Y-1574800D01*
G01X4609236Y-2590800D02*
G01X4812436Y-2387600D01*
G01X2541295Y-2155114D02*
G01X2541295Y-2180514D01*
G54D22*
G01X2268532Y-2337204D02*
G01X2148533Y-2457204D01*
G01X2328532Y-2277204D02*
G01X2268532Y-2337204D01*
G01X2328532Y-2011441D02*
G01X2328532Y-2277204D01*
G54D21*
G01X2538705Y-3923805D02*
G01X2538705Y-4279405D01*
G01X3023895Y-901205D02*
G01X3023895Y255283D01*
G01X3277895Y-901205D02*
G01X3277895Y309283D01*
G54D22*
G01X3136900Y-1134600D02*
G01X3136900Y-711200D01*
G54D21*
G01X3402305Y-926605D02*
G01X3402305Y-722605D01*
G01X4940300Y-1613764D02*
G01X4940300Y-1562964D01*
G01X4711700Y-1842364D02*
G01X4940300Y-1613764D01*
G54D22*
G01X4648200Y-2235200D02*
G01X4914900Y-1968500D01*
G01X5257800Y-1968500D01*
G01X5054600Y-2272030D02*
G01X5257800Y-2068830D01*
G01X5257800Y-1968500D01*
G01X4241800Y-1447800D02*
G01X4394200Y-1447800D01*
G01X4568605Y-1273395D01*
G01X4568605Y-1183961D01*
G01X4545804Y-1161161D01*
G01X4545804Y-1098449D01*
G01X4590149Y-1054105D01*
G01X4711705Y-1054105D01*
G01X4749800Y-1092200D01*
G01X3467100Y-4318000D02*
G01X3175000Y-4025900D01*
G01X3175000Y-3898900D01*
G01X1828800Y-2641600D02*
G01X1968500Y-2781300D01*
G01X1968500Y-2984500D01*
G01X2273300Y-3175000D02*
G01X2997200Y-2451100D01*
G01X2997200Y-2425700D01*
G01X2705100Y-1346200D02*
G01X2730500Y-1371600D01*
G01X2527300Y-1346200D02*
G01X2705100Y-1346200D01*
G01X2768600Y-2260600D02*
G01X2933700Y-2425700D01*
G01X2997200Y-2425700D01*
G54D21*
G01X2846095Y-4115194D02*
G01X3340506Y-4609605D01*
G01X2846095Y-4025405D02*
G01X2846095Y-4115194D01*
G01X2744495Y-4152405D02*
G01X3201695Y-4609605D01*
G01X2744495Y-4025405D02*
G01X2744495Y-4152405D01*
G04 Track End*

M02*

