G04 Layer: TopSolderMaskLayer*
G04 EasyEDA Pro v2.2.45.4, 2026-01-19 10:00:02*
G04 Gerber Generator version 0.3*
G04 Scale: 100 percent, Rotated: No, Reflected: No*
G04 Dimensions in millimeters*
G04 Leading zeros omitted, absolute positions, 4 integers and 5 decimals*
G04 Generated by one-click*
%FSLAX45Y45*%
%MOMM*%
%AMRoundRect*1,1,$1,$2,$3*1,1,$1,$4,$5*1,1,$1,0-$2,0-$3*1,1,$1,0-$4,0-$5*20,1,$1,$2,$3,$4,$5,0*20,1,$1,$4,$5,0-$2,0-$3,0*20,1,$1,0-$2,0-$3,0-$4,0-$5,0*20,1,$1,0-$4,0-$5,$2,$3,0*4,1,4,$2,$3,$4,$5,0-$2,0-$3,0-$4,0-$5,$2,$3,0*%
%ADD10RoundRect,0.09093X-0.75455X0.45455X0.75455X0.45455*%
%ADD11RoundRect,0.09093X-0.45455X-0.75455X-0.45455X0.75455*%
%ADD12RoundRect,0.09224X-0.45468X-0.45468X-0.45468X0.45468*%
%ADD13RoundRect,0.09131X-0.40514X0.45514X0.40514X0.45514*%
%ADD14RoundRect,0.09131X-0.45514X-0.40514X-0.45514X0.40514*%
%ADD15RoundRect,0.0858X-0.23291X0.28291X0.23291X0.28291*%
%ADD16RoundRect,0.09618X-0.85271X0.85271X0.85271X0.85271*%
%ADD17C,1.8054*%
%ADD18C,1.8016*%
%ADD19RoundRect,0.09131X-0.40514X-0.40514X-0.40514X0.40514*%
%ADD20RoundRect,0.09017X-0.63072X0.35571X0.63072X0.35571*%
%ADD21RoundRect,0.09138X-0.40835X0.43711X0.40835X0.43711*%
%ADD22RoundRect,0.09138X-0.43711X-0.40835X-0.43711X0.40835*%
%ADD23C,1.80002*%
%ADD24O,2.90002X2.10002*%
%ADD25RoundRect,0.09424X-1.10368X-0.60368X-1.10368X0.60368*%
%ADD26RoundRect,0.09558X-0.99551X0.75901X0.99551X0.75901*%
%ADD27RoundRect,0.09516X-0.75322X0.70322X0.75322X0.70322*%
%ADD28C,1.5016*%
%ADD29RoundRect,0.08875X-0.30643X0.60642X0.30643X0.60642*%
%ADD30RoundRect,0.09763X-1.65198X1.20198X1.65198X1.20198*%
%ADD31RoundRect,0.09368X-1.25396X0.55396X1.25396X0.55396*%
%ADD32RoundRect,0.09754X-1.17203X1.80203X1.17203X1.80203*%
%ADD33O,2.1016X3.60159*%
%ADD34C,1.7016*%
%ADD35RoundRect,0.08109X-0.16026X0.66026X0.16026X0.66026*%
%ADD36O,1.3016X1.9016*%
%ADD37O,1.3016X2.1016*%
G75*


G04 Image Start*
G36*
G01X2985160Y-310506D02*
G01X2970455Y-310506D01*
G01X2969110Y-309063D01*
G01X2967765Y-307620D01*
G01X2960019Y-292282D01*
G01X2952273Y-276945D01*
G01X2948317Y-267759D01*
G01X2946531Y-263520D01*
G01X2945035Y-260171D01*
G01X2943539Y-256823D01*
G01X2943539Y-254923D01*
G01X2943070Y-254454D01*
G01X2942601Y-253986D01*
G01X2941265Y-250274D01*
G01X2939930Y-246562D01*
G01X2936667Y-236670D01*
G01X2933683Y-226778D01*
G01X2931649Y-218653D01*
G01X2929615Y-210527D01*
G01X2928744Y-206288D01*
G01X2927873Y-202049D01*
G01X2926669Y-196396D01*
G01X2925215Y-187917D01*
G01X2923831Y-178732D01*
G01X2923105Y-173433D01*
G01X2922379Y-168133D01*
G01X2921475Y-161068D01*
G01X2920572Y-154002D01*
G01X2920580Y-127506D01*
G01X2920588Y-101010D01*
G01X2921475Y-93944D01*
G01X2922361Y-86878D01*
G01X2923831Y-74867D01*
G01X2924496Y-70804D01*
G01X2925160Y-66741D01*
G01X2925914Y-62325D01*
G01X2926669Y-57909D01*
G01X2927279Y-55083D01*
G01X2927889Y-52257D01*
G01X2929401Y-45544D01*
G01X2930978Y-38832D01*
G01X2931605Y-36712D01*
G01X2932232Y-34593D01*
G01X2934399Y-26820D01*
G01X2936566Y-19048D01*
G01X2939077Y-11982D01*
G01X2941587Y-4917D01*
G01X2941941Y-3317D01*
G01X2942294Y-1716D01*
G01X2943539Y-947D01*
G01X2943539Y1054D01*
G01X2947780Y10310D01*
G01X2947780Y10939D01*
G01X2949605Y15023D01*
G01X2951430Y19106D01*
G01X2956829Y30058D01*
G01X2962227Y41010D01*
G01X2965697Y47016D01*
G01X2969167Y53022D01*
G01X2971846Y57715D01*
G01X2986127Y79164D01*
G01X2991164Y85871D01*
G01X2996200Y92577D01*
G01X2997354Y93996D01*
G01X2998507Y95416D01*
G01X3005103Y103188D01*
G01X3011700Y110960D01*
G01X3023742Y123035D01*
G01X3035784Y135109D01*
G01X3052749Y149611D01*
G01X3061938Y156480D01*
G01X3071127Y163349D01*
G01X3081730Y170451D01*
G01X3091626Y176493D01*
G01X3096221Y179144D01*
G01X3101523Y182203D01*
G01X3107177Y185262D01*
G01X3112832Y188321D01*
G01X3126970Y195263D01*
G01X3130504Y196821D01*
G01X3134038Y198379D01*
G01X3141107Y201508D01*
G01X3149589Y204718D01*
G01X3152417Y205862D01*
G01X3158778Y208246D01*
G01X3161606Y209173D01*
G01X3164433Y210100D01*
G01X3171502Y212262D01*
G01X3178571Y214424D01*
G01X3186700Y216591D01*
G01X3194122Y218500D01*
G01X3198363Y219370D01*
G01X3202604Y220239D01*
G01X3208259Y221443D01*
G01X3212677Y222197D01*
G01X3217095Y222951D01*
G01X3221159Y223621D01*
G01X3225224Y224291D01*
G01X3235826Y225725D01*
G01X3242895Y226652D01*
G01X3257386Y227529D01*
G01X3271876Y228406D01*
G01X3278238Y228600D01*
G01X3291669Y227909D01*
G01X3305099Y227219D01*
G01X3312521Y226436D01*
G01X3319943Y225653D01*
G01X3327365Y224596D01*
G01X3334787Y223540D01*
G01X3339028Y222831D01*
G01X3343270Y222123D01*
G01X3349631Y221024D01*
G01X3355286Y219806D01*
G01X3360941Y218588D01*
G01X3377199Y214432D01*
G01X3387095Y211449D01*
G01X3396991Y208202D01*
G01X3408301Y204040D01*
G01X3413956Y201780D01*
G01X3419611Y199520D01*
G01X3422085Y198422D01*
G01X3424559Y197325D01*
G01X3435869Y191841D01*
G01X3447178Y186358D01*
G01X3469091Y173768D01*
G01X3476658Y168689D01*
G01X3484225Y163610D01*
G01X3492851Y157151D01*
G01X3501478Y150692D01*
G01X3503309Y149106D01*
G01X3505141Y147519D01*
G01X3511834Y141958D01*
G01X3518526Y136396D01*
G01X3541303Y113786D01*
G01X3544781Y109874D01*
G01X3548260Y105962D01*
G01X3552531Y101068D01*
G01X3563831Y86937D01*
G01X3569819Y78811D01*
G01X3575345Y71392D01*
G01X3582742Y59381D01*
G01X3586981Y52315D01*
G01X3588403Y49842D01*
G01X3589825Y47369D01*
G01X3594554Y38890D01*
G01X3600565Y26742D01*
G01X3606576Y14594D01*
G01X3606576Y13849D01*
G01X3610114Y6118D01*
G01X3610895Y4134D01*
G01X3611677Y2149D01*
G01X3613777Y-3504D01*
G01X3615876Y-9156D01*
G01X3618721Y-17635D01*
G01X3621537Y-26820D01*
G01X3622736Y-31060D01*
G01X3624255Y-36712D01*
G01X3625773Y-42365D01*
G01X3626908Y-47311D01*
G01X3628676Y-56143D01*
G01X3630444Y-64975D01*
G01X3632055Y-75214D01*
G01X3633344Y-84052D01*
G01X3634098Y-91118D01*
G01X3634853Y-98183D01*
G01X3635610Y-112697D01*
G01X3636367Y-127211D01*
G01X3635602Y-141666D01*
G01X3634836Y-156122D01*
G01X3634107Y-163187D01*
G01X3633378Y-170253D01*
G01X3632674Y-175199D01*
G01X3631970Y-180145D01*
G01X3630566Y-189330D01*
G01X3629081Y-197103D01*
G01X3628470Y-199929D01*
G01X3627859Y-202755D01*
G01X3626365Y-209114D01*
G01X3624872Y-215473D01*
G01X3624518Y-216886D01*
G01X3624164Y-218300D01*
G01X3622844Y-223246D01*
G01X3621525Y-228192D01*
G01X3618721Y-237377D01*
G01X3617319Y-241616D01*
G01X3615917Y-245856D01*
G01X3613513Y-252215D01*
G01X3612937Y-253628D01*
G01X3612361Y-255041D01*
G01X3610476Y-259987D01*
G01X3608591Y-264933D01*
G01X3605325Y-272352D01*
G01X3602060Y-279771D01*
G01X3596480Y-290967D01*
G01X3590901Y-302163D01*
G01X3586009Y-310506D01*
G01X3570609Y-310506D01*
G01X3570167Y-309790D01*
G01X3569724Y-309074D01*
G01X3573344Y-302750D01*
G01X3576964Y-296427D01*
G01X3580103Y-290572D01*
G01X3583241Y-284717D01*
G01X3590187Y-270585D01*
G01X3593020Y-264226D01*
G01X3597553Y-252921D01*
G01X3601717Y-241616D01*
G01X3603385Y-236670D01*
G01X3605053Y-231724D01*
G01X3610831Y-211234D01*
G01X3611486Y-208761D01*
G01X3612142Y-206288D01*
G01X3613550Y-199929D01*
G01X3615174Y-190744D01*
G01X3615783Y-187564D01*
G01X3616392Y-184384D01*
G01X3617812Y-175199D01*
G01X3618560Y-168487D01*
G01X3619308Y-161774D01*
G01X3620011Y-155833D01*
G01X3620713Y-149891D01*
G01X3620713Y-103707D01*
G01X3620011Y-97766D01*
G01X3619308Y-91824D01*
G01X3618526Y-85112D01*
G01X3617745Y-78400D01*
G01X3616777Y-72605D01*
G01X3615810Y-66811D01*
G01X3615182Y-63562D01*
G01X3614345Y-59322D01*
G01X3613508Y-55083D01*
G01X3611404Y-46251D01*
G01X3609301Y-37419D01*
G01X3608727Y-35652D01*
G01X3608154Y-33886D01*
G01X3607257Y-30706D01*
G01X3606360Y-27527D01*
G01X3603361Y-18342D01*
G01X3600361Y-9156D01*
G01X3594434Y5682D01*
G01X3592815Y9215D01*
G01X3591196Y12747D01*
G01X3587224Y20873D01*
G01X3583253Y28998D01*
G01X3580884Y33238D01*
G01X3578516Y37477D01*
G01X3576995Y40127D01*
G01X3575474Y42776D01*
G01X3572856Y47369D01*
G01X3567747Y55495D01*
G01X3562637Y63620D01*
G01X3561381Y65033D01*
G01X3560125Y66446D01*
G01X3554067Y75498D01*
G01X3553141Y76624D01*
G01X3552214Y77751D01*
G01X3542120Y90470D01*
G01X3537414Y95892D01*
G01X3532709Y101315D01*
G01X3505848Y127918D01*
G01X3484642Y144963D01*
G01X3477573Y149690D01*
G01X3472979Y153041D01*
G01X3468384Y156392D01*
G01X3462376Y160097D01*
G01X3456368Y163802D01*
G01X3452480Y166087D01*
G01X3448592Y168373D01*
G01X3443291Y171289D01*
G01X3437989Y174205D01*
G01X3423852Y181086D01*
G01X3416783Y184250D01*
G01X3413956Y185519D01*
G01X3411128Y186788D01*
G01X3404060Y189574D01*
G01X3396991Y192360D01*
G01X3386388Y195983D01*
G01X3379320Y198091D01*
G01X3372251Y200200D01*
G01X3368717Y201113D01*
G01X3362355Y202735D01*
G01X3355993Y204357D01*
G01X3351752Y205238D01*
G01X3347511Y206120D01*
G01X3341149Y207299D01*
G01X3332667Y208764D01*
G01X3323477Y210140D01*
G01X3316409Y210878D01*
G01X3309340Y211616D01*
G01X3302070Y212337D01*
G01X3294799Y213059D01*
G01X3258687Y213059D01*
G01X3251851Y212353D01*
G01X3245016Y211647D01*
G01X3231585Y210119D01*
G01X3223103Y208751D01*
G01X3214621Y207299D01*
G01X3211086Y206625D01*
G01X3207552Y205951D01*
G01X3199776Y204357D01*
G01X3187053Y201140D01*
G01X3178571Y198862D01*
G01X3169381Y195761D01*
G01X3160192Y192660D01*
G01X3154537Y190597D01*
G01X3148882Y188533D01*
G01X3144797Y186665D01*
G01X3140712Y184796D01*
G01X3140082Y184796D01*
G01X3135293Y182628D01*
G01X3130504Y180460D01*
G01X3116924Y173667D01*
G01X3105764Y167609D01*
G01X3101523Y165012D01*
G01X3097281Y162414D01*
G01X3085265Y155015D01*
G01X3080317Y151138D01*
G01X3071127Y144992D01*
G01X3069310Y143520D01*
G01X3067492Y142049D01*
G01X3065109Y140282D01*
G01X3062726Y138516D01*
G01X3054910Y131853D01*
G01X3047094Y125190D01*
G01X3042244Y120548D01*
G01X3037394Y115906D01*
G01X3029068Y107427D01*
G01X3020743Y98948D01*
G01X3009869Y86230D01*
G01X2996050Y67859D01*
G01X2990293Y59225D01*
G01X2984537Y50590D01*
G01X2984537Y49707D01*
G01X2983206Y47831D01*
G01X2981875Y45956D01*
G01X2978882Y40657D01*
G01X2977367Y38007D01*
G01X2975852Y35357D01*
G01X2966475Y16987D01*
G01X2964459Y12394D01*
G01X2962442Y7801D01*
G01X2961103Y4801D01*
G01X2959763Y1800D01*
G01X2958997Y-145D01*
G01X2958230Y-2091D01*
G01X2954054Y-13396D01*
G01X2949395Y-27527D01*
G01X2946337Y-38125D01*
G01X2945115Y-42365D01*
G01X2943638Y-48724D01*
G01X2942026Y-55790D01*
G01X2940819Y-61442D01*
G01X2939177Y-72041D01*
G01X2937997Y-78400D01*
G01X2937238Y-85465D01*
G01X2936479Y-92531D01*
G01X2935768Y-99364D01*
G01X2935056Y-106197D01*
G01X2935054Y-126213D01*
G01X2935053Y-146230D01*
G01X2935768Y-154002D01*
G01X2936483Y-161774D01*
G01X2937965Y-175906D01*
G01X2939298Y-184031D01*
G01X2940058Y-188447D01*
G01X2940818Y-192863D01*
G01X2942197Y-199929D01*
G01X2943628Y-206288D01*
G01X2944349Y-209114D01*
G01X2945069Y-211941D01*
G01X2946347Y-216886D01*
G01X2948537Y-224659D01*
G01X2950726Y-232431D01*
G01X2953089Y-239529D01*
G01X2955452Y-246628D01*
G01X2958389Y-254014D01*
G01X2961326Y-261400D01*
G01X2962420Y-263873D01*
G01X2963514Y-266346D01*
G01X2975319Y-290369D01*
G01X2978247Y-295669D01*
G01X2981175Y-300968D01*
G01X2983571Y-305084D01*
G01X2985968Y-309199D01*
G01X2985160Y-310506D01*
G37*
G36*
G01X3024121Y-321105D02*
G01X2906782Y-321105D01*
G01X2906782Y-212409D01*
G01X2905882Y-210066D01*
G01X2904212Y-209431D01*
G01X2902541Y-208796D01*
G01X2901130Y-206482D01*
G01X2899719Y-204168D01*
G01X2899716Y-201681D01*
G01X2903912Y-201681D01*
G01X2905075Y-203455D01*
G01X2906238Y-205228D01*
G01X2906238Y-205228D01*
G01X2911680Y-205228D01*
G01X2912412Y-203861D01*
G01X2913144Y-202495D01*
G01X2913144Y-199631D01*
G01X2911597Y-198190D01*
G01X2910050Y-196749D01*
G01X2908946Y-196772D01*
G01X2907842Y-196794D01*
G01X2906721Y-197655D01*
G01X2905599Y-198516D01*
G01X2903912Y-201681D01*
G01X2899716Y-201681D01*
G01X2899716Y-201484D01*
G01X2899713Y-198799D01*
G01X2900737Y-196819D01*
G01X2901762Y-194840D01*
G01X2905318Y-192510D01*
G01X2912487Y-192510D01*
G01X2916043Y-194840D01*
G01X2917068Y-196819D01*
G01X2918092Y-198799D01*
G01X2918092Y-205308D01*
G01X2911376Y-211941D01*
G01X2912083Y-315806D01*
G01X3010691Y-316169D01*
G01X3010691Y-314380D01*
G01X3003136Y-303087D01*
G01X2999925Y-297788D01*
G01X2996714Y-292489D01*
G01X2992185Y-284363D01*
G01X2987655Y-276238D01*
G01X2984744Y-270232D01*
G01X2981833Y-264226D01*
G01X2980067Y-260340D01*
G01X2978301Y-256454D01*
G01X2970966Y-238083D01*
G01X2968194Y-229687D01*
G01X2965422Y-221291D01*
G01X2963975Y-215909D01*
G01X2962528Y-210527D01*
G01X2960714Y-203462D01*
G01X2959838Y-199222D01*
G01X2958963Y-194983D01*
G01X2957783Y-188624D01*
G01X2957023Y-184208D01*
G01X2956262Y-179792D01*
G01X2955584Y-175729D01*
G01X2954905Y-171666D01*
G01X2954162Y-164954D01*
G01X2953418Y-158242D01*
G01X2952021Y-143702D01*
G01X2952021Y-109897D01*
G01X2953418Y-95357D01*
G01X2954186Y-88645D01*
G01X2954953Y-81932D01*
G01X2956345Y-74160D01*
G01X2957044Y-70274D01*
G01X2957744Y-66388D01*
G01X2959159Y-59322D01*
G01X2960426Y-53670D01*
G01X2961962Y-47311D01*
G01X2963499Y-40952D01*
G01X2966323Y-31766D01*
G01X2971005Y-17564D01*
G01X2972182Y-14420D01*
G01X2973358Y-11276D01*
G01X2973929Y-9863D01*
G01X2974500Y-8450D01*
G01X2975984Y-5101D01*
G01X2977468Y-1753D01*
G01X2977468Y-1015D01*
G01X2980469Y5682D01*
G01X2985694Y16280D01*
G01X2990919Y26879D01*
G01X2995172Y33944D01*
G01X2996085Y36064D01*
G01X2998086Y39018D01*
G01X3000088Y41971D01*
G01X3000088Y42818D01*
G01X3005729Y51099D01*
G01X3011369Y59381D01*
G01X3015911Y65740D01*
G01X3021592Y72805D01*
G01X3027272Y79871D01*
G01X3031543Y84765D01*
G01X3035077Y88677D01*
G01X3038611Y92589D01*
G01X3046387Y100429D01*
G01X3054163Y108268D01*
G01X3066179Y118768D01*
G01X3076076Y126594D01*
G01X3085265Y133671D01*
G01X3095161Y140289D01*
G01X3105057Y146907D01*
G01X3111065Y150412D01*
G01X3117074Y153917D01*
G01X3130504Y160752D01*
G01X3143934Y167586D01*
G01X3147115Y168830D01*
G01X3150296Y170074D01*
G01X3152770Y171148D01*
G01X3155244Y172222D01*
G01X3158072Y173361D01*
G01X3167861Y177117D01*
G01X3177864Y180442D01*
G01X3193415Y184793D01*
G01X3195535Y185420D01*
G01X3197656Y186047D01*
G01X3204725Y187721D01*
G01X3207552Y188342D01*
G01X3210379Y188963D01*
G01X3217448Y190342D01*
G01X3222043Y191133D01*
G01X3226637Y191923D01*
G01X3230172Y192547D01*
G01X3233706Y193170D01*
G01X3241481Y193980D01*
G01X3249257Y194791D01*
G01X3256679Y195348D01*
G01X3264101Y195904D01*
G01X3274664Y196003D01*
G01X3285227Y196101D01*
G01X3295163Y195396D01*
G01X3305099Y194690D01*
G01X3311461Y193953D01*
G01X3317823Y193216D01*
G01X3328425Y191789D01*
G01X3336201Y190455D01*
G01X3341856Y189308D01*
G01X3347511Y188162D01*
G01X3353873Y186777D01*
G01X3358821Y185614D01*
G01X3364475Y184097D01*
G01X3370130Y182579D01*
G01X3372251Y182000D01*
G01X3374372Y181421D01*
G01X3391336Y175755D01*
G01X3411835Y167595D01*
G01X3425266Y160785D01*
G01X3438696Y153975D01*
G01X3443644Y150927D01*
G01X3448592Y147879D01*
G01X3450924Y146547D01*
G01X3453255Y145214D01*
G01X3460739Y140195D01*
G01X3468224Y135176D01*
G01X3475726Y129498D01*
G01X3483228Y123821D01*
G01X3486763Y120924D01*
G01X3490297Y118027D01*
G01X3493110Y115553D01*
G01X3495923Y113080D01*
G01X3500836Y108487D01*
G01X3505750Y103894D01*
G01X3510040Y99611D01*
G01X3514330Y95327D01*
G01X3522106Y86892D01*
G01X3527054Y81279D01*
G01X3534180Y72805D01*
G01X3544091Y59381D01*
G01X3546893Y55495D01*
G01X3549695Y51608D01*
G01X3551544Y48782D01*
G01X3553393Y45956D01*
G01X3556749Y40343D01*
G01X3560104Y34729D01*
G01X3563262Y28998D01*
G01X3565612Y24759D01*
G01X3567962Y20520D01*
G01X3570579Y15220D01*
G01X3573196Y9921D01*
G01X3574688Y6565D01*
G01X3576181Y3209D01*
G01X3577611Y31D01*
G01X3579042Y-3146D01*
G01X3579808Y-5091D01*
G01X3580575Y-7037D01*
G01X3584751Y-18342D01*
G01X3587178Y-25760D01*
G01X3589606Y-33179D01*
G01X3590306Y-35323D01*
G01X3591006Y-37467D01*
G01X3593517Y-47335D01*
G01X3596028Y-57203D01*
G01X3596748Y-60735D01*
G01X3597468Y-64268D01*
G01X3598720Y-71334D01*
G01X3600791Y-83346D01*
G01X3602342Y-97477D01*
G01X3603748Y-112017D01*
G01X3603740Y-128064D01*
G01X3603732Y-144110D01*
G01X3601673Y-165307D01*
G01X3600982Y-169547D01*
G01X3600222Y-174493D01*
G01X3599462Y-179438D01*
G01X3598776Y-182971D01*
G01X3598089Y-186504D01*
G01X3596944Y-192157D01*
G01X3595798Y-197809D01*
G01X3595487Y-199576D01*
G01X3595175Y-201342D01*
G01X3592327Y-213354D01*
G01X3591758Y-215120D01*
G01X3591189Y-216886D01*
G01X3590290Y-220066D01*
G01X3589391Y-223246D01*
G01X3586376Y-232449D01*
G01X3583361Y-241652D01*
G01X3581123Y-247287D01*
G01X3578885Y-252921D01*
G01X3577180Y-256652D01*
G01X3575474Y-260382D01*
G01X3575474Y-261128D01*
G01X3570379Y-271509D01*
G01X3565283Y-281891D01*
G01X3555903Y-298142D01*
G01X3550821Y-306709D01*
G01X3548210Y-309932D01*
G01X3544877Y-309432D01*
G01X3541545Y-308933D01*
G01X3541545Y-306544D01*
G01X3543785Y-303049D01*
G01X3546025Y-299555D01*
G01X3552117Y-288956D01*
G01X3558209Y-278358D01*
G01X3562877Y-268819D01*
G01X3567545Y-259280D01*
G01X3570400Y-252921D01*
G01X3572666Y-247269D01*
G01X3574932Y-241616D01*
G01X3578328Y-231371D01*
G01X3581725Y-221126D01*
G01X3583246Y-215473D01*
G01X3584767Y-209821D01*
G01X3586851Y-201342D01*
G01X3588198Y-195336D01*
G01X3588847Y-192333D01*
G01X3589496Y-189330D01*
G01X3590238Y-185444D01*
G01X3590980Y-181558D01*
G01X3591676Y-176966D01*
G01X3592372Y-172373D01*
G01X3593830Y-161068D01*
G01X3594548Y-153800D01*
G01X3595266Y-146533D01*
G01X3595266Y-107464D01*
G01X3594545Y-101058D01*
G01X3593824Y-94651D01*
G01X3592371Y-82639D01*
G01X3590918Y-72747D01*
G01X3589726Y-67095D01*
G01X3588855Y-62855D01*
G01X3587984Y-58616D01*
G01X3585950Y-50490D01*
G01X3583916Y-42365D01*
G01X3582429Y-37419D01*
G01X3580942Y-32473D01*
G01X3579142Y-26820D01*
G01X3576750Y-20461D01*
G01X3573922Y-12689D01*
G01X3572457Y-9156D01*
G01X3571917Y-7743D01*
G01X3571377Y-6330D01*
G01X3569282Y-1384D01*
G01X3565261Y7801D01*
G01X3561654Y14867D01*
G01X3558046Y21933D01*
G01X3553406Y30411D01*
G01X3547697Y39597D01*
G01X3538531Y53728D01*
G01X3533732Y60087D01*
G01X3528934Y66446D01*
G01X3517220Y80578D01*
G01X3504465Y93332D01*
G01X3491711Y106087D01*
G01X3488883Y108563D01*
G01X3486056Y111039D01*
G01X3476582Y118573D01*
G01X3467108Y126107D01*
G01X3457143Y132742D01*
G01X3447178Y139376D01*
G01X3441877Y142566D01*
G01X3436575Y145755D01*
G01X3431274Y148668D01*
G01X3425973Y151581D01*
G01X3418904Y155050D01*
G01X3411835Y158518D01*
G01X3407750Y160352D01*
G01X3403664Y162186D01*
G01X3402984Y162186D01*
G01X3396991Y164850D01*
G01X3388509Y167976D01*
G01X3387095Y168568D01*
G01X3385681Y169159D01*
G01X3381440Y170557D01*
G01X3377199Y171955D01*
G01X3366596Y175051D01*
G01X3364829Y175628D01*
G01X3363062Y176205D01*
G01X3356700Y177713D01*
G01X3350338Y179221D01*
G01X3344330Y180557D01*
G01X3341326Y181216D01*
G01X3338322Y181875D01*
G01X3333904Y182629D01*
G01X3329486Y183383D01*
G01X3325421Y184047D01*
G01X3321357Y184712D01*
G01X3315349Y185442D01*
G01X3309340Y186173D01*
G01X3292999Y187622D01*
G01X3277137Y187624D01*
G01X3261274Y187626D01*
G01X3245723Y186192D01*
G01X3239714Y185465D01*
G01X3233706Y184737D01*
G01X3229111Y184012D01*
G01X3224517Y183287D01*
G01X3216741Y181855D01*
G01X3211086Y180642D01*
G01X3197656Y177611D01*
G01X3182812Y173372D01*
G01X3175693Y171004D01*
G01X3168574Y168637D01*
G01X3159789Y165125D01*
G01X3151003Y161613D01*
G01X3145348Y159019D01*
G01X3139693Y156426D01*
G01X3133331Y153223D01*
G01X3126970Y150020D01*
G01X3119194Y145741D01*
G01X3116013Y143940D01*
G01X3112832Y142139D01*
G01X3085772Y124149D01*
G01X3083144Y121994D01*
G01X3077136Y117235D01*
G01X3071127Y112475D01*
G01X3057776Y100361D01*
G01X3050050Y92589D01*
G01X3042324Y84817D01*
G01X3030028Y70686D01*
G01X3025056Y64292D01*
G01X3020085Y57898D01*
G01X3012987Y47312D01*
G01X3005889Y36727D01*
G01X3003596Y32863D01*
G01X3001304Y28998D01*
G01X2999887Y26525D01*
G01X2998469Y24052D01*
G01X2988894Y4975D01*
G01X2984778Y-4210D01*
G01X2982589Y-9863D01*
G01X2980400Y-15515D01*
G01X2976180Y-27527D01*
G01X2973040Y-38125D01*
G01X2971257Y-43778D01*
G01X2967515Y-59322D01*
G01X2966894Y-62149D01*
G01X2966273Y-64975D01*
G01X2964809Y-72747D01*
G01X2963415Y-81226D01*
G01X2962683Y-87232D01*
G01X2961952Y-93238D01*
G01X2961228Y-100505D01*
G01X2960503Y-107773D01*
G01X2960503Y-147239D01*
G01X2961222Y-154507D01*
G01X2961940Y-161774D01*
G01X2962652Y-167427D01*
G01X2963365Y-173079D01*
G01X2964137Y-178025D01*
G01X2964910Y-182971D01*
G01X2968451Y-200635D01*
G01X2969149Y-204168D01*
G01X2972621Y-217593D01*
G01X2977100Y-231018D01*
G01X2981579Y-244443D01*
G01X2983097Y-247975D01*
G01X2984614Y-251508D01*
G01X2985803Y-254334D01*
G01X2986993Y-257161D01*
G01X2999814Y-282597D01*
G01X3002718Y-287543D01*
G01X3005020Y-291429D01*
G01X3007322Y-295315D01*
G01X3013716Y-304854D01*
G01X3020109Y-314393D01*
G01X3022115Y-316850D01*
G01X3024121Y-319307D01*
G01X3024121Y-321105D01*
G37*
G36*
G01X3456121Y-361087D02*
G01X3453540Y-362169D01*
G01X3451264Y-361746D01*
G01X3448987Y-361323D01*
G01X3446893Y-359561D01*
G01X3444799Y-357800D01*
G01X3444005Y-355396D01*
G01X3443211Y-352992D01*
G01X3443617Y-351487D01*
G01X3448239Y-351487D01*
G01X3448284Y-353960D01*
G01X3448284Y-353960D01*
G01X3449223Y-355197D01*
G01X3450162Y-356433D01*
G01X3455025Y-356433D01*
G01X3456721Y-354737D01*
G01X3456721Y-350124D01*
G01X3455354Y-349392D01*
G01X3453987Y-348661D01*
G01X3451066Y-348661D01*
G01X3448239Y-351487D01*
G01X3443617Y-351487D01*
G01X3443980Y-350139D01*
G01X3444749Y-347286D01*
G01X3447219Y-345402D01*
G01X3449690Y-343519D01*
G01X3449299Y-323578D01*
G01X3448239Y-323483D01*
G01X3447178Y-323388D01*
G01X3434722Y-323306D01*
G01X3422266Y-323225D01*
G01X3392750Y-294284D01*
G01X3392254Y-294270D01*
G01X3391758Y-294255D01*
G01X3387244Y-300968D01*
G01X3382930Y-305560D01*
G01X3381252Y-305560D01*
G01X3380399Y-302381D01*
G01X3380390Y-300472D01*
G01X3380380Y-298564D01*
G01X3379395Y-294820D01*
G01X3378410Y-291076D01*
G01X3377157Y-287896D01*
G01X3375904Y-284717D01*
G01X3373112Y-280477D01*
G01X3370638Y-278241D01*
G01X3368164Y-276004D01*
G01X3364906Y-274362D01*
G01X3361648Y-272719D01*
G01X3352240Y-267514D01*
G01X3342832Y-262309D01*
G01X3342461Y-262813D01*
G01X3340054Y-272705D01*
G01X3362514Y-294760D01*
G01X3384974Y-316815D01*
G01X3392750Y-316871D01*
G01X3394927Y-318198D01*
G01X3397104Y-319525D01*
G01X3398285Y-322011D01*
G01X3399465Y-324498D01*
G01X3399465Y-327604D01*
G01X3398285Y-330090D01*
G01X3397104Y-332577D01*
G01X3394927Y-333904D01*
G01X3392750Y-335231D01*
G01X3390156Y-335234D01*
G01X3387563Y-335236D01*
G01X3385373Y-334000D01*
G01X3383183Y-332763D01*
G01X3381673Y-329667D01*
G01X3380163Y-326571D01*
G01X3380979Y-324318D01*
G01X3381231Y-323620D01*
G01X3386388Y-323620D01*
G01X3386388Y-328505D01*
G01X3388191Y-329368D01*
G01X3388191Y-329368D01*
G01X3389993Y-330232D01*
G01X3391461Y-329848D01*
G01X3392928Y-329465D01*
G01X3394722Y-326115D01*
G01X3392488Y-322707D01*
G01X3391088Y-322341D01*
G01X3389688Y-321975D01*
G01X3388038Y-322797D01*
G01X3386388Y-323620D01*
G01X3381231Y-323620D01*
G01X3381794Y-322064D01*
G01X3381794Y-320262D01*
G01X3376631Y-315208D01*
G01X3371469Y-310153D01*
G01X3339471Y-279418D01*
G01X3338157Y-279418D01*
G01X3334797Y-286836D01*
G01X3334584Y-314240D01*
G01X3334371Y-341643D01*
G01X3337228Y-344206D01*
G01X3340086Y-346770D01*
G01X3340745Y-349157D01*
G01X3341404Y-351544D01*
G01X3341017Y-353931D01*
G01X3340629Y-356317D01*
G01X3338297Y-358576D01*
G01X3335965Y-360836D01*
G01X3328612Y-360836D01*
G01X3323582Y-355808D01*
G01X3323530Y-352343D01*
G01X3323506Y-350761D01*
G01X3328072Y-350761D01*
G01X3328072Y-354151D01*
G01X3331557Y-356433D01*
G01X3333481Y-356433D01*
G01X3335017Y-354798D01*
G01X3336554Y-353163D01*
G01X3336554Y-350293D01*
G01X3335262Y-349124D01*
G01X3333969Y-347954D01*
G01X3329826Y-347954D01*
G01X3328949Y-349358D01*
G01X3328072Y-350761D01*
G01X3328072Y-350761D01*
G01X3323506Y-350761D01*
G01X3323477Y-348879D01*
G01X3324416Y-347123D01*
G01X3325355Y-345367D01*
G01X3327421Y-344148D01*
G01X3329486Y-342929D01*
G01X3329486Y-300614D01*
G01X3328072Y-300614D01*
G01X3328072Y-301893D01*
G01X3317972Y-317219D01*
G01X3313893Y-322213D01*
G01X3309813Y-327207D01*
G01X3302515Y-334143D01*
G01X3295216Y-341080D01*
G01X3291685Y-343458D01*
G01X3288153Y-345835D01*
G01X3286367Y-345835D01*
G01X3286373Y-344775D01*
G01X3287418Y-338416D01*
G01X3288463Y-332057D01*
G01X3288475Y-325834D01*
G01X3288488Y-319611D01*
G01X3287742Y-316295D01*
G01X3286997Y-312979D01*
G01X3286248Y-310153D01*
G01X3285499Y-307327D01*
G01X3284389Y-304501D01*
G01X3283504Y-302028D01*
G01X3282618Y-299555D01*
G01X3277024Y-287884D01*
G01X3276320Y-287450D01*
G01X3275616Y-287015D01*
G01X3276019Y-290812D01*
G01X3276422Y-294609D01*
G01X3277366Y-342108D01*
G01X3279447Y-343337D01*
G01X3281527Y-344565D01*
G01X3282884Y-346790D01*
G01X3284241Y-349014D01*
G01X3284244Y-351421D01*
G01X3284247Y-353827D01*
G01X3282443Y-356191D01*
G01X3280639Y-358554D01*
G01X3278469Y-359676D01*
G01X3276299Y-360798D01*
G01X3273741Y-360318D01*
G01X3271182Y-359838D01*
G01X3268525Y-357046D01*
G01X3265868Y-354254D01*
G01X3265868Y-352287D01*
G01X3270816Y-352287D01*
G01X3271548Y-353653D01*
G01X3272280Y-355020D01*
G01X3277835Y-355020D01*
G01X3278567Y-353653D01*
G01X3279299Y-352287D01*
G01X3279299Y-350074D01*
G01X3276471Y-347248D01*
G01X3273038Y-347248D01*
G01X3271927Y-348358D01*
G01X3270816Y-349468D01*
G01X3270816Y-352287D01*
G01X3270816Y-352287D01*
G01X3265868Y-352287D01*
G01X3265868Y-348641D01*
G01X3269049Y-343772D01*
G01X3272230Y-342063D01*
G01X3272230Y-296140D01*
G01X3271937Y-296434D01*
G01X3271644Y-296728D01*
G01X3268835Y-302028D01*
G01X3266025Y-307327D01*
G01X3262236Y-313491D01*
G01X3258446Y-319655D01*
G01X3255265Y-324030D01*
G01X3252084Y-328404D01*
G01X3251377Y-329188D01*
G01X3250671Y-329971D01*
G01X3246798Y-334547D01*
G01X3242925Y-339122D01*
G01X3237609Y-344336D01*
G01X3232292Y-349549D01*
G01X3218917Y-360719D01*
G01X3217990Y-360519D01*
G01X3217064Y-360319D01*
G01X3216445Y-347601D01*
G01X3213496Y-338416D01*
G01X3209014Y-329230D01*
G01X3199438Y-315099D01*
G01X3196679Y-311190D01*
G01X3193920Y-307282D01*
G01X3192077Y-304125D01*
G01X3190235Y-300968D01*
G01X3185640Y-291847D01*
G01X3181045Y-282725D01*
G01X3181045Y-280831D01*
G01X3179631Y-280831D01*
G01X3179631Y-306735D01*
G01X3181393Y-307678D01*
G01X3183156Y-308621D01*
G01X3184359Y-310447D01*
G01X3185562Y-312273D01*
G01X3185601Y-315967D01*
G01X3185639Y-319662D01*
G01X3181266Y-324036D01*
G01X3178426Y-324417D01*
G01X3175587Y-324797D01*
G01X3173056Y-323597D01*
G01X3170524Y-322396D01*
G01X3169341Y-320591D01*
G01X3168158Y-318786D01*
G01X3168158Y-313505D01*
G01X3172562Y-313505D01*
G01X3172562Y-317770D01*
G01X3173799Y-318708D01*
G01X3175036Y-319647D01*
G01X3177031Y-319669D01*
G01X3177031Y-319669D01*
G01X3179025Y-319692D01*
G01X3180035Y-318682D01*
G01X3181045Y-317673D01*
G01X3181034Y-316033D01*
G01X3181023Y-314393D01*
G01X3179984Y-312838D01*
G01X3178440Y-312025D01*
G01X3176896Y-311213D01*
G01X3176320Y-311250D01*
G01X3175743Y-311287D01*
G01X3172562Y-313505D01*
G01X3168158Y-313505D01*
G01X3168158Y-311589D01*
G01X3171420Y-308637D01*
G01X3174683Y-305684D01*
G01X3174683Y-266699D01*
G01X3172832Y-266699D01*
G01X3169408Y-272452D01*
G01X3165985Y-278205D01*
G01X3163732Y-283581D01*
G01X3161479Y-288956D01*
G01X3159952Y-294804D01*
G01X3158425Y-300651D01*
G01X3158425Y-307680D01*
G01X3156452Y-307680D01*
G01X3152224Y-300968D01*
G01X3145977Y-288956D01*
G01X3144004Y-284010D01*
G01X3142031Y-279064D01*
G01X3140250Y-273412D01*
G01X3139498Y-270585D01*
G01X3138745Y-267759D01*
G01X3137162Y-261753D01*
G01X3136129Y-261753D01*
G01X3110201Y-287843D01*
G01X3084273Y-313932D01*
G01X3082648Y-314162D01*
G01X3081024Y-314393D01*
G01X3080833Y-330114D01*
G01X3080643Y-345835D01*
G01X2901651Y-345835D01*
G01X2895727Y-352194D01*
G01X2888019Y-352194D01*
G01X2885410Y-350044D01*
G01X2882802Y-347895D01*
G01X2882408Y-345798D01*
G01X2886990Y-345798D01*
G01X2891231Y-347991D01*
G01X2895472Y-345798D01*
G01X2895472Y-341108D01*
G01X2894179Y-339938D01*
G01X2892887Y-338769D01*
G01X2890132Y-338769D01*
G01X2886990Y-340969D01*
G01X2886990Y-345798D01*
G01X2886990Y-345798D01*
G01X2882408Y-345798D01*
G01X2882330Y-345384D01*
G01X2881859Y-342872D01*
G01X2882680Y-340133D01*
G01X2883501Y-337393D01*
G01X2885842Y-335608D01*
G01X2888183Y-333823D01*
G01X2894194Y-333823D01*
G01X2896081Y-334937D01*
G01X2897968Y-336052D01*
G01X2899556Y-338473D01*
G01X2901144Y-340894D01*
G01X2988256Y-340715D01*
G01X3075369Y-340535D01*
G01X3075369Y-314393D01*
G01X3066926Y-314192D01*
G01X3058483Y-313992D01*
G01X3055911Y-316978D01*
G01X3053338Y-319964D01*
G01X3046201Y-319964D01*
G01X3044284Y-318708D01*
G01X3042367Y-317453D01*
G01X3039514Y-311006D01*
G01X3040286Y-308669D01*
G01X3045327Y-308669D01*
G01X3045327Y-313253D01*
G01X3048469Y-315452D01*
G01X3050008Y-315452D01*
G01X3051555Y-314012D01*
G01X3053102Y-312571D01*
G01X3053102Y-309312D01*
G01X3051810Y-308143D01*
G01X3050517Y-306974D01*
G01X3047023Y-306974D01*
G01X3045327Y-308669D01*
G01X3045327Y-308669D01*
G01X3040286Y-308669D01*
G01X3040405Y-308308D01*
G01X3041296Y-305609D01*
G01X3042781Y-304259D01*
G01X3044267Y-302908D01*
G01X3046889Y-302069D01*
G01X3049512Y-301230D01*
G01X3055758Y-303992D01*
G01X3058267Y-308237D01*
G01X3063352Y-309078D01*
G01X3081268Y-309093D01*
G01X3083587Y-307150D01*
G01X3085905Y-305207D01*
G01X3135929Y-255041D01*
G01X3135844Y-251167D01*
G01X3135759Y-247293D01*
G01X3134479Y-246013D01*
G01X3120475Y-259886D01*
G01X3106471Y-273758D01*
G01X3078169Y-273761D01*
G01X3049868Y-273765D01*
G01X3042500Y-280680D01*
G01X3042500Y-288987D01*
G01X3040361Y-291581D01*
G01X3038222Y-294174D01*
G01X3035236Y-294620D01*
G01X3032250Y-295066D01*
G01X3030483Y-294382D01*
G01X3028716Y-293698D01*
G01X3025856Y-291076D01*
G01X3024988Y-289100D01*
G01X3024121Y-287123D01*
G01X3024121Y-286552D01*
G01X3028952Y-286552D01*
G01X3030087Y-288284D01*
G01X3031222Y-290016D01*
G01X3035212Y-290016D01*
G01X3036382Y-288724D01*
G01X3037551Y-287432D01*
G01X3037551Y-284419D01*
G01X3036004Y-282978D01*
G01X3034457Y-281537D01*
G01X3033354Y-281560D01*
G01X3032250Y-281582D01*
G01X3031116Y-282446D01*
G01X3029982Y-283309D01*
G01X3029467Y-284931D01*
G01X3028952Y-286552D01*
G01X3028952Y-286552D01*
G01X3024121Y-286552D01*
G01X3024121Y-284203D01*
G01X3025651Y-281482D01*
G01X3027180Y-278762D01*
G01X3029619Y-277605D01*
G01X3032058Y-276449D01*
G01X3035688Y-276900D01*
G01X3039319Y-277351D01*
G01X3047757Y-268819D01*
G01X3104908Y-268819D01*
G01X3134394Y-239497D01*
G01X3134393Y-230135D01*
G01X3134392Y-220773D01*
G01X3133584Y-220773D01*
G01X3132735Y-221656D01*
G01X3131886Y-222539D01*
G01X3127622Y-227838D01*
G01X3123359Y-233137D01*
G01X3121758Y-235434D01*
G01X3120158Y-237730D01*
G01X3117861Y-237730D01*
G01X3103495Y-251861D01*
G01X3023651Y-251861D01*
G01X3021494Y-254544D01*
G01X3019338Y-257226D01*
G01X3013913Y-258891D01*
G01X3008490Y-257266D01*
G01X3005837Y-253542D01*
G01X3005358Y-251637D01*
G01X3004880Y-249733D01*
G01X3005257Y-247723D01*
G01X3009984Y-247723D01*
G01X3009984Y-251579D01*
G01X3011680Y-253275D01*
G01X3016309Y-253275D01*
G01X3017326Y-251310D01*
G01X3018342Y-249345D01*
G01X3016820Y-246562D01*
G01X3016053Y-246043D01*
G01X3015285Y-245524D01*
G01X3013745Y-245513D01*
G01X3012205Y-245502D01*
G01X3011095Y-246613D01*
G01X3009984Y-247723D01*
G01X3009984Y-247723D01*
G01X3005257Y-247723D01*
G01X3005783Y-244924D01*
G01X3008017Y-242740D01*
G01X3010252Y-240556D01*
G01X3017445Y-240556D01*
G01X3018958Y-241616D01*
G01X3020471Y-242675D01*
G01X3022000Y-245149D01*
G01X3023530Y-247622D01*
G01X3100494Y-247622D01*
G01X3103816Y-244619D01*
G01X3107139Y-241616D01*
G01X3112208Y-236670D01*
G01X3117276Y-231724D01*
G01X3116687Y-228192D01*
G01X3116097Y-224659D01*
G01X3116013Y-209551D01*
G01X3115435Y-209194D01*
G01X3114857Y-208837D01*
G01X3113134Y-210389D01*
G01X3111410Y-211941D01*
G01X3096575Y-225365D01*
G01X3096339Y-225895D01*
G01X3096103Y-226425D01*
G01X3004682Y-226443D01*
G01X3003068Y-228933D01*
G01X3001454Y-231424D01*
G01X2999664Y-232104D01*
G01X2997875Y-232784D01*
G01X2993586Y-232784D01*
G01X2991213Y-231659D01*
G01X2988840Y-230533D01*
G01X2987354Y-227463D01*
G01X2985867Y-224394D01*
G01X2986602Y-221944D01*
G01X2991605Y-221944D01*
G01X2991605Y-226142D01*
G01X2993302Y-227838D01*
G01X2993302Y-227838D01*
G01X2997931Y-227838D01*
G01X2999077Y-225624D01*
G01X3000222Y-223409D01*
G01X2998848Y-221561D01*
G01X2997474Y-219713D01*
G01X2995740Y-219503D01*
G01X2994006Y-219293D01*
G01X2991605Y-221944D01*
G01X2986602Y-221944D01*
G01X2987567Y-218723D01*
G01X2989594Y-216782D01*
G01X2991620Y-214841D01*
G01X2995579Y-214804D01*
G01X2999537Y-214767D01*
G01X3005407Y-221245D01*
G01X3049046Y-221731D01*
G01X3092686Y-222216D01*
G01X3099400Y-216180D01*
G01X3107530Y-208814D01*
G01X3115660Y-201449D01*
G01X3116467Y-198923D01*
G01X3117275Y-196396D01*
G01X3119642Y-186504D01*
G01X3120342Y-184031D01*
G01X3121041Y-181558D01*
G01X3121647Y-179438D01*
G01X3122253Y-177319D01*
G01X3123374Y-173222D01*
G01X3124496Y-169124D01*
G01X3124496Y-168487D01*
G01X3123051Y-168487D01*
G01X3115515Y-175906D01*
G01X3085076Y-205935D01*
G01X3083757Y-205950D01*
G01X3082437Y-205964D01*
G01X3023959Y-205905D01*
G01X3011593Y-194085D01*
G01X2999227Y-182265D01*
G01X2994533Y-182500D01*
G01X2989838Y-182736D01*
G01X2987011Y-180283D01*
G01X2984183Y-177831D01*
G01X2984198Y-175333D01*
G01X2988778Y-175333D01*
G01X2990071Y-176503D01*
G01X2991363Y-177672D01*
G01X2994378Y-177672D01*
G01X2995819Y-176126D01*
G01X2997260Y-174579D01*
G01X2997260Y-172286D01*
G01X2995819Y-170740D01*
G01X2994378Y-169193D01*
G01X2991920Y-169193D01*
G01X2988778Y-171393D01*
G01X2988778Y-175333D01*
G01X2988778Y-175333D01*
G01X2984198Y-175333D01*
G01X2984210Y-173408D01*
G01X2984236Y-168986D01*
G01X2986978Y-166617D01*
G01X2989720Y-164247D01*
G01X2995637Y-164247D01*
G01X2998029Y-165858D01*
G01X3000421Y-167469D01*
G01X3002187Y-170960D01*
G01X3002198Y-174520D01*
G01X3002208Y-178081D01*
G01X3025278Y-200989D01*
G01X3082854Y-200989D01*
G01X3102894Y-181136D01*
G01X3122934Y-161282D01*
G01X3125494Y-156531D01*
G01X3125171Y-156277D01*
G01X3124849Y-156023D01*
G01X3118496Y-155008D01*
G01X3112143Y-153993D01*
G01X3111739Y-151882D01*
G01X3113947Y-150909D01*
G01X3116156Y-149935D01*
G01X3120745Y-145643D01*
G01X3125335Y-141351D01*
G01X3131286Y-132805D01*
G01X3132766Y-129626D01*
G01X3134246Y-126446D01*
G01X3135136Y-124090D01*
G01X3136027Y-121734D01*
G01X3135960Y-114551D01*
G01X3135894Y-107369D01*
G01X3132863Y-98290D01*
G01X3127096Y-89705D01*
G01X3123498Y-86136D01*
G01X3119901Y-82568D01*
G01X3114246Y-78267D01*
G01X3110296Y-76123D01*
G01X3106346Y-73980D01*
G01X3102167Y-72545D01*
G01X3097988Y-71111D01*
G01X3090920Y-69628D01*
G01X3081024Y-68117D01*
G01X3059818Y-67820D01*
G01X3052042Y-69630D01*
G01X3046741Y-70981D01*
G01X3041439Y-72365D01*
G01X3030836Y-75249D01*
G01X3028362Y-75912D01*
G01X3025888Y-76575D01*
G01X3023342Y-77331D01*
G01X3020795Y-78087D01*
G01X3019917Y-80010D01*
G01X3019039Y-81932D01*
G01X3017256Y-87585D01*
G01X3015752Y-93238D01*
G01X3014225Y-100764D01*
G01X3014225Y-113375D01*
G01X3013355Y-113375D01*
G01X3010891Y-110725D01*
G01X3008426Y-108075D01*
G01X3000104Y-95789D01*
G01X2997425Y-90274D01*
G01X2994746Y-84759D01*
G01X2993800Y-81579D01*
G01X2992855Y-78400D01*
G01X2991754Y-74867D01*
G01X2990271Y-67095D01*
G01X2989802Y-62728D01*
G01X3079256Y-62728D01*
G01X3079256Y-63715D01*
G01X3090213Y-65401D01*
G01X3098695Y-66875D01*
G01X3107884Y-69641D01*
G01X3110358Y-70732D01*
G01X3112832Y-71824D01*
G01X3119901Y-75413D01*
G01X3123972Y-78174D01*
G01X3128043Y-80934D01*
G01X3132544Y-85411D01*
G01X3137046Y-89889D01*
G01X3139905Y-93683D01*
G01X3142764Y-97477D01*
G01X3147710Y-106662D01*
G01X3149260Y-110548D01*
G01X3150811Y-114434D01*
G01X3152497Y-119024D01*
G01X3154184Y-123614D01*
G01X3154184Y-138467D01*
G01X3153483Y-140910D01*
G01X3152782Y-143354D01*
G01X3148653Y-147618D01*
G01X3144524Y-151882D01*
G01X3140400Y-157535D01*
G01X3139384Y-159301D01*
G01X3138369Y-161068D01*
G01X3135340Y-166352D01*
G01X3132312Y-171637D01*
G01X3133443Y-172767D01*
G01X3135178Y-171864D01*
G01X3136912Y-170960D01*
G01X3140423Y-168422D01*
G01X3143934Y-165884D01*
G01X3145171Y-165441D01*
G01X3146408Y-164998D01*
G01X3146408Y-166746D01*
G01X3144736Y-169206D01*
G01X3143064Y-171666D01*
G01X3142545Y-174028D01*
G01X3142026Y-176389D01*
G01X3142501Y-179555D01*
G01X3142976Y-182720D01*
G01X3148379Y-188121D01*
G01X3151237Y-188604D01*
G01X3154094Y-189086D01*
G01X3156659Y-187869D01*
G01X3159224Y-186653D01*
G01X3161475Y-183837D01*
G01X3163726Y-181021D01*
G01X3169725Y-174224D01*
G01X3175723Y-167427D01*
G01X3178968Y-163894D01*
G01X3179575Y-161068D01*
G01X3179881Y-146583D01*
G01X3180187Y-132099D01*
G01X3180698Y-130509D01*
G01X3181210Y-128919D01*
G01X3182261Y-128919D01*
G01X3185187Y-137788D01*
G01X3188113Y-146657D01*
G01X3188113Y-166883D01*
G01X3186542Y-168921D01*
G01X3184970Y-170960D01*
G01X3181392Y-174493D01*
G01X3176977Y-179364D01*
G01X3172562Y-184236D01*
G01X3172562Y-215120D01*
G01X3173446Y-215117D01*
G01X3174329Y-215113D01*
G01X3176453Y-213174D01*
G01X3178576Y-211234D01*
G01X3183875Y-206667D01*
G01X3189174Y-202099D01*
G01X3192178Y-199142D01*
G01X3195182Y-196185D01*
G01X3195182Y-159301D01*
G01X3196038Y-159301D01*
G01X3202679Y-165394D01*
G01X3209319Y-171487D01*
G01X3209319Y-214381D01*
G01X3207516Y-215562D01*
G01X3205713Y-216743D01*
G01X3204688Y-218723D01*
G01X3203664Y-220702D01*
G01X3203667Y-223740D01*
G01X3203670Y-226778D01*
G01X3205049Y-229040D01*
G01X3206429Y-231302D01*
G01X3208546Y-232397D01*
G01X3210663Y-233491D01*
G01X3215774Y-233491D01*
G01X3217318Y-232673D01*
G01X3218862Y-231856D01*
G01X3220395Y-230088D01*
G01X3221927Y-228320D01*
G01X3222346Y-226088D01*
G01X3222765Y-223855D01*
G01X3221866Y-219357D01*
G01X3219127Y-216247D01*
G01X3216388Y-213137D01*
G01X3216388Y-166232D01*
G01X3217960Y-164003D01*
G01X3219533Y-161774D01*
G01X3227583Y-154002D01*
G01X3235633Y-146230D01*
G01X3236794Y-143202D01*
G01X3236015Y-140224D01*
G01X3234160Y-140224D01*
G01X3229111Y-135465D01*
G01X3229111Y-132939D01*
G01X3233352Y-132939D01*
G01X3234645Y-134109D01*
G01X3235938Y-135278D01*
G01X3239495Y-135278D01*
G01X3240665Y-133986D01*
G01X3241835Y-132694D01*
G01X3241835Y-130412D01*
G01X3238693Y-128212D01*
G01X3236494Y-128212D01*
G01X3233352Y-130412D01*
G01X3233352Y-132939D01*
G01X3233352Y-132939D01*
G01X3229111Y-132939D01*
G01X3229111Y-127615D01*
G01X3233300Y-123427D01*
G01X3237947Y-122913D01*
G01X3241717Y-123349D01*
G01X3243495Y-124996D01*
G01X3245272Y-126642D01*
G01X3246800Y-132314D01*
G01X3246110Y-134130D01*
G01X3245419Y-135945D01*
G01X3243274Y-138189D01*
G01X3241128Y-140434D01*
G01X3241128Y-143633D01*
G01X3261627Y-163127D01*
G01X3261627Y-185053D01*
G01X3264543Y-187563D01*
G01X3267459Y-190073D01*
G01X3267754Y-193588D01*
G01X3268048Y-197103D01*
G01X3267133Y-198869D01*
G01X3266217Y-200635D01*
G01X3263065Y-202225D01*
G01X3259913Y-203815D01*
G01X3258473Y-203383D01*
G01X3257032Y-202951D01*
G01X3254704Y-201875D01*
G01X3252375Y-200798D01*
G01X3251346Y-198809D01*
G01X3250317Y-196820D01*
G01X3250317Y-194566D01*
G01X3254354Y-194566D01*
G01X3255533Y-196364D01*
G01X3256711Y-198162D01*
G01X3261344Y-198162D01*
G01X3263041Y-196467D01*
G01X3263041Y-192793D01*
G01X3261344Y-191097D01*
G01X3256211Y-191097D01*
G01X3255282Y-192831D01*
G01X3254354Y-194566D01*
G01X3254354Y-194566D01*
G01X3250317Y-194566D01*
G01X3250317Y-190829D01*
G01X3253963Y-187461D01*
G01X3257608Y-184094D01*
G01X3257153Y-174347D01*
G01X3256697Y-164601D01*
G01X3248550Y-156828D01*
G01X3244437Y-153111D01*
G01X3240325Y-149393D01*
G01X3239352Y-149937D01*
G01X3238379Y-150481D01*
G01X3230211Y-158129D01*
G01X3222043Y-165776D01*
G01X3222043Y-209405D01*
G01X3226104Y-216290D01*
G01X3244333Y-243736D01*
G01X3246315Y-247622D01*
G01X3246315Y-247622D01*
G01X3247906Y-247622D01*
G01X3252974Y-240910D01*
G01X3256491Y-235610D01*
G01X3260007Y-230311D01*
G01X3262267Y-225542D01*
G01X3264527Y-220773D01*
G01X3266411Y-220773D01*
G01X3269073Y-223775D01*
G01X3271736Y-226778D01*
G01X3281469Y-237024D01*
G01X3282479Y-237005D01*
G01X3289089Y-226778D01*
G01X3291551Y-221534D01*
G01X3290709Y-209318D01*
G01X3289868Y-197103D01*
G01X3289178Y-184537D01*
G01X3288488Y-171972D01*
G01X3288488Y-169900D01*
G01X3289725Y-169915D01*
G01X3290962Y-169930D01*
G01X3293082Y-172894D01*
G01X3295203Y-175858D01*
G01X3298166Y-181014D01*
G01X3301129Y-186170D01*
G01X3302069Y-187109D01*
G01X3303008Y-188047D01*
G01X3304537Y-188866D01*
G01X3306066Y-189684D01*
G01X3313785Y-189684D01*
G01X3315912Y-187698D01*
G01X3318039Y-185712D01*
G01X3318915Y-182788D01*
G01X3319792Y-179865D01*
G01X3318904Y-177723D01*
G01X3318016Y-175581D01*
G01X3313953Y-170981D01*
G01X3309890Y-166380D01*
G01X3309462Y-161957D01*
G01X3309034Y-157535D01*
G01X3308079Y-141637D01*
G01X3310230Y-141637D01*
G01X3312962Y-144993D01*
G01X3315694Y-148350D01*
G01X3318690Y-151882D01*
G01X3324316Y-158324D01*
G01X3329942Y-164765D01*
G01X3331406Y-166626D01*
G01X3332870Y-168487D01*
G01X3333727Y-168487D01*
G01X3333727Y-148530D01*
G01X3328172Y-142787D01*
G01X3322618Y-137045D01*
G01X3318983Y-133181D01*
G01X3315349Y-129317D01*
G01X3315349Y-111776D01*
G01X3312344Y-108855D01*
G01X3309340Y-105934D01*
G01X3305528Y-102765D01*
G01X3301715Y-99597D01*
G01X3299166Y-97860D01*
G01X3296617Y-96124D01*
G01X3283893Y-89587D01*
G01X3281159Y-88021D01*
G01X3278424Y-86455D01*
G01X3273383Y-83084D01*
G01X3268342Y-79713D01*
G01X3260567Y-75357D01*
G01X3257739Y-73763D01*
G01X3254912Y-72168D01*
G01X3243596Y-66452D01*
G01X3232281Y-60735D01*
G01X3229106Y-59444D01*
G01X3225930Y-58153D01*
G01X3224517Y-57583D01*
G01X3223103Y-57014D01*
G01X3218322Y-55082D01*
G01X3213540Y-53149D01*
G01X3213121Y-52472D01*
G01X3212702Y-51794D01*
G01X3219569Y-52762D01*
G01X3224870Y-54136D01*
G01X3230172Y-55510D01*
G01X3240068Y-58378D01*
G01X3242895Y-59313D01*
G01X3245723Y-60249D01*
G01X3252084Y-62633D01*
G01X3255265Y-63915D01*
G01X3258446Y-65159D01*
G01X3271170Y-71308D01*
G01X3277065Y-74682D01*
G01X3282961Y-78056D01*
G01X3289082Y-82463D01*
G01X3295203Y-86871D01*
G01X3300151Y-90615D01*
G01X3305099Y-94360D01*
G01X3310972Y-99444D01*
G01X3316846Y-104529D01*
G01X3320445Y-108665D01*
G01X3324043Y-112800D01*
G01X3324114Y-121264D01*
G01X3324184Y-129727D01*
G01X3330546Y-135511D01*
G01X3336554Y-141291D01*
G01X3342563Y-147071D01*
G01X3346450Y-149572D01*
G01X3346450Y-147191D01*
G01X3344397Y-144238D01*
G01X3342343Y-141284D01*
G01X3341039Y-139862D01*
G01X3339735Y-138439D01*
G01X3338675Y-137106D01*
G01X3337615Y-135772D01*
G01X3336908Y-111200D01*
G01X3332667Y-107194D01*
G01X3328425Y-103189D01*
G01X3322763Y-97860D01*
G01X3317100Y-92531D01*
G01X3313927Y-89700D01*
G01X3310754Y-86870D01*
G01X3307220Y-83970D01*
G01X3303685Y-81071D01*
G01X3288841Y-71202D01*
G01X3277531Y-65051D01*
G01X3272622Y-62540D01*
G01X3267713Y-60029D01*
G01X3267465Y-59224D01*
G01X3267216Y-58419D01*
G01X3270853Y-57547D01*
G01X3274489Y-56675D01*
G01X3281885Y-56496D01*
G01X3285716Y-59379D01*
G01X3289548Y-62261D01*
G01X3296617Y-67459D01*
G01X3303685Y-72656D01*
G01X3317116Y-83509D01*
G01X3327012Y-92449D01*
G01X3347864Y-113073D01*
G01X3347864Y-134585D01*
G01X3350701Y-137013D01*
G01X3362355Y-143223D01*
G01X3374372Y-149414D01*
G01X3386388Y-155606D01*
G01X3390629Y-157880D01*
G01X3391513Y-157884D01*
G01X3392397Y-157888D01*
G01X3392397Y-129143D01*
G01X3387959Y-124968D01*
G01X3383521Y-120794D01*
G01X3377196Y-115141D01*
G01X3371896Y-110549D01*
G01X3366596Y-105957D01*
G01X3366243Y-105593D01*
G01X3365889Y-105230D01*
G01X3359881Y-99940D01*
G01X3353873Y-94651D01*
G01X3353519Y-94253D01*
G01X3353166Y-93856D01*
G01X3340610Y-83125D01*
G01X3328054Y-72394D01*
G01X3316829Y-72394D01*
G01X3314852Y-71548D01*
G01X3312874Y-70703D01*
G01X3302070Y-60067D01*
G01X3291266Y-49430D01*
G01X3276977Y-48991D01*
G01X3262687Y-48552D01*
G01X3249257Y-44126D01*
G01X3235826Y-39701D01*
G01X3231585Y-37705D01*
G01X3235473Y-38129D01*
G01X3239361Y-38552D01*
G01X3242895Y-39340D01*
G01X3246429Y-40129D01*
G01X3254429Y-42130D01*
G01X3262429Y-44131D01*
G01X3291964Y-44131D01*
G01X3298200Y-50383D01*
G01X3304437Y-56634D01*
G01X3305958Y-57448D01*
G01X3307480Y-58263D01*
G01X3345068Y-58263D01*
G01X3348410Y-61265D01*
G01X3351752Y-64268D01*
G01X3352105Y-64631D01*
G01X3352459Y-64994D01*
G01X3358467Y-70284D01*
G01X3364475Y-75573D01*
G01X3364829Y-75944D01*
G01X3365182Y-76315D01*
G01X3372958Y-82978D01*
G01X3380733Y-89641D01*
G01X3396978Y-103836D01*
G01X3398324Y-105044D01*
G01X3399669Y-106251D01*
G01X3407926Y-110475D01*
G01X3412520Y-115705D01*
G01X3414889Y-116694D01*
G01X3417258Y-117684D01*
G01X3419848Y-116853D01*
G01X3422438Y-116022D01*
G01X3425057Y-113731D01*
G01X3427033Y-109912D01*
G01X3427033Y-104826D01*
G01X3424934Y-100768D01*
G01X3422870Y-99299D01*
G01X3420806Y-97830D01*
G01X3413173Y-97830D01*
G01X3408377Y-102776D01*
G01X3407238Y-102776D01*
G01X3400348Y-96605D01*
G01X3393457Y-90433D01*
G01X3392750Y-89705D01*
G01X3376492Y-74867D01*
G01X3374372Y-72721D01*
G01X3368364Y-67435D01*
G01X3362356Y-62149D01*
G01X3357761Y-57836D01*
G01X3353166Y-53523D01*
G01X3350338Y-51049D01*
G01X3347511Y-48575D01*
G01X3345967Y-47766D01*
G01X3344423Y-46957D01*
G01X3327474Y-46957D01*
G01X3320698Y-38832D01*
G01X3317016Y-35083D01*
G01X3313334Y-31335D01*
G01X3276938Y-31588D01*
G01X3272640Y-27003D01*
G01X3268342Y-22418D01*
G01X3231683Y-21446D01*
G01X3230956Y-20997D01*
G01X3230228Y-20548D01*
G01X3232320Y-19879D01*
G01X3234413Y-19210D01*
G01X3270463Y-18574D01*
G01X3274545Y-22874D01*
G01X3278627Y-27174D01*
G01X3315156Y-27174D01*
G01X3319670Y-31993D01*
G01X3324184Y-36812D01*
G01X3326864Y-39765D01*
G01X3329543Y-42718D01*
G01X3334992Y-42765D01*
G01X3340442Y-42813D01*
G01X3358114Y-44712D01*
G01X3368227Y-45828D01*
G01X3378339Y-46945D01*
G01X3384974Y-51480D01*
G01X3398405Y-62835D01*
G01X3399112Y-63562D01*
G01X3403353Y-67101D01*
G01X3407594Y-70640D01*
G01X3408732Y-71521D01*
G01X3409869Y-72402D01*
G01X3419688Y-74930D01*
G01X3429507Y-77458D01*
G01X3431804Y-78105D01*
G01X3434101Y-78753D01*
G01X3436399Y-79394D01*
G01X3438696Y-80036D01*
G01X3442584Y-81217D01*
G01X3446472Y-82398D01*
G01X3449299Y-83355D01*
G01X3452126Y-84312D01*
G01X3463436Y-88458D01*
G01X3466195Y-89621D01*
G01X3468955Y-90783D01*
G01X3469300Y-90438D01*
G01X3469646Y-90092D01*
G01X3466323Y-86205D01*
G01X3463001Y-82318D01*
G01X3457210Y-77058D01*
G01X3451420Y-71799D01*
G01X3440110Y-62348D01*
G01X3406717Y-37243D01*
G01X3398051Y-31360D01*
G01X3398051Y-30068D01*
G01X3401255Y-27865D01*
G01X3404459Y-25661D01*
G01X3406309Y-22867D01*
G01X3408158Y-20073D01*
G01X3408482Y-16710D01*
G01X3408805Y-13347D01*
G01X3407242Y-10023D01*
G01X3405679Y-6700D01*
G01X3403253Y-4570D01*
G01X3400826Y-2441D01*
G01X3398292Y-1382D01*
G01X3395758Y-324D01*
G01X3362879Y-324D01*
G01X3360151Y3032D01*
G01X3357424Y6388D01*
G01X3351054Y13010D01*
G01X3344683Y19632D01*
G01X3340719Y22330D01*
G01X3336755Y25029D01*
G01X3327012Y28051D01*
G01X3325245Y28601D01*
G01X3325245Y29882D01*
G01X3329662Y30765D01*
G01X3355515Y30765D01*
G01X3362388Y24229D01*
G01X3369260Y17693D01*
G01X3371679Y16000D01*
G01X3396352Y15546D01*
G01X3421024Y15092D01*
G01X3428800Y14114D01*
G01X3436575Y13135D01*
G01X3440452Y12118D01*
G01X3444329Y11102D01*
G01X3444888Y11447D01*
G01X3445447Y11793D01*
G01X3443132Y14735D01*
G01X3440817Y17678D01*
G01X3434455Y24213D01*
G01X3430214Y25443D01*
G01X3425973Y26672D01*
G01X3421874Y27938D01*
G01X3410846Y27941D01*
G01X3399819Y27944D01*
G01X3397348Y29449D01*
G01X3394878Y30954D01*
G01X3377906Y43803D01*
G01X3377199Y44662D01*
G01X3370754Y48974D01*
G01X3364308Y53286D01*
G01X3357011Y56998D01*
G01X3349714Y60710D01*
G01X3337882Y61018D01*
G01X3326051Y61325D01*
G01X3324359Y60901D01*
G01X3322668Y60476D01*
G01X3313886Y50743D01*
G01X3305105Y41010D01*
G01X3303327Y39138D01*
G01X3280887Y39151D01*
G01X3258446Y39163D01*
G01X3257562Y39203D01*
G01X3256679Y39244D01*
G01X3256679Y42693D01*
G01X3257410Y43145D01*
G01X3258142Y43597D01*
G01X3300964Y43431D01*
G01X3308684Y51759D01*
G01X3316403Y60087D01*
G01X3318974Y62737D01*
G01X3321544Y65386D01*
G01X3337261Y65386D01*
G01X3337261Y66877D01*
G01X3333353Y68605D01*
G01X3329445Y70332D01*
G01X3313581Y70206D01*
G01X3310267Y69294D01*
G01X3306952Y68381D01*
G01X3304258Y66721D01*
G01X3301565Y65061D01*
G01X3293448Y57614D01*
G01X3267237Y57614D01*
G01X3266820Y58700D01*
G01X3266404Y59787D01*
G01X3268696Y62318D01*
G01X3268696Y63797D01*
G01X3264278Y64680D01*
G01X3256325Y64669D01*
G01X3248197Y63639D01*
G01X3240068Y62609D01*
G01X3231585Y60430D01*
G01X3223103Y56173D01*
G01X3221706Y55109D01*
G01X3220309Y54045D01*
G01X3222518Y49647D01*
G01X3224726Y45249D01*
G01X3226621Y40303D01*
G01X3226621Y28998D01*
G01X3224610Y24052D01*
G01X3221984Y20133D01*
G01X3219357Y16213D01*
G01X3212870Y10900D01*
G01X3208283Y8821D01*
G01X3203695Y6742D01*
G01X3200213Y6742D01*
G01X3199799Y6071D01*
G01X3199384Y5400D01*
G01X3204502Y4440D01*
G01X3209139Y4915D01*
G01X3213777Y5390D01*
G01X3218126Y7487D01*
G01X3222475Y9583D01*
G01X3226402Y13285D01*
G01X3230328Y16987D01*
G01X3234456Y23346D01*
G01X3236063Y26879D01*
G01X3236829Y29280D01*
G01X3237594Y31682D01*
G01X3237594Y36678D01*
G01X3239032Y39648D01*
G01X3240471Y42619D01*
G01X3245571Y46438D01*
G01X3250671Y50258D01*
G01X3254587Y52216D01*
G01X3256105Y50699D01*
G01X3255619Y48621D01*
G01X3243602Y39597D01*
G01X3242895Y25466D01*
G01X3240979Y21378D01*
G01X3239063Y17290D01*
G01X3236207Y13220D01*
G01X3233350Y9150D01*
G01X3226637Y4064D01*
G01X3221377Y1136D01*
G01X3216999Y-300D01*
G01X3212620Y-1737D01*
G01X3198078Y-1737D01*
G01X3189880Y372D01*
G01X3184667Y2932D01*
G01X3179454Y5493D01*
G01X3174752Y10180D01*
G01X3170050Y14867D01*
G01X3168347Y18263D01*
G01X3166644Y21658D01*
G01X3165585Y22313D01*
G01X3160587Y19507D01*
G01X3151710Y16584D01*
G01X3145970Y16532D01*
G01X3140230Y16480D01*
G01X3138548Y16988D01*
G01X3136866Y17495D01*
G01X3132443Y19576D01*
G01X3128020Y21656D01*
G01X3127336Y21234D01*
G01X3126652Y20811D01*
G01X3127526Y14160D01*
G01X3130146Y8508D01*
G01X3133152Y6614D01*
G01X3136159Y4721D01*
G01X3139340Y3711D01*
G01X3142521Y2700D01*
G01X3145475Y1881D01*
G01X3148430Y1062D01*
G01X3151130Y-2151D01*
G01X3153830Y-5364D01*
G01X3159485Y-8677D01*
G01X3172916Y-10284D01*
G01X3177510Y-10999D01*
G01X3182105Y-11714D01*
G01X3185639Y-12442D01*
G01X3189174Y-13169D01*
G01X3194941Y-14915D01*
G01X3200709Y-16661D01*
G01X3204837Y-19134D01*
G01X3208966Y-21607D01*
G01X3211937Y-24506D01*
G01X3214909Y-27404D01*
G01X3215916Y-29483D01*
G01X3216923Y-31561D01*
G01X3216208Y-34295D01*
G01X3210379Y-38223D01*
G01X3203978Y-41165D01*
G01X3198343Y-43072D01*
G01X3192708Y-44979D01*
G01X3189174Y-45983D01*
G01X3185639Y-46988D01*
G01X3166200Y-47627D01*
G01X3146762Y-48267D01*
G01X3140047Y-50077D01*
G01X3140047Y-51860D01*
G01X3155951Y-62352D01*
G01X3158022Y-64208D01*
G01X3160092Y-66064D01*
G01X3159435Y-66668D01*
G01X3158778Y-67271D01*
G01X3148175Y-64590D01*
G01X3144995Y-63905D01*
G01X3141814Y-63219D01*
G01X3130504Y-61214D01*
G01X3120698Y-60330D01*
G01X3110893Y-59447D01*
G01X3099846Y-60298D01*
G01X3088799Y-61149D01*
G01X3084028Y-61938D01*
G01X3079256Y-62728D01*
G01X2989802Y-62728D01*
G01X2989447Y-59420D01*
G01X2988623Y-51745D01*
G01X2988828Y-50004D01*
G01X3075502Y-50004D01*
G01X3086678Y-49058D01*
G01X3102229Y-47678D01*
G01X3106824Y-46967D01*
G01X3111419Y-46257D01*
G01X3114600Y-45609D01*
G01X3117780Y-44962D01*
G01X3129090Y-41887D01*
G01X3132271Y-41224D01*
G01X3135452Y-40562D01*
G01X3146762Y-39273D01*
G01X3162847Y-39695D01*
G01X3178932Y-40117D01*
G01X3184053Y-39213D01*
G01X3189174Y-38310D01*
G01X3193415Y-36886D01*
G01X3197656Y-35463D01*
G01X3200660Y-34067D01*
G01X3203664Y-32670D01*
G01X3203664Y-29273D01*
G01X3201367Y-27872D01*
G01X3199070Y-26472D01*
G01X3198453Y-26470D01*
G01X3197836Y-26467D01*
G01X3198688Y-27493D01*
G01X3199540Y-28519D01*
G01X3199070Y-30896D01*
G01X3188467Y-34367D01*
G01X3178924Y-34480D01*
G01X3169381Y-34593D01*
G01X3165494Y-33570D01*
G01X3161606Y-32547D01*
G01X3143227Y-32549D01*
G01X3139693Y-33427D01*
G01X3136159Y-34306D01*
G01X3129090Y-36098D01*
G01X3122022Y-37891D01*
G01X3117780Y-39063D01*
G01X3113893Y-40119D01*
G01X3110005Y-41175D01*
G01X3102936Y-42571D01*
G01X3095868Y-43966D01*
G01X3085972Y-45665D01*
G01X3076381Y-48582D01*
G01X3075942Y-49293D01*
G01X3075942Y-49293D01*
G01X3075502Y-50004D01*
G01X2988828Y-50004D01*
G01X2989425Y-44935D01*
G01X2990226Y-38125D01*
G01X2991695Y-31766D01*
G01X2993187Y-26114D01*
G01X2995360Y-20461D01*
G01X2997534Y-14809D01*
G01X2999630Y-10923D01*
G01X3001726Y-7037D01*
G01X3005955Y-677D01*
G01X3013162Y7801D01*
G01X3014577Y9216D01*
G01X3015992Y10631D01*
G01X3019613Y13712D01*
G01X3070586Y13712D01*
G01X3071549Y11816D01*
G01X3072512Y9921D01*
G01X3072512Y9921D01*
G01X3075799Y5448D01*
G01X3082068Y2502D01*
G01X3093394Y2502D01*
G01X3093394Y6072D01*
G01X3090374Y9056D01*
G01X3087355Y12041D01*
G01X3084195Y13686D01*
G01X3081036Y15331D01*
G01X3076275Y15730D01*
G01X3071514Y16129D01*
G01X3070586Y13712D01*
G01X3019613Y13712D01*
G01X3020233Y14240D01*
G01X3024475Y17849D01*
G01X3029869Y21446D01*
G01X3035264Y25042D01*
G01X3037998Y26584D01*
G01X3038056Y26617D01*
G01X3175102Y26617D01*
G01X3176963Y23140D01*
G01X3182105Y17829D01*
G01X3185634Y16189D01*
G01X3189164Y14549D01*
G01X3189164Y14549D01*
G01X3192148Y14102D01*
G01X3195132Y13654D01*
G01X3202604Y15445D01*
G01X3205078Y16812D01*
G01X3207552Y18180D01*
G01X3211566Y21933D01*
G01X3213191Y24759D01*
G01X3214816Y27585D01*
G01X3215649Y31198D01*
G01X3216482Y34811D01*
G01X3214366Y42910D01*
G01X3212540Y45670D01*
G01X3210713Y48429D01*
G01X3210193Y48425D01*
G01X3209673Y48420D01*
G01X3207905Y47463D01*
G01X3206138Y46505D01*
G01X3196694Y40755D01*
G01X3187250Y35004D01*
G01X3186564Y35004D01*
G01X3184688Y33675D01*
G01X3182812Y32345D01*
G01X3179645Y30572D01*
G01X3176478Y28799D01*
G01X3175790Y27708D01*
G01X3175102Y26617D01*
G01X3038056Y26617D01*
G01X3040732Y28126D01*
G01X3045327Y30444D01*
G01X3049922Y32762D01*
G01X3055576Y35148D01*
G01X3056990Y35714D01*
G01X3058404Y36279D01*
G01X3066179Y39176D01*
G01X3071481Y40909D01*
G01X3076782Y42642D01*
G01X3077292Y51011D01*
G01X3077802Y59381D01*
G01X3078597Y62560D01*
G01X3079392Y65740D01*
G01X3080828Y69979D01*
G01X3082877Y74442D01*
G01X3084926Y78905D01*
G01X3088720Y83627D01*
G01X3092514Y88350D01*
G01X3098083Y93649D01*
G01X3103652Y98948D01*
G01X3109656Y104206D01*
G01X3115660Y109464D01*
G01X3120079Y114098D01*
G01X3124498Y118732D01*
G01X3129596Y128874D01*
G01X3130501Y128527D01*
G01X3131405Y128181D01*
G01X3132276Y122585D01*
G01X3133147Y116989D01*
G01X3132461Y113399D01*
G01X3132986Y113075D01*
G01X3133511Y112750D01*
G01X3143227Y119147D01*
G01X3158999Y126858D01*
G01X3160970Y126858D01*
G01X3162313Y128044D01*
G01X3169735Y130311D01*
G01X3177157Y132578D01*
G01X3179808Y133250D01*
G01X3182458Y133923D01*
G01X3187760Y135322D01*
G01X3193415Y136481D01*
G01X3199070Y137639D01*
G01X3204725Y138738D01*
G01X3208612Y139509D01*
G01X3212500Y140279D01*
G01X3218155Y141559D01*
G01X3226637Y143870D01*
G01X3230878Y145337D01*
G01X3235120Y146805D01*
G01X3246826Y152463D01*
G01X3255619Y158109D01*
G01X3259975Y162267D01*
G01X3264332Y166425D01*
G01X3265868Y166425D01*
G01X3265868Y164105D01*
G01X3262893Y154060D01*
G01X3260770Y149639D01*
G01X3258646Y145217D01*
G01X3258016Y144828D01*
G01X3257386Y144438D01*
G01X3257386Y142205D01*
G01X3261097Y142704D01*
G01X3264808Y143203D01*
G01X3274704Y144115D01*
G01X3284600Y145027D01*
G01X3305099Y143822D01*
G01X3322064Y142390D01*
G01X3347634Y142402D01*
G01X3354288Y143410D01*
G01X3360941Y144418D01*
G01X3364281Y145175D01*
G01X3367620Y145933D01*
G01X3373097Y147771D01*
G01X3378573Y149608D01*
G01X3387802Y154339D01*
G01X3392043Y157231D01*
G01X3393103Y157240D01*
G01X3393085Y154767D01*
G01X3387329Y143462D01*
G01X3384574Y139800D01*
G01X3381819Y136138D01*
G01X3377389Y131884D01*
G01X3372958Y127631D01*
G01X3369424Y125082D01*
G01X3365889Y122532D01*
G01X3355640Y116838D01*
G01X3355640Y115813D01*
G01X3362532Y113526D01*
G01X3369424Y111239D01*
G01X3380733Y106939D01*
G01X3382147Y106372D01*
G01X3383561Y105805D01*
G01X3386265Y104614D01*
G01X3388970Y103424D01*
G01X3394748Y101306D01*
G01X3400525Y99187D01*
G01X3406887Y97035D01*
G01X3413249Y94882D01*
G01X3415370Y94305D01*
G01X3417490Y93729D01*
G01X3423145Y92218D01*
G01X3430214Y90742D01*
G01X3434101Y90059D01*
G01X3437989Y89376D01*
G01X3446472Y88347D01*
G01X3454954Y87318D01*
G01X3472988Y87290D01*
G01X3480143Y88364D01*
G01X3487297Y89438D01*
G01X3487865Y89789D01*
G01X3488432Y90139D01*
G01X3488807Y89533D01*
G01X3489182Y88927D01*
G01X3486912Y86832D01*
G01X3484642Y84737D01*
G01X3476867Y78914D01*
G01X3462729Y71843D01*
G01X3447885Y66949D01*
G01X3438696Y64595D01*
G01X3436025Y63896D01*
G01X3433354Y63198D01*
G01X3433776Y62514D01*
G01X3434199Y61831D01*
G01X3439628Y58211D01*
G01X3445058Y54592D01*
G01X3446472Y53339D01*
G01X3447885Y52086D01*
G01X3459195Y45202D01*
G01X3464143Y42887D01*
G01X3471502Y39996D01*
G01X3476172Y38913D01*
G01X3480842Y37830D01*
G01X3484407Y37830D01*
G01X3484137Y37022D01*
G01X3483868Y36215D01*
G01X3477573Y32929D01*
G01X3472863Y31225D01*
G01X3468153Y29522D01*
G01X3464521Y28651D01*
G01X3460889Y27780D01*
G01X3461102Y26882D01*
G01X3461316Y25984D01*
G01X3470056Y17798D01*
G01X3478795Y9612D01*
G01X3484900Y5474D01*
G01X3491004Y1337D01*
G01X3500193Y-2925D01*
G01X3502314Y-3677D01*
G01X3504434Y-4428D01*
G01X3507792Y-5294D01*
G01X3511149Y-6160D01*
G01X3511149Y-7166D01*
G01X3508443Y-7977D01*
G01X3505736Y-8787D01*
G01X3500137Y-10197D01*
G01X3494538Y-11607D01*
G01X3488363Y-11618D01*
G01X3482188Y-11629D01*
G01X3475852Y-9935D01*
G01X3475355Y-10432D01*
G01X3474858Y-10928D01*
G01X3476295Y-12515D01*
G01X3477731Y-14102D01*
G01X3481540Y-19661D01*
G01X3485349Y-25221D01*
G01X3491004Y-33239D01*
G01X3495540Y-39215D01*
G01X3500076Y-45191D01*
G01X3510737Y-55822D01*
G01X3521399Y-66453D01*
G01X3527963Y-71290D01*
G01X3534527Y-76127D01*
G01X3534307Y-76786D01*
G01X3534087Y-77446D01*
G01X3533050Y-77521D01*
G01X3525124Y-77007D01*
G01X3517197Y-76494D01*
G01X3512936Y-75536D01*
G01X3508675Y-74578D01*
G01X3506201Y-73921D01*
G01X3503727Y-73263D01*
G01X3502314Y-72764D01*
G01X3500900Y-72266D01*
G01X3498073Y-71129D01*
G01X3493964Y-69215D01*
G01X3489855Y-67301D01*
G01X3489390Y-67766D01*
G01X3488925Y-68230D01*
G01X3492884Y-75788D01*
G01X3496843Y-83346D01*
G01X3506685Y-102423D01*
G01X3512074Y-112315D01*
G01X3513379Y-114190D01*
G01X3514684Y-116066D01*
G01X3514684Y-116945D01*
G01X3527603Y-136338D01*
G01X3537303Y-149220D01*
G01X3537303Y-150935D01*
G01X3532709Y-150026D01*
G01X3525640Y-147430D01*
G01X3519632Y-145102D01*
G01X3513623Y-142773D01*
G01X3508322Y-139985D01*
G01X3503021Y-137197D01*
G01X3498779Y-134342D01*
G01X3494538Y-131488D01*
G01X3491888Y-129379D01*
G01X3489237Y-127270D01*
G01X3488579Y-127928D01*
G01X3491644Y-137079D01*
G01X3494708Y-146230D01*
G01X3496262Y-151529D01*
G01X3497816Y-156828D01*
G01X3498986Y-160361D01*
G01X3500522Y-165660D01*
G01X3502058Y-170960D01*
G01X3503492Y-174846D01*
G01X3504926Y-178732D01*
G01X3505508Y-180145D01*
G01X3506092Y-181558D01*
G01X3508672Y-187917D01*
G01X3512738Y-196012D01*
G01X3516804Y-204106D01*
G01X3516804Y-205228D01*
G01X3515317Y-205228D01*
G01X3509695Y-202424D01*
G01X3504073Y-199620D01*
G01X3498245Y-195739D01*
G01X3492418Y-191858D01*
G01X3487470Y-187477D01*
G01X3482522Y-183096D01*
G01X3476825Y-177204D01*
G01X3471128Y-171313D01*
G01X3469293Y-171313D01*
G01X3470289Y-173786D01*
G01X3472090Y-180145D01*
G01X3472845Y-184031D01*
G01X3473601Y-187917D01*
G01X3474350Y-191980D01*
G01X3475099Y-196043D01*
G01X3475764Y-199752D01*
G01X3476428Y-203462D01*
G01X3477212Y-207701D01*
G01X3477995Y-211941D01*
G01X3479410Y-219006D01*
G01X3480927Y-225365D01*
G01X3483252Y-232431D01*
G01X3485578Y-239497D01*
G01X3486069Y-240733D01*
G01X3486561Y-241970D01*
G01X3483506Y-241970D01*
G01X3476295Y-239558D01*
G01X3469084Y-237146D01*
G01X3463433Y-234902D01*
G01X3457781Y-232659D01*
G01X3451420Y-229809D01*
G01X3446472Y-227662D01*
G01X3441989Y-225578D01*
G01X3437506Y-223493D01*
G01X3437086Y-223913D01*
G01X3436667Y-224332D01*
G01X3446517Y-234383D01*
G01X3456368Y-244435D01*
G01X3457275Y-245017D01*
G01X3458183Y-245599D01*
G01X3497665Y-246003D01*
G01X3537147Y-246407D01*
G01X3539777Y-243209D01*
G01X3542499Y-240574D01*
G01X3544918Y-240121D01*
G01X3547336Y-239667D01*
G01X3552783Y-241298D01*
G01X3554369Y-243524D01*
G01X3555954Y-245749D01*
G01X3555952Y-248982D01*
G01X3555951Y-252215D01*
G01X3554714Y-254097D01*
G01X3553478Y-255979D01*
G01X3550953Y-257177D01*
G01X3548427Y-258375D01*
G01X3545886Y-257963D01*
G01X3543345Y-257551D01*
G01X3541561Y-256241D01*
G01X3539777Y-254930D01*
G01X3538394Y-251889D01*
G01X3537318Y-251436D01*
G01X3536572Y-251122D01*
G01X3542958Y-251122D01*
G01X3546482Y-253430D01*
G01X3548279Y-252980D01*
G01X3550075Y-252529D01*
G01X3551686Y-248994D01*
G01X3550256Y-247072D01*
G01X3548825Y-245149D01*
G01X3547482Y-244951D01*
G01X3546139Y-244754D01*
G01X3542958Y-246996D01*
G01X3542958Y-251122D01*
G01X3542958Y-251122D01*
G01X3536572Y-251122D01*
G01X3536243Y-250984D01*
G01X3455661Y-250300D01*
G01X3440424Y-235007D01*
G01X3425187Y-219713D01*
G01X3420985Y-216577D01*
G01X3416783Y-213441D01*
G01X3410543Y-208761D01*
G01X3408501Y-208761D01*
G01X3408877Y-210351D01*
G01X3409252Y-211941D01*
G01X3410218Y-222718D01*
G01X3454335Y-266735D01*
G01X3477617Y-266699D01*
G01X3500900Y-266663D01*
G01X3501828Y-266681D01*
G01X3502757Y-266699D01*
G01X3502535Y-268996D01*
G01X3502314Y-271292D01*
G01X3477331Y-271478D01*
G01X3452348Y-271664D01*
G01X3431414Y-250832D01*
G01X3410479Y-230000D01*
G01X3409931Y-230862D01*
G01X3409383Y-231724D01*
G01X3409390Y-235257D01*
G01X3409397Y-238790D01*
G01X3426564Y-256454D01*
G01X3442461Y-272529D01*
G01X3458359Y-288603D01*
G01X3504949Y-288603D01*
G01X3507567Y-285654D01*
G01X3510184Y-282706D01*
G01X3517293Y-282597D01*
G01X3519165Y-283597D01*
G01X3521036Y-284597D01*
G01X3522184Y-286349D01*
G01X3523333Y-288101D01*
G01X3523382Y-291399D01*
G01X3523432Y-294697D01*
G01X3522278Y-296344D01*
G01X3521123Y-297992D01*
G01X3519141Y-299298D01*
G01X3517158Y-300605D01*
G01X3514791Y-300610D01*
G01X3512423Y-300614D01*
G01X3510165Y-299543D01*
G01X3507906Y-298472D01*
G01X3505527Y-294446D01*
G01X3502860Y-294005D01*
G01X3500193Y-293564D01*
G01X3456460Y-293549D01*
G01X3456244Y-293330D01*
G01X3510443Y-293330D01*
G01X3511798Y-294556D01*
G01X3513154Y-295782D01*
G01X3514731Y-295549D01*
G01X3516309Y-295315D01*
G01X3519201Y-291429D01*
G01X3516309Y-287543D01*
G01X3514966Y-287345D01*
G01X3513623Y-287148D01*
G01X3510443Y-289390D01*
G01X3510443Y-293330D01*
G01X3510443Y-293330D01*
G01X3456244Y-293330D01*
G01X3409869Y-246209D01*
G01X3408012Y-246209D01*
G01X3407132Y-250897D01*
G01X3407363Y-253100D01*
G01X3407594Y-255304D01*
G01X3438892Y-286791D01*
G01X3470190Y-318279D01*
G01X3494587Y-318279D01*
G01X3495863Y-316119D01*
G01X3497140Y-313959D01*
G01X3500223Y-312462D01*
G01X3503306Y-310964D01*
G01X3506212Y-311923D01*
G01X3509119Y-312882D01*
G01X3510813Y-314894D01*
G01X3512507Y-316907D01*
G01X3513432Y-321835D01*
G01X3512506Y-324120D01*
G01X3511580Y-326404D01*
G01X3509798Y-327971D01*
G01X3508015Y-329539D01*
G01X3506048Y-329971D01*
G01X3504081Y-330403D01*
G01X3501954Y-329936D01*
G01X3499827Y-329469D01*
G01X3497027Y-326149D01*
G01X3494226Y-322830D01*
G01X3467441Y-322513D01*
G01X3465189Y-320249D01*
G01X3499775Y-320249D01*
G01X3500709Y-323968D01*
G01X3503281Y-325344D01*
G01X3504211Y-325322D01*
G01X3505141Y-325299D01*
G01X3506496Y-324275D01*
G01X3507851Y-323250D01*
G01X3507851Y-318785D01*
G01X3506538Y-317825D01*
G01X3505224Y-316865D01*
G01X3501993Y-316865D01*
G01X3499775Y-320249D01*
G01X3499775Y-320249D01*
G01X3465189Y-320249D01*
G01X3406256Y-261022D01*
G01X3404928Y-261464D01*
G01X3403708Y-266025D01*
G01X3402489Y-270585D01*
G01X3397926Y-281891D01*
G01X3396575Y-284855D01*
G01X3395224Y-287819D01*
G01X3395224Y-289708D01*
G01X3409577Y-303993D01*
G01X3423931Y-318279D01*
G01X3453844Y-318279D01*
G01X3454576Y-319645D01*
G01X3455307Y-321012D01*
G01X3455307Y-343410D01*
G01X3457437Y-344668D01*
G01X3459566Y-345925D01*
G01X3461027Y-348788D01*
G01X3462488Y-351651D01*
G01X3462024Y-353512D01*
G01X3461559Y-355373D01*
G01X3460130Y-357689D01*
G01X3458702Y-360005D01*
G01X3456121Y-361087D01*
G37*
G36*
G01X3278009Y-189919D02*
G01X3273644Y-189919D01*
G01X3273246Y-189521D01*
G01X3272847Y-189123D01*
G01X3272973Y-156302D01*
G01X3269424Y-151651D01*
G01X3268521Y-150707D01*
G01X3267619Y-149763D01*
G01X3262053Y-143050D01*
G01X3256487Y-136338D01*
G01X3253820Y-133158D01*
G01X3251153Y-129979D01*
G01X3243256Y-120087D01*
G01X3243252Y-118615D01*
G01X3243249Y-117143D01*
G01X3243671Y-116721D01*
G01X3244094Y-116298D01*
G01X3246012Y-117034D01*
G01X3253643Y-125979D01*
G01X3261274Y-134924D01*
G01X3277178Y-153834D01*
G01X3277223Y-181558D01*
G01X3278261Y-182930D01*
G01X3279299Y-184301D01*
G01X3279288Y-186109D01*
G01X3279277Y-187917D01*
G01X3278643Y-188918D01*
G01X3278009Y-189919D01*
G37*
G36*
G01X3156903Y-175431D02*
G01X3155572Y-176636D01*
G01X3154241Y-177840D01*
G01X3152456Y-177392D01*
G01X3150671Y-176944D01*
G01X3150246Y-175251D01*
G01X3149821Y-173558D01*
G01X3154746Y-166248D01*
G01X3160068Y-160797D01*
G01X3165390Y-155346D01*
G01X3165847Y-109489D01*
G01X3163946Y-104543D01*
G01X3161762Y-99950D01*
G01X3159578Y-95357D01*
G01X3155593Y-89351D01*
G01X3151609Y-83346D01*
G01X3150566Y-81579D01*
G01X3151140Y-81579D01*
G01X3153930Y-84052D01*
G01X3162313Y-94666D01*
G01X3165347Y-99697D01*
G01X3168381Y-104727D01*
G01X3169749Y-108467D01*
G01X3171116Y-112207D01*
G01X3170665Y-134347D01*
G01X3170213Y-156486D01*
G01X3163161Y-163511D01*
G01X3156108Y-170536D01*
G01X3156505Y-172984D01*
G01X3156903Y-175431D01*
G37*
G36*
G01X3305505Y-176565D02*
G01X3304144Y-177796D01*
G01X3301565Y-177307D01*
G01X3301333Y-175284D01*
G01X3301101Y-173261D01*
G01X3302625Y-171737D01*
G01X3302625Y-169434D01*
G01X3283893Y-147534D01*
G01X3279581Y-142289D01*
G01X3275269Y-137045D01*
G01X3270839Y-131745D01*
G01X3266409Y-126446D01*
G01X3263394Y-122899D01*
G01X3260223Y-119020D01*
G01X3257052Y-115141D01*
G01X3256249Y-114434D01*
G01X3251440Y-108429D01*
G01X3246632Y-102423D01*
G01X3245016Y-101536D01*
G01X3234725Y-101203D01*
G01X3224434Y-100871D01*
G01X3211398Y-87844D01*
G01X3198363Y-74816D01*
G01X3183913Y-65328D01*
G01X3182458Y-65328D01*
G01X3182458Y-63915D01*
G01X3183891Y-63915D01*
G01X3185119Y-64531D01*
G01X3186346Y-65147D01*
G01X3195535Y-69782D01*
G01X3206138Y-76878D01*
G01X3216262Y-86824D01*
G01X3226385Y-96770D01*
G01X3237218Y-97009D01*
G01X3248050Y-97248D01*
G01X3251812Y-101882D01*
G01X3255574Y-106516D01*
G01X3256306Y-107296D01*
G01X3257039Y-108075D01*
G01X3260207Y-111961D01*
G01X3263375Y-115848D01*
G01X3263764Y-116201D01*
G01X3264153Y-116554D01*
G01X3281773Y-137775D01*
G01X3287427Y-144707D01*
G01X3293014Y-151474D01*
G01X3298601Y-158242D01*
G01X3304594Y-164732D01*
G01X3305730Y-166927D01*
G01X3306866Y-169123D01*
G01X3306866Y-175333D01*
G01X3305505Y-176565D01*
G37*
G36*
G01X3214621Y-156828D02*
G01X3213031Y-157054D01*
G01X3211442Y-157280D01*
G01X3210667Y-155288D01*
G01X3209893Y-153296D01*
G01X3210212Y-148084D01*
G01X3210532Y-142873D01*
G01X3214116Y-139605D01*
G01X3217701Y-136338D01*
G01X3218458Y-134795D01*
G01X3219215Y-133251D01*
G01X3219215Y-125503D01*
G01X3217833Y-122280D01*
G01X3216450Y-119056D01*
G01X3212769Y-113566D01*
G01X3209088Y-108075D01*
G01X3207613Y-106243D01*
G01X3206138Y-104410D01*
G01X3204018Y-101667D01*
G01X3201897Y-98924D01*
G01X3189710Y-84759D01*
G01X3186248Y-81579D01*
G01X3182786Y-78400D01*
G01X3179795Y-75831D01*
G01X3176803Y-73262D01*
G01X3176803Y-72465D01*
G01X3179721Y-74019D01*
G01X3182638Y-75573D01*
G01X3189086Y-80929D01*
G01X3195535Y-86285D01*
G01X3204725Y-96081D01*
G01X3209021Y-101372D01*
G01X3213318Y-106662D01*
G01X3220429Y-117261D01*
G01X3221943Y-120396D01*
G01X3223456Y-123532D01*
G01X3223456Y-136475D01*
G01X3219242Y-140902D01*
G01X3215029Y-145329D01*
G01X3214825Y-151079D01*
G01X3214621Y-156828D01*
G37*
G36*
G01X3204321Y-147795D02*
G01X3202333Y-150469D01*
G01X3201055Y-149687D01*
G01X3199776Y-148905D01*
G01X3199423Y-134849D01*
G01X3199070Y-120794D01*
G01X3198408Y-119734D01*
G01X3197746Y-118674D01*
G01X3194016Y-113728D01*
G01X3183643Y-99681D01*
G01X3179993Y-95357D01*
G01X3171153Y-86307D01*
G01X3162313Y-77256D01*
G01X3165078Y-78309D01*
G01X3166457Y-79414D01*
G01X3167836Y-80519D01*
G01X3173203Y-85193D01*
G01X3178571Y-89867D01*
G01X3181754Y-92965D01*
G01X3184937Y-96064D01*
G01X3190644Y-102423D01*
G01X3199163Y-113728D01*
G01X3201308Y-116907D01*
G01X3203453Y-120087D01*
G01X3204321Y-147795D01*
G37*
G36*
G01X3296236Y-134572D02*
G01X3297128Y-138123D01*
G01X3295383Y-140224D01*
G01X3292836Y-140224D01*
G01X3291192Y-138071D01*
G01X3289548Y-135918D01*
G01X3281410Y-126236D01*
G01X3273273Y-116554D01*
G01X3260977Y-101822D01*
G01X3248681Y-87089D01*
G01X3245081Y-84244D01*
G01X3241481Y-81398D01*
G01X3237594Y-78896D01*
G01X3233706Y-76394D01*
G01X3217448Y-68246D01*
G01X3208259Y-64159D01*
G01X3204018Y-62555D01*
G01X3199776Y-60951D01*
G01X3198363Y-60373D01*
G01X3196949Y-59794D01*
G01X3194652Y-58856D01*
G01X3192354Y-57918D01*
G01X3192354Y-56698D01*
G01X3193591Y-57176D01*
G01X3194828Y-57654D01*
G01X3198009Y-58272D01*
G01X3201190Y-58890D01*
G01X3209673Y-61644D01*
G01X3212853Y-62857D01*
G01X3216034Y-64070D01*
G01X3220275Y-65886D01*
G01X3223810Y-67447D01*
G01X3227344Y-69009D01*
G01X3239937Y-75260D01*
G01X3244706Y-78429D01*
G01X3249474Y-81597D01*
G01X3258939Y-91770D01*
G01X3268219Y-103102D01*
G01X3277500Y-114434D01*
G01X3288779Y-127859D01*
G01X3291638Y-131215D01*
G01X3294496Y-134571D01*
G01X3295366Y-134571D01*
G01X3296236Y-134572D01*
G37*
G36*
G01X3373701Y-38409D02*
G01X3372677Y-40389D01*
G01X3369120Y-42718D01*
G01X3362192Y-42718D01*
G01X3360291Y-41224D01*
G01X3358391Y-39729D01*
G01X3357354Y-37139D01*
G01X3356710Y-35530D01*
G01X3361172Y-35530D01*
G01X3364208Y-38564D01*
G01X3367870Y-38125D01*
G01X3369315Y-36182D01*
G01X3370760Y-34239D01*
G01X3367870Y-30353D01*
G01X3365759Y-30140D01*
G01X3363648Y-29928D01*
G01X3362882Y-30851D01*
G01X3362115Y-31774D01*
G01X3361644Y-33652D01*
G01X3361172Y-35530D01*
G01X3361172Y-35530D01*
G01X3356710Y-35530D01*
G01X3356317Y-34549D01*
G01X3354616Y-33511D01*
G01X3352915Y-32473D01*
G01X3348799Y-28573D01*
G01X3344683Y-24673D01*
G01X3338985Y-19584D01*
G01X3333287Y-14495D01*
G01X3330679Y-13406D01*
G01X3328072Y-12317D01*
G01X3328072Y-10452D01*
G01X3328602Y-9920D01*
G01X3329132Y-9388D01*
G01X3331944Y-9836D01*
G01X3334756Y-10284D01*
G01X3339013Y-13955D01*
G01X3343270Y-17626D01*
G01X3348718Y-22843D01*
G01X3354167Y-28059D01*
G01X3357022Y-30058D01*
G01X3359102Y-27732D01*
G01X3361182Y-25407D01*
G01X3369682Y-25455D01*
G01X3371215Y-26843D01*
G01X3372749Y-28230D01*
G01X3374725Y-32049D01*
G01X3374725Y-36429D01*
G01X3373701Y-38409D01*
G37*
G36*
G01X3336459Y-34239D02*
G01X3334787Y-34407D01*
G01X3333904Y-34292D01*
G01X3333020Y-34177D01*
G01X3326905Y-27849D01*
G01X3320789Y-21521D01*
G01X3281588Y-21521D01*
G01X3277896Y-17295D01*
G01X3274204Y-13068D01*
G01X3271627Y-12353D01*
G01X3269049Y-11637D01*
G01X3223540Y-11629D01*
G01X3222792Y-10420D01*
G01X3237240Y-8812D01*
G01X3259153Y-7614D01*
G01X3274501Y-7390D01*
G01X3284707Y-17282D01*
G01X3322450Y-17282D01*
G01X3334231Y-28587D01*
G01X3335798Y-28587D01*
G01X3336569Y-30027D01*
G01X3337340Y-31466D01*
G01X3336899Y-32853D01*
G01X3336459Y-34239D01*
G37*
G36*
G01X3395245Y-24347D02*
G01X3388608Y-24347D01*
G01X3385482Y-20991D01*
G01X3382357Y-17635D01*
G01X3371207Y-17398D01*
G01X3360057Y-17161D01*
G01X3359516Y-16639D01*
G01X3387449Y-16639D01*
G01X3389184Y-18374D01*
G01X3390919Y-20108D01*
G01X3392789Y-20108D01*
G01X3395931Y-17908D01*
G01X3395931Y-13968D01*
G01X3394638Y-12799D01*
G01X3393346Y-11629D01*
G01X3390379Y-11629D01*
G01X3388914Y-13491D01*
G01X3387449Y-15353D01*
G01X3387449Y-16639D01*
G01X3387449Y-16639D01*
G01X3359516Y-16639D01*
G01X3346804Y-4393D01*
G01X3337205Y5060D01*
G01X3327605Y14514D01*
G01X3259114Y14514D01*
G01X3255619Y12158D01*
G01X3247721Y4504D01*
G01X3239824Y-3150D01*
G01X3234939Y-3150D01*
G01X3233052Y-878D01*
G01X3235743Y1089D01*
G01X3238803Y1089D01*
G01X3252203Y14867D01*
G01X3254143Y16633D01*
G01X3256084Y18400D01*
G01X3285893Y18772D01*
G01X3315702Y19144D01*
G01X3321580Y19302D01*
G01X3327458Y19460D01*
G01X3330345Y17915D01*
G01X3335747Y12480D01*
G01X3341149Y7044D01*
G01X3351497Y-2999D01*
G01X3361845Y-13042D01*
G01X3383834Y-13042D01*
G01X3385017Y-11041D01*
G01X3386199Y-9040D01*
G01X3387616Y-8156D01*
G01X3389032Y-7272D01*
G01X3395097Y-7272D01*
G01X3396474Y-8009D01*
G01X3397851Y-8746D01*
G01X3400335Y-12535D01*
G01X3400335Y-19684D01*
G01X3395245Y-24347D01*
G37*
G36*
G01X3326658Y591D02*
G01X3323477Y-4044D01*
G01X3318001Y-6197D01*
G01X3315464Y-5280D01*
G01X3312926Y-4363D01*
G01X3312146Y-3580D01*
G01X3311367Y-2797D01*
G01X3309265Y415D01*
G01X3313935Y415D01*
G01X3315655Y-711D01*
G01X3317374Y-1838D01*
G01X3319012Y-975D01*
G01X3320650Y-113D01*
G01X3321689Y1442D01*
G01X3321710Y4403D01*
G01X3320418Y5572D01*
G01X3319125Y6742D01*
G01X3316275Y6742D01*
G01X3315105Y5449D01*
G01X3313935Y4157D01*
G01X3313935Y415D01*
G01X3313935Y415D01*
G01X3309265Y415D01*
G01X3308824Y1089D01*
G01X3264908Y1089D01*
G01X3262586Y250D01*
G01X3260264Y-590D01*
G01X3258825Y713D01*
G01X3257386Y2015D01*
G01X3257386Y5102D01*
G01X3258976Y5821D01*
G01X3260567Y6540D01*
G01X3261980Y5984D01*
G01X3263394Y5428D01*
G01X3286014Y5378D01*
G01X3308633Y5328D01*
G01X3310646Y7849D01*
G01X3312658Y10371D01*
G01X3314180Y10984D01*
G01X3315702Y11598D01*
G01X3317823Y11632D01*
G01X3319943Y11667D01*
G01X3323435Y9901D01*
G01X3325047Y7510D01*
G01X3326658Y5119D01*
G01X3326658Y591D01*
G37*
G36*
G01X3280099Y25739D02*
G01X3278425Y25466D01*
G01X3277016Y27330D01*
G01X3275606Y29194D01*
G01X3276342Y30509D01*
G01X3277079Y31825D01*
G01X3292351Y31569D01*
G01X3307623Y31313D01*
G01X3315197Y38745D01*
G01X3322408Y45822D01*
G01X3333727Y45822D01*
G01X3335020Y44652D01*
G01X3336312Y43483D01*
G01X3340039Y43483D01*
G01X3340771Y44850D01*
G01X3341502Y46216D01*
G01X3341502Y49034D01*
G01X3340392Y50145D01*
G01X3339281Y51255D01*
G01X3336869Y51255D01*
G01X3333727Y49055D01*
G01X3333727Y45822D01*
G01X3333727Y45822D01*
G01X3322408Y45822D01*
G01X3322771Y46177D01*
G01X3328712Y47926D01*
G01X3329434Y49996D01*
G01X3330156Y52067D01*
G01X3332370Y54134D01*
G01X3334583Y56201D01*
G01X3340159Y56201D01*
G01X3342139Y55177D01*
G01X3344120Y54154D01*
G01X3346450Y50598D01*
G01X3346450Y43592D01*
G01X3344339Y41481D01*
G01X3342228Y39371D01*
G01X3339481Y38907D01*
G01X3336734Y38443D01*
G01X3334347Y39452D01*
G01X3331960Y40462D01*
G01X3329267Y43483D01*
G01X3326531Y43483D01*
G01X3317910Y35034D01*
G01X3309290Y26585D01*
G01X3295531Y26299D01*
G01X3281773Y26013D01*
G01X3280099Y25739D01*
G37*
G36*
G01X3648298Y-317219D02*
G01X3648290Y-319166D01*
G01X3648281Y-321113D01*
G01X3590495Y-320932D01*
G01X3532709Y-320752D01*
G01X3532709Y-275531D01*
G01X3536950Y-275531D01*
G01X3537657Y-315806D01*
G01X3642979Y-315806D01*
G01X3643342Y-211377D01*
G01X3637934Y-206751D01*
G01X3637101Y-203970D01*
G01X3636268Y-201190D01*
G01X3636897Y-199311D01*
G01X3641810Y-199311D01*
G01X3642041Y-201717D01*
G01X3642041Y-201717D01*
G01X3642273Y-204124D01*
G01X3646160Y-206288D01*
G01X3650048Y-204124D01*
G01X3650263Y-201932D01*
G01X3650479Y-199739D01*
G01X3648578Y-198244D01*
G01X3646676Y-196749D01*
G01X3645888Y-196765D01*
G01X3645100Y-196781D01*
G01X3643455Y-198046D01*
G01X3641810Y-199311D01*
G01X3636897Y-199311D01*
G01X3637071Y-198793D01*
G01X3637874Y-196396D01*
G01X3640781Y-193186D01*
G01X3645100Y-191887D01*
G01X3647501Y-192250D01*
G01X3649901Y-192613D01*
G01X3651504Y-193663D01*
G01X3653107Y-194712D01*
G01X3654228Y-197074D01*
G01X3655349Y-199436D01*
G01X3655349Y-203154D01*
G01X3654394Y-205441D01*
G01X3653438Y-207727D01*
G01X3650851Y-209700D01*
G01X3648264Y-211672D01*
G01X3648281Y-264446D01*
G01X3648298Y-317219D01*
G37*
G36*
G01X3658884Y-501986D02*
G01X3625157Y-501986D01*
G01X3617820Y-494037D01*
G01X3610482Y-486088D01*
G01X3605525Y-480810D01*
G01X3600568Y-475532D01*
G01X3592743Y-467385D01*
G01X3584919Y-459238D01*
G01X3581147Y-455168D01*
G01X3577375Y-451097D01*
G01X3576954Y-451517D01*
G01X3576534Y-451938D01*
G01X3576778Y-475019D01*
G01X3577022Y-498100D01*
G01X3576028Y-501986D01*
G01X3548613Y-501986D01*
G01X3548613Y-385638D01*
G01X3549585Y-384666D01*
G01X3563060Y-384858D01*
G01X3576534Y-385049D01*
G01X3576888Y-409721D01*
G01X3577241Y-434393D01*
G01X3579627Y-431624D01*
G01X3582013Y-428856D01*
G01X3593508Y-416845D01*
G01X3596685Y-413295D01*
G01X3599861Y-409746D01*
G01X3614705Y-393561D01*
G01X3621067Y-386498D01*
G01X3621900Y-385597D01*
G01X3622733Y-384696D01*
G01X3657470Y-384696D01*
G01X3657470Y-385590D01*
G01X3654996Y-387875D01*
G01X3640173Y-404126D01*
G01X3630182Y-414725D01*
G01X3620360Y-425304D01*
G01X3615337Y-430613D01*
G01X3610314Y-435922D01*
G01X3607685Y-438892D01*
G01X3605056Y-441863D01*
G01X3605639Y-442881D01*
G01X3606223Y-443898D01*
G01X3627428Y-466287D01*
G01X3631316Y-470526D01*
G01X3635204Y-474765D01*
G01X3636273Y-475834D01*
G01X3637341Y-476903D01*
G01X3644048Y-484322D01*
G01X3650755Y-491740D01*
G01X3658866Y-500219D01*
G01X3658884Y-501986D01*
G37*
G36*
G01X2913144Y-501986D02*
G01X2885586Y-501986D01*
G01X2885404Y-456589D01*
G01X2885223Y-411192D01*
G01X2865808Y-411004D01*
G01X2846393Y-410815D01*
G01X2844980Y-409403D01*
G01X2844890Y-397579D01*
G01X2844800Y-385756D01*
G01X2845573Y-384761D01*
G01X2846345Y-383766D01*
G01X2910670Y-384694D01*
G01X2953435Y-384696D01*
G01X2953435Y-410839D01*
G01X2913851Y-410839D01*
G01X2913501Y-488208D01*
G01X2913442Y-493507D01*
G01X2913382Y-498806D01*
G01X2913263Y-500396D01*
G01X2913144Y-501986D01*
G37*
G36*
G01X3328239Y-502119D02*
G01X3314995Y-502339D01*
G01X3313935Y-501902D01*
G01X3313935Y-412487D01*
G01X3341502Y-412487D01*
G01X3341524Y-430269D01*
G01X3341524Y-430269D01*
G01X3342091Y-431162D01*
G01X3342658Y-432054D01*
G01X3367704Y-431868D01*
G01X3392750Y-431682D01*
G01X3392750Y-411899D01*
G01X3367606Y-411713D01*
G01X3342462Y-411528D01*
G01X3341502Y-412487D01*
G01X3313935Y-412487D01*
G01X3313935Y-406810D01*
G01X3314701Y-404408D01*
G01X3315468Y-402007D01*
G01X3316992Y-398890D01*
G01X3318515Y-395773D01*
G01X3324678Y-389613D01*
G01X3327965Y-388056D01*
G01X3331253Y-386499D01*
G01X3333727Y-385671D01*
G01X3336201Y-384844D01*
G01X3366161Y-384770D01*
G01X3396120Y-384696D01*
G01X3401939Y-386267D01*
G01X3408168Y-389271D01*
G01X3415269Y-395648D01*
G01X3417616Y-400724D01*
G01X3419964Y-405800D01*
G01X3419964Y-501986D01*
G01X3393124Y-501986D01*
G01X3392937Y-480259D01*
G01X3392750Y-458532D01*
G01X3341856Y-458532D01*
G01X3341669Y-480215D01*
G01X3341482Y-501898D01*
G01X3328239Y-502119D01*
G37*
G36*
G01X3285847Y-501824D02*
G01X3272249Y-502016D01*
G01X3272063Y-478861D01*
G01X3271876Y-455706D01*
G01X3222396Y-455706D01*
G01X3222023Y-502015D01*
G01X3194122Y-501632D01*
G01X3193756Y-386462D01*
G01X3194431Y-384696D01*
G01X3221906Y-384696D01*
G01X3222151Y-406564D01*
G01X3222396Y-428433D01*
G01X3223148Y-429184D01*
G01X3223900Y-429935D01*
G01X3247888Y-429749D01*
G01X3271876Y-429563D01*
G01X3272063Y-407129D01*
G01X3272250Y-384696D01*
G01X3299806Y-384696D01*
G01X3299444Y-501632D01*
G01X3285847Y-501824D01*
G37*
G36*
G01X3529983Y-502351D02*
G01X3524045Y-502845D01*
G01X3489499Y-502544D01*
G01X3454954Y-502244D01*
G01X3450713Y-500394D01*
G01X3444556Y-497448D01*
G01X3440007Y-493154D01*
G01X3438394Y-490820D01*
G01X3436780Y-488487D01*
G01X3435441Y-484824D01*
G01X3434101Y-481162D01*
G01X3434087Y-406246D01*
G01X3437248Y-397250D01*
G01X3442819Y-390924D01*
G01X3445461Y-389257D01*
G01X3448102Y-387590D01*
G01X3452235Y-386190D01*
G01X3456368Y-384790D01*
G01X3535536Y-385049D01*
G01X3535536Y-411192D01*
G01X3461655Y-411558D01*
G01X3462023Y-475489D01*
G01X3535536Y-476196D01*
G01X3535921Y-501856D01*
G01X3529983Y-502351D01*
G37*
G36*
G01X3066415Y-502339D02*
G01X2988425Y-502339D01*
G01X2981356Y-499773D01*
G01X2978000Y-497627D01*
G01X2974644Y-495482D01*
G01X2972842Y-493340D01*
G01X2971039Y-491198D01*
G01X2969551Y-488290D01*
G01X2968063Y-485381D01*
G01X2967119Y-481849D01*
G01X2966175Y-478316D01*
G01X2966221Y-408366D01*
G01X2967104Y-405186D01*
G01X2967987Y-402007D01*
G01X2969517Y-398754D01*
G01X2971048Y-395501D01*
G01X2975168Y-391688D01*
G01X2979288Y-387875D01*
G01X2983503Y-386365D01*
G01X2987718Y-384855D01*
G01X3067271Y-384696D01*
G01X3067079Y-397944D01*
G01X3066886Y-411192D01*
G01X2994786Y-411899D01*
G01X2994786Y-429563D01*
G01X3029738Y-429746D01*
G01X3064691Y-429929D01*
G01X3065247Y-430806D01*
G01X3065804Y-431682D01*
G01X3065826Y-454473D01*
G01X3064878Y-455259D01*
G01X3063930Y-456045D01*
G01X2994786Y-456412D01*
G01X2994786Y-475489D01*
G01X3030601Y-475843D01*
G01X3066416Y-476196D01*
G01X3067005Y-476786D01*
G01X3067593Y-477376D01*
G01X3067580Y-489282D01*
G01X3067566Y-501188D01*
G01X3066415Y-502339D01*
G37*
G36*
G01X3180691Y-502339D02*
G01X3102229Y-502339D01*
G01X3099755Y-501383D01*
G01X3097281Y-500427D01*
G01X3094223Y-498948D01*
G01X3091164Y-497468D01*
G01X3088715Y-494958D01*
G01X3086266Y-492447D01*
G01X3082715Y-486413D01*
G01X3080685Y-479729D01*
G01X3080670Y-407539D01*
G01X3083624Y-398544D01*
G01X3087910Y-392319D01*
G01X3091029Y-390097D01*
G01X3094148Y-387875D01*
G01X3098542Y-386331D01*
G01X3102936Y-384787D01*
G01X3141894Y-384741D01*
G01X3180852Y-384696D01*
G01X3181302Y-387974D01*
G01X3181751Y-391252D01*
G01X3181751Y-409310D01*
G01X3180893Y-411545D01*
G01X3108945Y-411545D01*
G01X3108945Y-475830D01*
G01X3144818Y-476013D01*
G01X3180691Y-476196D01*
G01X3180691Y-502339D01*
G37*
G36*
G01X3669866Y-350703D02*
G01X3668229Y-351448D01*
G01X3666593Y-352194D01*
G01X3659567Y-352194D01*
G01X3656435Y-348927D01*
G01X3653304Y-345660D01*
G01X3568620Y-345924D01*
G01X3483935Y-346188D01*
G01X3483874Y-342904D01*
G01X3659411Y-342904D01*
G01X3660264Y-346299D01*
G01X3662088Y-347130D01*
G01X3662088Y-347130D01*
G01X3663913Y-347961D01*
G01X3665463Y-347145D01*
G01X3667013Y-346330D01*
G01X3668051Y-344775D01*
G01X3668062Y-343236D01*
G01X3668073Y-341696D01*
G01X3666962Y-340586D01*
G01X3665851Y-339476D01*
G01X3660974Y-339476D01*
G01X3660193Y-341190D01*
G01X3659411Y-342904D01*
G01X3483874Y-342904D01*
G01X3483740Y-335766D01*
G01X3483544Y-325344D01*
G01X3487796Y-325344D01*
G01X3488162Y-326934D01*
G01X3488529Y-328524D01*
G01X3488883Y-340535D01*
G01X3571586Y-340710D01*
G01X3654289Y-340884D01*
G01X3656680Y-336679D01*
G01X3661358Y-333828D01*
G01X3666306Y-333828D01*
G01X3668521Y-335179D01*
G01X3670737Y-336529D01*
G01X3671879Y-338818D01*
G01X3673021Y-341106D01*
G01X3673021Y-346100D01*
G01X3671444Y-348402D01*
G01X3669866Y-350703D01*
G37*
G36*
G01X3708205Y-396613D02*
G01X3708400Y-408178D01*
G01X3706777Y-410132D01*
G01X3663125Y-410132D01*
G01X3663125Y-407831D01*
G01X3668928Y-399266D01*
G01X3674731Y-390702D01*
G01X3679029Y-384763D01*
G01X3708011Y-385049D01*
G01X3708205Y-396613D01*
G37*
G36*
G01X3707498Y-440653D02*
G01X3706597Y-441250D01*
G01X3692813Y-441136D01*
G01X3679029Y-441022D01*
G01X3677262Y-440363D01*
G01X3677262Y-416727D01*
G01X3678232Y-415757D01*
G01X3693121Y-415948D01*
G01X3708011Y-416138D01*
G01X3708205Y-428097D01*
G01X3708399Y-440056D01*
G01X3707498Y-440653D01*
G37*
G36*
G01X3708399Y-501211D02*
G01X3706986Y-501967D01*
G01X3705574Y-502722D01*
G01X3691595Y-502531D01*
G01X3677616Y-502339D01*
G01X3677422Y-490137D01*
G01X3677229Y-477935D01*
G01X3692620Y-478125D01*
G01X3708011Y-478316D01*
G01X3708205Y-489763D01*
G01X3708399Y-501211D01*
G37*
G36*
G01X3708011Y-471250D02*
G01X3677616Y-471250D01*
G01X3677422Y-459048D01*
G01X3677229Y-446846D01*
G01X3692620Y-447036D01*
G01X3708011Y-447227D01*
G01X3708011Y-471250D01*
G37*
G36*
G01X2932070Y-4628165D02*
G01X2924056Y-4628165D01*
G01X2924056Y-4588096D01*
G01X2914039Y-4588096D01*
G01X2914039Y-4568061D01*
G01X2904021Y-4568061D01*
G01X2904021Y-4548026D01*
G01X2894004Y-4548026D01*
G01X2894004Y-4538009D01*
G01X2883987Y-4538009D01*
G01X2883987Y-4517974D01*
G01X2873969Y-4517974D01*
G01X2873969Y-4507957D01*
G01X2863952Y-4507957D01*
G01X2863952Y-4497939D01*
G01X2851931Y-4497939D01*
G01X2851931Y-4517974D01*
G01X2841914Y-4517974D01*
G01X2841914Y-4548026D01*
G01X2833900Y-4548026D01*
G01X2833900Y-4527991D01*
G01X2823882Y-4527991D01*
G01X2823882Y-4507957D01*
G01X2813865Y-4507957D01*
G01X2813865Y-4427818D01*
G01X2801844Y-4427818D01*
G01X2801844Y-4437835D01*
G01X2791827Y-4437835D01*
G01X2791827Y-4447852D01*
G01X2783813Y-4447852D01*
G01X2783813Y-4409786D01*
G01X2793830Y-4409786D01*
G01X2793830Y-4359699D01*
G01X2803848Y-4359699D01*
G01X2803848Y-4347679D01*
G01X2793830Y-4347679D01*
G01X2793830Y-4337661D01*
G01X2783813Y-4337661D01*
G01X2783813Y-4329647D01*
G01X2793830Y-4329647D01*
G01X2793830Y-4319630D01*
G01X2813865Y-4319630D01*
G01X2813865Y-4267540D01*
G01X2803848Y-4267540D01*
G01X2803848Y-4247505D01*
G01X2783813Y-4247505D01*
G01X2783813Y-4237487D01*
G01X2773795Y-4237487D01*
G01X2773795Y-4227470D01*
G01X2733726Y-4227470D01*
G01X2733726Y-4217453D01*
G01X2691653Y-4217453D01*
G01X2691653Y-4227470D01*
G01X2651583Y-4227470D01*
G01X2651583Y-4237487D01*
G01X2641566Y-4237487D01*
G01X2641566Y-4267540D01*
G01X2631549Y-4267540D01*
G01X2631549Y-4277557D01*
G01X2623535Y-4277557D01*
G01X2623535Y-4267540D01*
G01X2613517Y-4267540D01*
G01X2613517Y-4247505D01*
G01X2603500Y-4247505D01*
G01X2603500Y-4187401D01*
G01X2731722Y-4187401D01*
G01X2731722Y-4199421D01*
G01X2793830Y-4199421D01*
G01X2793830Y-4189404D01*
G01X2823882Y-4189404D01*
G01X2823882Y-4179387D01*
G01X2871966Y-4179387D01*
G01X2871966Y-4187401D01*
G01X2831896Y-4187401D01*
G01X2831896Y-4209439D01*
G01X2841914Y-4209439D01*
G01X2841914Y-4217453D01*
G01X2783813Y-4217453D01*
G01X2783813Y-4207435D01*
G01X2741740Y-4207435D01*
G01X2741740Y-4219456D01*
G01X2781809Y-4219456D01*
G01X2781809Y-4229474D01*
G01X2791827Y-4229474D01*
G01X2791827Y-4239491D01*
G01X2811861Y-4239491D01*
G01X2811861Y-4259526D01*
G01X2821879Y-4259526D01*
G01X2821879Y-4289578D01*
G01X2831896Y-4289578D01*
G01X2831896Y-4299595D01*
G01X2841914Y-4299595D01*
G01X2841914Y-4307609D01*
G01X2831896Y-4307609D01*
G01X2831896Y-4327644D01*
G01X2821879Y-4327644D01*
G01X2821879Y-4337661D01*
G01X2811861Y-4337661D01*
G01X2811861Y-4379734D01*
G01X2821879Y-4379734D01*
G01X2821879Y-4389752D01*
G01X2853934Y-4389752D01*
G01X2853934Y-4379734D01*
G01X2863952Y-4379734D01*
G01X2863952Y-4359699D01*
G01X2871966Y-4359699D01*
G01X2871966Y-4387748D01*
G01X2861948Y-4387748D01*
G01X2861948Y-4419804D01*
G01X2873969Y-4419804D01*
G01X2892001Y-4419804D01*
G01X2904021Y-4419804D01*
G01X2904021Y-4407783D01*
G01X2892001Y-4407783D01*
G01X2892001Y-4419804D01*
G01X2892001Y-4419804D01*
G01X2873969Y-4419804D01*
G01X2873969Y-4409786D01*
G01X2883987Y-4409786D01*
G01X2883987Y-4399769D01*
G01X2894004Y-4399769D01*
G01X2894004Y-4349682D01*
G01X2902018Y-4349682D01*
G01X2902018Y-4359699D01*
G01X2912035Y-4359699D01*
G01X2912035Y-4427818D01*
G01X2902018Y-4427818D01*
G01X2902018Y-4449856D01*
G01X2924056Y-4449856D01*
G01X2924056Y-4439839D01*
G01X2934074Y-4439839D01*
G01X2934074Y-4429821D01*
G01X2942087Y-4429821D01*
G01X2942087Y-4449856D01*
G01X2942087Y-4449856D01*
G01X2952105Y-4449856D01*
G01X2952105Y-4469891D01*
G01X2974143Y-4469891D01*
G01X2974143Y-4459873D01*
G01X2984160Y-4459873D01*
G01X2984160Y-4439839D01*
G01X3002192Y-4439839D01*
G01X3002192Y-4459873D01*
G01X3024230Y-4459873D01*
G01X3024230Y-4359699D01*
G01X3032244Y-4359699D01*
G01X3032244Y-4379734D01*
G01X3042261Y-4379734D01*
G01X3042261Y-4389752D01*
G01X3064299Y-4389752D01*
G01X3064299Y-4379734D01*
G01X3074317Y-4379734D01*
G01X3074317Y-4367713D01*
G01X3064299Y-4367713D01*
G01X3064299Y-4357696D01*
G01X3054282Y-4357696D01*
G01X3054282Y-4329647D01*
G01X3062296Y-4329647D01*
G01X3062296Y-4339665D01*
G01X3072313Y-4339665D01*
G01X3072313Y-4359699D01*
G01X3084334Y-4359699D01*
G01X3084334Y-4339665D01*
G01X3094352Y-4339665D01*
G01X3094352Y-4329647D01*
G01X3104369Y-4329647D01*
G01X3104369Y-4307609D01*
G01X3094352Y-4307609D01*
G01X3094352Y-4287574D01*
G01X3084334Y-4287574D01*
G01X3084334Y-4267540D01*
G01X3074317Y-4267540D01*
G01X3074317Y-4257522D01*
G01X3054282Y-4257522D01*
G01X3054282Y-4247505D01*
G01X3044265Y-4247505D01*
G01X3044265Y-4239491D01*
G01X3062296Y-4239491D01*
G01X3062296Y-4249508D01*
G01X3082331Y-4249508D01*
G01X3082331Y-4259526D01*
G01X3092348Y-4259526D01*
G01X3092348Y-4279560D01*
G01X3102366Y-4279560D01*
G01X3102366Y-4299595D01*
G01X3112383Y-4299595D01*
G01X3112383Y-4319630D01*
G01X3122400Y-4319630D01*
G01X3122400Y-4329647D01*
G01X3142435Y-4329647D01*
G01X3142435Y-4339665D01*
G01X3164473Y-4339665D01*
G01X3164473Y-4287574D01*
G01X3144439Y-4287574D01*
G01X3144439Y-4267540D01*
G01X3134421Y-4267540D01*
G01X3134421Y-4257522D01*
G01X3114386Y-4257522D01*
G01X3114386Y-4247505D01*
G01X3104369Y-4247505D01*
G01X3104369Y-4237487D01*
G01X3084334Y-4237487D01*
G01X3084334Y-4227470D01*
G01X3054282Y-4227470D01*
G01X3054282Y-4217453D01*
G01X3044265Y-4217453D01*
G01X3044265Y-4207435D01*
G01X3034247Y-4207435D01*
G01X3034247Y-4197418D01*
G01X2984160Y-4197418D01*
G01X2984160Y-4187401D01*
G01X2954108Y-4187401D01*
G01X2954108Y-4179387D01*
G01X2992174Y-4179387D01*
G01X2992174Y-4189404D01*
G01X3042261Y-4189404D01*
G01X3042261Y-4199421D01*
G01X3052279Y-4199421D01*
G01X3052279Y-4209439D01*
G01X3102366Y-4209439D01*
G01X3102366Y-4219456D01*
G01X3122400Y-4219456D01*
G01X3122400Y-4229474D01*
G01X3132418Y-4229474D01*
G01X3132418Y-4239491D01*
G01X3142435Y-4239491D01*
G01X3142435Y-4249508D01*
G01X3152452Y-4249508D01*
G01X3152452Y-4259526D01*
G01X3162470Y-4259526D01*
G01X3162470Y-4269543D01*
G01X3182505Y-4269543D01*
G01X3182505Y-4289578D01*
G01X3214560Y-4289578D01*
G01X3214560Y-4257522D01*
G01X3174491Y-4257522D01*
G01X3174491Y-4247505D01*
G01X3164473Y-4247505D01*
G01X3164473Y-4227470D01*
G01X3144439Y-4227470D01*
G01X3144439Y-4217453D01*
G01X3124404Y-4217453D01*
G01X3124404Y-4207435D01*
G01X3114386Y-4207435D01*
G01X3114386Y-4197418D01*
G01X3104369Y-4197418D01*
G01X3104369Y-4187401D01*
G01X3064299Y-4187401D01*
G01X3064299Y-4177383D01*
G01X3044265Y-4177383D01*
G01X3044265Y-4169369D01*
G01X3072313Y-4169369D01*
G01X3072313Y-4179387D01*
G01X3112383Y-4179387D01*
G01X3112383Y-4189404D01*
G01X3152452Y-4189404D01*
G01X3152452Y-4199421D01*
G01X3162470Y-4199421D01*
G01X3162470Y-4209439D01*
G01X3172487Y-4209439D01*
G01X3172487Y-4219456D01*
G01X3182505Y-4219456D01*
G01X3182505Y-4229474D01*
G01X3212557Y-4229474D01*
G01X3212557Y-4239491D01*
G01X3242609Y-4239491D01*
G01X3242609Y-4249508D01*
G01X3274664Y-4249508D01*
G01X3274664Y-4237487D01*
G01X3264647Y-4237487D01*
G01X3264647Y-4227470D01*
G01X3244612Y-4227470D01*
G01X3244612Y-4217453D01*
G01X3234595Y-4217453D01*
G01X3234595Y-4207435D01*
G01X3224578Y-4207435D01*
G01X3224578Y-4197418D01*
G01X3204543Y-4197418D01*
G01X3204543Y-4187401D01*
G01X3194525Y-4187401D01*
G01X3194525Y-4177383D01*
G01X3184508Y-4177383D01*
G01X3184508Y-4149334D01*
G01X3194525Y-4149334D01*
G01X3194525Y-4137314D01*
G01X3184508Y-4137314D01*
G01X3184508Y-4127296D01*
G01X3124404Y-4127296D01*
G01X3124404Y-4117279D01*
G01X3114386Y-4117279D01*
G01X3114386Y-4107261D01*
G01X3104369Y-4107261D01*
G01X3104369Y-4097244D01*
G01X3084334Y-4097244D01*
G01X3084334Y-4089230D01*
G01X3122400Y-4089230D01*
G01X3122400Y-4099248D01*
G01X3132418Y-4099248D01*
G01X3132418Y-4109265D01*
G01X3234595Y-4109265D01*
G01X3234595Y-4097244D01*
G01X3224578Y-4097244D01*
G01X3224578Y-4087227D01*
G01X3164473Y-4087227D01*
G01X3164473Y-4067192D01*
G01X3144439Y-4067192D01*
G01X3144439Y-4057175D01*
G01X3124404Y-4057175D01*
G01X3124404Y-4047157D01*
G01X3064299Y-4047157D01*
G01X3064299Y-4039143D01*
G01X3072313Y-4039143D01*
G01X3084334Y-4039143D01*
G01X3084334Y-4027122D01*
G01X3072313Y-4027122D01*
G01X3072313Y-4039143D01*
G01X3072313Y-4039143D01*
G01X3064299Y-4039143D01*
G01X3064299Y-4027122D01*
G01X3032244Y-4027122D01*
G01X3032244Y-4037140D01*
G01X3022226Y-4037140D01*
G01X3022226Y-4047157D01*
G01X2994178Y-4047157D01*
G01X2994178Y-4037140D01*
G01X2932070Y-4037140D01*
G01X2932070Y-4107261D01*
G01X2912035Y-4107261D01*
G01X2912035Y-4119282D01*
G01X2932070Y-4119282D01*
G01X2932070Y-4127296D01*
G01X2883987Y-4127296D01*
G01X2883987Y-4117279D01*
G01X2863952Y-4117279D01*
G01X2863952Y-4097244D01*
G01X2841914Y-4097244D01*
G01X2841914Y-4107261D01*
G01X2813865Y-4107261D01*
G01X2813865Y-4097244D01*
G01X2801844Y-4097244D01*
G01X2801844Y-4109265D01*
G01X2811861Y-4109265D01*
G01X2811861Y-4119282D01*
G01X2821879Y-4119282D01*
G01X2821879Y-4129300D01*
G01X2831896Y-4129300D01*
G01X2831896Y-4139317D01*
G01X2861948Y-4139317D01*
G01X2861948Y-4149334D01*
G01X2912035Y-4149334D01*
G01X2912035Y-4159352D01*
G01X2922053Y-4159352D01*
G01X2922053Y-4177383D01*
G01X2912035Y-4177383D01*
G01X2912035Y-4187401D01*
G01X2892001Y-4187401D01*
G01X2892001Y-4197418D01*
G01X2873969Y-4197418D01*
G01X2873969Y-4189404D01*
G01X2883987Y-4189404D01*
G01X2883987Y-4179387D01*
G01X2904021Y-4179387D01*
G01X2904021Y-4167366D01*
G01X2801844Y-4167366D01*
G01X2801844Y-4177383D01*
G01X2761775Y-4177383D01*
G01X2761775Y-4187401D01*
G01X2731722Y-4187401D01*
G01X2603500Y-4187401D01*
G01X2603500Y-4179387D01*
G01X2613517Y-4179387D01*
G01X2613517Y-4159352D01*
G01X2623535Y-4159352D01*
G01X2623535Y-4139317D01*
G01X2633552Y-4139317D01*
G01X2633552Y-4119282D01*
G01X2643570Y-4119282D01*
G01X2643570Y-4109265D01*
G01X2663604Y-4109265D01*
G01X2663604Y-4099248D01*
G01X2673622Y-4099248D01*
G01X2673622Y-4097244D01*
G01X2721705Y-4097244D01*
G01X2721705Y-4119282D01*
G01X2731722Y-4119282D01*
G01X2731722Y-4129300D01*
G01X2731722Y-4129300D01*
G01X2753761Y-4129300D01*
G01X2753761Y-4107261D01*
G01X2733726Y-4107261D01*
G01X2733726Y-4097244D01*
G01X2721705Y-4097244D01*
G01X2673622Y-4097244D01*
G01X2673622Y-4089230D01*
G01X2693656Y-4089230D01*
G01X2693656Y-4079213D01*
G01X2713691Y-4079213D01*
G01X2713691Y-4077209D01*
G01X2861948Y-4077209D01*
G01X2861948Y-4089230D01*
G01X2871966Y-4089230D01*
G01X2871966Y-4109265D01*
G01X2871966Y-4109265D01*
G01X2904021Y-4109265D01*
G01X2904021Y-4099248D01*
G01X2924056Y-4099248D01*
G01X2924056Y-4057175D01*
G01X2902018Y-4057175D01*
G01X2902018Y-4067192D01*
G01X2881983Y-4067192D01*
G01X2881983Y-4077209D01*
G01X2861948Y-4077209D01*
G01X2713691Y-4077209D01*
G01X2713691Y-4069195D01*
G01X2723709Y-4069195D01*
G01X2723709Y-4059178D01*
G01X2733726Y-4059178D01*
G01X2733726Y-4039143D01*
G01X2743743Y-4039143D01*
G01X2743743Y-4019109D01*
G01X2753761Y-4019109D01*
G01X2753761Y-4009091D01*
G01X2763778Y-4009091D01*
G01X2763778Y-3999074D01*
G01X2773795Y-3999074D01*
G01X2773795Y-3989056D01*
G01X2783813Y-3989056D01*
G01X2783813Y-3969022D01*
G01X2793830Y-3969022D01*
G01X2793830Y-3948987D01*
G01X2811861Y-3948987D01*
G01X2811861Y-3957001D01*
G01X2801844Y-3957001D01*
G01X2801844Y-3969022D01*
G01X2833900Y-3969022D01*
G01X2833900Y-3959004D01*
G01X2853934Y-3959004D01*
G01X2853934Y-3948987D01*
G01X2883987Y-3948987D01*
G01X2883987Y-3938970D01*
G01X2904021Y-3938970D01*
G01X2904021Y-3928952D01*
G01X2964126Y-3928952D01*
G01X2964126Y-3918935D01*
G01X2974143Y-3918935D01*
G01X2974143Y-3908917D01*
G01X2982157Y-3908917D01*
G01X2982157Y-3926949D01*
G01X2972140Y-3926949D01*
G01X2972140Y-3938970D01*
G01X2984160Y-3938970D01*
G01X2984160Y-3928952D01*
G01X2992174Y-3928952D01*
G01X2992174Y-3938970D01*
G01X3004195Y-3938970D01*
G01X3004195Y-3928952D01*
G01X3144439Y-3928952D01*
G01X3144439Y-3918935D01*
G01X3162470Y-3918935D01*
G01X3162470Y-3926949D01*
G01X3152452Y-3926949D01*
G01X3152452Y-3936966D01*
G01X3142435Y-3936966D01*
G01X3142435Y-3946983D01*
G01X3122400Y-3946983D01*
G01X3122400Y-3957001D01*
G01X3112383Y-3957001D01*
G01X3112383Y-3969022D01*
G01X3122400Y-3969022D01*
G01X3122400Y-3979039D01*
G01X3152452Y-3979039D01*
G01X3152452Y-3989056D01*
G01X3172487Y-3989056D01*
G01X3172487Y-3999074D01*
G01X3202539Y-3999074D01*
G01X3202539Y-4009091D01*
G01X3292696Y-4009091D01*
G01X3292696Y-4017105D01*
G01X3272661Y-4017105D01*
G01X3272661Y-4027122D01*
G01X3222574Y-4027122D01*
G01X3222574Y-4049161D01*
G01X3242609Y-4049161D01*
G01X3242609Y-4069195D01*
G01X3272661Y-4069195D01*
G01X3272661Y-4079213D01*
G01X3282678Y-4079213D01*
G01X3282678Y-4087227D01*
G01X3262644Y-4087227D01*
G01X3262644Y-4099248D01*
G01X3272661Y-4099248D01*
G01X3272661Y-4109265D01*
G01X3282678Y-4109265D01*
G01X3282678Y-4119282D01*
G01X3302713Y-4119282D01*
G01X3302713Y-4129300D01*
G01X3322748Y-4129300D01*
G01X3322748Y-4137314D01*
G01X3282678Y-4137314D01*
G01X3282678Y-4169369D01*
G01X3292696Y-4169369D01*
G01X3292696Y-4179387D01*
G01X3302713Y-4179387D01*
G01X3302713Y-4189404D01*
G01X3312730Y-4189404D01*
G01X3312730Y-4199421D01*
G01X3322748Y-4199421D01*
G01X3322748Y-4209439D01*
G01X3332765Y-4209439D01*
G01X3332765Y-4219456D01*
G01X3352800Y-4219456D01*
G01X3352800Y-4237487D01*
G01X3344786Y-4237487D01*
G01X3344786Y-4227470D01*
G01X3324751Y-4227470D01*
G01X3324751Y-4217453D01*
G01X3292696Y-4217453D01*
G01X3292696Y-4229474D01*
G01X3302713Y-4229474D01*
G01X3302713Y-4249508D01*
G01X3312730Y-4249508D01*
G01X3312730Y-4269543D01*
G01X3322748Y-4269543D01*
G01X3322748Y-4289578D01*
G01X3332765Y-4289578D01*
G01X3332765Y-4299595D01*
G01X3342783Y-4299595D01*
G01X3342783Y-4317626D01*
G01X3324751Y-4317626D01*
G01X3324751Y-4307609D01*
G01X3314734Y-4307609D01*
G01X3314734Y-4297592D01*
G01X3292696Y-4297592D01*
G01X3292696Y-4309613D01*
G01X3302713Y-4309613D01*
G01X3302713Y-4349682D01*
G01X3312730Y-4349682D01*
G01X3312730Y-4369717D01*
G01X3322748Y-4369717D01*
G01X3322748Y-4389752D01*
G01X3332765Y-4389752D01*
G01X3332765Y-4407783D01*
G01X3324751Y-4407783D01*
G01X3324751Y-4397766D01*
G01X3314734Y-4397766D01*
G01X3314734Y-4387748D01*
G01X3304717Y-4387748D01*
G01X3304717Y-4377731D01*
G01X3294699Y-4377731D01*
G01X3294699Y-4367713D01*
G01X3272661Y-4367713D01*
G01X3272661Y-4399769D01*
G01X3282678Y-4399769D01*
G01X3282678Y-4439839D01*
G01X3292696Y-4439839D01*
G01X3292696Y-4457870D01*
G01X3284682Y-4457870D01*
G01X3284682Y-4447852D01*
G01X3254630Y-4447852D01*
G01X3254630Y-4437835D01*
G01X3234595Y-4437835D01*
G01X3234595Y-4427818D01*
G01X3214560Y-4427818D01*
G01X3214560Y-4417800D01*
G01X3182505Y-4417800D01*
G01X3182505Y-4487922D01*
G01X3172487Y-4487922D01*
G01X3172487Y-4517974D01*
G01X3162470Y-4517974D01*
G01X3162470Y-4538009D01*
G01X3152452Y-4538009D01*
G01X3152452Y-4548026D01*
G01X3144439Y-4548026D01*
G01X3144439Y-4507957D01*
G01X3134421Y-4507957D01*
G01X3134421Y-4497939D01*
G01X3114386Y-4497939D01*
G01X3114386Y-4487922D01*
G01X3092348Y-4487922D01*
G01X3092348Y-4507957D01*
G01X3082331Y-4507957D01*
G01X3082331Y-4527991D01*
G01X3072313Y-4527991D01*
G01X3072313Y-4548026D01*
G01X3062296Y-4548026D01*
G01X3062296Y-4568061D01*
G01X3052279Y-4568061D01*
G01X3052279Y-4578078D01*
G01X3042261Y-4578078D01*
G01X3042261Y-4588096D01*
G01X3032244Y-4588096D01*
G01X3032244Y-4598113D01*
G01X3024230Y-4598113D01*
G01X3024230Y-4538009D01*
G01X3014213Y-4538009D01*
G01X3014213Y-4527991D01*
G01X3002192Y-4527991D01*
G01X3002192Y-4538009D01*
G01X2992174Y-4538009D01*
G01X2992174Y-4548026D01*
G01X2982157Y-4548026D01*
G01X2982157Y-4568061D01*
G01X2972140Y-4568061D01*
G01X2972140Y-4578078D01*
G01X2962122Y-4578078D01*
G01X2962122Y-4588096D01*
G01X2952105Y-4588096D01*
G01X2952105Y-4608130D01*
G01X2942087Y-4608130D01*
G01X2942087Y-4618148D01*
G01X2932070Y-4618148D01*
G01X2932070Y-4628165D01*
G37*
G36*
G01X2932070Y-4427818D02*
G01X2924056Y-4427818D01*
G01X2924056Y-4349682D01*
G01X2934074Y-4349682D01*
G01X2934074Y-4329647D01*
G01X2944091Y-4329647D01*
G01X2944091Y-4299595D01*
G01X2962122Y-4299595D01*
G01X2962122Y-4329647D01*
G01X2972140Y-4329647D01*
G01X2972140Y-4339665D01*
G01X2982157Y-4339665D01*
G01X2982157Y-4379734D01*
G01X2992174Y-4379734D01*
G01X2992174Y-4407783D01*
G01X2974143Y-4407783D01*
G01X2974143Y-4347679D01*
G01X2964126Y-4347679D01*
G01X2964126Y-4337661D01*
G01X2942087Y-4337661D01*
G01X2942087Y-4357696D01*
G01X2932070Y-4357696D01*
G01X2932070Y-4427818D01*
G37*
G36*
G01X2873969Y-4299595D02*
G01X2881983Y-4299595D01*
G01X2881983Y-4357696D01*
G01X2873969Y-4357696D01*
G01X2873969Y-4299595D01*
G37*
G36*
G01X3092348Y-4327644D02*
G01X3084334Y-4327644D01*
G01X3084334Y-4317626D01*
G01X3064299Y-4317626D01*
G01X3064299Y-4307609D01*
G01X3054282Y-4307609D01*
G01X3054282Y-4277557D01*
G01X3044265Y-4277557D01*
G01X3044265Y-4267540D01*
G01X3024230Y-4267540D01*
G01X3024230Y-4257522D01*
G01X3014213Y-4257522D01*
G01X3014213Y-4247505D01*
G01X2994178Y-4247505D01*
G01X2994178Y-4237487D01*
G01X2984160Y-4237487D01*
G01X2984160Y-4229474D01*
G01X3002192Y-4229474D01*
G01X3002192Y-4239491D01*
G01X3022226Y-4239491D01*
G01X3022226Y-4249508D01*
G01X3032244Y-4249508D01*
G01X3032244Y-4259526D01*
G01X3052279Y-4259526D01*
G01X3052279Y-4269543D01*
G01X3062296Y-4269543D01*
G01X3062296Y-4279560D01*
G01X3072313Y-4279560D01*
G01X3072313Y-4309613D01*
G01X3092348Y-4309613D01*
G01X3092348Y-4327644D01*
G37*
G36*
G01X2851931Y-4297592D02*
G01X2843917Y-4297592D01*
G01X2843917Y-4289578D01*
G01X2851931Y-4289578D01*
G01X2851931Y-4297592D01*
G37*
G36*
G01X2861948Y-4287574D02*
G01X2853934Y-4287574D01*
G01X2853934Y-4259526D01*
G01X2863952Y-4259526D01*
G01X2863952Y-4249508D01*
G01X2871966Y-4249508D01*
G01X2871966Y-4267540D01*
G01X2861948Y-4267540D01*
G01X2861948Y-4287574D01*
G37*
G36*
G01X2881983Y-4247505D02*
G01X2873969Y-4247505D01*
G01X2873969Y-4229474D01*
G01X2881983Y-4229474D01*
G01X2881983Y-4247505D01*
G37*
G36*
G01X3042261Y-4237487D02*
G01X3034247Y-4237487D01*
G01X3034247Y-4229474D01*
G01X3042261Y-4229474D01*
G01X3042261Y-4237487D01*
G37*
G36*
G01X2892001Y-4227470D02*
G01X2883987Y-4227470D01*
G01X2883987Y-4219456D01*
G01X2892001Y-4219456D01*
G01X2892001Y-4227470D01*
G37*
G36*
G01X3022226Y-4219456D02*
G01X3032244Y-4219456D01*
G01X3032244Y-4227470D01*
G01X3014213Y-4227470D01*
G01X3014213Y-4217453D01*
G01X2994178Y-4217453D01*
G01X2994178Y-4209439D01*
G01X3022226Y-4209439D01*
G01X3022226Y-4219456D01*
G37*
G36*
G01X2964126Y-4219456D02*
G01X2982157Y-4219456D01*
G01X2982157Y-4227470D01*
G01X2964126Y-4227470D01*
G01X2964126Y-4219456D01*
G37*
G36*
G01X2952105Y-4209439D02*
G01X2962122Y-4209439D01*
G01X2962122Y-4217453D01*
G01X2944091Y-4217453D01*
G01X2944091Y-4207435D01*
G01X2924056Y-4207435D01*
G01X2924056Y-4199421D01*
G01X2952105Y-4199421D01*
G01X2952105Y-4209439D01*
G37*
G36*
G01X3002192Y-4159352D02*
G01X3042261Y-4159352D01*
G01X3042261Y-4167366D01*
G01X2994178Y-4167366D01*
G01X2994178Y-4157348D01*
G01X2944091Y-4157348D01*
G01X2944091Y-4149334D01*
G01X3002192Y-4149334D01*
G01X3002192Y-4159352D01*
G37*
G36*
G01X2962122Y-4097244D02*
G01X2952105Y-4097244D01*
G01X2952105Y-4117279D01*
G01X2934074Y-4117279D01*
G01X2934074Y-4109265D01*
G01X2944091Y-4109265D01*
G01X2944091Y-4089230D01*
G01X2954108Y-4089230D01*
G01X2954108Y-4059178D01*
G01X2964126Y-4059178D01*
G01X2964126Y-4049161D01*
G01X2982157Y-4049161D01*
G01X2982157Y-4057175D01*
G01X2972140Y-4057175D01*
G01X2972140Y-4067192D01*
G01X2962122Y-4067192D01*
G01X2962122Y-4097244D01*
G37*
G36*
G01X3032244Y-4077209D02*
G01X2984160Y-4077209D01*
G01X2984160Y-4069195D01*
G01X3004195Y-4069195D01*
G01X3004195Y-4059178D01*
G01X3052279Y-4059178D01*
G01X3052279Y-4067192D01*
G01X3032244Y-4067192D01*
G01X3032244Y-4077209D01*
G37*
G36*
G01X3062296Y-4057175D02*
G01X3054282Y-4057175D01*
G01X3054282Y-4049161D01*
G01X3062296Y-4049161D01*
G01X3062296Y-4057175D01*
G37*
G36*
G01X2992174Y-3906914D02*
G01X2984160Y-3906914D01*
G01X2984160Y-3898900D01*
G01X2992174Y-3898900D01*
G01X2992174Y-3906914D01*
G37*
G36*
G01X3172487Y-3916931D02*
G01X3164473Y-3916931D01*
G01X3164473Y-3908917D01*
G01X3172487Y-3908917D01*
G01X3172487Y-3916931D01*
G37*
G04 Image End*

G04 Pad Start*
G54D10*
G01X2414295Y-1790205D03*
G01X2414295Y-1917205D03*
G01X2414295Y-2044205D03*
G01X2414295Y-2171205D03*
G01X2414295Y-2298205D03*
G01X2414295Y-2425205D03*
G01X2414295Y-2552205D03*
G01X2414295Y-2679205D03*
G01X2414295Y-2806205D03*
G01X2414295Y-2933205D03*
G01X2414295Y-3060205D03*
G01X2414295Y-3187205D03*
G01X2414295Y-3314205D03*
G01X2414295Y-3441205D03*
G54D11*
G01X2590800Y-3569195D03*
G01X2717800Y-3569195D03*
G01X2844800Y-3569195D03*
G01X2971800Y-3569195D03*
G01X3098800Y-3569195D03*
G01X3225800Y-3569195D03*
G01X3352800Y-3569195D03*
G01X3479800Y-3569195D03*
G01X3606800Y-3569195D03*
G01X3733800Y-3569195D03*
G01X3860800Y-3569195D03*
G01X3987800Y-3566198D03*
G54D10*
G01X4164305Y-3441205D03*
G01X4164305Y-3314205D03*
G01X4164305Y-3187205D03*
G01X4164305Y-3060205D03*
G01X4164305Y-2933205D03*
G01X4164305Y-2806205D03*
G01X4164305Y-2679205D03*
G01X4164305Y-2552205D03*
G01X4164305Y-2425205D03*
G01X4164305Y-2298205D03*
G01X4164305Y-2171205D03*
G01X4164305Y-2044205D03*
G01X4164305Y-1917205D03*
G01X4164305Y-1790205D03*
G54D12*
G01X3279292Y-2702217D03*
G01X3139288Y-2702217D03*
G01X2999283Y-2702217D03*
G01X2999283Y-2422207D03*
G01X3139288Y-2422207D03*
G01X3279292Y-2422207D03*
G01X3279292Y-2562212D03*
G01X2999283Y-2562212D03*
G01X3139288Y-2562212D03*
G54D13*
G01X4527702Y-1422400D03*
G01X4387698Y-1422400D03*
G54D14*
G01X1566879Y-2508914D03*
G01X1566879Y-2368909D03*
G01X1981200Y-2368398D03*
G01X1981200Y-2508402D03*
G54D13*
G01X1695602Y-76200D03*
G01X1555598Y-76200D03*
G54D14*
G01X1778000Y-2368398D03*
G01X1778000Y-2508402D03*
G54D15*
G01X3973209Y-5224117D03*
G01X4058197Y-5224117D03*
G54D16*
G01X2882900Y-711200D03*
G54D18*
G01X3136900Y-711200D03*
G01X3390900Y-711200D03*
G01X3644900Y-711200D03*
G54D19*
G01X1563400Y-2743213D03*
G01X1713200Y-2743187D03*
G54D20*
G01X5230800Y-2698496D03*
G01X5230800Y-2508504D03*
G01X5030800Y-2603500D03*
G54D21*
G01X2312264Y-4000500D03*
G01X2462936Y-4000500D03*
G01X1931264Y-2743200D03*
G01X2081936Y-2743200D03*
G54D22*
G01X4456836Y-2794000D03*
G01X4456836Y-2944673D03*
G54D21*
G01X3910736Y-3924300D03*
G01X3760064Y-3924300D03*
G01X3580536Y-3924300D03*
G01X3429864Y-3924300D03*
G01X1777136Y-5232400D03*
G01X1626464Y-5232400D03*
G01X1777136Y-5003800D03*
G01X1626464Y-5003800D03*
G01X4393336Y-3822700D03*
G01X4242664Y-3822700D03*
G54D22*
G01X2183536Y-2362200D03*
G01X2183536Y-2512873D03*
G54D23*
G01X4822012Y-5213706D03*
G01X4572000Y-5213706D03*
G01X4322013Y-5213706D03*
G54D24*
G01X4096995Y-4463694D03*
G01X5047005Y-4463694D03*
G54D22*
G01X4457700Y-2413864D03*
G01X4457700Y-2564536D03*
G01X4457700Y-2045564D03*
G01X4457700Y-2196236D03*
G54D25*
G01X4775200Y-1215187D03*
G01X4775200Y-965200D03*
G01X4775200Y-715213D03*
G54D26*
G01X1992147Y-101600D03*
G01X2630653Y-101600D03*
G01X3973347Y-114300D03*
G01X4611853Y-114300D03*
G01X1839747Y-4508500D03*
G01X2478253Y-4508500D03*
G54D27*
G01X1754200Y-850900D03*
G54D28*
G01X1954200Y-850900D03*
G54D29*
G01X4800600Y-2272030D03*
G01X4927600Y-2272030D03*
G01X5054600Y-2272030D03*
G01X5181600Y-2272030D03*
G01X5181600Y-1690370D03*
G01X5054600Y-1690370D03*
G01X4927600Y-1690370D03*
G01X4800600Y-1690370D03*
G54D30*
G01X4991100Y-1981200D03*
G54D31*
G01X5097595Y-3557397D03*
G01X5097595Y-3327400D03*
G01X5097595Y-3097403D03*
G54D32*
G01X4503603Y-3327400D03*
G54D33*
G01X2666200Y582600D03*
G01X3836200Y582600D03*
G54D34*
G01X3601199Y382600D03*
G01X3351213Y382600D03*
G01X3151213Y382600D03*
G01X2901201Y382600D03*
G54D35*
G01X3114294Y-4756391D03*
G01X3164307Y-4756391D03*
G01X3214294Y-4756391D03*
G01X3264306Y-4756391D03*
G01X3314294Y-4756391D03*
G01X3364306Y-4756391D03*
G01X3414268Y-4756391D03*
G01X3464306Y-4756391D03*
G36*
G01X2999303Y-4826485D02*
G01X2969307Y-4826485D01*
G01X2939308Y-4826500D01*
G02X2934205Y-4821400I-3J5100D01*
G01X2934205Y-4691398D01*
G02X2939306Y-4686297I5100J0D01*
G01X2969302Y-4686297D01*
G01X2999301Y-4686282D01*
G02X3004403Y-4691383I3J-5100D01*
G01X3004403Y-4821385D01*
G02X2999303Y-4826485I-5100J0D01*
G37*
G36*
G01X3574199Y-4821380D02*
G01X3574199Y-4691383D01*
G02X3579299Y-4686282I5100J0D01*
G01X3639302Y-4686282D01*
G02X3644402Y-4691383I0J-5100D01*
G01X3644402Y-4821380D01*
G02X3639302Y-4826480I-5100J0D01*
G01X3579299Y-4826480D01*
G02X3574199Y-4821380I0J5100D01*
G37*
G36*
G01X3564418Y-4691383D02*
G01X3564418Y-4821380D01*
G02X3559317Y-4826480I-5100J0D01*
G01X3499315Y-4826480D01*
G02X3494215Y-4821380I0J5100D01*
G01X3494215Y-4691383D01*
G02X3499315Y-4686282I5100J0D01*
G01X3559317Y-4686282D01*
G02X3564418Y-4691383I0J-5100D01*
G37*
G36*
G01X3079303Y-4826495D02*
G01X3049308Y-4826495D01*
G01X3019306Y-4826498D01*
G02X3014205Y-4821398I-0J5100D01*
G01X3014205Y-4691400D01*
G02X3019306Y-4686300I5100J0D01*
G01X3049300Y-4686300D01*
G01X3079303Y-4686297D01*
G02X3084403Y-4691398I0J-5100D01*
G01X3084403Y-4821395D01*
G02X3079303Y-4826495I-5100J0D01*
G37*
G54D36*
G01X3721811Y-5251209D03*
G54D37*
G01X3721811Y-4833226D03*
G01X2856789Y-4833226D03*
G54D36*
G01X2856789Y-5251209D03*
G04 Pad End*

M02*

