G04 Layer: TopLayer*
G04 EasyEDA Pro v2.2.45.4, 2026-01-19 10:00:02*
G04 Gerber Generator version 0.3*
G04 Scale: 100 percent, Rotated: No, Reflected: No*
G04 Dimensions in millimeters*
G04 Leading zeros omitted, absolute positions, 4 integers and 5 decimals*
G04 Generated by one-click*
%FSLAX45Y45*%
%MOMM*%
%AMPolygonMacro1*4,1,8,0.00001,-0.64994,0.00001,-0.65009,-0.29999,-0.65009,-0.29999,0.64994,-0.00001,0.64994,-0.00001,0.65009,0.29999,0.65009,0.29999,-0.64994,0.00001,-0.64994,0*%
%AMPolygonMacro2*4,1,8,-0.00001,0.64999,0.00001,0.64999,0.30001,0.64999,0.30001,-0.64999,0.00001,-0.64999,-0.00001,-0.64999,-0.30001,-0.64999,-0.30001,0.64999,-0.00001,0.64999,0*%
%AMPolygonMacro3*4,1,8,0.00001,-0.64999,-0.00001,-0.64999,-0.30001,-0.64999,-0.30001,0.64999,-0.00001,0.64999,0.00001,0.64999,0.30001,0.64999,0.30001,-0.64999,0.00001,-0.64999,0*%
%AMPolygonMacro4*4,1,8,0.00004,-0.64997,0.00004,-0.65,-0.29999,-0.65,-0.29999,0.64997,-0.00004,0.64997,-0.00004,0.65,0.29999,0.65,0.29999,-0.64997,0.00004,-0.64997,0*%
%ADD10C,0.2032*%
%ADD11C,0.254*%
%ADD12R,1.5X0.9*%
%ADD13R,0.9X1.5*%
%ADD14R,0.9X0.9*%
%ADD15R,0.8038X0.9*%
%ADD16R,0.8X0.9*%
%ADD17R,0.9X0.8*%
%ADD18R,0.45001X0.55001*%
%ADD19R,1.7X1.7*%
%ADD20C,1.7*%
%ADD21R,0.8X0.8*%
%ADD22R,1.25001X0.7*%
%ADD23R,0.80648X0.86401*%
%ADD24R,0.86401X0.80648*%
%ADD25O,2.79999X2.0*%
%ADD26R,2.2X1.2*%
%ADD27R,1.98501X1.51201*%
%ADD28R,1.5X1.4*%
%ADD29C,1.4*%
%ADD30R,0.6X1.2*%
%ADD31R,3.29999X2.4*%
%ADD32R,2.49999X1.1*%
%ADD33R,2.34X3.59999*%
%ADD34O,2.0X3.49999*%
%ADD35C,1.6*%
%ADD36R,0.3X1.3*%
%ADD37PolygonMacro1*%
%ADD38PolygonMacro2*%
%ADD39PolygonMacro3*%
%ADD40PolygonMacro4*%
%ADD41O,1.2X1.8*%
%ADD42O,1.2X2.0*%
%ADD43C,0.61*%
%ADD44C,0.6*%
%ADD45C,0.45001*%
%ADD46C,0.59997*%
G75*


G04 Copper Start*
G36*
G01X4991100Y-2344694D02*
G01X4996390Y-2354095D01*
G01X5004240Y-2361493D01*
G01X5013936Y-2366219D01*
G01X5024600Y-2367844D01*
G01X5084600Y-2367844D01*
G01X5095264Y-2366219D01*
G01X5104960Y-2361493D01*
G01X5112810Y-2354095D01*
G01X5118100Y-2344694D01*
G01X5123390Y-2354095D01*
G01X5131240Y-2361493D01*
G01X5140936Y-2366219D01*
G01X5151600Y-2367844D01*
G01X5184366Y-2367844D01*
G01X5206795Y-2390260D01*
G01X5157827Y-2439255D01*
G01X5150047Y-2442690D01*
G01X5013375Y-2442690D01*
G01X5017259Y-2426848D01*
G01X5017159Y-2410538D01*
G01X5013081Y-2394745D01*
G01X5005271Y-2380425D01*
G01X4994202Y-2368445D01*
G01X4980544Y-2359529D01*
G01X4986780Y-2352794D01*
G01X4991100Y-2344694D01*
G37*
G36*
G01X4687877Y-1311001D02*
G01X4866386Y-1311001D01*
G01X4866386Y-1365068D01*
G01X4836364Y-1395091D01*
G01X4822551Y-1397046D01*
G01X4809454Y-1401847D01*
G01X4797650Y-1409282D01*
G01X4787663Y-1419022D01*
G01X4779935Y-1430636D01*
G01X4774807Y-1443609D01*
G01X4774807Y-1425192D01*
G01X4773542Y-1412352D01*
G01X4769797Y-1400006D01*
G01X4763715Y-1388628D01*
G01X4755530Y-1378655D01*
G01X4687877Y-1311001D01*
G37*
G36*
G01X4670019Y-1061014D02*
G01X4802405Y-1061014D01*
G01X4860764Y-1119373D01*
G01X4686993Y-1119373D01*
G01X4683675Y-1106732D01*
G01X4677943Y-1094987D01*
G01X4670019Y-1084595D01*
G01X4670019Y-1061014D01*
G37*
G36*
G01X4536714Y-2236560D02*
G01X4536714Y-2155913D01*
G01X4535400Y-2146299D01*
G01X4531553Y-2137391D01*
G01X4525456Y-2129842D01*
G01X4517556Y-2124207D01*
G01X4508434Y-2120900D01*
G01X4517556Y-2117593D01*
G01X4525456Y-2111958D01*
G01X4531553Y-2104409D01*
G01X4535400Y-2095501D01*
G01X4536714Y-2085887D01*
G01X4536714Y-2035158D01*
G01X4663236Y-1908636D01*
G01X4674786Y-1907207D01*
G01X4674786Y-2092030D01*
G01X4676051Y-2104870D01*
G01X4679796Y-2117216D01*
G01X4685878Y-2128595D01*
G01X4694063Y-2138568D01*
G01X4743785Y-2188290D01*
G01X4738885Y-2195394D01*
G01X4735826Y-2203463D01*
G01X4734786Y-2212030D01*
G01X4734786Y-2332030D01*
G01X4736752Y-2343731D01*
G01X4742433Y-2354149D01*
G01X4751205Y-2362138D01*
G01X4746990Y-2376908D01*
G01X4746286Y-2392252D01*
G01X4749131Y-2407347D01*
G01X4755372Y-2421382D01*
G01X4536714Y-2421382D01*
G01X4536714Y-2373540D01*
G01X4535276Y-2363492D01*
G01X4531076Y-2354251D01*
G01X4524453Y-2346560D01*
G01X4515937Y-2341035D01*
G01X4506214Y-2338122D01*
G01X4506214Y-2271978D01*
G01X4515937Y-2269065D01*
G01X4524453Y-2263540D01*
G01X4531076Y-2255849D01*
G01X4535276Y-2246608D01*
G01X4536714Y-2236560D01*
G37*
G36*
G01X4275118Y-2216205D02*
G01X4275118Y-2126205D01*
G01X4273807Y-2116603D01*
G01X4269970Y-2107705D01*
G01X4273807Y-2098806D01*
G01X4275118Y-2089205D01*
G01X4275118Y-1999205D01*
G01X4273807Y-1989603D01*
G01X4269970Y-1980705D01*
G01X4273807Y-1971806D01*
G01X4275118Y-1962205D01*
G01X4275118Y-1872205D01*
G01X4273807Y-1862603D01*
G01X4269970Y-1853705D01*
G01X4273807Y-1844806D01*
G01X4275118Y-1835205D01*
G01X4275118Y-1745205D01*
G01X4273366Y-1734138D01*
G01X4268279Y-1724154D01*
G01X4260355Y-1716231D01*
G01X4250372Y-1711144D01*
G01X4239304Y-1709391D01*
G01X4089305Y-1709391D01*
G01X4078238Y-1711144D01*
G01X4068254Y-1716231D01*
G01X4060331Y-1724154D01*
G01X4055244Y-1734138D01*
G01X4053491Y-1745205D01*
G01X4053491Y-1788582D01*
G01X3704819Y-1439910D01*
G01X3704819Y-971815D01*
G01X3714259Y-958836D01*
G01X3720305Y-943969D01*
G01X3722602Y-928085D01*
G01X3721016Y-912114D01*
G01X3948807Y-912114D01*
G01X4378279Y-1341586D01*
G01X4347698Y-1341586D01*
G01X4336631Y-1343339D01*
G01X4326647Y-1348426D01*
G01X4318724Y-1356349D01*
G01X4313637Y-1366333D01*
G01X4311884Y-1377400D01*
G01X4311884Y-1467400D01*
G01X4313637Y-1478467D01*
G01X4318724Y-1488451D01*
G01X4326647Y-1496374D01*
G01X4336631Y-1501461D01*
G01X4347698Y-1503214D01*
G01X4427698Y-1503214D01*
G01X4439338Y-1501269D01*
G01X4449714Y-1495647D01*
G01X4457700Y-1486957D01*
G01X4465488Y-1495492D01*
G01X4475588Y-1501103D01*
G01X4486948Y-1503206D01*
G01X4488969Y-1515468D01*
G01X4493243Y-1527137D01*
G01X4499618Y-1537805D01*
G01X4507872Y-1547095D01*
G01X4517715Y-1554683D01*
G01X4528800Y-1560300D01*
G01X4307800Y-1781300D01*
G01X4300090Y-1791348D01*
G01X4295244Y-1803048D01*
G01X4293591Y-1815605D01*
G01X4293591Y-3294110D01*
G01X4275118Y-3312582D01*
G01X4275118Y-3269205D01*
G01X4273807Y-3259603D01*
G01X4269970Y-3250705D01*
G01X4273807Y-3241806D01*
G01X4275118Y-3232205D01*
G01X4275118Y-3142205D01*
G01X4273807Y-3132603D01*
G01X4269970Y-3123705D01*
G01X4273807Y-3114806D01*
G01X4275118Y-3105205D01*
G01X4275118Y-3015205D01*
G01X4273807Y-3005603D01*
G01X4269970Y-2996705D01*
G01X4273807Y-2987806D01*
G01X4275118Y-2978205D01*
G01X4275118Y-2888205D01*
G01X4273807Y-2878603D01*
G01X4269970Y-2869705D01*
G01X4273807Y-2860806D01*
G01X4275118Y-2851205D01*
G01X4275118Y-2761205D01*
G01X4273807Y-2751603D01*
G01X4269970Y-2742705D01*
G01X4273807Y-2733806D01*
G01X4275118Y-2724205D01*
G01X4275118Y-2634205D01*
G01X4273807Y-2624603D01*
G01X4269970Y-2615705D01*
G01X4273807Y-2606806D01*
G01X4275118Y-2597205D01*
G01X4275118Y-2507205D01*
G01X4273807Y-2497603D01*
G01X4269970Y-2488705D01*
G01X4273807Y-2479806D01*
G01X4275118Y-2470205D01*
G01X4275118Y-2380205D01*
G01X4273807Y-2370603D01*
G01X4269970Y-2361705D01*
G01X4273807Y-2352806D01*
G01X4275118Y-2343205D01*
G01X4275118Y-2253205D01*
G01X4273807Y-2243603D01*
G01X4269970Y-2234705D01*
G01X4273807Y-2225806D01*
G01X4275118Y-2216205D01*
G37*
G36*
G01X2607062Y-2163620D02*
G01X2607282Y-2148534D01*
G01X2604087Y-2133788D01*
G01X2597641Y-2120147D01*
G01X2588279Y-2108315D01*
G01X2583329Y-2096181D01*
G01X2664957Y-2014552D01*
G01X2672667Y-2004504D01*
G01X2677514Y-1992804D01*
G01X2679167Y-1980247D01*
G01X2679167Y-926909D01*
G01X2692829Y-929635D01*
G01X2706759Y-929447D01*
G01X2720342Y-926353D01*
G01X2732979Y-920489D01*
G01X2744112Y-912114D01*
G01X2984584Y-912114D01*
G01X2983023Y-924268D01*
G01X2837191Y-1070100D01*
G01X2829481Y-1080148D01*
G01X2824634Y-1091848D01*
G01X2822981Y-1104405D01*
G01X2822981Y-2460482D01*
G01X2574826Y-2212326D01*
G01X2586891Y-2203266D01*
G01X2596595Y-2191713D01*
G01X2603437Y-2178266D01*
G01X2607062Y-2163620D01*
G37*
G36*
G01X2635800Y-3680009D02*
G01X2645401Y-3678698D01*
G01X2654300Y-3674861D01*
G01X2663199Y-3678698D01*
G01X2672800Y-3680009D01*
G01X2762800Y-3680009D01*
G01X2772401Y-3678698D01*
G01X2781300Y-3674861D01*
G01X2790199Y-3678698D01*
G01X2799800Y-3680009D01*
G01X2889800Y-3680009D01*
G01X2899401Y-3678698D01*
G01X2908300Y-3674861D01*
G01X2917199Y-3678698D01*
G01X2926800Y-3680009D01*
G01X3016800Y-3680009D01*
G01X3026401Y-3678698D01*
G01X3035300Y-3674861D01*
G01X3044199Y-3678698D01*
G01X3053800Y-3680009D01*
G01X3143800Y-3680009D01*
G01X3153401Y-3678698D01*
G01X3162300Y-3674861D01*
G01X3171199Y-3678698D01*
G01X3180800Y-3680009D01*
G01X3270800Y-3680009D01*
G01X3280401Y-3678698D01*
G01X3289300Y-3674861D01*
G01X3298199Y-3678698D01*
G01X3307800Y-3680009D01*
G01X3397800Y-3680009D01*
G01X3407401Y-3678698D01*
G01X3416300Y-3674861D01*
G01X3425199Y-3678698D01*
G01X3434800Y-3680009D01*
G01X3524800Y-3680009D01*
G01X3534401Y-3678698D01*
G01X3543300Y-3674861D01*
G01X3552199Y-3678698D01*
G01X3561800Y-3680009D01*
G01X3651800Y-3680009D01*
G01X3661401Y-3678698D01*
G01X3670300Y-3674861D01*
G01X3679199Y-3678698D01*
G01X3688800Y-3680009D01*
G01X3778800Y-3680009D01*
G01X3788401Y-3678698D01*
G01X3797300Y-3674861D01*
G01X3806199Y-3678698D01*
G01X3815800Y-3680009D01*
G01X3905800Y-3680009D01*
G01X3916821Y-3678271D01*
G01X3926773Y-3673226D01*
G01X3932702Y-3675559D01*
G01X3938950Y-3676804D01*
G01X3770469Y-3845286D01*
G01X3719740Y-3845286D01*
G01X3709692Y-3846724D01*
G01X3700451Y-3850924D01*
G01X3692760Y-3857547D01*
G01X3687235Y-3866063D01*
G01X3684322Y-3875786D01*
G01X3656278Y-3875786D01*
G01X3653365Y-3866063D01*
G01X3647840Y-3857547D01*
G01X3640149Y-3850924D01*
G01X3630908Y-3846724D01*
G01X3620860Y-3845286D01*
G01X3540213Y-3845286D01*
G01X3530599Y-3846600D01*
G01X3521691Y-3850447D01*
G01X3514142Y-3856544D01*
G01X3508507Y-3864444D01*
G01X3505200Y-3873566D01*
G01X3501893Y-3864444D01*
G01X3496258Y-3856544D01*
G01X3488709Y-3850447D01*
G01X3479801Y-3846600D01*
G01X3470187Y-3845286D01*
G01X3389540Y-3845286D01*
G01X3378473Y-3847039D01*
G01X3368489Y-3852126D01*
G01X3360566Y-3860049D01*
G01X3355479Y-3870033D01*
G01X3353726Y-3881100D01*
G01X3353726Y-3967500D01*
G01X3355479Y-3978567D01*
G01X3360566Y-3988551D01*
G01X3368489Y-3996474D01*
G01X3378473Y-4001561D01*
G01X3389540Y-4003314D01*
G01X3470187Y-4003314D01*
G01X3479801Y-4002000D01*
G01X3488709Y-3998153D01*
G01X3496258Y-3992056D01*
G01X3501893Y-3984156D01*
G01X3505200Y-3975034D01*
G01X3508507Y-3984156D01*
G01X3514142Y-3992056D01*
G01X3521691Y-3998153D01*
G01X3530599Y-4002000D01*
G01X3540213Y-4003314D01*
G01X3620860Y-4003314D01*
G01X3630908Y-4001876D01*
G01X3640149Y-3997676D01*
G01X3647840Y-3991053D01*
G01X3653365Y-3982537D01*
G01X3656278Y-3972814D01*
G01X3684322Y-3972814D01*
G01X3686569Y-3981003D01*
G01X3690680Y-3988433D01*
G01X3696425Y-3994686D01*
G01X3692261Y-3994686D01*
G01X3679421Y-3995951D01*
G01X3667075Y-3999696D01*
G01X3655697Y-4005778D01*
G01X3645723Y-4013962D01*
G01X3605000Y-4054686D01*
G01X2905595Y-4054686D01*
G01X2910214Y-4042327D01*
G01X2912295Y-4029298D01*
G01X2911756Y-4016116D01*
G01X2908617Y-4003301D01*
G01X2903004Y-3991361D01*
G01X2895138Y-3980768D01*
G01X2885330Y-3971943D01*
G01X2873970Y-3965233D01*
G01X2861506Y-3960906D01*
G01X2848432Y-3959132D01*
G01X2569309Y-3680009D01*
G01X2635800Y-3680009D01*
G37*
G36*
G01X2970809Y-2783031D02*
G01X3044283Y-2783031D01*
G01X3053406Y-2781849D01*
G01X3061928Y-2778383D01*
G01X3069285Y-2772859D01*
G01X3076642Y-2778383D01*
G01X3085164Y-2781849D01*
G01X3094288Y-2783031D01*
G01X3184288Y-2783031D01*
G01X3193411Y-2781849D01*
G01X3201933Y-2778383D01*
G01X3209290Y-2772859D01*
G01X3216647Y-2778383D01*
G01X3225169Y-2781849D01*
G01X3234292Y-2783031D01*
G01X3324292Y-2783031D01*
G01X3335359Y-2781278D01*
G01X3345343Y-2776191D01*
G01X3353266Y-2768268D01*
G01X3358353Y-2758284D01*
G01X3360106Y-2747217D01*
G01X3360106Y-2657217D01*
G01X3358925Y-2648094D01*
G01X3355458Y-2639572D01*
G01X3349934Y-2632215D01*
G01X3355458Y-2624857D01*
G01X3358925Y-2616336D01*
G01X3360106Y-2607212D01*
G01X3360106Y-2517212D01*
G01X3358925Y-2508089D01*
G01X3355458Y-2499567D01*
G01X3349934Y-2492210D01*
G01X3355458Y-2484853D01*
G01X3358925Y-2476331D01*
G01X3360106Y-2467207D01*
G01X3360106Y-2377208D01*
G01X3358353Y-2366140D01*
G01X3353266Y-2356157D01*
G01X3345343Y-2348233D01*
G01X3335359Y-2343146D01*
G01X3324292Y-2341394D01*
G01X3234292Y-2341394D01*
G01X3225169Y-2342575D01*
G01X3216647Y-2346042D01*
G01X3209290Y-2351565D01*
G01X3201933Y-2346042D01*
G01X3193411Y-2342575D01*
G01X3184288Y-2341394D01*
G01X3094288Y-2341394D01*
G01X3085164Y-2342575D01*
G01X3076642Y-2346042D01*
G01X3069285Y-2351565D01*
G01X3061928Y-2346042D01*
G01X3053406Y-2342575D01*
G01X3044283Y-2341394D01*
G01X2970809Y-2341394D01*
G01X2970809Y-1378500D01*
G01X3331032Y-1018278D01*
G01X3342627Y-1016839D01*
G01X3353791Y-1013387D01*
G01X3353791Y-1333005D01*
G01X3355444Y-1345561D01*
G01X3360290Y-1357262D01*
G01X3368000Y-1367309D01*
G01X4053491Y-2052800D01*
G01X4053491Y-2089205D01*
G01X4054802Y-2098806D01*
G01X4058639Y-2107705D01*
G01X4054802Y-2116603D01*
G01X4053491Y-2126205D01*
G01X4053491Y-2216205D01*
G01X4054802Y-2225806D01*
G01X4058639Y-2234705D01*
G01X4054802Y-2243603D01*
G01X4053491Y-2253205D01*
G01X4053491Y-2343205D01*
G01X4054802Y-2352806D01*
G01X4058639Y-2361705D01*
G01X4055315Y-2368920D01*
G01X4053664Y-2376691D01*
G01X4037305Y-2376691D01*
G01X4024748Y-2378344D01*
G01X4013048Y-2383190D01*
G01X4003000Y-2390900D01*
G01X3018968Y-3374932D01*
G01X3004261Y-3377118D01*
G01X2990410Y-3382527D01*
G01X2978113Y-3390885D01*
G01X2967987Y-3401774D01*
G01X2960542Y-3414645D01*
G01X2956151Y-3428851D01*
G01X2955037Y-3443678D01*
G01X2957254Y-3458381D01*
G01X2926800Y-3458381D01*
G01X2917199Y-3459693D01*
G01X2908300Y-3463530D01*
G01X2899401Y-3459693D01*
G01X2889800Y-3458381D01*
G01X2799800Y-3458381D01*
G01X2790199Y-3459693D01*
G01X2781300Y-3463530D01*
G01X2772401Y-3459693D01*
G01X2762800Y-3458381D01*
G01X2672800Y-3458381D01*
G01X2663199Y-3459693D01*
G01X2654300Y-3463530D01*
G01X2645401Y-3459693D01*
G01X2635800Y-3458381D01*
G01X2545800Y-3458381D01*
G01X2534944Y-3460066D01*
G01X2525109Y-3464963D01*
G01X2525109Y-3449800D01*
G01X2956600Y-3018309D01*
G01X2964310Y-3008262D01*
G01X2969156Y-2996561D01*
G01X2970809Y-2984005D01*
G01X2970809Y-2783031D01*
G37*
G36*
G01X2287473Y-2606273D02*
G01X2295848Y-2605443D01*
G01X2304050Y-2603560D01*
G01X2305785Y-2609841D01*
G01X2308630Y-2615705D01*
G01X2304793Y-2624603D01*
G01X2303482Y-2634205D01*
G01X2303482Y-2724205D01*
G01X2304793Y-2733806D01*
G01X2308630Y-2742705D01*
G01X2304793Y-2751603D01*
G01X2303482Y-2761205D01*
G01X2303482Y-2851205D01*
G01X2304793Y-2860806D01*
G01X2308630Y-2869705D01*
G01X2304793Y-2878603D01*
G01X2303482Y-2888205D01*
G01X2303482Y-2978205D01*
G01X2304793Y-2987806D01*
G01X2308630Y-2996705D01*
G01X2304793Y-3005603D01*
G01X2303482Y-3015205D01*
G01X2303482Y-3105205D01*
G01X2304793Y-3114806D01*
G01X2308630Y-3123705D01*
G01X2304793Y-3132603D01*
G01X2303482Y-3142205D01*
G01X2303482Y-3232205D01*
G01X2304793Y-3241806D01*
G01X2308630Y-3250705D01*
G01X2304793Y-3259603D01*
G01X2303482Y-3269205D01*
G01X2303482Y-3280212D01*
G01X2252991Y-3330700D01*
G01X2245281Y-3340748D01*
G01X2240434Y-3352448D01*
G01X2238781Y-3365005D01*
G01X2238781Y-3385520D01*
G01X1672250Y-2818989D01*
G01X1673200Y-2819001D01*
G01X1753199Y-2819001D01*
G01X1764896Y-2817037D01*
G01X1775310Y-2811361D01*
G01X1783299Y-2802596D01*
G01X1787987Y-2791701D01*
G01X1855520Y-2791701D01*
G01X1858431Y-2801428D01*
G01X1863955Y-2809947D01*
G01X1871647Y-2816574D01*
G01X1880889Y-2820775D01*
G01X1890940Y-2822214D01*
G01X1971587Y-2822214D01*
G01X1981201Y-2820900D01*
G01X1990109Y-2817053D01*
G01X1997658Y-2810956D01*
G01X2003293Y-2803056D01*
G01X2006600Y-2793934D01*
G01X2009907Y-2803056D01*
G01X2015542Y-2810956D01*
G01X2023091Y-2817053D01*
G01X2031999Y-2820900D01*
G01X2041613Y-2822214D01*
G01X2122260Y-2822214D01*
G01X2133327Y-2820461D01*
G01X2143311Y-2815374D01*
G01X2151234Y-2807451D01*
G01X2156321Y-2797467D01*
G01X2158074Y-2786400D01*
G01X2158074Y-2735671D01*
G01X2287473Y-2606273D01*
G37*
G36*
G01X3670209Y-5361940D02*
G01X2908391Y-5361940D01*
G01X2923429Y-5350052D01*
G01X2935800Y-5335407D01*
G01X2945008Y-5318593D01*
G01X2950685Y-5300283D01*
G01X2952603Y-5281209D01*
G01X2952603Y-5221209D01*
G01X2950762Y-5202516D01*
G01X2945309Y-5184542D01*
G01X2936455Y-5167977D01*
G01X2924539Y-5153458D01*
G01X2910020Y-5141542D01*
G01X2893455Y-5132688D01*
G01X2875481Y-5127236D01*
G01X2856789Y-5125395D01*
G01X2838096Y-5127236D01*
G01X2820122Y-5132688D01*
G01X2803557Y-5141542D01*
G01X2789038Y-5153458D01*
G01X2777122Y-5167977D01*
G01X2768268Y-5184542D01*
G01X2762816Y-5202516D01*
G01X2760975Y-5221209D01*
G01X2760975Y-5281209D01*
G01X2762893Y-5300283D01*
G01X2768569Y-5318593D01*
G01X2777777Y-5335407D01*
G01X2790148Y-5350052D01*
G01X2805187Y-5361940D01*
G01X1458214Y-5361940D01*
G01X1458214Y-4584101D01*
G01X1704683Y-4584101D01*
G01X1706436Y-4595168D01*
G01X1711523Y-4605152D01*
G01X1719446Y-4613075D01*
G01X1729430Y-4618162D01*
G01X1740497Y-4619915D01*
G01X1938998Y-4619915D01*
G01X1950065Y-4618162D01*
G01X1960049Y-4613075D01*
G01X1967972Y-4605152D01*
G01X1973059Y-4595168D01*
G01X1974812Y-4584101D01*
G01X1974812Y-4432899D01*
G01X1973059Y-4421832D01*
G01X1967972Y-4411848D01*
G01X1960049Y-4403925D01*
G01X1950065Y-4398838D01*
G01X1938998Y-4397085D01*
G01X1740497Y-4397085D01*
G01X1729430Y-4398838D01*
G01X1719446Y-4403925D01*
G01X1711523Y-4411848D01*
G01X1706436Y-4421832D01*
G01X1704683Y-4432899D01*
G01X1704683Y-4584101D01*
G01X1704683Y-4584101D01*
G01X1458214Y-4584101D01*
G01X1458214Y-2291518D01*
G01X2121336Y-2291518D01*
G01X2112362Y-2299513D01*
G01X2106539Y-2310028D01*
G01X2104522Y-2321876D01*
G01X2104522Y-2348139D01*
G01X2062014Y-2390648D01*
G01X2062014Y-2328398D01*
G01X2060261Y-2317331D01*
G01X2055174Y-2307347D01*
G01X2047251Y-2299424D01*
G01X2037267Y-2294337D01*
G01X2026200Y-2292584D01*
G01X1936200Y-2292584D01*
G01X1925133Y-2294337D01*
G01X1915149Y-2299424D01*
G01X1907226Y-2307347D01*
G01X1902139Y-2317331D01*
G01X1900386Y-2328398D01*
G01X1900386Y-2408398D01*
G01X1902331Y-2420038D01*
G01X1907953Y-2430414D01*
G01X1916643Y-2438400D01*
G01X1911375Y-2442588D01*
G01X1847825Y-2442588D01*
G01X1842557Y-2438400D01*
G01X1851247Y-2430414D01*
G01X1856869Y-2420038D01*
G01X1858814Y-2408398D01*
G01X1858814Y-2328398D01*
G01X1857061Y-2317331D01*
G01X1851974Y-2307347D01*
G01X1844051Y-2299424D01*
G01X1834067Y-2294337D01*
G01X1823000Y-2292584D01*
G01X1733000Y-2292584D01*
G01X1721933Y-2294337D01*
G01X1711949Y-2299424D01*
G01X1704026Y-2307347D01*
G01X1698939Y-2317331D01*
G01X1697186Y-2328398D01*
G01X1697186Y-2408398D01*
G01X1699131Y-2420038D01*
G01X1704753Y-2430414D01*
G01X1713443Y-2438400D01*
G01X1704753Y-2446386D01*
G01X1699131Y-2456762D01*
G01X1697186Y-2468402D01*
G01X1697186Y-2548402D01*
G01X1698939Y-2559469D01*
G01X1704026Y-2569453D01*
G01X1711949Y-2577376D01*
G01X1721933Y-2582463D01*
G01X1733000Y-2584216D01*
G01X1823000Y-2584216D01*
G01X1832044Y-2583056D01*
G01X1840502Y-2579649D01*
G01X1847825Y-2574216D01*
G01X1911375Y-2574216D01*
G01X1918698Y-2579649D01*
G01X1927156Y-2583056D01*
G01X1936200Y-2584216D01*
G01X2026200Y-2584216D01*
G01X2036070Y-2582829D01*
G01X2045175Y-2578776D01*
G01X2052811Y-2572371D01*
G01X2064174Y-2568495D01*
G01X2074643Y-2562619D01*
G01X2083871Y-2554940D01*
G01X2104522Y-2534289D01*
G01X2104522Y-2553197D01*
G01X2106275Y-2564264D01*
G01X2111362Y-2574248D01*
G01X2119285Y-2582171D01*
G01X2129269Y-2587258D01*
G01X2140336Y-2589011D01*
G01X2167517Y-2589011D01*
G01X2092342Y-2664186D01*
G01X2041613Y-2664186D01*
G01X2031999Y-2665500D01*
G01X2023091Y-2669347D01*
G01X2015542Y-2675444D01*
G01X2009907Y-2683344D01*
G01X2006600Y-2692466D01*
G01X2003293Y-2683344D01*
G01X1997658Y-2675444D01*
G01X1990109Y-2669347D01*
G01X1981201Y-2665500D01*
G01X1971587Y-2664186D01*
G01X1890940Y-2664186D01*
G01X1880894Y-2665623D01*
G01X1871655Y-2669821D01*
G01X1863965Y-2676441D01*
G01X1858440Y-2684953D01*
G01X1855524Y-2694673D01*
G01X1787987Y-2694673D01*
G01X1783299Y-2683779D01*
G01X1775310Y-2675013D01*
G01X1764896Y-2669337D01*
G01X1753199Y-2667373D01*
G01X1673200Y-2667373D01*
G01X1661385Y-2669378D01*
G01X1650894Y-2675168D01*
G01X1642899Y-2684095D01*
G01X1638297Y-2695159D01*
G01X1636103Y-2688612D01*
G01X1632693Y-2682607D01*
G01X1632693Y-2578059D01*
G01X1640738Y-2570122D01*
G01X1645910Y-2560074D01*
G01X1647693Y-2548914D01*
G01X1647693Y-2468914D01*
G01X1645748Y-2457274D01*
G01X1640126Y-2446897D01*
G01X1631436Y-2438912D01*
G01X1640126Y-2430926D01*
G01X1645748Y-2420550D01*
G01X1647693Y-2408909D01*
G01X1647693Y-2328909D01*
G01X1645940Y-2317842D01*
G01X1640853Y-2307859D01*
G01X1632930Y-2299935D01*
G01X1622946Y-2294848D01*
G01X1611879Y-2293095D01*
G01X1521879Y-2293095D01*
G01X1510812Y-2294848D01*
G01X1500828Y-2299935D01*
G01X1492905Y-2307859D01*
G01X1487818Y-2317842D01*
G01X1486065Y-2328909D01*
G01X1486065Y-2408909D01*
G01X1488010Y-2420550D01*
G01X1493632Y-2430926D01*
G01X1502322Y-2438912D01*
G01X1493632Y-2446897D01*
G01X1488010Y-2457274D01*
G01X1486065Y-2468914D01*
G01X1486065Y-2548914D01*
G01X1487848Y-2560074D01*
G01X1493020Y-2570122D01*
G01X1501065Y-2578059D01*
G01X1501065Y-2675217D01*
G01X1493807Y-2683042D01*
G01X1489177Y-2692659D01*
G01X1487587Y-2703213D01*
G01X1487587Y-2783213D01*
G01X1488771Y-2792346D01*
G01X1492245Y-2800876D01*
G01X1497780Y-2808237D01*
G01X1500780Y-2823461D01*
G01X1507262Y-2837560D01*
G01X1516864Y-2849749D01*
G01X2157586Y-3490472D01*
G01X2157586Y-3695072D01*
G01X2157586Y-3711350D01*
G01X2157586Y-4063210D01*
G01X2158851Y-4076049D01*
G01X2162596Y-4088395D01*
G01X2168678Y-4099774D01*
G01X2176863Y-4109747D01*
G01X2398240Y-4331124D01*
G01X2386324Y-4338637D01*
G01X2376265Y-4348498D01*
G01X2368515Y-4360261D01*
G01X2363424Y-4373395D01*
G01X2361223Y-4387309D01*
G01X2362010Y-4401373D01*
G01X2354240Y-4407026D01*
G01X2348252Y-4414541D01*
G01X2344477Y-4423377D01*
G01X2343188Y-4432899D01*
G01X2343188Y-4584101D01*
G01X2344941Y-4595168D01*
G01X2350028Y-4605152D01*
G01X2357951Y-4613075D01*
G01X2367935Y-4618162D01*
G01X2379002Y-4619915D01*
G01X2577503Y-4619915D01*
G01X2588570Y-4618162D01*
G01X2598554Y-4613075D01*
G01X2606477Y-4605152D01*
G01X2611564Y-4595168D01*
G01X2613317Y-4584101D01*
G01X2613317Y-4432899D01*
G01X2613107Y-4429022D01*
G01X2736138Y-4429022D01*
G01X2962699Y-4655584D01*
G01X2939306Y-4655584D01*
G01X2928239Y-4657337D01*
G01X2918255Y-4662424D01*
G01X2910332Y-4670347D01*
G01X2905245Y-4680331D01*
G01X2903492Y-4691398D01*
G01X2903492Y-4709566D01*
G01X2886934Y-4702278D01*
G01X2869302Y-4698233D01*
G01X2851224Y-4697574D01*
G01X2833345Y-4700325D01*
G01X2816301Y-4706387D01*
G01X2800700Y-4715545D01*
G01X2787099Y-4727473D01*
G01X2775982Y-4741744D01*
G01X2767745Y-4757850D01*
G01X2762683Y-4775217D01*
G01X2760975Y-4793226D01*
G01X2760975Y-4873226D01*
G01X2762171Y-4888319D01*
G01X2765730Y-4903035D01*
G01X2771563Y-4917007D01*
G01X2779523Y-4929886D01*
G01X2031136Y-4929886D01*
G01X2018580Y-4931539D01*
G01X2006879Y-4936386D01*
G01X1996832Y-4944095D01*
G01X1787542Y-5153386D01*
G01X1749450Y-5153386D01*
G01X1749450Y-5100095D01*
G01X1766731Y-5082814D01*
G01X1817460Y-5082814D01*
G01X1828527Y-5081061D01*
G01X1838511Y-5075974D01*
G01X1846434Y-5068051D01*
G01X1851521Y-5058067D01*
G01X1853274Y-5047000D01*
G01X1853274Y-4960600D01*
G01X1851521Y-4949533D01*
G01X1846434Y-4939549D01*
G01X1838511Y-4931626D01*
G01X1828527Y-4926539D01*
G01X1817460Y-4924786D01*
G01X1736813Y-4924786D01*
G01X1727199Y-4926100D01*
G01X1718291Y-4929947D01*
G01X1710742Y-4936044D01*
G01X1705107Y-4943944D01*
G01X1701800Y-4953066D01*
G01X1698493Y-4943944D01*
G01X1692858Y-4936044D01*
G01X1685309Y-4929947D01*
G01X1676401Y-4926100D01*
G01X1666787Y-4924786D01*
G01X1586140Y-4924786D01*
G01X1575073Y-4926539D01*
G01X1565089Y-4931626D01*
G01X1557166Y-4939549D01*
G01X1552079Y-4949533D01*
G01X1550326Y-4960600D01*
G01X1550326Y-5047000D01*
G01X1552079Y-5058067D01*
G01X1557166Y-5068051D01*
G01X1565089Y-5075974D01*
G01X1575073Y-5081061D01*
G01X1586140Y-5082814D01*
G01X1652422Y-5082814D01*
G01X1652422Y-5153386D01*
G01X1586140Y-5153386D01*
G01X1575073Y-5155139D01*
G01X1565089Y-5160226D01*
G01X1557166Y-5168149D01*
G01X1552079Y-5178133D01*
G01X1550326Y-5189200D01*
G01X1550326Y-5275600D01*
G01X1552079Y-5286667D01*
G01X1557166Y-5296651D01*
G01X1565089Y-5304574D01*
G01X1575073Y-5309661D01*
G01X1586140Y-5311414D01*
G01X1661470Y-5311414D01*
G01X1666632Y-5317505D01*
G01X1692032Y-5342905D01*
G01X1702079Y-5350614D01*
G01X1713780Y-5355461D01*
G01X1726336Y-5357114D01*
G01X1827936Y-5357114D01*
G01X1840493Y-5355461D01*
G01X1852193Y-5350614D01*
G01X1862241Y-5342905D01*
G01X2127432Y-5077714D01*
G01X3267697Y-5077714D01*
G01X3280254Y-5076061D01*
G01X3291954Y-5071214D01*
G01X3302002Y-5063505D01*
G01X3498611Y-4866896D01*
G01X3506119Y-4857194D01*
G01X3510760Y-4857194D01*
G01X3506852Y-4871945D01*
G01X3506084Y-4887187D01*
G01X3508487Y-4902257D01*
G01X3513958Y-4916503D01*
G01X3522259Y-4929307D01*
G01X3533032Y-4940116D01*
G01X3545809Y-4948461D01*
G01X3560036Y-4953980D01*
G01X3575098Y-4956433D01*
G01X3590342Y-4955716D01*
G01X3605106Y-4951858D01*
G01X3618753Y-4945028D01*
G01X3630689Y-4935520D01*
G01X3640399Y-4923747D01*
G01X3651989Y-4938840D01*
G01X3666333Y-4951345D01*
G01X3682866Y-4960768D01*
G01X3700935Y-4966738D01*
G01X3719827Y-4969020D01*
G01X3738798Y-4967522D01*
G01X3757098Y-4962305D01*
G01X3774007Y-4953575D01*
G01X3788857Y-4941675D01*
G01X3801062Y-4927075D01*
G01X3810141Y-4910350D01*
G01X3815735Y-4892162D01*
G01X3817625Y-4873226D01*
G01X3817625Y-4793226D01*
G01X3815917Y-4775218D01*
G01X3810856Y-4757851D01*
G01X3802620Y-4741746D01*
G01X3791504Y-4727475D01*
G01X3777903Y-4715548D01*
G01X3762304Y-4706389D01*
G01X3745261Y-4700326D01*
G01X3727382Y-4697575D01*
G01X3709305Y-4698232D01*
G01X3691673Y-4702276D01*
G01X3675116Y-4709561D01*
G01X3675116Y-4691383D01*
G01X3673363Y-4680315D01*
G01X3668276Y-4670332D01*
G01X3660353Y-4662408D01*
G01X3650369Y-4657321D01*
G01X3639302Y-4655569D01*
G01X3595143Y-4655569D01*
G01X3595143Y-4649142D01*
G01X3593878Y-4636303D01*
G01X3590133Y-4623957D01*
G01X3584051Y-4612579D01*
G01X3575867Y-4602606D01*
G01X3455831Y-4482570D01*
G01X3445858Y-4474386D01*
G01X3434480Y-4468304D01*
G01X3422134Y-4464559D01*
G01X3409295Y-4463294D01*
G01X3169295Y-4463294D01*
G01X3156456Y-4464559D01*
G01X3144110Y-4468304D01*
G01X3132732Y-4474386D01*
G01X3122759Y-4482570D01*
G01X3049295Y-4556034D01*
G01X2809935Y-4316673D01*
G01X2799962Y-4308488D01*
G01X2788583Y-4302406D01*
G01X2776237Y-4298661D01*
G01X2763398Y-4297397D01*
G01X2550659Y-4297397D01*
G01X2439576Y-4186314D01*
G01X3632261Y-4186314D01*
G01X3645101Y-4185049D01*
G01X3657447Y-4181304D01*
G01X3668825Y-4175222D01*
G01X3678798Y-4167037D01*
G01X3716222Y-4129614D01*
G01X3716222Y-4420499D01*
G01X3718209Y-4435592D01*
G01X3724035Y-4449656D01*
G01X3733302Y-4461734D01*
G01X3999883Y-4728315D01*
G01X3999883Y-5161046D01*
G01X3995710Y-5160802D01*
G01X3950708Y-5160802D01*
G01X3939641Y-5162555D01*
G01X3929657Y-5167642D01*
G01X3921734Y-5175566D01*
G01X3916647Y-5185549D01*
G01X3914894Y-5196616D01*
G01X3914894Y-5251618D01*
G01X3916647Y-5262685D01*
G01X3921734Y-5272669D01*
G01X3929657Y-5280592D01*
G01X3939641Y-5285679D01*
G01X3950708Y-5287432D01*
G01X3995710Y-5287432D01*
G01X4006161Y-5285873D01*
G01X4015703Y-5281331D01*
G01X4025245Y-5285873D01*
G01X4035697Y-5287432D01*
G01X4080698Y-5287432D01*
G01X4091765Y-5285679D01*
G01X4101749Y-5280592D01*
G01X4109672Y-5272669D01*
G01X4114759Y-5262685D01*
G01X4116512Y-5251618D01*
G01X4116512Y-5148314D01*
G01X4142352Y-5122474D01*
G01X4242812Y-5122474D01*
G01X4228265Y-5137500D01*
G01X4216527Y-5154811D01*
G01X4207950Y-5173886D01*
G01X4202792Y-5194155D01*
G01X4201206Y-5215010D01*
G01X4203242Y-5235825D01*
G01X4208836Y-5255978D01*
G01X4217823Y-5274864D01*
G01X4229932Y-5291917D01*
G01X4244800Y-5306626D01*
G01X4261983Y-5318550D01*
G01X4280965Y-5327332D01*
G01X4301177Y-5332709D01*
G01X4322013Y-5334519D01*
G01X4342850Y-5332709D01*
G01X4363062Y-5327332D01*
G01X4382043Y-5318550D01*
G01X4399226Y-5306626D01*
G01X4414095Y-5291917D01*
G01X4426204Y-5274864D01*
G01X4435190Y-5255978D01*
G01X4440785Y-5235825D01*
G01X4442820Y-5215010D01*
G01X4441235Y-5194155D01*
G01X4436076Y-5173886D01*
G01X4427500Y-5154811D01*
G01X4415762Y-5137500D01*
G01X4401214Y-5122474D01*
G01X4492799Y-5122474D01*
G01X4478021Y-5137785D01*
G01X4466158Y-5155452D01*
G01X4457579Y-5174927D01*
G01X4452550Y-5195604D01*
G01X4451227Y-5216843D01*
G01X4453651Y-5237985D01*
G01X4459747Y-5258373D01*
G01X4469325Y-5277376D01*
G01X4482089Y-5294403D01*
G01X4497643Y-5308927D01*
G01X4515504Y-5320496D01*
G01X4535117Y-5328752D01*
G01X4555875Y-5333438D01*
G01X4577133Y-5334410D01*
G01X4598232Y-5331637D01*
G01X4618516Y-5325205D01*
G01X4637358Y-5315314D01*
G01X4654172Y-5302270D01*
G01X4668437Y-5286479D01*
G01X4679709Y-5268430D01*
G01X4687640Y-5248682D01*
G01X4691983Y-5227850D01*
G01X4692603Y-5206579D01*
G01X4689482Y-5185529D01*
G01X4682716Y-5165353D01*
G01X4672515Y-5146677D01*
G01X4705960Y-5180122D01*
G01X4701874Y-5200944D01*
G01X4701495Y-5222160D01*
G01X4704832Y-5243114D01*
G01X4711785Y-5263162D01*
G01X4722137Y-5281684D01*
G01X4735571Y-5298109D01*
G01X4751671Y-5311930D01*
G01X4769940Y-5322722D01*
G01X4789816Y-5330150D01*
G01X4810685Y-5333987D01*
G01X4831903Y-5334114D01*
G01X4852817Y-5330526D01*
G01X4872780Y-5323335D01*
G01X4891177Y-5312762D01*
G01X4907440Y-5299134D01*
G01X4921069Y-5282870D01*
G01X4931642Y-5264473D01*
G01X4938833Y-5244510D01*
G01X4942420Y-5223597D01*
G01X4942294Y-5202378D01*
G01X4938457Y-5181509D01*
G01X4931028Y-5161634D01*
G01X4920237Y-5143364D01*
G01X4906415Y-5127264D01*
G01X4889990Y-5113831D01*
G01X4871468Y-5103478D01*
G01X4851421Y-5096526D01*
G01X4830466Y-5093188D01*
G01X4809251Y-5093568D01*
G01X4788429Y-5097653D01*
G01X4713701Y-5022925D01*
G01X4701623Y-5013657D01*
G01X4687559Y-5007832D01*
G01X4672466Y-5005845D01*
G01X4118197Y-5005845D01*
G01X4116512Y-5005869D01*
G01X4116512Y-4704160D01*
G01X4114525Y-4689067D01*
G01X4108699Y-4675003D01*
G01X4099432Y-4662925D01*
G01X4034065Y-4597559D01*
G01X4056995Y-4599508D01*
G01X4136995Y-4599508D01*
G01X4159349Y-4597656D01*
G01X4181093Y-4592149D01*
G01X4201635Y-4583139D01*
G01X4220413Y-4570871D01*
G01X4236916Y-4555679D01*
G01X4250693Y-4537978D01*
G01X4261369Y-4518250D01*
G01X4268652Y-4497035D01*
G01X4272344Y-4474910D01*
G01X4272344Y-4452479D01*
G01X4272344Y-4452479D01*
G01X4871656Y-4452479D01*
G01X4871656Y-4474910D01*
G01X4875348Y-4497035D01*
G01X4882631Y-4518250D01*
G01X4893307Y-4537978D01*
G01X4907084Y-4555679D01*
G01X4923587Y-4570871D01*
G01X4942365Y-4583139D01*
G01X4962907Y-4592149D01*
G01X4984651Y-4597656D01*
G01X5007005Y-4599508D01*
G01X5007005Y-4599508D01*
G01X5087005Y-4599508D01*
G01X5109360Y-4597656D01*
G01X5131104Y-4592149D01*
G01X5151646Y-4583139D01*
G01X5170424Y-4570871D01*
G01X5186927Y-4555679D01*
G01X5200704Y-4537978D01*
G01X5211380Y-4518250D01*
G01X5218663Y-4497035D01*
G01X5222355Y-4474910D01*
G01X5222355Y-4452479D01*
G01X5218663Y-4430354D01*
G01X5211380Y-4409139D01*
G01X5200704Y-4389411D01*
G01X5186927Y-4371710D01*
G01X5170424Y-4356518D01*
G01X5151646Y-4344250D01*
G01X5131104Y-4335239D01*
G01X5109360Y-4329733D01*
G01X5087005Y-4327881D01*
G01X5007005Y-4327881D01*
G01X4984651Y-4329733D01*
G01X4962907Y-4335239D01*
G01X4942365Y-4344250D01*
G01X4923587Y-4356518D01*
G01X4907084Y-4371710D01*
G01X4893307Y-4389411D01*
G01X4882631Y-4409139D01*
G01X4875348Y-4430354D01*
G01X4871656Y-4452479D01*
G01X4272344Y-4452479D01*
G01X4268652Y-4430354D01*
G01X4261369Y-4409139D01*
G01X4250693Y-4389411D01*
G01X4236916Y-4371710D01*
G01X4220413Y-4356518D01*
G01X4201635Y-4344250D01*
G01X4181093Y-4335239D01*
G01X4159349Y-4329733D01*
G01X4136995Y-4327881D01*
G01X4056995Y-4327881D01*
G01X4035596Y-4329577D01*
G01X4014731Y-4334624D01*
G01X3994922Y-4342895D01*
G01X3976664Y-4354185D01*
G01X3960413Y-4368209D01*
G01X3946575Y-4384620D01*
G01X3935495Y-4403006D01*
G01X3927450Y-4422907D01*
G01X3922642Y-4443828D01*
G01X3921190Y-4465245D01*
G01X3923130Y-4486624D01*
G01X3832851Y-4396344D01*
G01X3832851Y-4095260D01*
G01X3924797Y-4003314D01*
G01X3951060Y-4003314D01*
G01X3961500Y-4001759D01*
G01X3971034Y-3997228D01*
G01X3978832Y-3990114D01*
G01X4291736Y-3990114D01*
G01X4304576Y-3988849D01*
G01X4316922Y-3985104D01*
G01X4328301Y-3979022D01*
G01X4338274Y-3970837D01*
G01X4407397Y-3901714D01*
G01X4433660Y-3901714D01*
G01X4444727Y-3899961D01*
G01X4454711Y-3894874D01*
G01X4462634Y-3886951D01*
G01X4467721Y-3876967D01*
G01X4469474Y-3865900D01*
G01X4469474Y-3779500D01*
G01X4468274Y-3770306D01*
G01X4464754Y-3761729D01*
G01X4459150Y-3754342D01*
G01X4459150Y-3543214D01*
G01X4486243Y-3543214D01*
G01X4482085Y-3557599D01*
G01X4481261Y-3572550D01*
G01X4483813Y-3587305D01*
G01X4489610Y-3601112D01*
G01X4498357Y-3613265D01*
G01X4509607Y-3623147D01*
G01X4522788Y-3630252D01*
G01X4537227Y-3634219D01*
G01X4552188Y-3634846D01*
G01X4566908Y-3632099D01*
G01X4580636Y-3626121D01*
G01X4592674Y-3617214D01*
G01X4937106Y-3617214D01*
G01X4939924Y-3627069D01*
G01X4945418Y-3635722D01*
G01X4953137Y-3642464D01*
G01X4962451Y-3646744D01*
G01X4972595Y-3648211D01*
G01X5222594Y-3648211D01*
G01X5233661Y-3646458D01*
G01X5243645Y-3641371D01*
G01X5251568Y-3633448D01*
G01X5256655Y-3623464D01*
G01X5258408Y-3612397D01*
G01X5258408Y-3502397D01*
G01X5256655Y-3491330D01*
G01X5251568Y-3481346D01*
G01X5243645Y-3473423D01*
G01X5233661Y-3468336D01*
G01X5222594Y-3466583D01*
G01X4972595Y-3466583D01*
G01X4961528Y-3468336D01*
G01X4951544Y-3473423D01*
G01X4943621Y-3481346D01*
G01X4938534Y-3491330D01*
G01X4936781Y-3502397D01*
G01X4936781Y-3520186D01*
G01X4654057Y-3520186D01*
G01X4655822Y-3513901D01*
G01X4656417Y-3507400D01*
G01X4656417Y-3393214D01*
G01X4938452Y-3393214D01*
G01X4943504Y-3403289D01*
G01X4951437Y-3411296D01*
G01X4961465Y-3416440D01*
G01X4972595Y-3418214D01*
G01X5222594Y-3418214D01*
G01X5233661Y-3416461D01*
G01X5243645Y-3411374D01*
G01X5251568Y-3403451D01*
G01X5256655Y-3393467D01*
G01X5258408Y-3382400D01*
G01X5258408Y-3272400D01*
G01X5256655Y-3261333D01*
G01X5251568Y-3251349D01*
G01X5243645Y-3243426D01*
G01X5233661Y-3238339D01*
G01X5222594Y-3236586D01*
G01X4972595Y-3236586D01*
G01X4961465Y-3238360D01*
G01X4951437Y-3243504D01*
G01X4943504Y-3251511D01*
G01X4938452Y-3261586D01*
G01X4656417Y-3261586D01*
G01X4656417Y-3147400D01*
G01X4654664Y-3136333D01*
G01X4649577Y-3126349D01*
G01X4641654Y-3118426D01*
G01X4631670Y-3113339D01*
G01X4620603Y-3111586D01*
G01X4390619Y-3111586D01*
G01X4390619Y-3012434D01*
G01X4397565Y-3017002D01*
G01X4405378Y-3019846D01*
G01X4413636Y-3020811D01*
G01X4500037Y-3020811D01*
G01X4511104Y-3019058D01*
G01X4521088Y-3013971D01*
G01X4529011Y-3006048D01*
G01X4534098Y-2996064D01*
G01X4535851Y-2984997D01*
G01X4535851Y-2904349D01*
G01X4534536Y-2894735D01*
G01X4530689Y-2885827D01*
G01X4524592Y-2878279D01*
G01X4516693Y-2872644D01*
G01X4507571Y-2869336D01*
G01X4516693Y-2866029D01*
G01X4524592Y-2860394D01*
G01X4530689Y-2852846D01*
G01X4534536Y-2843938D01*
G01X4535851Y-2834324D01*
G01X4535851Y-2783595D01*
G01X4611573Y-2707873D01*
G01X4625546Y-2705877D01*
G01X4638780Y-2700969D01*
G01X4650676Y-2693372D01*
G01X4660694Y-2683429D01*
G01X4668381Y-2671591D01*
G01X4673389Y-2658394D01*
G01X4675490Y-2644436D01*
G01X4674589Y-2630350D01*
G01X4825634Y-2630350D01*
G01X4838474Y-2629086D01*
G01X4850820Y-2625341D01*
G01X4862199Y-2619259D01*
G01X4872172Y-2611074D01*
G01X4908928Y-2574318D01*
G01X4932486Y-2574318D01*
G01X4932486Y-2638500D01*
G01X4934239Y-2649567D01*
G01X4939326Y-2659551D01*
G01X4947249Y-2667474D01*
G01X4957233Y-2672561D01*
G01X4968300Y-2674314D01*
G01X4982286Y-2674314D01*
G01X4982286Y-3006589D01*
G01X4972595Y-3006589D01*
G01X4961528Y-3008342D01*
G01X4951544Y-3013429D01*
G01X4943621Y-3021352D01*
G01X4938534Y-3031336D01*
G01X4936781Y-3042403D01*
G01X4936781Y-3152403D01*
G01X4938534Y-3163470D01*
G01X4943621Y-3173454D01*
G01X4951544Y-3181377D01*
G01X4961528Y-3186464D01*
G01X4972595Y-3188217D01*
G01X5222594Y-3188217D01*
G01X5233661Y-3186464D01*
G01X5243645Y-3181377D01*
G01X5251568Y-3173454D01*
G01X5256655Y-3163470D01*
G01X5258408Y-3152403D01*
G01X5258408Y-3042403D01*
G01X5256655Y-3031336D01*
G01X5251568Y-3021352D01*
G01X5243645Y-3013429D01*
G01X5233661Y-3008342D01*
G01X5222594Y-3006589D01*
G01X5079314Y-3006589D01*
G01X5079314Y-2674314D01*
G01X5093301Y-2674314D01*
G01X5101450Y-2673374D01*
G01X5109171Y-2670605D01*
G01X5120089Y-2678923D01*
G01X5132485Y-2684814D01*
G01X5132485Y-2733496D01*
G01X5134238Y-2744563D01*
G01X5139325Y-2754547D01*
G01X5147248Y-2762470D01*
G01X5157232Y-2767557D01*
G01X5168299Y-2769310D01*
G01X5293300Y-2769310D01*
G01X5300408Y-2768598D01*
G01X5307233Y-2766489D01*
G01X5304648Y-5361940D01*
G01X3773413Y-5361940D01*
G01X3788452Y-5350052D01*
G01X3800823Y-5335407D01*
G01X3810031Y-5318593D01*
G01X3815707Y-5300283D01*
G01X3817625Y-5281209D01*
G01X3817625Y-5221209D01*
G01X3815784Y-5202516D01*
G01X3810332Y-5184542D01*
G01X3801478Y-5167977D01*
G01X3789562Y-5153458D01*
G01X3775043Y-5141542D01*
G01X3758478Y-5132688D01*
G01X3740504Y-5127236D01*
G01X3721811Y-5125395D01*
G01X3703119Y-5127236D01*
G01X3685145Y-5132688D01*
G01X3668580Y-5141542D01*
G01X3654061Y-5153458D01*
G01X3642145Y-5167977D01*
G01X3633291Y-5184542D01*
G01X3627838Y-5202516D01*
G01X3625997Y-5221209D01*
G01X3625997Y-5281209D01*
G01X3627915Y-5300283D01*
G01X3633592Y-5318593D01*
G01X3642800Y-5335407D01*
G01X3655171Y-5350052D01*
G01X3670209Y-5361940D01*
G37*
G36*
G01X2253506Y-1924919D02*
G01X2250510Y-1927401D01*
G01X2250510Y-1536700D01*
G01X2248757Y-1525633D01*
G01X2243670Y-1515649D01*
G01X2235747Y-1507726D01*
G01X2225763Y-1502639D01*
G01X2214696Y-1500886D01*
G01X1457659Y-1500886D01*
G01X1446409Y-780900D01*
G01X1643386Y-780900D01*
G01X1643386Y-920900D01*
G01X1645139Y-931967D01*
G01X1650226Y-941951D01*
G01X1658149Y-949874D01*
G01X1668133Y-954961D01*
G01X1679200Y-956714D01*
G01X1829200Y-956714D01*
G01X1840267Y-954961D01*
G01X1850251Y-949874D01*
G01X1858174Y-941951D01*
G01X1863261Y-931967D01*
G01X1865014Y-920900D01*
G01X1865014Y-907843D01*
G01X1876924Y-923185D01*
G01X1891438Y-936091D01*
G01X1908067Y-946128D01*
G01X1926249Y-952956D01*
G01X1945374Y-956345D01*
G01X1964795Y-956182D01*
G01X1983860Y-952472D01*
G01X2001926Y-945339D01*
G01X2018383Y-935025D01*
G01X2032678Y-921877D01*
G01X2044329Y-906337D01*
G01X2052944Y-888929D01*
G01X2058231Y-870240D01*
G01X2060014Y-850900D01*
G01X2060014Y-850900D01*
G01X2058231Y-831560D01*
G01X2052944Y-812871D01*
G01X2044329Y-795463D01*
G01X2032678Y-779923D01*
G01X2018383Y-766775D01*
G01X2001926Y-756461D01*
G01X1983860Y-749328D01*
G01X1964795Y-745618D01*
G01X1945374Y-745455D01*
G01X1926249Y-748844D01*
G01X1908067Y-755672D01*
G01X1891438Y-765709D01*
G01X1876924Y-778615D01*
G01X1865014Y-793957D01*
G01X1865014Y-780900D01*
G01X1863261Y-769833D01*
G01X1858174Y-759849D01*
G01X1850251Y-751926D01*
G01X1840267Y-746839D01*
G01X1829200Y-745086D01*
G01X1679200Y-745086D01*
G01X1668133Y-746839D01*
G01X1658149Y-751926D01*
G01X1650226Y-759849D01*
G01X1645139Y-769833D01*
G01X1643386Y-780900D01*
G01X1446409Y-780900D01*
G01X1436101Y-121200D01*
G01X1479784Y-121200D01*
G01X1481537Y-132267D01*
G01X1486624Y-142251D01*
G01X1494547Y-150174D01*
G01X1504531Y-155261D01*
G01X1515598Y-157014D01*
G01X1595598Y-157014D01*
G01X1607238Y-155069D01*
G01X1617614Y-149447D01*
G01X1625600Y-140757D01*
G01X1633586Y-149447D01*
G01X1643962Y-155069D01*
G01X1655602Y-157014D01*
G01X1735602Y-157014D01*
G01X1745998Y-155472D01*
G01X1755498Y-150979D01*
G01X1763285Y-143922D01*
G01X1768689Y-134908D01*
G01X1771244Y-124714D01*
G01X1857083Y-124714D01*
G01X1857083Y-177201D01*
G01X1858836Y-188268D01*
G01X1863923Y-198252D01*
G01X1871846Y-206175D01*
G01X1881830Y-211262D01*
G01X1892897Y-213015D01*
G01X2091398Y-213015D01*
G01X2102465Y-211262D01*
G01X2112449Y-206175D01*
G01X2120372Y-198252D01*
G01X2125459Y-188268D01*
G01X2127212Y-177201D01*
G01X2127212Y-25999D01*
G01X2125459Y-14932D01*
G01X2120372Y-4948D01*
G01X2112449Y2975D01*
G01X2102465Y8062D01*
G01X2091398Y9815D01*
G01X1892897Y9815D01*
G01X1881830Y8062D01*
G01X1871846Y2975D01*
G01X1863923Y-4948D01*
G01X1858836Y-14932D01*
G01X1857083Y-25999D01*
G01X1857083Y-27686D01*
G01X1771244Y-27686D01*
G01X1768689Y-17492D01*
G01X1763285Y-8478D01*
G01X1755498Y-1421D01*
G01X1745998Y3072D01*
G01X1735602Y4614D01*
G01X1735602Y4614D01*
G01X1655602Y4614D01*
G01X1643962Y2669D01*
G01X1633586Y-2953D01*
G01X1625600Y-11643D01*
G01X1617614Y-2953D01*
G01X1607238Y2669D01*
G01X1595598Y4614D01*
G01X1515598Y4614D01*
G01X1504531Y2861D01*
G01X1494547Y-2226D01*
G01X1486624Y-10149D01*
G01X1481537Y-20133D01*
G01X1479784Y-31200D01*
G01X1479784Y-121200D01*
G01X1436101Y-121200D01*
G01X1423932Y657600D01*
G01X2530386Y657600D01*
G01X2530386Y507600D01*
G01X2532238Y485246D01*
G01X2537745Y463501D01*
G01X2546755Y442960D01*
G01X2559024Y424181D01*
G01X2574216Y407678D01*
G01X2591917Y393901D01*
G01X2611644Y383225D01*
G01X2632860Y375942D01*
G01X2654984Y372250D01*
G01X2677415Y372250D01*
G01X2699540Y375942D01*
G01X2720756Y383225D01*
G01X2740483Y393901D01*
G01X2758184Y407678D01*
G01X2773376Y424181D01*
G01X2785645Y442960D01*
G01X2794655Y463501D01*
G01X2800161Y485246D01*
G01X2802014Y507600D01*
G01X2802014Y507600D01*
G01X2802014Y582600D01*
G01X2930406Y582600D01*
G01X2932247Y563907D01*
G01X2937699Y545933D01*
G01X2946553Y529368D01*
G01X2958469Y514849D01*
G01X2972988Y502933D01*
G01X2989553Y494079D01*
G01X3007527Y488627D01*
G01X3026220Y486786D01*
G01X3044912Y488627D01*
G01X3062886Y494079D01*
G01X3079451Y502933D01*
G01X3093970Y514849D01*
G01X3105886Y529368D01*
G01X3114740Y545933D01*
G01X3120192Y563907D01*
G01X3122033Y582600D01*
G01X3380392Y582600D01*
G01X3382233Y563907D01*
G01X3387685Y545933D01*
G01X3396540Y529368D01*
G01X3408455Y514849D01*
G01X3422975Y502933D01*
G01X3439540Y494079D01*
G01X3457514Y488627D01*
G01X3476206Y486786D01*
G01X3494898Y488627D01*
G01X3512872Y494079D01*
G01X3529437Y502933D01*
G01X3543957Y514849D01*
G01X3555872Y529368D01*
G01X3564726Y545933D01*
G01X3570179Y563907D01*
G01X3572020Y582600D01*
G01X3570179Y601292D01*
G01X3564726Y619266D01*
G01X3555872Y635831D01*
G01X3543957Y650350D01*
G01X3535123Y657600D01*
G01X3700386Y657600D01*
G01X3700386Y507600D01*
G01X3702239Y485246D01*
G01X3707745Y463501D01*
G01X3716755Y442960D01*
G01X3729024Y424181D01*
G01X3744216Y407678D01*
G01X3761917Y393901D01*
G01X3781644Y383225D01*
G01X3802860Y375942D01*
G01X3824985Y372250D01*
G01X3847416Y372250D01*
G01X3869540Y375942D01*
G01X3890756Y383225D01*
G01X3910483Y393901D01*
G01X3928184Y407678D01*
G01X3943376Y424181D01*
G01X3955645Y442960D01*
G01X3964655Y463501D01*
G01X3970162Y485246D01*
G01X3972014Y507600D01*
G01X3972014Y507600D01*
G01X3972014Y657600D01*
G01X3970162Y679954D01*
G01X3964655Y701698D01*
G01X3955645Y722240D01*
G01X3943376Y741018D01*
G01X3928184Y757521D01*
G01X3910483Y771298D01*
G01X3890756Y781974D01*
G01X3869540Y789258D01*
G01X3847416Y792950D01*
G01X3824985Y792950D01*
G01X3802860Y789258D01*
G01X3781644Y781974D01*
G01X3761917Y771298D01*
G01X3744216Y757521D01*
G01X3729024Y741018D01*
G01X3716755Y722240D01*
G01X3707745Y701698D01*
G01X3702239Y679954D01*
G01X3700386Y657600D01*
G01X3535123Y657600D01*
G01X3529437Y662266D01*
G01X3512872Y671120D01*
G01X3494898Y676573D01*
G01X3476206Y678414D01*
G01X3457514Y676573D01*
G01X3439540Y671120D01*
G01X3422975Y662266D01*
G01X3408455Y650350D01*
G01X3396540Y635831D01*
G01X3387685Y619266D01*
G01X3382233Y601292D01*
G01X3380392Y582600D01*
G01X3380392Y582600D01*
G01X3122033Y582600D01*
G01X3120192Y601292D01*
G01X3114740Y619266D01*
G01X3105886Y635831D01*
G01X3093970Y650350D01*
G01X3079451Y662266D01*
G01X3062886Y671120D01*
G01X3044912Y676573D01*
G01X3026220Y678414D01*
G01X3007527Y676573D01*
G01X2989553Y671120D01*
G01X2972988Y662266D01*
G01X2958469Y650350D01*
G01X2946553Y635831D01*
G01X2937699Y619266D01*
G01X2932247Y601292D01*
G01X2930406Y582600D01*
G01X2930406Y582600D01*
G01X2802014Y582600D01*
G01X2802014Y657600D01*
G01X2800161Y679954D01*
G01X2794655Y701698D01*
G01X2785645Y722240D01*
G01X2773376Y741018D01*
G01X2758184Y757521D01*
G01X2740483Y771298D01*
G01X2720756Y781974D01*
G01X2699540Y789258D01*
G01X2677415Y792950D01*
G01X2654984Y792950D01*
G01X2632860Y789258D01*
G01X2611644Y781974D01*
G01X2591917Y771298D01*
G01X2574216Y757521D01*
G01X2559024Y741018D01*
G01X2546755Y722240D01*
G01X2537745Y701698D01*
G01X2532238Y679954D01*
G01X2530386Y657600D01*
G01X1423932Y657600D01*
G01X1420678Y865886D01*
G01X2578367Y865886D01*
G01X2578367Y862599D01*
G01X2580120Y851532D01*
G01X2585207Y841548D01*
G01X2593130Y833625D01*
G01X2603114Y828538D01*
G01X2614181Y826785D01*
G01X3884181Y826785D01*
G01X3895248Y828538D01*
G01X3905232Y833625D01*
G01X3913155Y841548D01*
G01X3918242Y851532D01*
G01X3919995Y862599D01*
G01X3919995Y865886D01*
G01X5310850Y865886D01*
G01X5307693Y-2305003D01*
G01X5247414Y-2244758D01*
G01X5247414Y-2212030D01*
G01X5245922Y-2201802D01*
G01X5241572Y-2192425D01*
G01X5234724Y-2184682D01*
G01X5225951Y-2179217D01*
G01X5221147Y-2172008D01*
G01X5215437Y-2165493D01*
G01X5178825Y-2128880D01*
G01X5185880Y-2121093D01*
G01X5190372Y-2111594D01*
G01X5191914Y-2101200D01*
G01X5191914Y-1861200D01*
G01X5190161Y-1850133D01*
G01X5185074Y-1840149D01*
G01X5177151Y-1832226D01*
G01X5167167Y-1827139D01*
G01X5156100Y-1825386D01*
G01X4826100Y-1825386D01*
G01X4815825Y-1826892D01*
G01X4806414Y-1831282D01*
G01X4806414Y-1786184D01*
G01X4830600Y-1786184D01*
G01X4841264Y-1784559D01*
G01X4850960Y-1779833D01*
G01X4858810Y-1772435D01*
G01X4864100Y-1763034D01*
G01X4869390Y-1772435D01*
G01X4877240Y-1779833D01*
G01X4886936Y-1784559D01*
G01X4897600Y-1786184D01*
G01X4957600Y-1786184D01*
G01X4968264Y-1784559D01*
G01X4977960Y-1779833D01*
G01X4985810Y-1772435D01*
G01X4991100Y-1763034D01*
G01X4996390Y-1772435D01*
G01X5004240Y-1779833D01*
G01X5013936Y-1784559D01*
G01X5024600Y-1786184D01*
G01X5084600Y-1786184D01*
G01X5095264Y-1784559D01*
G01X5104960Y-1779833D01*
G01X5112810Y-1772435D01*
G01X5118100Y-1763034D01*
G01X5123390Y-1772435D01*
G01X5131240Y-1779833D01*
G01X5140936Y-1784559D01*
G01X5151600Y-1786184D01*
G01X5211600Y-1786184D01*
G01X5222667Y-1784431D01*
G01X5232651Y-1779344D01*
G01X5240574Y-1771421D01*
G01X5245661Y-1761437D01*
G01X5247414Y-1750370D01*
G01X5247414Y-1630370D01*
G01X5245661Y-1619303D01*
G01X5240574Y-1609319D01*
G01X5232651Y-1601396D01*
G01X5222667Y-1596309D01*
G01X5211600Y-1594556D01*
G01X5174868Y-1594556D01*
G01X5070007Y-1489695D01*
G01X5059959Y-1481986D01*
G01X5048259Y-1477139D01*
G01X5035702Y-1475486D01*
G01X4903493Y-1475486D01*
G01X4904973Y-1463700D01*
G01X4949205Y-1419468D01*
G01X4956914Y-1409421D01*
G01X4961761Y-1397720D01*
G01X4963414Y-1385164D01*
G01X4963414Y-1305204D01*
G01X5014374Y-1305204D01*
G01X5016140Y-1322007D01*
G01X5021361Y-1338075D01*
G01X5029808Y-1352706D01*
G01X5041113Y-1365262D01*
G01X5054782Y-1375192D01*
G01X5070216Y-1382064D01*
G01X5086742Y-1385577D01*
G01X5103637Y-1385577D01*
G01X5120162Y-1382064D01*
G01X5135597Y-1375192D01*
G01X5149265Y-1365262D01*
G01X5160570Y-1352706D01*
G01X5169018Y-1338075D01*
G01X5174238Y-1322007D01*
G01X5176004Y-1305204D01*
G01X5174238Y-1288402D01*
G01X5169018Y-1272334D01*
G01X5160570Y-1257702D01*
G01X5149265Y-1245147D01*
G01X5135597Y-1235216D01*
G01X5120162Y-1228345D01*
G01X5103637Y-1224832D01*
G01X5086742Y-1224832D01*
G01X5070216Y-1228345D01*
G01X5054782Y-1235216D01*
G01X5041113Y-1245147D01*
G01X5029808Y-1257702D01*
G01X5021361Y-1272334D01*
G01X5016140Y-1288402D01*
G01X5014374Y-1305204D01*
G01X5014374Y-1305204D01*
G01X4963414Y-1305204D01*
G01X4963414Y-1104900D01*
G01X4961761Y-1092344D01*
G01X4956914Y-1080643D01*
G01X4949205Y-1070595D01*
G01X4918057Y-1039448D01*
G01X4920267Y-1032476D01*
G01X4921014Y-1025200D01*
G01X4921014Y-905200D01*
G01X4919261Y-894133D01*
G01X4914174Y-884149D01*
G01X4906251Y-876226D01*
G01X4896267Y-871139D01*
G01X4885200Y-869386D01*
G01X4670019Y-869386D01*
G01X4670019Y-811027D01*
G01X4885200Y-811027D01*
G01X4896267Y-809274D01*
G01X4906251Y-804187D01*
G01X4914174Y-796264D01*
G01X4919261Y-786280D01*
G01X4921014Y-775213D01*
G01X4921014Y-655213D01*
G01X4919261Y-644146D01*
G01X4914174Y-634162D01*
G01X4906251Y-626239D01*
G01X4904203Y-625196D01*
G01X5014374Y-625196D01*
G01X5016140Y-641998D01*
G01X5021361Y-658066D01*
G01X5029808Y-672698D01*
G01X5041113Y-685253D01*
G01X5054782Y-695184D01*
G01X5070216Y-702055D01*
G01X5086742Y-705568D01*
G01X5103637Y-705568D01*
G01X5120162Y-702055D01*
G01X5135597Y-695184D01*
G01X5149265Y-685253D01*
G01X5160570Y-672698D01*
G01X5169018Y-658066D01*
G01X5174238Y-641998D01*
G01X5176004Y-625196D01*
G01X5174238Y-608393D01*
G01X5169018Y-592325D01*
G01X5160570Y-577694D01*
G01X5149265Y-565138D01*
G01X5135597Y-555208D01*
G01X5120162Y-548336D01*
G01X5103637Y-544823D01*
G01X5086742Y-544823D01*
G01X5070216Y-548336D01*
G01X5054782Y-555208D01*
G01X5041113Y-565138D01*
G01X5029808Y-577694D01*
G01X5021361Y-592325D01*
G01X5016140Y-608393D01*
G01X5014374Y-625196D01*
G01X5014374Y-625196D01*
G01X4904203Y-625196D01*
G01X4896267Y-621152D01*
G01X4885200Y-619399D01*
G01X4670019Y-619399D01*
G01X4670019Y-225715D01*
G01X4711103Y-225715D01*
G01X4722170Y-223962D01*
G01X4732154Y-218875D01*
G01X4740077Y-210952D01*
G01X4745164Y-200968D01*
G01X4746917Y-189901D01*
G01X4746917Y-38699D01*
G01X4745164Y-27632D01*
G01X4740077Y-17648D01*
G01X4732154Y-9725D01*
G01X4722170Y-4638D01*
G01X4711103Y-2885D01*
G01X4512602Y-2885D01*
G01X4501535Y-4638D01*
G01X4491551Y-9725D01*
G01X4483628Y-17648D01*
G01X4478541Y-27632D01*
G01X4476788Y-38699D01*
G01X4476788Y-189901D01*
G01X4478541Y-200968D01*
G01X4483628Y-210952D01*
G01X4491551Y-218875D01*
G01X4501535Y-223962D01*
G01X4512602Y-225715D01*
G01X4572991Y-225715D01*
G01X4572991Y-1084595D01*
G01X4563505Y-1097655D01*
G01X4557456Y-1112619D01*
G01X4555201Y-1128602D01*
G01X4556875Y-1144656D01*
G01X4562378Y-1159831D01*
G01X4571383Y-1173226D01*
G01X4583358Y-1184049D01*
G01X4597593Y-1191658D01*
G01X4613245Y-1195602D01*
G01X4629386Y-1195649D01*
G01X4629386Y-1252510D01*
G01X3566776Y-189901D01*
G01X3838283Y-189901D01*
G01X3840036Y-200968D01*
G01X3845123Y-210952D01*
G01X3853046Y-218875D01*
G01X3863030Y-223962D01*
G01X3874097Y-225715D01*
G01X4072598Y-225715D01*
G01X4083665Y-223962D01*
G01X4093649Y-218875D01*
G01X4101572Y-210952D01*
G01X4106659Y-200968D01*
G01X4108412Y-189901D01*
G01X4108412Y-38699D01*
G01X4106659Y-27632D01*
G01X4101572Y-17648D01*
G01X4093649Y-9725D01*
G01X4083665Y-4638D01*
G01X4072598Y-2885D01*
G01X3874097Y-2885D01*
G01X3863030Y-4638D01*
G01X3853046Y-9725D01*
G01X3845123Y-17648D01*
G01X3840036Y-27632D01*
G01X3838283Y-38699D01*
G01X3838283Y-189901D01*
G01X3838283Y-189901D01*
G01X3566776Y-189901D01*
G01X3096177Y280699D01*
G01X3114299Y272827D01*
G01X3133496Y268150D01*
G01X3153208Y266804D01*
G01X3172862Y268828D01*
G01X3191886Y274163D01*
G01X3209726Y282655D01*
G01X3225863Y294055D01*
G01X3239827Y308033D01*
G01X3251213Y324180D01*
G01X3263789Y306640D01*
G01X3279402Y291737D01*
G01X3297509Y279990D01*
G01X3317481Y271807D01*
G01X3338624Y267472D01*
G01X3360205Y267136D01*
G01X3381474Y270810D01*
G01X3401691Y278366D01*
G01X3420155Y289543D01*
G01X3436225Y303951D01*
G01X3449342Y321091D01*
G01X3459051Y340368D01*
G01X3465015Y361111D01*
G01X3467026Y382600D01*
G01X3467026Y382600D01*
G01X3485385Y382600D01*
G01X3487357Y361319D01*
G01X3493206Y340763D01*
G01X3502732Y321632D01*
G01X3515612Y304577D01*
G01X3531406Y290179D01*
G01X3549577Y278928D01*
G01X3569505Y271207D01*
G01X3590513Y267280D01*
G01X3611885Y267280D01*
G01X3632893Y271207D01*
G01X3652822Y278928D01*
G01X3670993Y290179D01*
G01X3686787Y304577D01*
G01X3699666Y321632D01*
G01X3709192Y340763D01*
G01X3715041Y361319D01*
G01X3717013Y382600D01*
G01X3717013Y382600D01*
G01X3715041Y403881D01*
G01X3709192Y424437D01*
G01X3699666Y443568D01*
G01X3686787Y460623D01*
G01X3670993Y475022D01*
G01X3652822Y486272D01*
G01X3632893Y493993D01*
G01X3611885Y497920D01*
G01X3590513Y497920D01*
G01X3569505Y493993D01*
G01X3549577Y486272D01*
G01X3531406Y475022D01*
G01X3515612Y460623D01*
G01X3502732Y443568D01*
G01X3493206Y424437D01*
G01X3487357Y403881D01*
G01X3485385Y382600D01*
G01X3467026Y382600D01*
G01X3465015Y404090D01*
G01X3459051Y424833D01*
G01X3449342Y444109D01*
G01X3436225Y461249D01*
G01X3420155Y475658D01*
G01X3401691Y486834D01*
G01X3381474Y494391D01*
G01X3360205Y498064D01*
G01X3338624Y497728D01*
G01X3317481Y493393D01*
G01X3297509Y485210D01*
G01X3279402Y473463D01*
G01X3263789Y458561D01*
G01X3251213Y441020D01*
G01X3239688Y457333D01*
G01X3225533Y471423D01*
G01X3209166Y482871D01*
G01X3191077Y491337D01*
G01X3171801Y496569D01*
G01X3151914Y498412D01*
G01X3132005Y496810D01*
G01X3112668Y491812D01*
G01X3094477Y483565D01*
G01X3077974Y472316D01*
G01X3063648Y458398D01*
G01X3051927Y442226D01*
G01X3043159Y424281D01*
G01X3037605Y405096D01*
G01X3035429Y385242D01*
G01X3036697Y365309D01*
G01X3041371Y345891D01*
G01X3049311Y327564D01*
G01X3015123Y361753D01*
G01X3017015Y382627D01*
G01X3015113Y403501D01*
G01X3009480Y423690D01*
G01X3000301Y442533D01*
G01X2987876Y459413D01*
G01X2972612Y473777D01*
G01X2955009Y485155D01*
G01X2935644Y493174D01*
G01X2915150Y497571D01*
G01X2894200Y498202D01*
G01X2873479Y495047D01*
G01X2853665Y488209D01*
G01X2835409Y477912D01*
G01X2819308Y464493D01*
G01X2805889Y448392D01*
G01X2795592Y430136D01*
G01X2788754Y410322D01*
G01X2785599Y389601D01*
G01X2786230Y368651D01*
G01X2790627Y348157D01*
G01X2798646Y328792D01*
G01X2810024Y311189D01*
G01X2824388Y295925D01*
G01X2841268Y283500D01*
G01X2860111Y274321D01*
G01X2880300Y268688D01*
G01X2901173Y266786D01*
G01X2922048Y268678D01*
G01X4532312Y-1341586D01*
G01X4515498Y-1341586D01*
G01X4003207Y-829295D01*
G01X3993159Y-821586D01*
G01X3981459Y-816739D01*
G01X3968902Y-815086D01*
G01X3706574Y-815086D01*
G01X3723602Y-802862D01*
G01X3738262Y-787879D01*
G01X3750110Y-770587D01*
G01X3758792Y-751507D01*
G01X3764044Y-731214D01*
G01X3765711Y-710319D01*
G01X3763740Y-689450D01*
G01X3758192Y-669236D01*
G01X3749233Y-650285D01*
G01X3737133Y-633168D01*
G01X3722257Y-618400D01*
G01X3705052Y-606426D01*
G01X3686037Y-597605D01*
G01X3665783Y-592205D01*
G01X3644900Y-590386D01*
G01X3624017Y-592205D01*
G01X3603763Y-597605D01*
G01X3584748Y-606426D01*
G01X3567543Y-618400D01*
G01X3552667Y-633168D01*
G01X3540567Y-650285D01*
G01X3531608Y-669236D01*
G01X3526060Y-689450D01*
G01X3524089Y-710319D01*
G01X3525756Y-731214D01*
G01X3531008Y-751507D01*
G01X3539690Y-770587D01*
G01X3551538Y-787879D01*
G01X3566198Y-802862D01*
G01X3583226Y-815086D01*
G01X3452574Y-815086D01*
G01X3469602Y-802862D01*
G01X3484262Y-787879D01*
G01X3496110Y-770587D01*
G01X3504792Y-751507D01*
G01X3510044Y-731214D01*
G01X3511711Y-710319D01*
G01X3509740Y-689450D01*
G01X3504192Y-669236D01*
G01X3495233Y-650285D01*
G01X3483133Y-633168D01*
G01X3468257Y-618400D01*
G01X3451052Y-606426D01*
G01X3432037Y-597605D01*
G01X3411783Y-592205D01*
G01X3390900Y-590386D01*
G01X3370017Y-592205D01*
G01X3349763Y-597605D01*
G01X3330748Y-606426D01*
G01X3313543Y-618400D01*
G01X3298667Y-633168D01*
G01X3286567Y-650285D01*
G01X3277608Y-669236D01*
G01X3272060Y-689450D01*
G01X3270089Y-710319D01*
G01X3271756Y-731214D01*
G01X3277008Y-751507D01*
G01X3285690Y-770587D01*
G01X3297538Y-787879D01*
G01X3312198Y-802862D01*
G01X3329226Y-815086D01*
G01X3198574Y-815086D01*
G01X3215602Y-802862D01*
G01X3230262Y-787879D01*
G01X3242110Y-770587D01*
G01X3250792Y-751507D01*
G01X3256044Y-731214D01*
G01X3257711Y-710319D01*
G01X3255740Y-689450D01*
G01X3250192Y-669236D01*
G01X3241233Y-650285D01*
G01X3229133Y-633168D01*
G01X3214257Y-618400D01*
G01X3197052Y-606426D01*
G01X3178037Y-597605D01*
G01X3157783Y-592205D01*
G01X3136900Y-590386D01*
G01X3116017Y-592205D01*
G01X3095763Y-597605D01*
G01X3076748Y-606426D01*
G01X3059543Y-618400D01*
G01X3044667Y-633168D01*
G01X3032567Y-650285D01*
G01X3023608Y-669236D01*
G01X3018060Y-689450D01*
G01X3016089Y-710319D01*
G01X3017756Y-731214D01*
G01X3023008Y-751507D01*
G01X3031690Y-770587D01*
G01X3043538Y-787879D01*
G01X3058198Y-802862D01*
G01X3075226Y-815086D01*
G01X2998329Y-815086D01*
G01X3002341Y-806019D01*
G01X3003714Y-796200D01*
G01X3003714Y-626200D01*
G01X3001961Y-615133D01*
G01X2996874Y-605149D01*
G01X2988951Y-597226D01*
G01X2978967Y-592139D01*
G01X2967900Y-590386D01*
G01X2797900Y-590386D01*
G01X2786833Y-592139D01*
G01X2776849Y-597226D01*
G01X2768926Y-605149D01*
G01X2763839Y-615133D01*
G01X2762086Y-626200D01*
G01X2762086Y-796200D01*
G01X2763459Y-806019D01*
G01X2767471Y-815086D01*
G01X2744112Y-815086D01*
G01X2732979Y-806711D01*
G01X2720342Y-800847D01*
G01X2706759Y-797753D01*
G01X2692829Y-797565D01*
G01X2679167Y-800291D01*
G01X2679167Y-213015D01*
G01X2729903Y-213015D01*
G01X2740970Y-211262D01*
G01X2750954Y-206175D01*
G01X2758877Y-198252D01*
G01X2763964Y-188268D01*
G01X2765717Y-177201D01*
G01X2765717Y-25999D01*
G01X2763964Y-14932D01*
G01X2758877Y-4948D01*
G01X2750954Y2975D01*
G01X2740970Y8062D01*
G01X2729903Y9815D01*
G01X2531402Y9815D01*
G01X2520335Y8062D01*
G01X2510351Y2975D01*
G01X2502428Y-4948D01*
G01X2497341Y-14932D01*
G01X2495588Y-25999D01*
G01X2495588Y-177201D01*
G01X2497341Y-188268D01*
G01X2502428Y-198252D01*
G01X2510351Y-206175D01*
G01X2520335Y-211262D01*
G01X2531402Y-213015D01*
G01X2582139Y-213015D01*
G01X2582139Y-1960152D01*
G01X2525109Y-2017182D01*
G01X2525109Y-1999205D01*
G01X2523798Y-1989603D01*
G01X2519961Y-1980705D01*
G01X2523798Y-1971806D01*
G01X2525109Y-1962205D01*
G01X2525109Y-1872205D01*
G01X2523798Y-1862603D01*
G01X2519961Y-1853705D01*
G01X2523798Y-1844806D01*
G01X2525109Y-1835205D01*
G01X2525109Y-1745205D01*
G01X2523356Y-1734138D01*
G01X2518269Y-1724154D01*
G01X2510346Y-1716231D01*
G01X2500362Y-1711144D01*
G01X2489295Y-1709391D01*
G01X2339296Y-1709391D01*
G01X2328228Y-1711144D01*
G01X2318245Y-1716231D01*
G01X2310321Y-1724154D01*
G01X2305234Y-1734138D01*
G01X2303482Y-1745205D01*
G01X2303482Y-1835205D01*
G01X2304793Y-1844806D01*
G01X2308630Y-1853705D01*
G01X2304793Y-1862603D01*
G01X2303482Y-1872205D01*
G01X2303482Y-1874944D01*
G01X2253506Y-1924919D01*
G37*
G54D10*
G01X4991100Y-2344694D02*
G03X5024600Y-2367844I33500J12664D01*
G01X5084600Y-2367844D01*
G03X5118100Y-2344694I0J35814D01*
G03X5151600Y-2367844I33500J12664D01*
G01X5184366Y-2367844D01*
G01X5206795Y-2390260D01*
G01X5157827Y-2439255D01*
G03X5150047Y-2442690I10472J-34249D01*
G01X5013375Y-2442690D01*
G03X5013081Y-2394745I-61975J23594D01*
G03X4980544Y-2359529I-61681J-24351D01*
G03X4991100Y-2344694I-22944J27499D01*
G01X4687877Y-1311001D02*
G01X4866386Y-1311001D01*
G01X4866386Y-1365068D01*
G01X4836364Y-1395091D01*
G03X4774807Y-1443609I2336J-66273D01*
G01X4774807Y-1425192D01*
G03X4755530Y-1378655I-65814J0D01*
G01X4687877Y-1311001D01*
G01X4670019Y-1061014D02*
G01X4802405Y-1061014D01*
G01X4860764Y-1119373D01*
G01X4686993Y-1119373D01*
G03X4670019Y-1084595I-65488J-10432D01*
G01X4670019Y-1061014D01*
G01X4536714Y-2236560D02*
G01X4536714Y-2155913D01*
G03X4508434Y-2120900I-35814J0D01*
G03X4536714Y-2085887I-7534J35013D01*
G01X4536714Y-2035158D01*
G01X4663236Y-1908636D01*
G03X4674786Y-1907207I-2336J66273D01*
G01X4674786Y-2092030D01*
G03X4694063Y-2138568I65814J0D01*
G01X4743785Y-2188290D01*
G03X4734786Y-2212030I26815J-23740D01*
G01X4734786Y-2332030D01*
G03X4751205Y-2362138I35814J0D01*
G03X4755372Y-2421382I61231J-25462D01*
G01X4536714Y-2421382D01*
G01X4536714Y-2373540D01*
G03X4506214Y-2338122I-35814J0D01*
G01X4506214Y-2271978D01*
G03X4536714Y-2236560I-5314J35418D01*
G01X4275118Y-2216205D02*
G01X4275118Y-2126205D01*
G03X4269970Y-2107705I-35814J0D01*
G03X4275118Y-2089205I-30666J18500D01*
G01X4275118Y-1999205D01*
G03X4269970Y-1980705I-35814J0D01*
G03X4275118Y-1962205I-30666J18500D01*
G01X4275118Y-1872205D01*
G03X4269970Y-1853705I-35814J0D01*
G03X4275118Y-1835205I-30666J18500D01*
G01X4275118Y-1745205D01*
G03X4239304Y-1709391I-35814J0D01*
G01X4089305Y-1709391D01*
G03X4053491Y-1745205I0J-35814D01*
G01X4053491Y-1788582D01*
G01X3704819Y-1439910D01*
G01X3704819Y-971815D01*
G03X3721016Y-912114I-48514J45210D01*
G01X3948807Y-912114D01*
G01X4378279Y-1341586D01*
G01X4347698Y-1341586D01*
G03X4311884Y-1377400I0J-35814D01*
G01X4311884Y-1467400D01*
G03X4347698Y-1503214I35814J0D01*
G01X4427698Y-1503214D01*
G03X4457700Y-1486957I0J35814D01*
G03X4486948Y-1503206I30002J19557D01*
G03X4499618Y-1537805I66154J4606D01*
G03X4528800Y-1560300I53484J39205D01*
G01X4307800Y-1781300D01*
G03X4293591Y-1815605I34305J-34305D01*
G01X4293591Y-3294110D01*
G01X4275118Y-3312582D01*
G01X4275118Y-3269205D01*
G03X4269970Y-3250705I-35814J0D01*
G03X4275118Y-3232205I-30666J18500D01*
G01X4275118Y-3142205D01*
G03X4269970Y-3123705I-35814J0D01*
G03X4275118Y-3105205I-30666J18500D01*
G01X4275118Y-3015205D01*
G03X4269970Y-2996705I-35814J0D01*
G03X4275118Y-2978205I-30666J18500D01*
G01X4275118Y-2888205D01*
G03X4269970Y-2869705I-35814J0D01*
G03X4275118Y-2851205I-30666J18500D01*
G01X4275118Y-2761205D01*
G03X4269970Y-2742705I-35814J0D01*
G03X4275118Y-2724205I-30666J18500D01*
G01X4275118Y-2634205D01*
G03X4269970Y-2615705I-35814J0D01*
G03X4275118Y-2597205I-30666J18500D01*
G01X4275118Y-2507205D01*
G03X4269970Y-2488705I-35814J0D01*
G03X4275118Y-2470205I-30666J18500D01*
G01X4275118Y-2380205D01*
G03X4269970Y-2361705I-35814J0D01*
G03X4275118Y-2343205I-30666J18500D01*
G01X4275118Y-2253205D01*
G03X4269970Y-2234705I-35814J0D01*
G03X4275118Y-2216205I-30666J18500D01*
G01X2607062Y-2163620D02*
G03X2588279Y-2108315I-65766J8506D01*
G03X2583329Y-2096181I-46984J-12089D01*
G01X2664957Y-2014552D01*
G03X2679167Y-1980247I-34305J34305D01*
G01X2679167Y-926909D01*
G03X2744112Y-912114I19736J63309D01*
G01X2984584Y-912114D01*
G03X2983023Y-924268I64711J-14491D01*
G01X2837191Y-1070100D01*
G03X2822981Y-1104405I34305J-34305D01*
G01X2822981Y-2460482D01*
G01X2574826Y-2212326D01*
G03X2607062Y-2163620I-33531J57212D01*
G01X2635800Y-3680009D02*
G03X2654300Y-3674861I0J35814D01*
G03X2672800Y-3680009I18500J30666D01*
G01X2762800Y-3680009D01*
G03X2781300Y-3674861I0J35814D01*
G03X2799800Y-3680009I18500J30666D01*
G01X2889800Y-3680009D01*
G03X2908300Y-3674861I0J35814D01*
G03X2926800Y-3680009I18500J30666D01*
G01X3016800Y-3680009D01*
G03X3035300Y-3674861I0J35814D01*
G03X3053800Y-3680009I18500J30666D01*
G01X3143800Y-3680009D01*
G03X3162300Y-3674861I0J35814D01*
G03X3180800Y-3680009I18500J30666D01*
G01X3270800Y-3680009D01*
G03X3289300Y-3674861I0J35814D01*
G03X3307800Y-3680009I18500J30666D01*
G01X3397800Y-3680009D01*
G03X3416300Y-3674861I0J35814D01*
G03X3434800Y-3680009I18500J30666D01*
G01X3524800Y-3680009D01*
G03X3543300Y-3674861I0J35814D01*
G03X3561800Y-3680009I18500J30666D01*
G01X3651800Y-3680009D01*
G03X3670300Y-3674861I0J35814D01*
G03X3688800Y-3680009I18500J30666D01*
G01X3778800Y-3680009D01*
G03X3797300Y-3674861I0J35814D01*
G03X3815800Y-3680009I18500J30666D01*
G01X3905800Y-3680009D01*
G03X3926773Y-3673226I0J35814D01*
G03X3938950Y-3676804I16027J32028D01*
G01X3770469Y-3845286D01*
G01X3719740Y-3845286D01*
G03X3684322Y-3875786I0J-35814D01*
G01X3656278Y-3875786D01*
G03X3620860Y-3845286I-35418J-5314D01*
G01X3540213Y-3845286D01*
G03X3505200Y-3873566I0J-35814D01*
G03X3470187Y-3845286I-35013J-7534D01*
G01X3389540Y-3845286D01*
G03X3353726Y-3881100I0J-35814D01*
G01X3353726Y-3967500D01*
G03X3389540Y-4003314I35814J0D01*
G01X3470187Y-4003314D01*
G03X3505200Y-3975034I0J35814D01*
G03X3540213Y-4003314I35013J7534D01*
G01X3620860Y-4003314D01*
G03X3656278Y-3972814I0J35814D01*
G01X3684322Y-3972814D01*
G03X3696425Y-3994686I35418J5314D01*
G01X3692261Y-3994686D01*
G03X3645723Y-4013962I0J-65814D01*
G01X3605000Y-4054686D01*
G01X2905595Y-4054686D01*
G03X2903004Y-3991361I-59499J29281D01*
G03X2848432Y-3959132I-56908J-34044D01*
G01X2569309Y-3680009D01*
G01X2635800Y-3680009D01*
G01X2970809Y-2783031D02*
G01X3044283Y-2783031D01*
G03X3069285Y-2772859I0J35814D01*
G03X3094288Y-2783031I25002J25642D01*
G01X3184288Y-2783031D01*
G03X3209290Y-2772859I0J35814D01*
G03X3234292Y-2783031I25002J25642D01*
G01X3324292Y-2783031D01*
G03X3360106Y-2747217I0J35814D01*
G01X3360106Y-2657217D01*
G03X3349934Y-2632215I-35814J0D01*
G03X3360106Y-2607212I-25642J25002D01*
G01X3360106Y-2517212D01*
G03X3349934Y-2492210I-35814J0D01*
G03X3360106Y-2467207I-25642J25002D01*
G01X3360106Y-2377208D01*
G03X3324292Y-2341394I-35814J0D01*
G01X3234292Y-2341394D01*
G03X3209290Y-2351565I0J-35814D01*
G03X3184288Y-2341394I-25002J-25642D01*
G01X3094288Y-2341394D01*
G03X3069285Y-2351565I0J-35814D01*
G03X3044283Y-2341394I-25002J-25642D01*
G01X2970809Y-2341394D01*
G01X2970809Y-1378500D01*
G01X3331032Y-1018278D01*
G03X3353791Y-1013387I-2336J66273D01*
G01X3353791Y-1333005D01*
G03X3368000Y-1367309I48514J0D01*
G01X4053491Y-2052800D01*
G01X4053491Y-2089205D01*
G03X4058639Y-2107705I35814J0D01*
G03X4053491Y-2126205I30666J-18500D01*
G01X4053491Y-2216205D01*
G03X4058639Y-2234705I35814J0D01*
G03X4053491Y-2253205I30666J-18500D01*
G01X4053491Y-2343205D01*
G03X4058639Y-2361705I35814J0D01*
G03X4053664Y-2376691I30666J-18500D01*
G01X4037305Y-2376691D01*
G03X4003000Y-2390900I0J-48514D01*
G01X3018968Y-3374932D01*
G03X2957254Y-3458381I2336J-66273D01*
G01X2926800Y-3458381D01*
G03X2908300Y-3463530I0J-35814D01*
G03X2889800Y-3458381I-18500J-30666D01*
G01X2799800Y-3458381D01*
G03X2781300Y-3463530I0J-35814D01*
G03X2762800Y-3458381I-18500J-30666D01*
G01X2672800Y-3458381D01*
G03X2654300Y-3463530I0J-35814D01*
G03X2635800Y-3458381I-18500J-30666D01*
G01X2545800Y-3458381D01*
G03X2525109Y-3464963I0J-35814D01*
G01X2525109Y-3449800D01*
G01X2956600Y-3018309D01*
G03X2970809Y-2984005I-34305J34305D01*
G01X2970809Y-2783031D01*
G01X2287473Y-2606273D02*
G03X2304050Y-2603560I-2336J66273D01*
G03X2308630Y-2615705I35246J6355D01*
G03X2303482Y-2634205I30666J-18500D01*
G01X2303482Y-2724205D01*
G03X2308630Y-2742705I35814J0D01*
G03X2303482Y-2761205I30666J-18500D01*
G01X2303482Y-2851205D01*
G03X2308630Y-2869705I35814J0D01*
G03X2303482Y-2888205I30666J-18500D01*
G01X2303482Y-2978205D01*
G03X2308630Y-2996705I35814J0D01*
G03X2303482Y-3015205I30666J-18500D01*
G01X2303482Y-3105205D01*
G03X2308630Y-3123705I35814J0D01*
G03X2303482Y-3142205I30666J-18500D01*
G01X2303482Y-3232205D01*
G03X2308630Y-3250705I35814J0D01*
G03X2303482Y-3269205I30666J-18500D01*
G01X2303482Y-3280212D01*
G01X2252991Y-3330700D01*
G03X2238781Y-3365005I34305J-34305D01*
G01X2238781Y-3385520D01*
G01X1672250Y-2818989D01*
G01X1673200Y-2819001D01*
G01X1753199Y-2819001D01*
G03X1787987Y-2791701I0J35814D01*
G01X1855520Y-2791701D01*
G03X1890940Y-2822214I35420J5301D01*
G01X1971587Y-2822214D01*
G03X2006600Y-2793934I0J35814D01*
G03X2041613Y-2822214I35013J7534D01*
G01X2122260Y-2822214D01*
G03X2158074Y-2786400I0J35814D01*
G01X2158074Y-2735671D01*
G01X2287473Y-2606273D01*
G01X3670209Y-5361940D02*
G01X2908391Y-5361940D01*
G03X2952603Y-5281209I-51602J80731D01*
G01X2952603Y-5221209D01*
G03X2760975Y-5221209I-95814J0D01*
G01X2760975Y-5281209D01*
G03X2805187Y-5361940I95814J0D01*
G01X1458214Y-5361940D01*
G01X1458214Y-2291518D01*
G01X2121336Y-2291518D01*
G03X2104522Y-2321876I19000J-30358D01*
G01X2104522Y-2348139D01*
G01X2062014Y-2390648D01*
G01X2062014Y-2328398D01*
G03X2026200Y-2292584I-35814J0D01*
G01X1936200Y-2292584D01*
G03X1900386Y-2328398I0J-35814D01*
G01X1900386Y-2408398D01*
G03X1916643Y-2438400I35814J0D01*
G03X1911375Y-2442588I19557J-30002D01*
G01X1847825Y-2442588D01*
G03X1842557Y-2438400I-24825J-25814D01*
G03X1858814Y-2408398I-19557J30002D01*
G01X1858814Y-2328398D01*
G03X1823000Y-2292584I-35814J0D01*
G01X1733000Y-2292584D01*
G03X1697186Y-2328398I0J-35814D01*
G01X1697186Y-2408398D01*
G03X1713443Y-2438400I35814J0D01*
G03X1697186Y-2468402I19557J-30002D01*
G01X1697186Y-2548402D01*
G03X1733000Y-2584216I35814J0D01*
G01X1823000Y-2584216D01*
G03X1847825Y-2574216I0J35814D01*
G01X1911375Y-2574216D01*
G03X1936200Y-2584216I24825J25814D01*
G01X2026200Y-2584216D01*
G03X2052811Y-2572371I0J35814D01*
G03X2083871Y-2554940I-15477J63968D01*
G01X2104522Y-2534289D01*
G01X2104522Y-2553197D01*
G03X2140336Y-2589011I35814J0D01*
G01X2167517Y-2589011D01*
G01X2092342Y-2664186D01*
G01X2041613Y-2664186D01*
G03X2006600Y-2692466I0J-35814D01*
G03X1971587Y-2664186I-35013J-7534D01*
G01X1890940Y-2664186D01*
G03X1855524Y-2694673I0J-35814D01*
G01X1787987Y-2694673D01*
G03X1753199Y-2667373I-34787J-8514D01*
G01X1673200Y-2667373D01*
G03X1638297Y-2695159I0J-35814D01*
G03X1632693Y-2682607I-34897J-8054D01*
G01X1632693Y-2578059D01*
G03X1647693Y-2548914I-20814J29145D01*
G01X1647693Y-2468914D01*
G03X1631436Y-2438912I-35814J0D01*
G03X1647693Y-2408909I-19557J30002D01*
G01X1647693Y-2328909D01*
G03X1611879Y-2293095I-35814J0D01*
G01X1521879Y-2293095D01*
G03X1486065Y-2328909I0J-35814D01*
G01X1486065Y-2408909D01*
G03X1502322Y-2438912I35814J0D01*
G03X1486065Y-2468914I19557J-30002D01*
G01X1486065Y-2548914D01*
G03X1501065Y-2578059I35814J0D01*
G01X1501065Y-2675217D01*
G03X1487587Y-2703213I22335J-27996D01*
G01X1487587Y-2783213D01*
G03X1497780Y-2808237I35814J0D01*
G03X1516864Y-2849749I65621J5025D01*
G01X2157586Y-3490472D01*
G01X2157586Y-3695072D01*
G03X2157586Y-3711350I65813J-8139D01*
G01X2157586Y-4063210D01*
G03X2176863Y-4109747I65813J0D01*
G01X2398240Y-4331124D01*
G03X2362010Y-4401373I29213J-59533D01*
G03X2343188Y-4432899I16992J-31526D01*
G01X2343188Y-4584101D01*
G03X2379002Y-4619915I35814J0D01*
G01X2577503Y-4619915D01*
G03X2613317Y-4584101I0J35814D01*
G01X2613317Y-4432899D01*
G03X2613107Y-4429022I-35814J0D01*
G01X2736138Y-4429022D01*
G01X2962699Y-4655584D01*
G01X2939306Y-4655584D01*
G03X2903492Y-4691398I0J-35814D01*
G01X2903492Y-4709566D01*
G03X2760975Y-4793226I-46703J-83661D01*
G01X2760975Y-4873226D01*
G03X2779523Y-4929886I95814J0D01*
G01X2031136Y-4929886D01*
G03X1996832Y-4944095I0J-48514D01*
G01X1787542Y-5153386D01*
G01X1749450Y-5153386D01*
G01X1749450Y-5100095D01*
G01X1766731Y-5082814D01*
G01X1817460Y-5082814D01*
G03X1853274Y-5047000I0J35814D01*
G01X1853274Y-4960600D01*
G03X1817460Y-4924786I-35814J0D01*
G01X1736813Y-4924786D01*
G03X1701800Y-4953066I0J-35814D01*
G03X1666787Y-4924786I-35013J-7534D01*
G01X1586140Y-4924786D01*
G03X1550326Y-4960600I0J-35814D01*
G01X1550326Y-5047000D01*
G03X1586140Y-5082814I35814J0D01*
G01X1652422Y-5082814D01*
G01X1652422Y-5153386D01*
G01X1586140Y-5153386D01*
G03X1550326Y-5189200I0J-35814D01*
G01X1550326Y-5275600D01*
G03X1586140Y-5311414I35814J0D01*
G01X1661470Y-5311414D01*
G03X1666632Y-5317505I39466J28214D01*
G01X1692032Y-5342905D01*
G03X1726336Y-5357114I34305J34305D01*
G01X1827936Y-5357114D01*
G03X1862241Y-5342905I0J48514D01*
G01X2127432Y-5077714D01*
G01X3267697Y-5077714D01*
G03X3302002Y-5063505I0J48514D01*
G01X3498611Y-4866896D01*
G03X3506119Y-4857194I-34305J34305D01*
G01X3510760Y-4857194D01*
G03X3545809Y-4948461I68532J-26045D01*
G03X3640399Y-4923747I33483J65222D01*
G03X3817625Y-4873226I81412J50521D01*
G01X3817625Y-4793226D01*
G03X3675116Y-4709561I-95814J0D01*
G01X3675116Y-4691383D01*
G03X3639302Y-4655569I-35814J0D01*
G01X3595143Y-4655569D01*
G01X3595143Y-4649142D01*
G03X3575867Y-4602606I-65813J0D01*
G01X3455831Y-4482570D01*
G03X3409295Y-4463294I-46537J-46537D01*
G01X3169295Y-4463294D01*
G03X3122759Y-4482570I0J-65813D01*
G01X3049295Y-4556034D01*
G01X2809935Y-4316673D01*
G03X2763398Y-4297397I-46537J-46537D01*
G01X2550659Y-4297397D01*
G01X2439576Y-4186314D01*
G01X3632261Y-4186314D01*
G03X3678798Y-4167037I0J65814D01*
G01X3716222Y-4129614D01*
G01X3716222Y-4420499D01*
G03X3733302Y-4461734I58315J0D01*
G01X3999883Y-4728315D01*
G01X3999883Y-5161046D01*
G03X3995710Y-5160802I-4173J-35570D01*
G01X3950708Y-5160802D01*
G03X3914894Y-5196616I0J-35814D01*
G01X3914894Y-5251618D01*
G03X3950708Y-5287432I35814J0D01*
G01X3995710Y-5287432D01*
G03X4015703Y-5281331I0J35814D01*
G03X4035697Y-5287432I19994J29714D01*
G01X4080698Y-5287432D01*
G03X4116512Y-5251618I0J35814D01*
G01X4116512Y-5148314D01*
G01X4142352Y-5122474D01*
G01X4242812Y-5122474D01*
G03X4322013Y-5334519I79201J-91232D01*
G03X4401214Y-5122474I0J120814D01*
G01X4492799Y-5122474D01*
G03X4555875Y-5333438I79201J-91232D01*
G03X4672515Y-5146677I16125J119733D01*
G01X4705960Y-5180122D01*
G03X4907440Y-5299134I116052J-33583D01*
G03X4788429Y-5097653I-85428J85428D01*
G01X4713701Y-5022925D01*
G03X4672466Y-5005845I-41235J-41235D01*
G01X4118197Y-5005845D01*
G01X4116512Y-5005869D01*
G01X4116512Y-4704160D01*
G03X4099432Y-4662925I-58315J0D01*
G01X4034065Y-4597559D01*
G03X4056995Y-4599508I22929J133864D01*
G01X4136995Y-4599508D01*
G03X4136995Y-4327881I0J135814D01*
G01X4056995Y-4327881D01*
G03X3923130Y-4486624I0J-135814D01*
G01X3832851Y-4396344D01*
G01X3832851Y-4095260D01*
G01X3924797Y-4003314D01*
G01X3951060Y-4003314D01*
G03X3978832Y-3990114I0J35814D01*
G01X4291736Y-3990114D01*
G03X4338274Y-3970837I0J65814D01*
G01X4407397Y-3901714D01*
G01X4433660Y-3901714D01*
G03X4469474Y-3865900I0J35814D01*
G01X4469474Y-3779500D01*
G03X4459150Y-3754342I-35814J0D01*
G01X4459150Y-3543214D01*
G01X4486243Y-3543214D01*
G03X4509607Y-3623147I61221J-25486D01*
G03X4592674Y-3617214I37856J54447D01*
G01X4937106Y-3617214D01*
G03X4972595Y-3648211I35489J4817D01*
G01X5222594Y-3648211D01*
G03X5258408Y-3612397I0J35814D01*
G01X5258408Y-3502397D01*
G03X5222594Y-3466583I-35814J0D01*
G01X4972595Y-3466583D01*
G03X4936781Y-3502397I0J-35814D01*
G01X4936781Y-3520186D01*
G01X4654057Y-3520186D01*
G03X4656417Y-3507400I-33454J12786D01*
G01X4656417Y-3393214D01*
G01X4938452Y-3393214D01*
G03X4972595Y-3418214I34142J10814D01*
G01X5222594Y-3418214D01*
G03X5258408Y-3382400I0J35814D01*
G01X5258408Y-3272400D01*
G03X5222594Y-3236586I-35814J0D01*
G01X4972595Y-3236586D01*
G03X4938452Y-3261586I0J-35814D01*
G01X4656417Y-3261586D01*
G01X4656417Y-3147400D01*
G03X4620603Y-3111586I-35814J0D01*
G01X4390619Y-3111586D01*
G01X4390619Y-3012434D01*
G03X4413636Y-3020811I23017J27438D01*
G01X4500037Y-3020811D01*
G03X4535851Y-2984997I0J35814D01*
G01X4535851Y-2904349D01*
G03X4507571Y-2869336I-35814J0D01*
G03X4535851Y-2834324I-7534J35013D01*
G01X4535851Y-2783595D01*
G01X4611573Y-2707873D01*
G03X4660694Y-2683429I-2336J66273D01*
G03X4674589Y-2630350I-51458J41829D01*
G01X4825634Y-2630350D01*
G03X4872172Y-2611074I0J65814D01*
G01X4908928Y-2574318D01*
G01X4932486Y-2574318D01*
G01X4932486Y-2638500D01*
G03X4968300Y-2674314I35814J0D01*
G01X4982286Y-2674314D01*
G01X4982286Y-3006589D01*
G01X4972595Y-3006589D01*
G03X4936781Y-3042403I0J-35814D01*
G01X4936781Y-3152403D01*
G03X4972595Y-3188217I35814J0D01*
G01X5222594Y-3188217D01*
G03X5258408Y-3152403I0J35814D01*
G01X5258408Y-3042403D01*
G03X5222594Y-3006589I-35814J0D01*
G01X5079314Y-3006589D01*
G01X5079314Y-2674314D01*
G01X5093301Y-2674314D01*
G03X5109171Y-2670605I0J35814D01*
G03X5132485Y-2684814I45428J48309D01*
G01X5132485Y-2733496D01*
G03X5168299Y-2769310I35814J0D01*
G01X5293300Y-2769310D01*
G03X5307233Y-2766489I0J35814D01*
G01X5304648Y-5361940D01*
G01X3773413Y-5361940D01*
G03X3817625Y-5281209I-51602J80731D01*
G01X3817625Y-5221209D01*
G03X3625997Y-5221209I-95814J0D01*
G01X3625997Y-5281209D01*
G03X3670209Y-5361940I95814J0D01*
G01X1704683Y-4584101D02*
G03X1740497Y-4619915I35814J0D01*
G01X1938998Y-4619915D01*
G03X1974812Y-4584101I0J35814D01*
G01X1974812Y-4432899D01*
G03X1938998Y-4397085I-35814J0D01*
G01X1740497Y-4397085D01*
G03X1704683Y-4432899I0J-35814D01*
G01X1704683Y-4584101D01*
G01X5007005Y-4599508D02*
G01X5087005Y-4599508D01*
G03X5087005Y-4327881I0J135814D01*
G01X5007005Y-4327881D01*
G03X5007005Y-4599508I0J-135814D01*
G01X2253506Y-1924919D02*
G03X2250510Y-1927401I40789J-52286D01*
G01X2250510Y-1536700D01*
G03X2214696Y-1500886I-35814J0D01*
G01X1457659Y-1500886D01*
G01X1420678Y865886D01*
G01X2578367Y865886D01*
G01X2578367Y862599D01*
G03X2614181Y826785I35814J0D01*
G01X3884181Y826785D01*
G03X3919995Y862599I0J35814D01*
G01X3919995Y865886D01*
G01X5310850Y865886D01*
G01X5307693Y-2305003D01*
G01X5247414Y-2244758D01*
G01X5247414Y-2212030D01*
G03X5225951Y-2179217I-35814J0D01*
G03X5215437Y-2165493I-57051J-32813D01*
G01X5178825Y-2128880D01*
G03X5191914Y-2101200I-22725J27680D01*
G01X5191914Y-1861200D01*
G03X5156100Y-1825386I-35814J0D01*
G01X4826100Y-1825386D01*
G03X4806414Y-1831282I0J-35814D01*
G01X4806414Y-1786184D01*
G01X4830600Y-1786184D01*
G03X4864100Y-1763034I0J35814D01*
G03X4897600Y-1786184I33500J12664D01*
G01X4957600Y-1786184D01*
G03X4991100Y-1763034I0J35814D01*
G03X5024600Y-1786184I33500J12664D01*
G01X5084600Y-1786184D01*
G03X5118100Y-1763034I0J35814D01*
G03X5151600Y-1786184I33500J12664D01*
G01X5211600Y-1786184D01*
G03X5247414Y-1750370I0J35814D01*
G01X5247414Y-1630370D01*
G03X5211600Y-1594556I-35814J0D01*
G01X5174868Y-1594556D01*
G01X5070007Y-1489695D01*
G03X5035702Y-1475486I-34305J-34305D01*
G01X4903493Y-1475486D01*
G03X4904973Y-1463700I-64793J14122D01*
G01X4949205Y-1419468D01*
G03X4963414Y-1385164I-34305J34305D01*
G01X4963414Y-1104900D01*
G03X4949205Y-1070595I-48514J0D01*
G01X4918057Y-1039448D01*
G03X4921014Y-1025200I-32858J14248D01*
G01X4921014Y-905200D01*
G03X4885200Y-869386I-35814J0D01*
G01X4670019Y-869386D01*
G01X4670019Y-811027D01*
G01X4885200Y-811027D01*
G03X4921014Y-775213I0J35814D01*
G01X4921014Y-655213D01*
G03X4885200Y-619399I-35814J0D01*
G01X4670019Y-619399D01*
G01X4670019Y-225715D01*
G01X4711103Y-225715D01*
G03X4746917Y-189901I0J35814D01*
G01X4746917Y-38699D01*
G03X4711103Y-2885I-35814J0D01*
G01X4512602Y-2885D01*
G03X4476788Y-38699I0J-35814D01*
G01X4476788Y-189901D01*
G03X4512602Y-225715I35814J0D01*
G01X4572991Y-225715D01*
G01X4572991Y-1084595D01*
G03X4562378Y-1159831I48514J-45210D01*
G03X4629386Y-1195649I59127J30026D01*
G01X4629386Y-1252510D01*
G01X3096177Y280699D01*
G03X3251213Y324180I55036J101901D01*
G03X3467026Y382600I100000J58420D01*
G03X3251213Y441020I-115814J0D01*
G03X3094477Y483565I-100000J-58420D01*
G03X3049311Y327564I56736J-100965D01*
G01X3015123Y361753D01*
G03X2819308Y464493I-113922J20847D01*
G03X2922048Y268678I81893J-81893D01*
G01X4532312Y-1341586D01*
G01X4515498Y-1341586D01*
G01X4003207Y-829295D01*
G03X3968902Y-815086I-34305J-34305D01*
G01X3706574Y-815086D01*
G03X3644900Y-590386I-61674J103886D01*
G03X3583226Y-815086I0J-120814D01*
G01X3452574Y-815086D01*
G03X3390900Y-590386I-61674J103886D01*
G03X3329226Y-815086I0J-120814D01*
G01X3198574Y-815086D01*
G03X3136900Y-590386I-61674J103886D01*
G03X3075226Y-815086I0J-120814D01*
G01X2998329Y-815086D01*
G03X3003714Y-796200I-30430J18886D01*
G01X3003714Y-626200D01*
G03X2967900Y-590386I-35814J0D01*
G01X2797900Y-590386D01*
G03X2762086Y-626200I0J-35814D01*
G01X2762086Y-796200D01*
G03X2767471Y-815086I35814J0D01*
G01X2744112Y-815086D01*
G03X2679167Y-800291I-45210J-48514D01*
G01X2679167Y-213015D01*
G01X2729903Y-213015D01*
G03X2765717Y-177201I0J35814D01*
G01X2765717Y-25999D01*
G03X2729903Y9815I-35814J0D01*
G01X2531402Y9815D01*
G03X2495588Y-25999I0J-35814D01*
G01X2495588Y-177201D01*
G03X2531402Y-213015I35814J0D01*
G01X2582139Y-213015D01*
G01X2582139Y-1960152D01*
G01X2525109Y-2017182D01*
G01X2525109Y-1999205D01*
G03X2519961Y-1980705I-35814J0D01*
G03X2525109Y-1962205I-30666J18500D01*
G01X2525109Y-1872205D01*
G03X2519961Y-1853705I-35814J0D01*
G03X2525109Y-1835205I-30666J18500D01*
G01X2525109Y-1745205D01*
G03X2489295Y-1709391I-35814J0D01*
G01X2339296Y-1709391D01*
G03X2303482Y-1745205I0J-35814D01*
G01X2303482Y-1835205D01*
G03X2308630Y-1853705I35814J0D01*
G03X2303482Y-1872205I30666J-18500D01*
G01X2303482Y-1874944D01*
G01X2253506Y-1924919D01*
G01X1735602Y4614D02*
G01X1655602Y4614D01*
G03X1625600Y-11643I0J-35814D01*
G03X1595598Y4614I-30002J-19557D01*
G01X1515598Y4614D01*
G03X1479784Y-31200I0J-35814D01*
G01X1479784Y-121200D01*
G03X1515598Y-157014I35814J0D01*
G01X1595598Y-157014D01*
G03X1625600Y-140757I0J35814D01*
G03X1655602Y-157014I30002J19557D01*
G01X1735602Y-157014D01*
G03X1771244Y-124714I0J35814D01*
G01X1857083Y-124714D01*
G01X1857083Y-177201D01*
G03X1892897Y-213015I35814J0D01*
G01X2091398Y-213015D01*
G03X2127212Y-177201I0J35814D01*
G01X2127212Y-25999D01*
G03X2091398Y9815I-35814J0D01*
G01X1892897Y9815D01*
G03X1857083Y-25999I0J-35814D01*
G01X1857083Y-27686D01*
G01X1771244Y-27686D01*
G03X1735602Y4614I-35641J-3514D01*
G01X2060014Y-850900D02*
G03X1865014Y-793957I-105814J0D01*
G01X1865014Y-780900D01*
G03X1829200Y-745086I-35814J0D01*
G01X1679200Y-745086D01*
G03X1643386Y-780900I0J-35814D01*
G01X1643386Y-920900D01*
G03X1679200Y-956714I35814J0D01*
G01X1829200Y-956714D01*
G03X1865014Y-920900I0J35814D01*
G01X1865014Y-907843D01*
G03X2060014Y-850900I89186J56943D01*
G01X2802014Y507600D02*
G01X2802014Y657600D01*
G03X2530386Y657600I-135814J0D01*
G01X2530386Y507600D01*
G03X2802014Y507600I135814J0D01*
G01X2930406Y582600D02*
G03X3122033Y582600I95814J0D01*
G03X2930406Y582600I-95814J0D01*
G01X3380392Y582600D02*
G03X3572020Y582600I95814J0D01*
G03X3380392Y582600I-95814J0D01*
G01X3717013Y382600D02*
G03X3485385Y382600I-115814J0D01*
G03X3717013Y382600I115814J0D01*
G01X3972014Y507600D02*
G01X3972014Y657600D01*
G03X3700386Y657600I-135814J0D01*
G01X3700386Y507600D01*
G03X3972014Y507600I135814J0D01*
G01X3838283Y-189901D02*
G03X3874097Y-225715I35814J0D01*
G01X4072598Y-225715D01*
G03X4108412Y-189901I0J35814D01*
G01X4108412Y-38699D01*
G03X4072598Y-2885I-35814J0D01*
G01X3874097Y-2885D01*
G03X3838283Y-38699I0J-35814D01*
G01X3838283Y-189901D01*
G01X5014374Y-625196D02*
G03X5176004Y-625196I80815J0D01*
G03X5014374Y-625196I-80815J0D01*
G01X5014374Y-1305204D02*
G03X5176004Y-1305204I80815J0D01*
G03X5014374Y-1305204I-80815J0D01*
G54D11*
G01X5047005Y-4363949D02*
G01X5047005Y-4338041D01*
G01X5047005Y-4563440D02*
G01X5047005Y-4589348D01*
G01X4907260Y-4463694D02*
G01X4881352Y-4463694D01*
G01X5186751Y-4463694D02*
G01X5212659Y-4463694D01*
G01X4322013Y-5298451D02*
G01X4322013Y-5324359D01*
G01X4237267Y-5213706D02*
G01X4211359Y-5213706D01*
G01X4406759Y-5213706D02*
G01X4432667Y-5213706D01*
G01X4096995Y-4363949D02*
G01X4096995Y-4338041D01*
G01X4096995Y-4563440D02*
G01X4096995Y-4589348D01*
G01X3957249Y-4463694D02*
G01X3931341Y-4463694D01*
G01X4236740Y-4463694D02*
G01X4262648Y-4463694D01*
G01X3836200Y757345D02*
G01X3836200Y783253D01*
G01X3836200Y407854D02*
G01X3836200Y381946D01*
G01X3736454Y582600D02*
G01X3710546Y582600D01*
G01X3935946Y582600D02*
G01X3961854Y582600D01*
G01X3721811Y-4932972D02*
G01X3721811Y-4958880D01*
G01X3721811Y-4733480D02*
G01X3721811Y-4707572D01*
G01X3781557Y-4833226D02*
G01X3807465Y-4833226D01*
G01X3721811Y-5161463D02*
G01X3721811Y-5135555D01*
G01X3781557Y-5251209D02*
G01X3807465Y-5251209D01*
G01X3662065Y-5251209D02*
G01X3636157Y-5251209D01*
G01X3601199Y462346D02*
G01X3601199Y488254D01*
G01X3601199Y302854D02*
G01X3601199Y276946D01*
G01X3521453Y382600D02*
G01X3495545Y382600D01*
G01X3680945Y382600D02*
G01X3706853Y382600D01*
G01X2882900Y-626454D02*
G01X2882900Y-600546D01*
G01X2967646Y-711200D02*
G01X2993554Y-711200D01*
G01X2798154Y-711200D02*
G01X2772246Y-711200D01*
G01X2856789Y-5161463D02*
G01X2856789Y-5135555D01*
G01X2916535Y-5251209D02*
G01X2942443Y-5251209D01*
G01X2797043Y-5251209D02*
G01X2771135Y-5251209D01*
G01X2856789Y-4733480D02*
G01X2856789Y-4707572D01*
G01X2797043Y-4833226D02*
G01X2771135Y-4833226D01*
G01X2666200Y757345D02*
G01X2666200Y783253D01*
G01X2666200Y407854D02*
G01X2666200Y381946D01*
G01X2566454Y582600D02*
G01X2540546Y582600D01*
G01X2765946Y582600D02*
G01X2791854Y582600D01*
G01X1954200Y-781154D02*
G01X1954200Y-755246D01*
G01X1954200Y-920646D02*
G01X1954200Y-946554D01*
G01X2023946Y-850900D02*
G01X2049854Y-850900D01*
G01X5054600Y-1750116D02*
G01X5054600Y-1776024D01*
G01X5054600Y-2331776D02*
G01X5054600Y-2357684D01*
G01X4991100Y-1861454D02*
G01X4991100Y-1835546D01*
G01X5155846Y-1981200D02*
G01X5181754Y-1981200D01*
G01X4770854Y-2272030D02*
G01X4744946Y-2272030D01*
G01X4665454Y-1215187D02*
G01X4639546Y-1215187D01*
G01X4775200Y-1155441D02*
G01X4775200Y-1129533D01*
G01X4775200Y-1274933D02*
G01X4775200Y-1300841D01*
G01X2999283Y-2377462D02*
G01X2999283Y-2351554D01*
G01X3139288Y-2377462D02*
G01X3139288Y-2351554D01*
G01X3324038Y-2422207D02*
G01X3349946Y-2422207D01*
G01X3279292Y-2377462D02*
G01X3279292Y-2351554D01*
G01X3324038Y-2562212D02*
G01X3349946Y-2562212D01*
G01X3139288Y-2746963D02*
G01X3139288Y-2772871D01*
G01X2999283Y-2746963D02*
G01X2999283Y-2772871D01*
G01X3324038Y-2702217D02*
G01X3349946Y-2702217D01*
G01X3279292Y-2746963D02*
G01X3279292Y-2772871D01*
G01X3973209Y-5251364D02*
G01X3973209Y-5277272D01*
G01X3973209Y-5196870D02*
G01X3973209Y-5170962D01*
G01X3950962Y-5224117D02*
G01X3925054Y-5224117D01*
G01X4164305Y-1745459D02*
G01X4164305Y-1719551D01*
G01X4239050Y-1790205D02*
G01X4264958Y-1790205D01*
G01X4499783Y-2944673D02*
G01X4525691Y-2944673D01*
G01X4456836Y-2984743D02*
G01X4456836Y-3010651D01*
G01X3609315Y-4691637D02*
G01X3609315Y-4665729D01*
G01X3429864Y-3967246D02*
G01X3429864Y-3993154D01*
G01X3429864Y-3881354D02*
G01X3429864Y-3855446D01*
G01X3389794Y-3924300D02*
G01X3363886Y-3924300D01*
G01X3973347Y-189647D02*
G01X3973347Y-215555D01*
G01X3973347Y-38953D02*
G01X3973347Y-13045D01*
G01X4072344Y-114300D02*
G01X4098252Y-114300D01*
G01X3874351Y-114300D02*
G01X3848443Y-114300D01*
G01X4387698Y-1467146D02*
G01X4387698Y-1493054D01*
G01X4347952Y-1422400D02*
G01X4322044Y-1422400D01*
G01X1822746Y-2368398D02*
G01X1848654Y-2368398D01*
G01X1733254Y-2368398D02*
G01X1707346Y-2368398D01*
G01X1778000Y-2328652D02*
G01X1778000Y-2302744D01*
G01X1555598Y-120946D02*
G01X1555598Y-146854D01*
G01X1555598Y-31454D02*
G01X1555598Y-5546D01*
G01X1515852Y-76200D02*
G01X1489944Y-76200D01*
G01X2414295Y-1745459D02*
G01X2414295Y-1719551D01*
G01X2489041Y-1790205D02*
G01X2514949Y-1790205D01*
G01X2339550Y-1790205D02*
G01X2313642Y-1790205D01*
G01X1839747Y-4583847D02*
G01X1839747Y-4609755D01*
G01X1839747Y-4433153D02*
G01X1839747Y-4407245D01*
G01X1938744Y-4508500D02*
G01X1964652Y-4508500D01*
G01X1740751Y-4508500D02*
G01X1714843Y-4508500D01*
G01X1626464Y-5046746D02*
G01X1626464Y-5072654D01*
G01X1626464Y-4960854D02*
G01X1626464Y-4934946D01*
G01X1586394Y-5003800D02*
G01X1560486Y-5003800D01*
G01X2025946Y-2368398D02*
G01X2051854Y-2368398D01*
G01X1936454Y-2368398D02*
G01X1910546Y-2368398D01*
G01X1981200Y-2328652D02*
G01X1981200Y-2302744D01*
G01X1522133Y-2368909D02*
G01X1496225Y-2368909D01*
G01X1611625Y-2368909D02*
G01X1637533Y-2368909D01*
G01X1566879Y-2329163D02*
G01X1566879Y-2303255D01*
G01X1626464Y-5275346D02*
G01X1626464Y-5301254D01*
G01X1626464Y-5189454D02*
G01X1626464Y-5163546D01*
G01X1586394Y-5232400D02*
G01X1560486Y-5232400D01*
G04 Copper End*

G04 Pad Start*
G54D12*
G01X2414295Y-1790205D03*
G01X2414295Y-1917205D03*
G01X2414295Y-2044205D03*
G01X2414295Y-2171205D03*
G01X2414295Y-2298205D03*
G01X2414295Y-2425205D03*
G01X2414295Y-2552205D03*
G01X2414295Y-2679205D03*
G01X2414295Y-2806205D03*
G01X2414295Y-2933205D03*
G01X2414295Y-3060205D03*
G01X2414295Y-3187205D03*
G01X2414295Y-3314205D03*
G01X2414295Y-3441205D03*
G54D13*
G01X2590800Y-3569195D03*
G01X2717800Y-3569195D03*
G01X2844800Y-3569195D03*
G01X2971800Y-3569195D03*
G01X3098800Y-3569195D03*
G01X3225800Y-3569195D03*
G01X3352800Y-3569195D03*
G01X3479800Y-3569195D03*
G01X3606800Y-3569195D03*
G01X3733800Y-3569195D03*
G01X3860800Y-3569195D03*
G01X3987800Y-3566198D03*
G54D12*
G01X4164305Y-3441205D03*
G01X4164305Y-3314205D03*
G01X4164305Y-3187205D03*
G01X4164305Y-3060205D03*
G01X4164305Y-2933205D03*
G01X4164305Y-2806205D03*
G01X4164305Y-2679205D03*
G01X4164305Y-2552205D03*
G01X4164305Y-2425205D03*
G01X4164305Y-2298205D03*
G01X4164305Y-2171205D03*
G01X4164305Y-2044205D03*
G01X4164305Y-1917205D03*
G01X4164305Y-1790205D03*
G54D14*
G01X3279292Y-2702217D03*
G01X3139288Y-2702217D03*
G01X2999283Y-2702217D03*
G01X2999283Y-2422207D03*
G01X3139288Y-2422207D03*
G01X3279292Y-2422207D03*
G01X3279292Y-2562212D03*
G01X2999283Y-2562212D03*
G01X3139288Y-2562212D03*
G54D16*
G01X4527702Y-1422400D03*
G01X4387698Y-1422400D03*
G54D17*
G01X1566879Y-2508914D03*
G01X1566879Y-2368909D03*
G01X1981200Y-2368398D03*
G01X1981200Y-2508402D03*
G54D16*
G01X1695602Y-76200D03*
G01X1555598Y-76200D03*
G54D17*
G01X1778000Y-2368398D03*
G01X1778000Y-2508402D03*
G54D18*
G01X3973209Y-5224117D03*
G01X4058197Y-5224117D03*
G54D19*
G01X2882900Y-711200D03*
G54D20*
G01X3136900Y-711200D03*
G01X3390900Y-711200D03*
G01X3644900Y-711200D03*
G54D21*
G01X1563400Y-2743213D03*
G01X1713200Y-2743187D03*
G54D22*
G01X5230800Y-2698496D03*
G01X5230800Y-2508504D03*
G01X5030800Y-2603500D03*
G54D23*
G01X2312264Y-4000500D03*
G01X2462936Y-4000500D03*
G01X1931264Y-2743200D03*
G01X2081936Y-2743200D03*
G54D24*
G01X4456836Y-2794000D03*
G01X4456836Y-2944673D03*
G54D23*
G01X3910736Y-3924300D03*
G01X3760064Y-3924300D03*
G01X3580536Y-3924300D03*
G01X3429864Y-3924300D03*
G01X1777136Y-5232400D03*
G01X1626464Y-5232400D03*
G01X1777136Y-5003800D03*
G01X1626464Y-5003800D03*
G01X4393336Y-3822700D03*
G01X4242664Y-3822700D03*
G54D24*
G01X2183536Y-2362200D03*
G01X2183536Y-2512873D03*
G54D20*
G01X4822012Y-5213706D03*
G01X4572000Y-5213706D03*
G01X4322013Y-5213706D03*
G54D25*
G01X4096995Y-4463694D03*
G01X5047005Y-4463694D03*
G54D24*
G01X4457700Y-2413864D03*
G01X4457700Y-2564536D03*
G01X4457700Y-2045564D03*
G01X4457700Y-2196236D03*
G54D26*
G01X4775200Y-1215187D03*
G01X4775200Y-965200D03*
G01X4775200Y-715213D03*
G54D27*
G01X1992147Y-101600D03*
G01X2630653Y-101600D03*
G01X3973347Y-114300D03*
G01X4611853Y-114300D03*
G01X1839747Y-4508500D03*
G01X2478253Y-4508500D03*
G54D28*
G01X1754200Y-850900D03*
G54D29*
G01X1954200Y-850900D03*
G54D30*
G01X4800600Y-2272030D03*
G01X4927600Y-2272030D03*
G01X5054600Y-2272030D03*
G01X5181600Y-2272030D03*
G01X5181600Y-1690370D03*
G01X5054600Y-1690370D03*
G01X4927600Y-1690370D03*
G01X4800600Y-1690370D03*
G54D31*
G01X4991100Y-1981200D03*
G54D32*
G01X5097595Y-3557397D03*
G01X5097595Y-3327400D03*
G01X5097595Y-3097403D03*
G54D33*
G01X4503603Y-3327400D03*
G54D34*
G01X2666200Y582600D03*
G01X3836200Y582600D03*
G54D35*
G01X3601199Y382600D03*
G01X3351213Y382600D03*
G01X3151213Y382600D03*
G01X2901201Y382600D03*
G54D36*
G01X3114294Y-4756391D03*
G01X3164307Y-4756391D03*
G01X3214294Y-4756391D03*
G01X3264306Y-4756391D03*
G01X3314294Y-4756391D03*
G01X3364306Y-4756391D03*
G01X3414268Y-4756391D03*
G01X3464306Y-4756391D03*
G54D37*
G01X2969304Y-4756391D03*
G54D38*
G01X3609301Y-4756381D03*
G54D39*
G01X3529316Y-4756381D03*
G54D40*
G01X3049304Y-4756398D03*
G54D41*
G01X3721811Y-5251209D03*
G54D42*
G01X3721811Y-4833226D03*
G01X2856789Y-4833226D03*
G54D41*
G01X2856789Y-5251209D03*
G04 Pad End*

G04 Via Start*
G54D43*
G01X2285136Y-2540000D03*
G01X4876800Y-1588770D03*
G01X4609236Y-2641600D03*
G01X4812436Y-2387600D03*
G01X4553102Y-1498600D03*
G01X4781702Y-1574800D03*
G01X2698902Y-863600D03*
G01X4166464Y-3670300D03*
G01X4547464Y-3568700D03*
G01X5154600Y-2622296D03*
G01X4951400Y-2419096D03*
G01X4660900Y-1842364D03*
G01X4838700Y-1461364D03*
G01X2795295Y-2882405D03*
G01X3021305Y-3441205D03*
G01X2538705Y-3923805D03*
G01X2427453Y-4390657D03*
G01X3402305Y-926605D03*
G01X3656305Y-926605D03*
G01X2294296Y-1977205D03*
G01X2268532Y-2337204D03*
G01X2312264Y-3580933D03*
G01X4621505Y-1460005D03*
G01X4621505Y-1129805D03*
G01X2846095Y-4025405D03*
G01X3340506Y-4609605D03*
G01X3328695Y-952005D03*
G01X2744495Y-4025405D03*
G01X3201695Y-4609605D03*
G01X3049295Y-926605D03*
G01X2541295Y-2155114D03*
G01X2261895Y-2459914D03*
G01X2223399Y-3703211D03*
G01X4443395Y-2638842D03*
G01X5054600Y-2272030D03*
G01X4648200Y-2235200D03*
G01X5257800Y-1968500D03*
G01X4241800Y-1447800D03*
G01X4749800Y-1092200D03*
G01X3467100Y-4318000D03*
G01X3175000Y-3898900D03*
G01X1828800Y-2641600D03*
G01X1968500Y-2984500D03*
G01X2273300Y-3175000D03*
G01X2997200Y-2425700D03*
G01X2527300Y-1346200D03*
G01X2730500Y-1371600D03*
G01X2768600Y-2260600D03*
G04 Via End*

G04 Track Start*
G54D11*
G01X1713200Y-2743187D02*
G01X1931251Y-2743187D01*
G01X2081936Y-2743200D02*
G01X2285136Y-2540000D01*
G01X4876800Y-1588770D02*
G01X4876800Y-1639570D01*
G01X4927600Y-1690370D01*
G01X4456836Y-2794000D02*
G01X4609236Y-2641600D01*
G01X4837836Y-2387600D02*
G01X4914036Y-2311400D01*
G01X4914036Y-2285594D01*
G01X4927600Y-2272030D01*
G01X4527702Y-1473200D02*
G01X4553102Y-1498600D01*
G01X4781702Y-1574800D02*
G01X4832502Y-1524000D01*
G01X5035702Y-1524000D01*
G01X5181600Y-1669898D02*
G01X5181600Y-1690370D01*
G01X3968902Y-863600D02*
G01X2698902Y-863600D01*
G01X3760064Y-3924300D02*
G01X3580536Y-3924300D01*
G01X3760064Y-3924300D02*
G01X4014064Y-3670300D01*
G01X4547464Y-3568700D02*
G01X5086292Y-3568700D01*
G01X5097595Y-3557397D01*
G01X1777136Y-5003800D02*
G01X1700936Y-5080000D01*
G01X1700936Y-5283200D01*
G01X1726336Y-5308600D01*
G01X1827936Y-5308600D01*
G01X2107336Y-5029200D01*
G01X1777136Y-5232400D02*
G01X2031136Y-4978400D01*
G01X3018498Y-4978400D01*
G01X3164307Y-4832591D01*
G01X3164307Y-4756391D01*
G01X1695602Y-76200D02*
G01X1966747Y-76200D01*
G01X1992147Y-101600D01*
G01X5030800Y-2603500D02*
G01X5030800Y-3030609D01*
G01X5097595Y-3097403D01*
G01X5230800Y-2698496D02*
G01X5154600Y-2622296D01*
G01X4513732Y-2469896D02*
G01X4457700Y-2413864D01*
G01X4457700Y-2196236D01*
G01X4838700Y-1461364D02*
G01X4914900Y-1385164D01*
G01X4914900Y-1104900D02*
G01X4775200Y-965200D01*
G01X2414295Y-2171205D02*
G01X2465095Y-2171205D01*
G01X2820695Y-2526805D02*
G01X2820695Y-2857005D01*
G01X2795295Y-2882405D01*
G01X4037305Y-2425205D02*
G01X3021305Y-3441205D01*
G01X2427453Y-4390657D02*
G01X2427453Y-4457700D01*
G01X4164305Y-2044205D02*
G01X4113505Y-2044205D01*
G01X3402305Y-1333005D01*
G01X4113505Y-1917205D02*
G01X3656305Y-1460005D01*
G54D44*
G01X2414295Y-1917205D02*
G01X2354296Y-1917205D01*
G01X2294296Y-1977205D01*
G01X2268532Y-2337204D02*
G01X2208533Y-2337204D01*
G01X2183536Y-2362200D01*
G01X2037334Y-2508402D01*
G01X1981200Y-2508402D01*
G01X1778000Y-2508402D01*
G01X2312264Y-4000500D02*
G01X2432263Y-4120500D01*
G01X3632261Y-4120500D01*
G01X3692261Y-4060500D01*
G01X3910736Y-3924300D02*
G01X4291736Y-3924300D01*
G01X4393336Y-3822700D01*
G01X4393336Y-3437666D01*
G01X4503603Y-3327400D01*
G01X5097595Y-3327400D01*
G54D45*
G01X3774537Y-4060500D02*
G01X3774537Y-4420499D01*
G01X4058197Y-5124159D02*
G01X4118197Y-5064159D01*
G01X4672466Y-5064159D01*
G54D11*
G01X4242664Y-3519564D02*
G01X4242664Y-3822700D01*
G01X4621505Y-1536205D02*
G01X4621505Y-1460005D01*
G01X4621505Y-1129805D02*
G01X4621505Y-123952D01*
G01X4611853Y-114300D01*
G01X2414295Y-3441205D02*
G01X2515895Y-3542805D01*
G01X3340506Y-4609605D02*
G01X3365906Y-4635005D01*
G01X3340506Y-4857991D02*
G01X3289706Y-4857991D01*
G01X3264306Y-4832591D01*
G01X2414295Y-3441205D02*
G01X2465095Y-3441205D01*
G01X2922295Y-2984005D01*
G01X2922295Y-1358405D02*
G01X3328695Y-952005D01*
G01X2338095Y-3314205D02*
G01X2287295Y-3365005D01*
G01X2287295Y-3492005D02*
G01X2312695Y-3517405D01*
G01X2338095Y-3517405D01*
G01X2465095Y-3644405D01*
G01X3201695Y-4609605D02*
G01X3201695Y-4635005D01*
G01X3214294Y-4647603D01*
G01X3314294Y-4671403D02*
G01X3314294Y-4756391D01*
G01X2414295Y-3314205D02*
G01X2465095Y-3314205D01*
G01X2871495Y-2907805D01*
G01X2871495Y-1104405D02*
G01X3049295Y-926605D01*
G01X2414295Y-2044205D02*
G01X2465095Y-2095005D01*
G01X2515895Y-2095005D02*
G01X2541295Y-2120405D01*
G01X2541295Y-2155114D01*
G01X2261895Y-2459914D02*
G01X2236495Y-2459914D01*
G01X2183536Y-2512873D01*
G01X2515895Y-2095005D02*
G01X2630653Y-1980247D01*
G54D44*
G01X1566879Y-2508914D02*
G01X1566879Y-2739734D01*
G01X1563400Y-2743213D01*
G54D46*
G01X1563400Y-2743213D02*
G01X1563400Y-2803213D01*
G01X2223399Y-3463211D01*
G01X2223399Y-4063210D02*
G01X2523399Y-4363209D01*
G01X2763398Y-4363209D02*
G01X3049295Y-4649107D01*
G01X3169295Y-4529107D01*
G01X3409295Y-4529107D01*
G54D44*
G01X4443395Y-2638842D02*
G01X4443395Y-2578842D01*
G01X4800600Y-2152030D02*
G01X4740600Y-2092030D01*
G01X4740600Y-1750370D01*
G01X4800600Y-1690370D01*
G01X4740600Y-1690370D01*
G01X4680600Y-1630370D01*
G01X4680600Y-1510370D01*
G01X4708993Y-1481977D01*
G01X4708993Y-1425192D01*
G01X2901201Y382600D01*
G54D45*
G01X4058197Y-4704160D02*
G01X4058197Y-5124159D01*
G54D44*
G01X4825634Y-2564536D02*
G01X4881667Y-2508504D01*
G01X4457700Y-2564536D02*
G01X4825634Y-2564536D01*
G54D46*
G01X3409295Y-4529107D02*
G01X3529330Y-4649142D01*
G54D11*
G01X2871495Y-2907805D02*
G01X2871495Y-1104405D01*
G01X3214294Y-4647603D02*
G01X3290494Y-4647603D01*
G01X3214294Y-4647603D02*
G01X3214294Y-4756391D01*
G01X2287295Y-3365005D02*
G01X2287295Y-3492005D01*
G01X2414295Y-3314205D02*
G01X2338095Y-3314205D01*
G01X2922295Y-2984005D02*
G01X2922295Y-1358405D01*
G01X3365906Y-4635005D02*
G01X3365906Y-4832591D01*
G01X3340506Y-4857991D01*
G01X4342105Y-1815605D02*
G01X4621505Y-1536205D01*
G01X4342105Y-3314205D02*
G01X4342105Y-1815605D01*
G01X4189705Y-3466605D02*
G01X4342105Y-3314205D01*
G54D45*
G01X4672466Y-5064159D02*
G01X4822012Y-5213706D01*
G01X4058197Y-5124159D02*
G01X4058197Y-5224117D01*
G01X3774537Y-4420499D02*
G01X4058197Y-4704160D01*
G54D44*
G01X3774537Y-4060500D02*
G01X3910736Y-3924300D01*
G01X2312264Y-3580933D02*
G01X2312264Y-4000500D01*
G54D11*
G01X3656305Y-1460005D02*
G01X3656305Y-926605D01*
G01X3402305Y-1333005D02*
G01X3402305Y-926605D01*
G01X2538705Y-3924732D02*
G01X2462936Y-4000500D01*
G01X4164305Y-2425205D02*
G01X4037305Y-2425205D01*
G01X2465095Y-2171205D02*
G01X2820695Y-2526805D01*
G01X4914900Y-1385164D02*
G01X4914900Y-1104900D01*
G01X4457700Y-2045564D02*
G01X4660900Y-1842364D01*
G01X3267697Y-5029200D02*
G01X3464306Y-4832591D01*
G01X4014064Y-3670300D02*
G01X4166464Y-3670300D01*
G01X4812436Y-2387600D02*
G01X4837836Y-2387600D01*
G54D44*
G01X3692261Y-4060500D02*
G01X3774537Y-4060500D01*
G54D46*
G01X2523399Y-4363209D02*
G01X2763398Y-4363209D01*
G01X2223399Y-3703211D02*
G01X2223399Y-4063210D01*
G01X2223399Y-3463211D02*
G01X2223399Y-3703211D01*
G54D44*
G01X4881667Y-2508504D02*
G01X5181666Y-2508504D01*
G01X5230800Y-2508504D01*
G01X4443395Y-2578842D02*
G01X4457700Y-2564536D01*
G54D46*
G01X3529330Y-4649142D02*
G01X3529330Y-4756391D01*
G01X3049295Y-4649107D02*
G01X3049295Y-4756391D01*
G54D11*
G01X2630653Y-1980247D02*
G01X2630653Y-101600D01*
G01X2465095Y-2095005D02*
G01X2515895Y-2095005D01*
G01X3290494Y-4647603D02*
G01X3314294Y-4671403D01*
G01X3264306Y-4832591D02*
G01X3264306Y-4756391D01*
G01X4189705Y-3466605D02*
G01X4242664Y-3519564D01*
G01X4164305Y-3441205D02*
G01X4189705Y-3466605D01*
G01X4164305Y-1917205D02*
G01X4113505Y-1917205D01*
G01X2427453Y-4457700D02*
G01X2478253Y-4508500D01*
G01X4824400Y-2469896D02*
G01X4513732Y-2469896D01*
G01X4951400Y-2419096D02*
G01X4875200Y-2419096D01*
G01X4824400Y-2469896D01*
G01X3464306Y-4832591D02*
G01X3464306Y-4756391D01*
G01X2107336Y-5029200D02*
G01X3267697Y-5029200D01*
G01X5035702Y-1524000D02*
G01X5181600Y-1669898D01*
G01X4527702Y-1422400D02*
G01X4527702Y-1473200D01*
G01X4527702Y-1422400D02*
G01X3968902Y-863600D01*
G54D44*
G01X2969311Y-4756391D02*
G01X2892476Y-4833226D01*
G01X2856789Y-4833226D01*
G01X2999283Y-2562212D02*
G01X3139288Y-2562212D01*
G01X2999283Y-2562212D02*
G01X2999283Y-2422207D01*
G01X2999283Y-2702217D02*
G01X2999283Y-2562212D01*
G01X4800600Y-2272030D02*
G01X4685030Y-2272030D01*
G01X4648200Y-2235200D01*
G01X5257800Y-1968500D02*
G01X5245100Y-1981200D01*
G01X4991100Y-1981200D01*
G01X5181600Y-2272030D02*
G01X5168900Y-2259330D01*
G01X5168900Y-2212030D01*
G01X5108900Y-2152030D01*
G01X4800600Y-2152030D01*
G01X5181666Y-2508504D02*
G01X5279580Y-2410535D01*
G01X5279569Y-2369944D01*
G01X5181600Y-2272030D01*
G01X4387698Y-1422400D02*
G01X4267200Y-1422400D01*
G01X4241800Y-1447800D01*
G01X4749800Y-1092200D02*
G01X4775200Y-1117600D01*
G01X4775200Y-1215187D01*
G01X3609315Y-4756391D02*
G01X3609315Y-4460215D01*
G01X3467100Y-4318000D01*
G01X3175000Y-3898900D02*
G01X3200400Y-3924300D01*
G01X3429864Y-3924300D01*
G01X1981200Y-2368398D02*
G01X1926395Y-2423202D01*
G01X1917477Y-2423202D01*
G01X1902477Y-2438203D01*
G01X1856723Y-2438203D01*
G01X1841723Y-2423202D01*
G01X1714277Y-2423202D01*
G01X1687800Y-2449680D01*
G01X1687800Y-2567125D01*
G01X1714277Y-2593602D01*
G01X1780802Y-2593602D01*
G01X1828800Y-2641600D01*
G01X1968500Y-2984500D02*
G01X2082800Y-2984500D01*
G01X2273300Y-3175000D01*
G01X2414295Y-1790205D02*
G01X2527300Y-1677200D01*
G01X2527300Y-1346200D01*
G01X2730500Y-1371600D02*
G01X2730500Y-2222500D01*
G01X2768600Y-2260600D01*
G54D11*
G01X2515895Y-3695205D02*
G01X2846095Y-4025405D01*
G01X2515895Y-3542805D02*
G01X2515895Y-3695205D01*
G01X2465095Y-3746005D02*
G01X2744495Y-4025405D01*
G01X2465095Y-3644405D02*
G01X2465095Y-3746005D01*
G04 Track End*

M02*

